<svg xmlns="http://www.w3.org/2000/svg" width="320" height="414" viewBox="0 0 320 414">
    <defs>
        <filter id="prefix__a" width="120.7%" height="115.7%" x="-10.3%" y="-7.9%" filterUnits="objectBoundingBox">
            <feOffset dy="6" in="SourceAlpha" result="shadowOffsetOuter1"/>
            <feGaussianBlur in="shadowOffsetOuter1" result="shadowBlurOuter1" stdDeviation="5"/>
            <feColorMatrix in="shadowBlurOuter1" result="shadowMatrixOuter1" values="0 0 0 0 0 0 0 0 0 0 0 0 0 0 0 0 0 0 0.146416084 0"/>
            <feMerge>
                <feMergeNode in="shadowMatrixOuter1"/>
                <feMergeNode in="SourceGraphic"/>
            </feMerge>
        </filter>
    </defs>
    <g fill="none" fill-rule="evenodd" filter="url(#prefix__a)" transform="translate(10 4)">
        <path fill="#F4F9FF" d="M271.278 394H28.723C12.86 394 0 381.182 0 365.37V71.63C0 55.82 12.86 43 28.723 43h242.555C287.14 43 300 55.819 300 71.63v293.74c0 15.812-12.86 28.63-28.722 28.63"/>
        <path fill="#C9F3EB" d="M137 253L160 253 160 248 137 248zM45 297L183 297 183 289 45 289zM45 339L157 339 157 331 45 331zM45 317L111 317 111 309 45 309zM52.288 226.046H48V254h29.538v-4.283h-25.25v-23.67zm192.424 0v23.671h-25.25V254H249v-27.954h-4.288zM48 103.946h4.288V80.281h25.25V76H48v27.945zM219.463 76v4.282h25.25v23.663H249V76h-29.537zM236.5 292.935c-11.34 0-20.565 9.225-20.565 20.565 0 11.34 9.226 20.565 20.565 20.565s20.564-9.226 20.564-20.565c0-11.34-9.225-20.565-20.564-20.565m0 46.065c-14.06 0-25.5-11.44-25.5-25.5 0-14.061 11.44-25.5 25.5-25.5s25.5 11.439 25.5 25.5c0 14.06-11.44 25.5-25.5 25.5"/>
        <path fill="#C9F3EB" d="M234.399 324L223 312.622 226.434 309.194 234.399 317.145 245.566 306 249 309.427z"/>
        <path fill="#1B435E" d="M240 210h-28.351c-1.866-13.6-4.159-29.126-4.159-29.126s-1.146 12.812-2.54 29.126H91.5c-1.034-14.67-2.281-25.647-2.73-25.872-.652-.327-4.697 12.688-8.058 25.872H50c7.9-34.09 22.632-88.785 31.15-92.062C93.273 113.266 142.718 98 142.718 98h28.216s50.141 14.332 54.805 29.914C229.448 140.332 237.629 181.28 240 210"/>
        <path fill="#E7B2B6" d="M158.366 6.25s26.212 4.175 22.22 45.641c-3.99 41.467-27.124 38.068-28.67 38.026-1.547-.042-23.225.756-24.915-49.872 0 0-.737-37.438 31.365-33.796"/>
        <path fill="#EAA9AD" d="M171.002 77.406s-.72 16.716.916 20.335c1.637 3.619-21.69 15.243-35.918 2.29 0 0 3.436-18.167 2.48-24.606-.955-6.439 32.522 1.981 32.522 1.981"/>
        <path fill="#E7B2B6" d="M181.638 39.37s3.086-3.108 4.218.039c1.132 3.147-4.788 17.21-4.401 17.84 0 0-.564 1.221-1.304.55-.741-.672 1.487-18.429 1.487-18.429M126.864 39.414s-2.663-3.155-3.717-.04c-1.054 3.117 3.907 17.24 3.555 17.862 0 0 .475 1.227 1.14.571.664-.657-.978-18.393-.978-18.393"/>
        <path fill="#123045" d="M181.445 46.555l-3.782 5.08s.107-11.137-.5-12.884c-.606-1.745-1.534-7.08-2.042-8.338-.507-1.258-22.682-7.502-42.268 1.823 0 0 .86 8.008-1.016 8.72-1.878.713-.957 13.044-.957 13.044l-3.11-3.526s-4.758-31.948-3.583-35.278c1.175-3.33 4.92-23.35 45.104-11.466 0 0 12.527-2.666 15.042 6.025 2.514 8.691-2.888 36.8-2.888 36.8"/>
        <path fill="#EAA9AD" d="M172.372 98.126s6.003 1.257-19.118 24.874c0 0-17.817-19.335-17.24-22.573.577-3.238 36.358-2.3 36.358-2.3"/>
        <path fill="#1D232F" d="M153 122.47L159.807 134 180 100.041 171.256 94zM153 123.336L136.407 97 127 103.031 143.866 135z"/>
        <path fill="#1D232F" d="M147.203 196.01c.212 3.881.306 8.642.317 13.99h-.976c-.011-5.325-.105-10.075-.317-13.945-1.599-29.2 5.773-64.729 5.82-73.055l.953.18c-.048 8.327-7.396 43.755-5.797 72.83"/>
        <path fill="#D99A9E" d="M141 84s6.288 6.892 15.172 5.054S169 83 169 83s-3.507 9.115-13.777 9.95C144.953 93.783 141 84 141 84"/>
    </g>
</svg>
