<svg xmlns="http://www.w3.org/2000/svg" width="991" height="863" viewBox="0 0 991 863">
    <defs>
        <linearGradient id="prefix__a" x1="0%" x2="100%" y1="87.885%" y2="12.115%">
            <stop offset="0%" stop-color="#2CCCCC"/>
            <stop offset="100%" stop-color="#0CEFA5"/>
        </linearGradient>
        <linearGradient id="prefix__b" x1="50%" x2="50%" y1="100%" y2="-.007%">
            <stop offset="0%" stop-color="gray" stop-opacity=".25"/>
            <stop offset="53.514%" stop-color="gray" stop-opacity=".12"/>
            <stop offset="100%" stop-color="gray" stop-opacity=".1"/>
        </linearGradient>
        <linearGradient id="prefix__c" x1=".013%" x2="99.987%" y1="100%" y2="0%">
            <stop offset="0%" stop-color="#2CCCCC"/>
            <stop offset="100%" stop-color="#0CEFA5"/>
        </linearGradient>
        <linearGradient id="prefix__d" x1="50%" x2="50%" y1="99.997%" y2="0%">
            <stop offset="0%" stop-color="gray" stop-opacity=".25"/>
            <stop offset="53.514%" stop-color="gray" stop-opacity=".12"/>
            <stop offset="100%" stop-color="gray" stop-opacity=".1"/>
        </linearGradient>
        <linearGradient id="prefix__e" x1=".013%" x2="99.987%" y1="100%" y2="0%">
            <stop offset="0%" stop-color="#2CCCCC"/>
            <stop offset="100%" stop-color="#0CEFA5"/>
        </linearGradient>
        <linearGradient id="prefix__f" x1="50%" x2="50%" y1="100%" y2="0%">
            <stop offset="0%" stop-color="gray" stop-opacity=".25"/>
            <stop offset="53.514%" stop-color="gray" stop-opacity=".12"/>
            <stop offset="100%" stop-color="gray" stop-opacity=".1"/>
        </linearGradient>
    </defs>
    <g fill="none" fill-rule="evenodd">
        <path fill="url(#prefix__a)" d="M989.888 272.167c-5.092 0-7.641 1.711-13.579.859-5.943-.859-10.203-5.953-16.999-8.503-6.789-2.537-12.726 1.698-16.973 3.396-4.26 1.705-8.513 1.705-12.753-3.396-4.136-4.97-10.658-13.928-6.282-14.41-4.604-4.027-12.258-6.48-18.358-5.126-7.628 1.698-7.628-5.94-2.543-9.349 5.099-3.396-5.95-8.51-11.036-10.2-5.098-1.699-14.443-13.584-16.153-17.845-1.691-4.242-7.641-11.88-11.869-19.543-4.26-7.644-6.815-9.336-13.585-10.188-6.808-.852-7.673 3.39-11.907 8.483-4.253 5.12-9.345 5.12-13.591 3.416-4.253-1.711-11.03-10.201-13.598-14.436-2.55-4.255-5.086-5.1-9.339-3.396-3.03 1.19-8.252-1.503-10.97-3.136-2.082.761-3.961 1.548-5.17 2.277-4.234 2.557-10.185-.846-15.283-1.71-5.092-.853-13.598-5.947-16.986-7.658-3.401-1.704-12.753-7.638-17-10.162-4.233-2.57-7.621.84-12.726 1.698-5.105.826-5.957 2.524-9.358 5.927-3.369 3.383-6.79 2.537-12.76 3.383-5.924.865-13.539-8.484-17.811-13.577-4.234-5.114-5.944-3.403-11.036-.86-5.086 2.57-5.944 5.953-10.197 9.362-4.227 3.39-10.19 0-11.894-3.409-1.691-3.383 0-7.65-3.402-8.496-3.388-.846-5.93 2.544-10.177 5.972-4.253 3.383-6.79-6.818-10.177-10.233-3.415-3.396-2.576-11.027-1.724-16.14.846-5.094-3.394-9.336-7.654-12.725-4.24-3.403-17.825-5.953-25.46-9.356-7.667-3.395-18.716-21.24-21.239-30.589-2.556-9.342-12.733-13.597-17.006-18.697-2.243-2.7-7.803-12.087-12.57-20.298.618 1.94.982 3.026.982 3.026s-7.94-11.327-15.861-16.993c-7.934-5.673-15.836-10.207-24.927-9.062-9.072 1.138-18.137 0-26.038 5.666-7.928 5.66-18.125 7.917-30.565 5.66-12.48-2.264-20.394 3.402-27.196-4.541-6.796-7.93-16.987-22.653-24.914-13.59-7.927 9.056-13.585 15.867-14.73 22.665-1.131 6.792-5.65 26.055-10.19 33.98-4.526 7.923-1.138 23.797 3.395 30.595 4.545 6.798 6.796 9.056 6.796 18.131v18.118s-3.402-9.062-7.921-13.597c-4.526-4.52 0 0-9.066-2.27-9.052-2.25-9.052 0-14.697-7.917-5.69-7.944-10.21-19.263-18.13-13.604-7.94 5.66-11.329 4.528-11.329 12.472 0 7.917 0 13.59-2.27 19.256-2.276 5.66 4.514 11.34 9.06 4.535 4.539-6.805 6.789-1.145 7.946 9.062 1.112 10.188 0 14.716-5.69 21.52-5.658 6.799-11.316 11.34-19.236 3.384-7.94-7.924-5.678-15.829-15.868-15.829-10.184 0-15.861-13.622-9.046-15.88 6.796-2.257 14.71 4.548 18.098-2.257 3.414-6.805 4.533-11.333 0-19.257-4.513-7.95-6.782-18.15-10.177-22.665-3.401-4.541-12.454 0-12.454-10.201 0-10.194 2.244-12.452-5.677-14.735 0 0-9.04-3.383-15.848-3.383-6.79 0-13.592-3.403-18.124 1.138-4.513 4.528-20.394 2.245-27.183 5.654-6.79 3.395-28.302 12.451-35.104 9.068-6.79-3.415-19.243-6.792-27.183-4.54-7.928 2.263-24.907 0-31.697 6.798-6.795 6.798-19.281 15.86-23.801 22.665-4.507 6.799-3.388 10.201 3.401 14.716 6.796 4.54 4.54 9.069-5.658 7.937-10.197-1.132-10.197 0-12.473 9.062-2.237 9.056-2.237 18.125-5.644 27.194-3.382 9.075-5.658 23.797 6.795 26.042 12.46 2.277 31.703-1.12 37.38 1.17 5.645 2.258 1.112 0 0 9.037-1.131 9.062 0 15.86-4.545 20.401-4.52 4.535 2.27 5.667 1.144 14.736-1.144 9.049-4.545 3.383-6.796 11.326-2.263 7.924-1.118 11.326 1.132 22.652 2.27 11.32 5.664 28.32 0 38.527-5.67 10.194-13.579 29.444-20.4 37.374-6.79 7.963-10.184 22.679-9.066 32.867 1.151 10.207-3.394 26.061-3.394 30.59 0 4.514 0 18.143-7.908 13.576-7.921-4.502-13.605-2.25-21.526-4.502-7.933-2.283-13.585-6.824-19.236-4.56-5.677 2.277-20.4-1.125-20.4 6.811 0 7.918-1.125 14.736 2.27 16.993 3.394 2.27 7.914 4.534 1.124 7.937-6.789 3.396-7.92 2.264-7.92 9.05 0 6.798 0 16.998 5.644 19.275 5.678 2.264 20.4 7.911 27.196 10.188 6.796 2.277 18.118 5.653 19.243 1.132 1.145-4.528 7.921-14.722 9.072-5.653 1.138 9.049 7.927 20.382 11.322 22.633 3.395 2.27 4.513 13.622 0 19.276-4.513 5.666-10.184 21.533-7.934 24.916 2.263 3.403 7.934 6.805 7.934 6.805s-.254.26-.709.644c3.707.04 8.006-.54 9.761-3.2 3.408-5.081 18.697-4.249 23.795-5.081 5.099-.879 22.085-2.55 28.022-8.503 5.944-5.96 19.536-13.604 24.647-16.986 5.099-3.41 9.326-5.947 15.276-9.355 5.944-3.396 5.099-4.255 6.802-7.645 1.691-3.402 4.247-5.12-1.703-9.348-5.944-4.248 0-5.953 1.703-10.2 1.691-4.262 4.247-8.517 9.358-5.095 5.08 3.383 6.77 6.792 11.023 8.503 4.234 1.685 1.698 6.792 3.414 11.88 1.685 5.1 5.944 5.958 10.171 6.791 4.24.859 5.944 3.422 9.339 5.966 3.408 2.556 8.506 2.556 11.92 0 3.382-2.544 11.023-1.705 13.56 2.556 2.561 4.223 1.71 11.886 6.795 13.584 5.098 1.711 5.97 6.792-1.697 7.644-7.635.866-5.931 5.1-4.24 8.516 1.703 3.37 2.536 3.37 0 8.483-2.55 5.094.851 10.201-4.253 12.738-5.092 2.544-6.783 5.094 0 9.349 6.789 4.261 11.061 5.953 16.16 5.1 5.092-.839 4.227 2.564 2.517 8.497-1.678 5.94.858 9.348-6.79 11.905-7.634 2.557-8.493 2.557-13.578 6.785-5.092 4.248-5.957 5.094 0 8.503 5.944 3.396 5.085 10.207 11.042 8.51 5.937-1.699 9.326-3.41 11.9-6.818 2.544-3.39 6.79-3.39 13.573-2.557 6.796.865 11.9.865 17.006-1.698 5.091-2.544 4.246-5.081 8.493-10.168 4.233-5.114 5.098-9.355 11.029-8.523 5.95.859 11.894-1.691 14.437 1.711 2.556 3.396 10.203 8.497 11.894 3.396 1.697-5.107 3.408-8.503 9.352-11.046 5.957-2.55 15.282-5.933 13.578-10.201-1.69-4.248-5.944-4.248-9.325-6.811-3.414-2.538-1.71-1.692 0-8.47 1.704-6.8 5.098-28.053 1.704-31.455-3.415-3.39-4.28-5.088-5.118-11.027-.84-5.947-6.783-10.208-12.734-11.912-5.956-1.698-11.048-5.088-12.733-9.349-1.71-4.248-6.802-11.879 0-11.879 6.777 0 8.48 2.544 15.276 1.685 6.802-.846 11.894 1.71 13.605-4.242 1.704-5.946-4.253-8.503.832-11.898 5.099-3.396 5.099-7.651 9.345-7.651 4.253 0 .852 5.96 8.48 4.255 7.674-1.698 9.345-1.698 14.47-5.094 5.092-3.403 7.628-3.403 11.874 0 4.253 3.396.859 8.49 4.253 13.583 3.395 5.114 4.24 12.758 2.55 16.154-1.717 3.39-4.247 8.477 3.388 11.046 7.648 2.55 20.387 5.094 27.196 1.692 6.783-3.39 19.522-.859 20.374-7.65.865-6.8 5.944-7.632 8.493-14.437 2.556-6.805 4.24-10.2 9.332-11.053 5.086-.845 10.21-3.376 14.457.853 4.253 4.254.858 8.509-3.395 11.046-4.26 2.55-3.4 7.664.859 10.181 4.24 2.55 4.24 6.799.832 11.06-3.408 4.255-5.092 16.153-11.875 16.992-6.802.84-10.21 1.698-12.759 7.645-2.536 5.959-5.944 10.207-2.536 13.583 3.388 3.422 3.388 7.67 9.325 10.208 5.97 2.556 12.753 4.26 9.358 6.811-3.388 2.55-7.66 3.39-6.789 6.785.826 3.403 0 5.953-3.4 7.65-3.409 1.699-3.409 7.652-2.57 10.215.865 2.537 3.401 5.068 11.908 5.068 8.506 0 14.43-.84 16.114 3.415 1.717 4.248-.82 6.824 0 10.2.885 3.403 6.816 6.786 6.816 6.786s.858 9.355 1.69 14.462c.852 5.094 1.704 11.027-.832 15.295-2.569 4.255 1.684 11.886 8.48 6.805 6.802-5.114 11.888 0 11.888 5.933 0 5.946 2.569 11.053 6.79 11.053 4.252 0 5.956 5.946 5.956 12.744 0 6.805 5.957 6.805 14.45 5.94 8.493-.846 6.802 6.798 3.401 11.886-3.401 5.113 1.704 3.409 1.704 8.509 0 5.107-4.273 9.355-7.648 11.886-3.427 2.563-3.427 5.946-2.555 11.905.838 5.96 5.93 10.181 1.697 14.442-4.253 4.242-9.345 7.658-4.253 11.912 3.414 2.837 7.94 3.012 10.58 2.817 2.44-1.945 5.912-4.196 8.409-3.688 4.22.871 3.947 8.509 8.187 8.509 4.253 0 7.655.846 12.747-1.692 5.092-2.556 11.894-3.402 12.746.846.852 4.255 7.647 9.349 10.184 11.047 2.562 1.698 1.703 9.355-4.227 6.798-5.957-2.563-10.217-1.711-7.668 1.717 2.563 3.377 5.099 6.78 0 5.94-5.085-.859 1.71 4.235-2.549 7.631-4.227 3.396-3.394 7.65-.832 10.201 2.542 2.55 5.944 11.04 5.092 14.43-.852 3.415 4.253 5.12 1.697 10.207-2.55 5.087-1.697 5.94-7.635 6.798-5.97.846-6.808 3.396-7.667 7.657-.839 4.248-2.543 8.483 3.414 11.866 5.931 3.41 20.375 7.677 22.937 11.08 2.536 3.395 6.776 7.637 11.036 3.395 4.24-4.254 7.634-6.798 1.703-9.342-5.963-2.57-8.506-7.67-8.506-10.207 0-2.544.859-.852 5.95-4.235 5.093-3.429 10.185-5.114 11.895-9.368 1.69-4.261 7.654-6.786 8.5-3.396.845 3.396 2.542 6.811 2.542 6.811s-1.697-8.503 2.55-10.2c4.24-1.718 5.943-.86 9.332 1.697 3.095 2.303 4.701 5.986 4.987 9.186 4.43-1.502 12.376-4.482 14.002-6.915 2.256-3.396 8.486-9.069 11.874-9.641 3.395-.58 7.375-.58 11.335 0 3.948.572 11.329-1.692 13.04-5.667 1.69-3.968 1.124-10.188 3.934-11.34 2.835-1.125 5.098 5.12 9.624 1.712 4.54-3.41 9.085-6.226 11.894-9.641 2.836-3.396 3.98-4.522 7.94-6.792 3.961-2.258 5.093-2.817 5.659-7.371.572-4.496.572-10.194 3.96-11.873 3.395-1.71 8.5-1.71 11.335-1.71 2.842 0 9.631 1.697 11.868 4.527 2.29 2.843 7.94 8.503 11.9 6.239 3.974-2.251 3.422-6.239 6.81-7.943 3.4-1.692 5.098-1.692 7.914 1.132 2.835 2.836 10.776.572 7.362-3.383-3.376-3.982-6.21-3.982-5.652-7.937.566-3.956 2.276-5.1 6.217-7.358 2.218-1.256 2.673-3.045 3.525-4.287l-2.387-7.631c-.852-7.631 0-15.275-5.079-19.524-5.098-4.248-10.203-9.361-11.9-14.442-1.71-5.114-5.95-14.456-3.388-21.247 2.523-6.799 3.388-6.799 8.486-11.893 5.092-5.113 9.339-11.06 4.234-15.294-5.105-4.249-8.487-5.12-5.105-9.355 3.414-4.255 4.266-5.94-1.685-8.484-5.93-2.543-14.443-5.1-12.746-11.066 1.704-5.952.852-2.537 7.648-2.537 6.783 0 6.783 1.685 11.049-4.255 4.233-5.946 6.783-7.63 14.45-8.496 7.615-.859 22.078 0 28.848-1.704 6.815-1.692 11.068.845 17.844-2.557 6.79-3.39 6.79-5.927 2.55-10.181-4.228-4.242-2.55-7.651 4.24-8.497 6.802-.852 8.506-2.543 11.9-7.65 3.388-5.081 7.654-11.9 0-13.597-7.628-1.692-5.93-7.644-3.394-10.188 2.536-2.55 10.197-2.55 11.048-5.1.846-2.544-.851-4.261-5.943-8.51-5.105-4.248-8.5-7.63-7.642-11.885.833-4.255 3.402-11.906-1.697-14.462-5.098-2.531-4.272-4.222 3.395-5.946 7.621-1.685 13.585-10.188 7.621-13.578-5.917-3.402-9.319-7.657-15.288-11.046-5.931-3.396-12.727-10.2-11.862-16.986.826-6.792 0-7.657 5.93-8.503 5.932-.852 9.333-.852 9.333-.852s-7.641-4.255-10.19-10.214c-2.543-5.94-4.247-11.02-3.395-15.282.852-4.248 4.253-11.04 5.944-13.61 1.703-2.517-3.389-5.074-9.326-1.685-5.97 3.403-7.654-5.946-10.19-11.046-2.563-5.094-11.062-12.738-11.062-12.738-.84-3.396-10.178-8.522-11.05-12.758-.825-4.248-6.782-17.005-5.936-23.778.858-6.804.858-13.616 9.345-14.455 8.5-.865 16.14 1.698 22.097-.865 5.931-2.537 7.635-3.396 10.178-7.625 2.555-4.248 1.716-11.06 7.647-11.899 5.938-.858 17.825-2.556 17.825-2.556s5.964 6.805 8.5 5.113c2.575-1.717 3.414-4.255 8.506-1.717 5.112 2.556 11.868 9.355 15.296 8.503 3.381-.846 2.542 0 8.473-1.692 5.95-1.704 10.204-1.704 13.598-5.094 3.401-3.415 8.506-5.965 12.733-9.361 4.273-3.383 6.81-5.94 11.062-6.805 4.247-.826-2.562-4.229.84-9.33 3.407-5.1 5.95-14.448 5.95-14.448s4.252 4.241 6.789 2.537c2.562-1.679 6.795-4.235 6.795-7.631 0-1.906 2.68-5.127 5.001-7.618-.227 0-.474-.046-.754-.046"/>
        <path fill="#2BCDCC" fill-rule="nonzero" d="M564.016 568.973s-9.21-6.872-18.337-1.984c0 0 2.812 6.125 14.364 5.541l3.973-3.557z"/>
        <path fill="#2BCDCC" fill-rule="nonzero" d="M565.242 568.901s3.085 10.915-4.647 18.34c0 0-4.656-4.502-.037-15.523l4.684-2.817zM576.852 558.822s-.677-8.734-21.088-5.837c0 0-.096 5.635 7.07 8.305 7.167 2.67 10.443.42 14.018-2.468zM576.768 559.732s7.841 2.67.85 21.09c0 0-5.173-1.224-6.09-8.552-.916-7.327 1.84-9.868 5.24-12.538zM588.758 546.905s1.194-15.214-20.126-13.652c0 0-1.515 13.77 16.364 17.31l3.762-3.658zM602.523 530.106s-2.765-16.575-22.92-11.635c0 0-.077 14.331 19.629 15.586l3.291-3.951zM611.691 513.576s-4.657-16.583-24.754-11.593c0 0 4.782 14.881 23.42 14.65l1.334-3.057zM620.86 496.283s-4.532-16.745-23.838-11.717c0 0 6.443 15.906 22.568 14.567l1.27-2.85zM627.278 481.472s-3.419-21.098-21.088-16.43c0 0 5.133 19.192 19.785 19.5l1.303-3.07zM632.779 461.288s-4.11-21.222-22.004-15.05c0 0 7.025 20.054 20.756 17.98l1.248-2.93zM637.363 443.789s-6.755-20.305-21.087-19.756c0 0 6.908 21.448 19.89 23.83l1.197-4.074zM639.197 426.616s-7.445-24.558-19.254-22.662c0 0 5.154 18.769 18.834 26.487l.42-3.825zM640.113 405.868s-7.207-20.46-19.253-21.275c0 0 4.905 20.13 18.987 26.592l.266-5.317zM641.947 385.88s-8.753-20.09-16.503-20.543c0 0 3.803 19.78 15.73 23.841l.773-3.298zM642.864 369.18s-5.264-22.176-12.836-24.016c0 0 1.036 18.14 12.075 25.675l.761-1.66zM644.698 345.414s-5.222-17.72-11.002-20.423c0 0 1.142 20.894 9.661 24.758l1.34-4.335zM648.028 329.578l1.254-31.179s-12.838 23.53-2.2 36.679l.946-5.5zM656.499 298.705s8.225-22.873 10.203-24.146c0 0-16.136 14.836-14.561 33.927l4.358-9.781z"/>
        <path fill="#2BCDCC" fill-rule="nonzero" d="M589.514 545.108s15.292-1.951 14.833 19.12c0 0-13.818 2.194-18.327-15.228l3.494-3.892zM603.167 529.472s17.178-.056 15.778 20.984c0 0-14.415 2.52-19.172-17.012l3.394-3.972zM611.217 514.316s15.384-7.075 25.23 11.185c0 0-14.212 5.897-26.59-8.237l1.36-2.948zM622.129 497.095s15.374-7.4 24.402 10.138c0 0-16.015 5.445-25.671-7.365l1.269-2.773zM627.046 480.819s14.917-14.427 26.82.163c0 0-15.238 11.871-27.505 3.049l.685-3.212zM631.482 461.377s15.093-14.331 26.968.66c0 0-16.94 11.761-27.505 2.348l.537-3.008zM635.53 443.299s11.37-19.284 24.754-14.983c0 0-11.796 20.429-24.628 19.518l-.127-4.535zM638.577 425.728s11.638-22.593 22.624-18.67c0 0-8.38 17.36-22.921 22.466l.297-3.796zM640.33 404.17s11.725-17.91 22.704-15.724c0 0-9.58 18.16-23.837 20.905l1.133-5.182zM640.113 385.772s9.608-20.256 17.42-20.435c0 0-4.615 20.12-16.773 23.841l-.647-3.406zM641.947 368.147s10.47-20.192 18.337-20.232c0 0-5.358 17.265-17.988 22.007l-.349-1.775zM643.78 346.255s8.027-16.63 14.67-18.513c0 0-4.013 20.265-13.787 22.924l-.882-4.411z"/>
        <path fill="#2BCDCC" fill-rule="nonzero" d="M649.101 329.025l17.6-26.958s-4.509 26.592-20.17 32.094l2.57-5.136zM660.45 301.075s20.19-13.356 20.921-15.513c0 0-10.3 18.706-29.339 22.007l8.417-6.494zM661.767 293.815s23.651-21.112 29.69-21.09c0 0-19.505.828-30.256 19.965l.566 1.125z"/>
        <path fill="#444053" fill-rule="nonzero" d="M643.78 349.64l.87.109c4.478-34.229 11.007-54.457 18.384-56.96l-.287-.808c-7.82 2.652-14.379 22.59-18.966 57.66z"/>
        <path fill="#444053" fill-rule="nonzero" d="M637.363 431.25l1.251.108c.263-3.191.466-6.458.603-9.71 1.193-28.288 3.045-54.26 5.48-73.734l-.725-.916c-2.44 19.51-4.815 46.271-6.01 74.595-.136 3.234-.337 6.483-.6 9.657z"/>
        <path fill="#444053" fill-rule="nonzero" d="M539.942 585.407c.222-.098 22.494-10.068 45.61-33.852 13.54-13.92 24.793-29.902 33.34-47.353 10.687-21.816 17.201-48.632 19.388-74.678l-1.319.621c-4.907 58.462-31.457 98.432-52.568 120.172-22.891 23.572-44.912 33.44-45.132 33.537l.68 1.553z"/>
        <path fill="#F9F9F9" fill-rule="nonzero" d="M548.43 304.033V580.58c0 8.225-7.935 14.912-17.731 14.912H155.417c-9.797 0-17.731-6.687-17.731-14.912V304.033c0-8.24 7.934-16.637 17.73-16.637H530.7c9.796 0 17.73 8.397 17.73 16.637z"/>
        <path fill="#1B435E" fill-rule="nonzero" d="M548.43 305.191v43.641H137.686v-43.64c0-4.72 1.866-9.248 5.192-12.586 3.325-3.337 7.836-5.212 12.539-5.21h375.282c4.703-.002 9.213 1.873 12.539 5.21 3.325 3.338 5.192 7.865 5.192 12.585z"/>
        <ellipse cx="159.232" cy="318.114" fill="#FFF" fill-rule="nonzero" rx="11.46" ry="11.462"/>
        <ellipse cx="194.988" cy="318.114" fill="#FFF" fill-rule="nonzero" rx="11.46" ry="11.462"/>
        <ellipse cx="228.911" cy="318.114" fill="#FFF" fill-rule="nonzero" rx="11.46" ry="11.462"/>
        <path fill="url(#prefix__b)" fill-rule="nonzero" d="M237.604 594.637s-11.474 2.771-16.016 7.953c-1.7 1.756-3.793 3.083-6.108 3.874v-7.836c2.623-4.4 5.271-9.293 5.271-9.293.12-.241 1.076-3.615 1.076-3.615 2.152-1.687-.12-7.592-.12-7.592s1.315-3.735.598-4.458c-.717-.723-.12-2.65.478-3.494.436-.812.603-1.74.478-2.651 0-.723-.956-1.808-2.51-2.41-1.553-.603.12-1.567 1.076-1.808.956-.24 1.195-2.53.12-3.735-1.076-1.205.12-1.928.717-3.254.597-1.325-1.913-1.084-1.913-1.084v-12.168l.002-.001s-.718-3.977-1.435-10.968c-.717-6.988-3.467-7.71-3.467-7.71-1.474-.457-2.912-1.021-4.303-1.689-1.465-.685-2.985-1.248-4.543-1.684-1.978-.021-3.946-.293-5.855-.81-1.296-.44-2.637-.73-3.998-.864-.147-.069-.287-.141-.43-.213-3.237-1.64-5.8-4.352-7.255-7.671-.073-.166-.14-.33-.207-.492.714-.783 1.354-1.63 1.91-2.53l.013-.021c.001.123.005.246.005.369l-.002.155c0 .297-.004.594-.012.89l.002-.002v.026c1.908-3.363 7.437-4.13 7.963-7.968.023-.174.035-.35.035-.526v-.024c0-.13-.005-.259-.015-.388-.071-1.071-.439-2.138-.51-3.222-.018-.31-.013-.62.015-.93l.002.018c.247-2.981 2.499-5.573 3.53-8.468.275-.78.456-1.588.538-2.41l.003-.022c.025-.248.042-.497.05-.747.003-.062.003-.124.004-.186.003-.174.002-.347-.003-.52-.065-3.113-1.415-6.06-3.731-8.143-1.905-1.654-4.424-2.692-5.743-4.85-.615-1.007-.918-2.19-1.589-3.16-1.263-1.828-3.586-2.572-5.78-2.837-2.194-.264-4.456-.175-6.557-.864-1.489-.489-2.84-1.352-4.345-1.787-3.358-.897-6.92.385-8.932 3.215-.793 1.155-1.312 2.538-2.38 3.44-2.19 1.847-5.907 1.045-7.826 3.177-1.054 1.17-1.175 2.765-1.047 4.397l.005.057c.01.127.022.253.035.38.005.059.011.117.018.176l.021.189c.068.584.153 1.166.226 1.727.012.085.02.171.03.257.021.174.041.348.059.522.012.128.023.255.033.383.013.158.025.316.035.474.008.124.016.248.022.372.217 4.448-.728 8.877-2.741 12.851-1.808 3.545-4.498 6.807-4.966 10.764-.073.648-.09 1.301-.052 1.952.004.077.006.153.011.23.009.117.021.234.033.351.012.135.024.269.04.403.01.077.022.153.033.23.024.178.05.356.08.534l.02.114c.476 2.697 1.551 5.359 2.124 8.065.213 1.005.355 2.023.428 3.048v.02c.023.326.039.652.047.978.012.442.006.883-.009 1.325-.907.35-1.838.634-2.786.854-1.674.242-6.576 4.58-6.217 5.664.355 1.07-2.195 8.687-2.266 8.911l-.004.004v.001l-4.032 27.715s-2.13 2.048-1.464 3.374c.665 1.325-.13 3.614-.13 3.614s-3.597 1.567-2.798 2.53c.798.965.434 2.772-.116 3.977s-1.446 3.374 0 3.736c1.447.361.25 5.06.25 5.06s5.044-.577 4.673 2.41c-.118.955 3.529 3.571 5.051 4.618v14.396c-2.038-.53-4.035-1.207-5.976-2.023-3.108-1.446-20.558-4.217-24.383 4.097-3.824 8.314 5.26 19.4 7.53 20.605 0 0 2.152 1.687 2.63 2.53.478.844 3.227 1.085 3.227 1.085s2.868 1.326 3.586 2.049c.529.533 4.897 1.918 10.079 2.996h-.001s-4.184 9.615 2.64 8.821c6.825-.794 10.15-4.146 14.962-4.146 1.923 0 5.495-.267 9.09-.589.902.159 1.794.369 2.672.63 2.026.633 4.107 1.077 6.216 1.325 0 0 5.378 2.892 8.247 2.169.238-.072.46-.19.651-.348.022-.005.045-.008.066-.014.712-.307 1.315-.822 1.727-1.478 3.59.366 7.678.888 9.216 1.48 2.975 1.147 24.236-.44 24.236-.44s13.737.27 17.674 1.458c3.937 1.188 2.538-12.131-4.724-13.631-1.948-.37-3.927-.546-5.909-.522.503-.516.962-1.073 1.373-1.665 2.617-.238 4.336-.384 4.336-.384s6.932-3.374 10.876-5.423c2.522-1.367 4.786-3.161 6.694-5.302 0 0 3.466-2.169 4.9-3.012 1.434-.844 2.151-3.615 2.151-3.615 10.877-24.582-16.733-21.328-16.733-21.328zM206.48 563.8c0-.406.002-.812.004-1.215.382.275.326.706-.004 1.215zm.113 8.522c.29.38.57.727.773.986.772.988-.626 1.47-.525 3.128l.09 1.461c-.147-2.375-.267-4.346-.338-5.575z"/>
        <path fill="#65617D" fill-rule="nonzero" d="M144.074 610.095s-6.636-1.524-9.717-2.93c-3.08-1.407-20.38-4.103-24.173 3.985-3.792 8.087 5.214 18.871 7.465 20.043 2.252 1.172 24.173-14.886 24.173-14.886l17.3 7.209 3.319-11.194-18.367-2.227z"/>
        <rect width="76.098" height="26.592" x="151.438" y="612.915" fill="#65617D" fill-rule="nonzero" rx="13.296"/>
        <path fill="#000" fill-rule="nonzero" d="M227.536 626.21c0 7.342-5.925 13.295-13.235 13.297h-49.625c-7.311 0-13.238-5.953-13.238-13.296 0-7.343 5.927-13.296 13.238-13.296H214.3c7.309.001 13.234 5.953 13.235 13.294z" opacity=".1"/>
        <path fill="#FBBEBE" fill-rule="nonzero" d="M186.023 626.67s-7.582 1.9-13.77 1.814c-6.187-.085-35.137 11.647-35.137 11.647s-4.167 9.266 2.63 8.5c6.798-.764 10.11-3.995 14.903-3.995 4.794 0 19.87-1.615 19.87-1.615l14.51-10.456-3.006-5.895zM190.434 536.714l-13.456 2.67-.873.175s-10.637-2.845-10.99-3.083c-.354-.235-10.01-13.336-10.01-13.336s4.883.054 8.72-2.173c.138-.078.272-.163.406-.248 1.693-1.02 2.98-2.602 3.639-4.474.067-.196.127-.398.184-.608.438-1.924.4-3.927-.113-5.832-1.3-5.526 1.713-7.048 5.73-6.917 5.8.192 13.7 3.837 13.7 3.837.102 1.86.521 3.69 1.24 5.406.064.16.135.32.205.483 1.44 3.274 3.967 5.942 7.147 7.546.142.071.28.143.424.21.428.206.88.402 1.35.58 10.245 3.911-7.303 15.764-7.303 15.764z"/>
        <path fill="#000" fill-rule="nonzero" d="M189.029 511.746c-5.246 6.04-13.92 7.559-20.853 3.65.631-2.107.656-4.353.07-6.474-3.165-13.582 19.344-3.095 19.344-3.095.114 2.047.601 4.054 1.439 5.92z" opacity=".1"/>
        <path fill="#FBBEBE" fill-rule="nonzero" d="M193.613 500.588c.005 3.175-.885 6.286-2.569 8.977-.55.881-1.18 1.71-1.883 2.474-2.967 3.255-7.088 5.222-11.485 5.481-.339.021-.682.032-1.024.032-9.368 0-16.962-7.595-16.962-16.964s7.594-16.964 16.962-16.964c9.367 0 16.961 7.595 16.961 16.964z"/>
        <path fill="#000" fill-rule="nonzero" d="M190.434 536.6l-13.456 2.778-.873.18s-10.637-2.958-10.99-3.205c-.354-.245-10.01-13.868-10.01-13.868s4.883.055 8.72-2.26c.138-.081.272-.17.406-.259 2.97 3.334 7.124 5.235 11.478 5.255.802-.005 1.603-.071 2.396-.2 1.893-.303 3.801-.499 5.705-.706 3.646-.4 9.225-1.557 12.153-4.93.142.075.28.149.424.219.428.214.88.418 1.35.603 10.245 4.068-7.303 16.393-7.303 16.393z" opacity=".1"/>
        <path fill="#2BCDCC" fill-rule="nonzero" d="M206.9 570.638c.118 2.625 2.032 32.19 2.032 32.19h-59.617l.405-18.613.326-14.89.108-4.886.476-16.929-1.724-1.516-9.386-8.263.003-.003c.072-.222 2.62-7.758 2.265-8.817-.358-1.073 4.541-5.365 6.215-5.605.953-.219 1.89-.503 2.803-.851 2.817-.988 6.577-2.44 6.992-2.214.585.314 6.448-.23 6.695-.254h.008c3.021 3.504 7.417 5.528 12.05 5.547.813-.004 1.625-.069 2.43-.193 1.92-.293 3.856-.483 5.788-.683 3.885-.404 9.927-1.62 12.759-5.272 1.36.133 2.7.42 3.996.855 1.91.511 3.876.78 5.853.8 1.557.432 3.075.99 4.54 1.668 1.392.66 2.83 1.219 4.302 1.67 0 0 2.749.715 3.466 7.63.716 6.917 1.433 10.851 1.433 10.851L206.9 555.14s-.118 12.876 0 15.498z"/>
        <path fill="#FBBEBE" fill-rule="nonzero" d="M139.03 592.048L141.226 595.444 149.454 598.244 155.106 588.287 149.895 584.892 141.542 581.739 136.769 584.407z"/>
        <path fill="#65617D" fill-rule="nonzero" d="M205.67 608.4s10.972-.826 15.455-5.898c4.484-5.073 15.81-7.786 15.81-7.786s27.255-3.185 16.518 20.88c0 0-.708 2.714-2.123 3.54-1.416.825-4.838 2.949-4.838 2.949l-41.877-3.657 1.054-10.028z"/>
        <path fill="#000" fill-rule="nonzero" d="M227.536 625.347c.004 2.55-.77 5.043-2.222 7.167-7.213.623-23.19 2.08-26.531 2.985-4.107 1.106-12.418-.82-13.327-1.038-.055-.01-.084-.018-.084-.018s-1.602-4.72-2.367-7.74c-.344-1.374-.518-2.395-.293-2.469.725-.235 7.372-1.995 7.249-1-.12 1 19.935-7.568 19.935-7.568l.616 7.511c2.044 2.278 17.024-1.09 17.024 2.17z" opacity=".1"/>
        <path fill="#65617D" fill-rule="nonzero" d="M247.707 619.634l-.837 3.051c-1.911 2.088-4.176 3.835-6.695 5.164-3.945 1.994-10.879 5.28-10.879 5.28s-25.464 2.112-29.767 3.286c-4.304 1.173-13.27-1.056-13.27-1.056s-3.348-9.975-2.63-10.21c.717-.234 7.292-1.994 7.173-.997-.12.997 19.725-7.569 19.725-7.569l37.18 3.051z"/>
        <path fill="#FBBEBE" fill-rule="nonzero" d="M177.11 645.57s12.521.878 15.498 2.02c2.977 1.141 24.255-.44 24.255-.44s13.747.269 17.687 1.452c3.94 1.183 2.54-12.077-4.728-13.57-7.268-1.493-17.512.703-17.512.703s-11.559-1.493-12.96-1.669c-1.4-.176-10.636.086-10.636.086L177.11 645.57z"/>
        <path fill="#000" fill-rule="nonzero" d="M127.6 612.915s16.538 1.624 21.088 4.585l-21.087-4.585zM230.287 602.829s-13.174 2.967-18.337 7.335l18.337-7.335zM128.518 609.247c.258.086 7.504 1.027 7.331 1.711-.172.685-7.331-1.71-7.331-1.71zM116.599 627.57l.96 3.542c.977.722 1.864 1.554 2.643 2.48.48.827 3.243 1.063 3.243 1.063s2.883 1.3 3.604 2.008c.72.708 8.528 2.952 15.855 3.897 7.327.945 20.9 2.716 23.783 3.661 2.037.621 4.128 1.056 6.246 1.3 0 0 5.406 2.833 8.288 2.125 2.883-.709 7.808-13.581 7.808-13.581s-18.979-4.37-19.58-5.787c-.6-1.417-18.857-8.027-18.857-8.027l-10.81.251-23.183 7.067z" opacity=".1"/>
        <path fill="#65617D" fill-rule="nonzero" d="M116.599 628.25l.96 3.585c.977.73 1.864 1.572 2.643 2.509.48.836 3.243 1.075 3.243 1.075s2.883 1.314 3.604 2.031c.72.717 8.528 2.987 15.855 3.943s20.9 2.748 23.783 3.704c2.037.628 4.128 1.068 6.246 1.314 0 0 5.406 2.867 8.288 2.15 2.883-.716 7.808-13.74 7.808-13.74s-18.979-4.42-19.58-5.854c-.6-1.434-27.386-12.306-27.386-12.306l-8.408-1.912L116.6 628.25z"/>
        <path fill="#2BCDCC" fill-rule="nonzero" d="M141.537 536.808l-2.048 1.205-3.952 27.716s-2.087 2.048-1.435 3.374c.652 1.325-.126 3.615-.126 3.615s-3.526 1.567-2.744 2.53c.783.965.426 2.772-.113 3.977s-1.418 3.374 0 3.736c1.418.361.244 5.06.244 5.06s4.944-.577 4.581 2.411c-.146 1.205 5.593 5.061 5.593 5.061s-6.522-12.17 8.087-10.484l1.256-6.861s1.256-3.863 0-5.069c-1.256-1.205.283-6.928.283-6.928l.275-24.884-9.901-4.46z"/>
        <path fill="#000" fill-rule="nonzero" d="M137.686 572.57c.244.523 7.743 1.591 8.232 3.31.489 1.717-8.232-3.31-8.232-3.31zM134.935 579.905s1.157-4.356 3.916-3.574c2.76.782-3.916 3.574-3.916 3.574zM134.019 584.49s2.065-4.945 4.881-4.564c2.816.38-4.881 4.564-4.881 4.564z" opacity=".1"/>
        <path fill="#FBBEBE" fill-rule="nonzero" d="M222.035 583.675l-.823 5.007s-8.463 15.738-9.99 15.977c-1.529.238-9.875-10.492-9.875-10.492l-2.233-10.492 8.792-1.69 3.903-3.914s9.873.954 10.226 5.604z"/>
        <path fill="#2BCDCC" fill-rule="nonzero" d="M217.836 541.612l3.37 2.238v11.895s2.62-.236 1.997 1.06c-.624 1.295-1.872 2.002-.749 3.18 1.123 1.177.874 3.415-.125 3.65-.998.236-2.745 1.178-1.123 1.767s2.62 1.649 2.62 2.356c.13.891-.044 1.8-.498 2.59-.624.825-1.248 2.71-.5 3.416.75.707-.624 4.358-.624 4.358s2.372 5.77.125 7.42c0 0-.998 3.297-1.123 3.532 0 0 1.573-11.465-14.128-6.616 0 0-.292-4.369-.398-5.99-.106-1.62 1.355-2.09.548-3.057-.807-.967-2.826-3.18-1.872-3.769.953-.589.624-1.649.25-2.473-.375-.825-1.697-.825-.5-1.826 1.196-1 1.901-1.94 1.2-2.413-.7-.472-1.92-2.006-.95-2.71.97-.703.998-10.953.998-10.953s3.994-15.075 11.482-7.655z"/>
        <path fill="#000" fill-rule="nonzero" d="M215.617 561.107s5.321-1.031 5.497 0c.176 1.032-5.497 0-5.497 0zM210.116 564.986s6.47-1.29 7.278-.287c.809 1.003-7.278.287-7.278.287zM210.116 568.437s8.589-1.36 9.145.634c.557 1.994-9.145-.634-9.145-.634zM211.033 572.57c.311.086 8.094.696 8.25 2.35.155 1.654-8.25-2.35-8.25-2.35z" opacity=".1"/>
        <rect width="75.181" height="43.097" x="139.52" y="577.154" fill="#3F3D56" fill-rule="nonzero" rx="10.467"/>
        <circle cx="177.568" cy="599.619" r="3.209" fill="#E7EFFD" fill-rule="nonzero"/>
        <path fill="#000" fill-rule="nonzero" d="M153.272 551.48s7.239 6.995 12.836 1.664c0 0-9.462 1.088-12.836-1.665zM189.029 553.313s7.238 6.996 12.836 1.665c0 0-9.463 1.088-12.836-1.665z" opacity=".1"/>
        <path fill="#000" fill-rule="nonzero" d="M193.613 500.84c.005 3.222-.895 6.38-2.596 9.11-.142-4.795-1.267-9.59-3.863-13.592-2.378-3.669-9.604-10.1-14.574-8.31-1.054.39-1.86 1.261-2.17 2.346-.493 1.879.949 2.66 1.874 4.156 1.571 2.567 2.185 5.611 1.731 8.59-.063.4-.146.798-.25 1.19-.782 2.949-2.574 6.323-.724 8.744 1.289 1.686 4.06 2.267 4.434 4.358.035.195.047.393.036.591-.086 1.406-1.282 2.647-1.803 4.032-.614 1.628-.268 3.245.367 4.88.829 2.135 2.146 4.294 2.464 6.546.314 2.22-.368 4.343-1.182 6.466-.876 1.95-1.535 3.991-1.964 6.086-.574 3.974.875 8.568-1.613 11.71-.253.38-.644.645-1.09.739-1.595.168-1.324-2.711-2.606-3.68.136 1.675.265 3.418-.339 4.985-.607 1.568-2.178 2.895-3.83 2.633l-.569-3.759c-1.123 1.112-2.476 1.963-3.963 2.493.584-3.999 1.992-7.83 4.135-11.25-4.192 2.025-6.634 6.415-8.815 10.54-1.36 2.578-2.767 5.397-2.293 8.277.193 1.173.697 2.288.807 3.472.111 1.183-.317 2.56-1.414 3.012-1.008.314-2.105-.028-2.76-.86-.039-.047-.078-.094-.117-.144-.069-.086-.132-.176-.19-.269-.12-.18-.226-.37-.317-.566-.3-.708-.525-1.445-.671-2.199l-.075-.323c-1.107-4.888-2.107-9.927-1.296-14.869.3-1.822.846-3.626.781-5.473-.049-1.043-.258-2.073-.62-3.052-.972-2.733-2.843-5.247-3.91-8.001-.01-.02-.019-.04-.025-.061-.56-1.46-.836-3.282.2-4.451.6-.538 1.268-.992 1.988-1.352 2.071-1.356 3-3.927 3.378-6.38.174-1.11.261-2.233.26-3.357 2.807-.99 6.552-2.446 6.966-2.22.582.315 6.423-.23 6.67-.255 1.902-1.025 3.358-2.722 4.088-4.763.068-.197.128-.401.185-.613-7.376-3.995-10.794-12.763-8.082-20.727 2.713-7.965 10.762-12.791 19.028-11.41 8.267 1.38 14.328 8.563 14.33 16.98z" opacity=".1"/>
        <path fill="#3F3D56" fill-rule="nonzero" d="M173.413 502.598c-.798 2.945-2.622 6.315-.737 8.732 1.314 1.685 4.137 2.263 4.516 4.353.3 1.655-1.195 3.045-1.8 4.617-1.44 3.75 2.314 7.438 2.885 11.408.619 4.307-2.569 8.233-3.204 12.537-.586 3.968.891 8.555-1.646 11.691-.256.38-.655.646-1.109.74-1.626.17-1.35-2.706-2.657-3.673.14 1.672.272 3.413-.345 4.977-.616 1.565-2.218 2.89-3.902 2.629l-.58-3.755c-1.145 1.11-2.524 1.96-4.038 2.49.595-3.993 2.03-7.82 4.213-11.235-4.27 2.025-6.759 6.406-8.98 10.527-1.389 2.573-2.82 5.389-2.337 8.263.197 1.173.709 2.285.822 3.469.112 1.183-.325 2.556-1.442 3.007-1.094.325-2.276-.079-2.932-1-.619-.913-1.028-1.948-1.2-3.032-1.158-4.983-2.243-10.128-1.397-15.172.306-1.82.862-3.621.795-5.465-.147-4.03-3.168-7.335-4.643-11.098-.572-1.458-.85-3.277.204-4.446.612-.536 1.294-.99 2.028-1.349 2.11-1.354 3.057-3.92 3.443-6.37.416-2.65.339-5.353-.229-7.976-.851-3.926-2.804-7.758-2.321-11.745.475-3.921 3.204-7.153 5.039-10.664 2.36-4.544 3.266-9.685 2.598-14.746-.316-2.354-.867-5.08.754-6.838 1.948-2.112 5.718-1.318 7.94-3.148 1.085-.893 1.611-2.264 2.416-3.408 2.058-2.809 5.663-4.076 9.063-3.185 1.527.431 2.898 1.286 4.408 1.77 2.132.683 4.427.595 6.653.857s4.584 1 5.866 2.81c.68.961.988 2.133 1.612 3.13 1.338 2.138 3.894 3.168 5.827 4.806 3.391 2.975 4.645 7.66 3.184 11.893-1.154 3.165-3.825 5.962-3.598 9.317.093 1.378.688 2.73.496 4.098-.534 3.802-6.144 4.563-8.08 7.894.154-5.462-.911-11.091-3.94-15.67-2.424-3.666-9.788-10.087-14.851-8.3-1.075.39-1.896 1.26-2.213 2.343-.501 1.876.967 2.656 1.909 4.152 1.83 2.918 2.375 6.443 1.51 9.765z"/>
        <g fill="#000" fill-rule="nonzero" opacity=".2">
            <path d="M6.46 45.683c.041-1.718-.12-3.434-.478-5.114-.717-3.34-2.215-6.611-2.356-9.967-.193 3.735 1.563 7.347 2.356 11.042.284 1.329.444 2.68.478 4.039zM20.762 72.797c.292-.534.596-1.06.921-1.575-4.224 2.025-6.688 6.409-8.887 10.53-1.271 2.385-2.578 4.976-2.384 7.63.16-2.277 1.285-4.493 2.384-6.555 2.034-3.812 4.297-7.843 7.966-10.03zM11.276 94.402c-.061.897-.596 1.695-1.405 2.096-1.082.324-2.252-.08-2.9-1.001-.613-.913-1.019-1.948-1.188-3.033-.926-3.549-1.486-7.182-1.671-10.844-.08 3.988.77 8.003 1.67 11.919.17 1.084.576 2.12 1.188 3.033.649.922 1.819 1.325 2.901 1 1.106-.45 1.539-1.825 1.427-3.008-.005-.055-.015-.108-.022-.162zM30.388 23.155c-.037.858-.168 1.709-.389 2.539-.585 2.184-1.727 4.6-1.52 6.69.16-1.817 1.033-3.797 1.52-5.615.312-1.179.443-2.397.39-3.614zM11.448 7.211c.03-1.273-.039-2.548-.206-3.81-.124-.932-.282-1.92-.331-2.884-.012 1.327.099 2.652.331 3.958.12.908.189 1.821.206 2.736zM33.739 39.86c-.006-.03-.016-.056-.022-.085-.256 1.243-1.284 2.378-1.759 3.627-.28.746-.38 1.546-.295 2.338.042-.432.141-.857.295-1.263.598-1.572 2.078-2.963 1.78-4.618zM5.187 71.82c-.145-4.033-3.135-7.338-4.595-11.103-.234-.59-.392-1.207-.469-1.836-.081.994.08 1.993.47 2.911 1.435 3.702 4.343 6.961 4.578 10.903.017-.29.026-.582.016-.875zM43.5 17.73c-2.398-3.666-9.685-10.09-14.695-8.302-1.063.39-1.876 1.26-2.19 2.344-.117.409-.13.84-.037 1.256.012-.06.021-.119.038-.182.313-1.083 1.126-1.953 2.19-2.343 5.01-1.788 12.296 4.636 14.695 8.302 2.714 4.15 3.83 9.16 3.905 14.127.08-5.315-.995-10.753-3.905-15.202zM55.395 25.51c-.528 3.795-6.055 4.562-7.983 7.876.001.366-.003.731-.013 1.096 1.916-3.333 7.467-4.094 7.996-7.897.047-.374.048-.752.004-1.126l-.004.051zM58.464 12.09c-1.142 3.166-3.785 5.964-3.56 9.32.003.05.011.099.016.148.248-2.955 2.509-5.523 3.544-8.393.465-1.311.665-2.702.588-4.09-.044 1.028-.242 2.045-.588 3.015zM30.013 79.052c-.254.38-.648.646-1.098.74-1.608.17-1.335-2.707-2.629-3.675.032.381.062.766.084 1.15 1.194 1.03.974 3.765 2.545 3.6.45-.094.844-.36 1.098-.74 1.432-1.79 1.571-4.052 1.534-6.402-.036 1.958-.322 3.812-1.534 5.327zM25.945 81.097c-.61 1.565-2.195 2.891-3.862 2.63l-.572-3.757c-1.083 1.059-2.377 1.88-3.797 2.414-.072.383-.143.766-.2 1.152 1.499-.53 2.863-1.381 3.997-2.491l.572 3.756c1.667.262 3.252-1.064 3.862-2.63.38-1.09.53-2.247.444-3.398-.019.794-.169 1.579-.444 2.324zM31.641 67.357c-.13 1.009-.178 2.027-.146 3.043.007-.658.056-1.316.146-1.968.6-4.105 3.49-7.865 3.23-11.94-.232 3.668-2.684 7.124-3.23 10.865z" transform="translate(143.187 476.289)"/>
        </g>
        <path fill="#FFF" fill-rule="nonzero" d="M628.195 233.613v71.681c0 3.784-3.666 6.86-8.193 6.86h-173.4c-4.527 0-8.193-3.076-8.193-6.86v-71.681c0-3.79 3.666-7.653 8.193-7.653h173.4c4.527 0 8.193 3.863 8.193 7.653z"/>
        <path fill="#16374E" fill-rule="nonzero" d="M628.195 234.194v20.191H438.409v-20.191c0-2.184.862-4.279 2.399-5.823 1.536-1.545 3.62-2.412 5.794-2.411h173.4c2.173 0 4.257.866 5.794 2.41 1.536 1.545 2.399 3.64 2.399 5.824z"/>
        <ellipse cx="448.494" cy="240.631" fill="#FFF" fill-rule="nonzero" rx="5.501" ry="5.502"/>
        <ellipse cx="464.997" cy="240.631" fill="#FFF" fill-rule="nonzero" rx="5.501" ry="5.502"/>
        <ellipse cx="480.584" cy="240.631" fill="#FFF" fill-rule="nonzero" rx="5.501" ry="5.502"/>
        <ellipse cx="590.146" cy="282.353" fill="url(#prefix__c)" fill-rule="nonzero" rx="21.546" ry="21.548"/>
        <path fill="#2BCDCC" fill-rule="nonzero" d="M454.912 268.14H544.762V271.808H454.912z" transform="rotate(-180 499.837 269.974)"/>
        <path fill="#2BCDCC" fill-rule="nonzero" d="M454.912 275.475H544.762V279.14300000000003H454.912z" opacity=".2" transform="rotate(-180 499.837 277.31)"/>
        <path fill="#2BCDCC" fill-rule="nonzero" d="M454.912 283.728H544.762V287.396H454.912z" opacity=".2" transform="rotate(-180 499.837 285.562)"/>
        <path fill="#2BCDCC" fill-rule="nonzero" d="M454.912 291.064H544.762V294.732H454.912z" opacity=".2" transform="rotate(-180 499.837 292.898)"/>
        <path fill="#2BCDCC" fill-rule="nonzero" d="M558.515 413.29s-6.096-1.647-10.085 3.184c0 0 2.567 2.727 8.6-.292l1.485-2.893zM559.671 413.936s4.359 4.977 1.591 10.086c0 0-3.77-1.458-3.662-7.84l2.071-2.246zM564.016 404.25s-2.23-5.752-12.836 1.203c0 0 1.145 3.84 5.653 3.897 4.509.056 5.832-2.27 7.183-5.1z"/>
        <path fill="#2BCDCC" fill-rule="nonzero" d="M564.006 404.767s5.825-.248 5.498 11.902c0 0-3.717.472-6.04-3.522-2.322-3.995-1.089-6.077.542-8.38zM567.683 395.6s-2.446-7.805-13.752-3.055c0 0 1.977 7.145 12.445 5.578l1.307-2.524zM572.267 383.031s-5.073-7.786-15.586-1.466c0 0 2.974 7.202 14.532 4.075l1.054-2.609zM574.101 372.131s-6.067-8.29-16.503-1.129c0 0 5.788 7.309 16.371 3.133l.132-2.004zM576.852 360.386s-6.271-8.397-16.504-1.497c0 0 7.21 7.522 16.374 3.358l.13-1.861zM575.935 349.229s-6.28-9.915-15.587-4.036c0 0 6.886 8.615 15.455 5.839l.132-1.803zM575.935 337.878s-7-9.947-16.503-3.211c0 0 8.513 8.767 16.372 4.95l.13-1.74zM573.9 326.917s-8.255-10.042-16.302-6.773c0 0 8.59 10.655 16.503 9.315l-.202-2.542zM570.754 316.286s-9.6-12.557-15.907-9c0 0 7.032 9.71 16.504 11.286l-.597-2.286zM566.654 304.642s-8.562-9.694-15.474-7.841c0 0 7.202 9.954 16.503 10.768l-1.029-2.927zM564.646 293.698s-9.124-9.273-13.466-8.02c0 0 6.346 10.063 13.753 9.97l-.287-1.95zM561.265 283.557s-7.425-11.347-11.919-10.814c0 0 4.297 9.957 11.848 11.902l.071-1.088zM557.476 269.962s-6.866-8.908-10.88-9.158c0 0 5.111 11.622 11.002 11.92l-.122-2.762zM555.013 260.278l-6.48-17.813s-1.535 15.647 7.231 21.09l-.751-3.277zM553.146 239.755s-.256-14.505.785-15.63c0 0-7.335 11.655-1.259 22.008l.474-6.378z"/>
        <path fill="#2BCDCC" fill-rule="nonzero" d="M567.83 394.403s7.727-3.725 11.772 6.794c0 0-6.894 3.58-12.836-4.236l1.064-2.558zM572.424 382.29s9.805-3.267 13.596 7.847c0 0-7.688 4.016-14.67-5.159l1.074-2.688zM574.24 372.014s7.435-7.478 17.281 1.143c0 0-7.012 6.531-17.42.885l.138-2.028zM576.98 360.343s7.291-7.762 16.375.673c0 0-8.093 6.741-16.503 1.251l.127-1.924zM576.852 349.355s5.562-10.87 15.586-5.406c0 0-6.296 9.551-15.296 7.286l-.29-1.88zM575.018 337.304s5.507-10.958 15.586-5.076c0 0-7.127 9.912-15.236 6.846l-.35-1.77zM572.267 327.062s2.636-13.38 11.002-13.991c0 0-2.652 14.118-10.047 16.505l-.955-2.514zM570.434 317.173s1.638-15.945 8.251-16.023c0 0-.96 12.13-7.647 18.34l-.604-2.317zM567.683 304.303s2.78-13.008 9.169-14.156c0 0-1.567 12.68-8.748 17.422l-.42-3.266zM563.099 293.8s1.147-13.825 6.138-15.574c0 0 2.037 12.696-4.873 17.422L563.1 293.8zM561.265 283.691s1.633-13.878 6.39-15.551c0 0 .78 11.112-5.764 16.505l-.626-.954zM556.681 271.205s.956-11.56 4.885-14.069c0 0 2.679 12.88-3.132 16.506l-1.753-2.437z"/>
        <path fill="#2BCDCC" fill-rule="nonzero" d="M556.156 259.394l4.49-17.846s3.182 15.038-4.882 21.09l.392-3.244zM556.393 241.15s8.602-12.773 8.54-14.273c0 0-1.727 13.895-11.92 20.173l3.38-5.9zM555.394 236.963s8.129-17.984 11.372-19.256c0 0-10.282 4.66-11.919 18.687l.547.57z"/>
        <path fill="#444053" fill-rule="nonzero" d="M557.92 271.808l.595-.116c-5.627-19.859-6.417-32.38-2.226-35.256l-.39-.39c-4.443 3.049-3.744 15.415 2.02 35.762zM571.525 320.406l.742-.207c-.52-1.843-1.09-3.716-1.696-5.566-5.266-16.099-9.666-31.04-12.363-42.468l-.61-.357c2.701 11.447 6.967 26.943 12.24 43.062.602 1.84 1.17 3.703 1.687 5.536z"/>
        <path fill="#444053" fill-rule="nonzero" d="M549.157 427.69c.107-.102 10.829-10.47 19.063-28.84 4.826-10.753 7.887-22.189 9.068-33.883 1.477-14.618-.533-31.183-4.878-46.395l-.628.632c9.752 34.142 3.019 62.404-4.498 79.19-8.15 18.202-18.748 28.46-18.854 28.561l.727.735z"/>
        <path fill="url(#prefix__d)" fill-rule="nonzero" d="M865.654 606.074L845.47 576.82s-.378-7.244-1.698-8.937c-1.32-1.693-.283-5.456-.283-5.456s1.415-2.07.189-2.258c-1.226-.188-.189-4.797-.189-4.797l-.094-7.338s1.132-7.055.189-8.748c-.564-.935-.527-2.113.094-3.01 0 0 1.132-4.045 0-5.08-1.132-1.035-.849-7.338-.566-12.323.283-4.986-1.98-7.808-1.98-8.56 0-.753-7.451-8.09-7.451-8.749 0-.658-4.716-3.386-7.546-4.139-2.829-.753-4.244-1.317-4.15-1.693.095-.376-4.432-1.882-4.432-1.882s-3.961-.282-5.47-2.257c-1.488-1.948-6.124-2.548-6.255-2.564-.028-.132-.06-.263-.087-.395-.03-.142-.058-.283-.085-.425.356-.597.686-1.211.985-1.844.09-.19.176-.38.26-.574 1.658.012 3.28-.49 4.641-1.439 1.347-1.124 2.166-2.759 2.26-4.511.08-1.74-.3-3.468-1.102-5.013-.828-1.694-2.042-3.449-1.622-5.286.181-.794.657-1.49.9-2.268.365-1.516.122-3.115-.677-4.455-.715-1.367-1.71-2.568-2.503-3.89-1.013-1.69-1.689-3.558-1.991-5.503-.062-1.035-.311-2.05-.737-2.996-.425-.668-.99-1.237-1.653-1.67-2.95-2.108-6.513-3.188-10.138-3.073-2.567.09-5.126.78-7.676.467-1.523-.267-3.022-.659-4.481-1.173-3.164-.935-6.813-1.32-9.567.49-2.804 1.844-3.851 5.37-5.718 8.155-1.65 2.463-4.067 4.527-5.326 7.137.015-.05.027-.102.043-.152-.309.603-.545 1.241-.703 1.9-.48 2.05-.081 4.195.417 6.24.257 1.054.608 2.198 1.524 2.785.935.599 2.21.454 3.297.647-.043.179-.088.357-.126.537-2.335 10.993 4.176 21.932 14.953 25.125.004.192.008.383.006.57-.004.54-.037 1.08-.1 1.618v-.001s-9.483-1.949-12.03-.632c-2.546 1.317-7.544 2.352-8.299 3.105-.754.752-2.64.188-4.338 4.61-1.698 4.42-1.886 8.936-4.056 11.005-2.169 2.07-3.3 3.48-3.395 4.986-.094 1.505.283 1.881-.566 2.352-.849.47-2.075 2.445-1.697 3.198 0 0 .471 1.881-1.038 2.822-.908.641-1.41 1.714-1.32 2.822 0 0-.566 2.07-1.886 2.54-1.32.47-2.17 3.575-2.17 3.575l-4.278 4.916-8.476-9.373c-1.323-1.461-3.579-1.577-5.044-.26l-4.161 3.744c-1.606.388-3.058 1.252-4.166 2.478-.906.932-1.637 2.02-2.158 3.211l-2.28 2.051c-1.468 1.817-1.698 4.34-.584 6.393l5.43 6.005.034.05c-1.927.165-3.758.911-5.252 2.138-8.11 7.149-8.206 13.736-6.978 16.744 1.225 3.011 11.505 14.582 11.505 14.582s5.97 7.76 14.592 11.888l-.011.012-.066.067c-.17.18-.34.378-.505.59-.046.059-.093.117-.138.178-.045.06-.088.122-.132.184-.052.074-.103.148-.154.225l-.12.186c-.055.087-.108.178-.162.27-.035.059-.07.118-.104.18-.066.117-.13.24-.192.365l-.063.12c-.08.166-.158.337-.234.514-.026.062-.05.128-.077.19-.05.123-.098.247-.146.375l-.085.242c-.042.12-.082.244-.121.37-.028.087-.055.174-.081.264-.04.134-.076.273-.113.413-.022.085-.045.168-.066.255-.053.218-.102.443-.148.675-.017.087-.03.178-.047.267-.029.16-.057.32-.082.485-.017.111-.032.226-.047.34-.02.154-.04.31-.057.47-.013.118-.026.237-.037.358-.016.175-.03.354-.042.535-.007.11-.016.218-.022.33-.016.296-.028.598-.033.91-.19 11.006.455 12.606.455 12.606s1.333 3.505 5.006 3.757c.539.037 1.08.008 1.612-.088 4.904-.847 16.41-2.822 20.465-2.068 2.44.451 6.952-.218 10.166-.825.295-.055.578-.11.848-.163l.587 1.87 1.866-.51c.604.35 1.14.66 1.583.914.424.246.764.441.999.575 1.863 6.31 9.416 4.158 9.416 4.158l1.794 1.036 18.201.468s3.908 2.354 6.443 3.093c.299.092.604.159.914.2 1.687.135 3.382.167 5.073.097 1.395-.037 2.473-.096 2.473-.096s-.186-4.94-.45-10.473c6.956-.288 13.125-.724 16.86-1.38 9.718-1.707 13.774-10.545 15.268-15.267.448 1.93.767 3.888.953 5.86.397 1.723.9 3.42 1.51 5.08.531 1.336 1.228 2.6 2.074 3.762 7.168-2.445 2.83-6.114 1.32-7.713-1.508-1.6 1.038-2.916 1.038-2.916s1.98-1.317 1.792-2.54c-.188-1.223-.283-2.54 6.13-2.446 6.414.094 6.13-5.268 6.13-5.268zm-99.588-60.066c.081.539.976 6.333 1.785 7.858.226 1.016.297 2.06.212 3.098-3.799-.303-7.757-.464-7.757-.464.113.137.184.305.202.483-.193-.042-.392-.087-.597-.134-.281-.066-.573-.137-.868-.213l7.003-10.644.02.016zm-13.87 22.061l6.578 1.041.552.088c-.188 1.025-.302 2.063-.34 3.105.019.098.148.217.359.352-.09.514-.133 1.035-.128 1.556.104.52 3.181 1.645 6.708 2.578-.048.19-.097.37-.145.54-3.116-1.64-8.022-2.405-8.588-3.621-.565-1.217-17.259-7.05-17.259-7.05s-.61-.323-1.663-.83l4.4.831 1.207-.122c2.737.688 5.516 1.2 8.319 1.532z"/>
        <path fill="#65617D" fill-rule="nonzero" d="M844.504 610.096s-2.624 15.955-15.931 18.315c-13.307 2.36-57.727 1.888-57.727 1.888s-25.397-3.682-34.58-25.301c-9.184-21.62-15.088-30.21-7.216-30.588 7.872-.377 50.324 14.444 52.76 14.633 2.437.19 65.037-32.853 62.694 21.053z"/>
        <path fill="#000" fill-rule="nonzero" d="M844.504 610.096s-2.624 15.955-15.931 18.315c-13.307 2.36-57.727 1.888-57.727 1.888s-25.397-3.682-34.58-25.301c-9.184-21.62-15.088-30.21-7.216-30.588 7.872-.377 50.324 14.444 52.76 14.633 2.437.19 65.037-32.853 62.694 21.053z" opacity=".05"/>
        <path fill="#3F3D56" fill-rule="nonzero" d="M724.95 627.529s1.328 3.462 4.984 3.71c.537.037 1.077.008 1.606-.087 4.882-.836 16.34-2.787 20.376-2.043 2.429.446 6.922-.214 10.122-.814 2.127-.395 3.682-.766 3.682-.766s-3.755-12.356-4.225-12.73c-.468-.37-16.903-10.125-16.903-10.125l-13.012-.925-.04-.003c-1.75.259-3.33 1.178-4.411 2.564-1.375 1.644-2.553 4.345-2.632 8.769-.188 10.87.454 12.45.454 12.45z"/>
        <path fill="#000" fill-rule="nonzero" d="M725.883 627.543s1.367 3.463 5.136 3.711c-1.317-1.632-2.534-3.337-3.644-5.106l.073-9.016c-.554-5.011 1.4-9.977 5.266-13.383l-.04-.003s-7.064.463-7.259 11.339c-.194 10.876.468 12.458.468 12.458z" opacity=".05"/>
        <path fill="#000" fill-rule="nonzero" d="M782.42 608.33l12.036-9.458 18.94-18.734s-2.046-.098-5.133-.233c-.767.492-2.92 2.037-2.998 3.914-.092 2.29-5.12.16-7.73 1.47-2.612 1.312-15.394 17.733-17.633 17.627-2.24-.11-4.011-1.141-4.946.452-.02.037-.045.07-.067.104l7.532 4.859zM727.213 606.332c.43.208.867.407 1.31.598 9.183 3.936 20.52 12.18 21.363 13.68.515.911 7.087 4.903 12.16 7.894 2.123-.4 3.674-.773 3.674-.773s-3.747-12.46-4.216-12.838c-.467-.373-16.866-10.211-16.866-10.211l-12.984-.933-.039-.003c-1.746.261-3.323 1.188-4.402 2.586z" opacity=".1"/>
        <path fill="#65617D" fill-rule="nonzero" d="M702.112 579.765c1.22 3.028 11.448 14.663 11.448 14.663s6.476 8.514 15.674 12.487c9.198 3.973 20.553 12.296 21.397 13.811.544.974 7.873 5.423 13.039 8.48.4.235.785.465 1.157.68 1.01.594 1.892 1.11 2.562 1.5.845.493 1.354.785 1.354.785s3.143-2.542 6.273-5.102c3.089-2.526 6.163-5.066 6.211-5.207.093-.284 1.312-3.502 1.03-3.69-.146-.099-.79-1.407-1.976-2.925-1.26-1.69-2.897-3.054-4.78-3.982-4.317-1.986-6.194-6.51-6.194-6.51s-.412-.3-1.034-.698c-1.278-.89-2.709-1.532-4.22-1.896-2.067-.26-5.913-4.517-5.913-4.517s-2.63-1.703-3.66-3.877c-.985-2.074-15.541-12.151-16.89-13.082l35.287 22.842 8.443 5.468 12.107-9.552 19.052-18.92s-2.562-.125-6.287-.286c-9.26-.403-25.705-1.036-27.78-.565-1.691.398-3.436.513-5.164.34 0 0-4.685.213-7.785-1.436-3.1-1.648-7.981-2.417-8.545-3.64-.563-1.224-17.174-7.09-17.174-7.09s-22.617-12.105-30.689-4.917c-8.069 7.188-8.165 13.811-6.943 16.836z"/>
        <path fill="#EE8E9E" fill-rule="nonzero" d="M774.889 512.097l2.938 9.567 3.791 21.549 13.938.93 4.036-6.556 4.025-6.54s2.508-8.709 4.312-17.133c1.595-7.454 2.636-14.685.901-15.471-1.539-.697-2.551-3.208-3.208-5.905-.083-.335-.16-.674-.228-1.012-.464-2.285-.773-4.599-.924-6.924 0 0-29.203-1.486-25.127 10.31.729 2.014 1.1 4.136 1.1 6.273-.003.533-.036 1.066-.099 1.597-.41 3.715-2.388 7.093-5.455 9.315z"/>
        <path fill="#E3E8F4" fill-rule="nonzero" d="M768.47 510.64l1.044 16.305 2.369 13.883 2.656 6.43 2.368 35.175s22.852 2.596 28.41-.048c.4-.164.748-.43 1.007-.771 6.714-9.965 4.513-38.829 4.513-38.829l2.559-18.636-1.706-9.671-4.123-.43-3.173-.333s-.717.866-1.752 2.21c-2.809 3.649-7.978 10.821-7.631 13.815.472 4.1-.569 8.293-2.181 8.945-1.612.654-2.937 1.772-3.222.654-.284-1.118-.568-1.398-.284-2.983.284-1.585-1.234-6.429-1.234-6.429s-2.56-5.683-2.369-8.106c.19-2.423-.284-5.219-1.043-5.87-.756-.651-1.8-1.305-.947-4.285.853-2.983-3.739-8.785-3.739-8.785l-11.521 7.76z"/>
        <path fill="#000" fill-rule="nonzero" d="M798.768 550.553l.958 28.17s2.171 1.184 5.521 3.016c.403-.166.754-.436 1.016-.78 6.772-10.076 4.552-39.26 4.552-39.26l2.58-18.844-1.72-9.779-4.159-.435c1.61-7.56 2.659-14.895.91-15.692-1.552-.706-2.573-3.253-3.236-5.989l-2.98 19.931s.25 1.795.339 3.65c.121 1.174.04 2.361-.241 3.51-.672 1.695-.193 4.711-.193 4.711-1.723 2.993-2.584 8.535-3.005 13.889-.56 7.119-.342 13.902-.342 13.902z" opacity=".1"/>
        <path fill="#3F3D56" fill-rule="nonzero" d="M805.529 490.96s4.702.588 6.195 2.558c1.493 1.97 5.413 2.251 5.413 2.251s4.48 1.5 4.387 1.876c-.093.375 1.307.938 4.107 1.689 2.8.75 7.466 3.47 7.466 4.127 0 .657 7.374 7.973 7.374 8.724 0 .75 2.24 3.565 1.96 8.536-.28 4.972-.56 11.257.56 12.289s0 5.065 0 5.065c-.615.896-.652 2.07-.094 3.002.934 1.688-.186 8.724-.186 8.724l.093 7.317s-1.027 4.596.187 4.784c1.213.187-.187 2.251-.187 2.251s-1.027 3.752.28 5.44c1.307 1.69 1.68 8.912 1.68 8.912l19.973 29.174s.28 5.347-6.067 5.253c-6.346-.094-6.253 1.22-6.066 2.439.186 1.22-1.774 2.533-1.774 2.533s-2.52 1.313-1.026 2.908c1.493 1.594 5.786 5.253-1.307 7.692-.838-1.16-1.527-2.42-2.053-3.753-.602-1.655-1.101-3.347-1.494-5.065 0 0-.653-7.13-1.96-8.067-1.306-.938-1.12-5.441-1.12-5.441s1.867-3.659-.746-5.16c-2.613-1.5-40.506-22.606-40.506-22.606l-.934-28.048s-.653-20.731 3.267-27.673c0 0-.467-3.002.186-4.69.654-1.689-.093-7.13-.093-7.13l2.485-19.91z"/>
        <path fill="#000" fill-rule="nonzero" d="M780.49 503.042s-9.365-1.93-11.88-.625c-2.514 1.305-7.45 2.33-8.196 3.076-.745.746-2.608.187-4.284 4.57-1.677 4.382-1.863 8.857-4.005 10.908-2.143 2.052-3.26 3.45-3.354 4.942-.093 1.492.28 1.865-.558 2.331-.839.466-2.05 2.424-1.677 3.17.373.746 19.374 17.157 19.374 17.157s.931 6.247 1.77 7.832c.838 1.585-.932 23.403-2.795 24.895-1.863 1.492 12.574 1.354 12.574 1.354s.652-14.314 1.21-15.06c.56-.746-.372-16.038-.372-16.038s-.093-13.053 1.118-16.503c1.21-3.45 1.075-14.919 1.075-14.919s1.07-6.882 2.371-8.485c1.301-1.602-2.371-8.605-2.371-8.605z" opacity=".1"/>
        <path fill="#3F3D56" fill-rule="nonzero" d="M780.49 502.125s-9.365-1.93-11.88-.625c-2.514 1.305-7.45 2.33-8.196 3.077-.745.745-2.608.186-4.284 4.568-1.677 4.383-1.863 8.858-4.005 10.91-2.143 2.05-3.26 3.45-3.354 4.941-.093 1.492.28 1.865-.558 2.331-.839.466-2.05 2.425-1.677 3.17.373.746 19.374 17.157 19.374 17.157s.93 6.247 1.77 7.832c.837 1.585-.932 23.403-2.795 24.895-1.863 1.492 12.574 1.354 12.574 1.354s.652-14.314 1.21-15.06c.56-.746-.372-16.038-.372-16.038s-.093-13.053 1.118-16.503c1.21-3.45 1.075-14.919 1.075-14.919s1.07-6.882 2.371-8.485c1.301-1.602-2.371-8.605-2.371-8.605z"/>
        <path fill="#000" fill-rule="nonzero" d="M779.852 494.476c.707 2.108 1.069 4.328 1.068 6.564 9.316 2.92 19.315-1.252 24.224-10.107-.45-2.391-.75-4.812-.897-7.246 0 0-28.353-1.554-24.395 10.79z" opacity=".1"/>
        <path fill="#EE8E9E" fill-rule="nonzero" d="M763.887 479.511c.006 11.462 8.983 20.912 20.428 21.506 11.445.594 21.352-7.877 22.545-19.276 1.192-11.4-6.748-21.737-18.068-23.525-11.32-1.788-22.059 5.6-24.437 16.813-.312 1.473-.47 2.976-.468 4.482z"/>
        <path fill="#3F3D56" fill-rule="nonzero" d="M751.76 529.472l-5.211 1.592s.473 1.874-1.043 2.81c-.913.64-1.417 1.707-1.326 2.81 0 0-.569 2.06-1.895 2.529-1.327.468-2.18 3.558-2.18 3.558l-4.359 4.964s-1.61 1.311-1.326 1.967c.284.656-1.706.843-1.706.843l1.042 16.67 9.002 1.686 5.591-.562 4.548-1.685 3.98-2.342 1.8-4.589 7.96-11.988-14.877-18.263z"/>
        <path fill="#EE8E9E" fill-rule="nonzero" d="M732.918 551.685s-11.508-16.597-20.092-7.639c-8.584 8.96 3.49 23.482 6.32 23.01 2.83-.471 16.319-1.226 16.319-1.226l-2.547-14.145z"/>
        <path fill="#3F3D56" fill-rule="nonzero" d="M710.15 518.339l50.536 25.786c.76.388 1.061 1.318.674 2.077l-19.71 38.62c-.388.76-1.318 1.06-2.078.673l-50.535-25.786c-.76-.387-1.061-1.317-.674-2.077l19.71-38.62c.388-.759 1.318-1.06 2.077-.673z"/>
        <path fill="#2BCDCC" fill-rule="nonzero" d="M699.801 532.915L750.084 532.913 750.082 570.801 699.8 570.803z" transform="rotate(27.036 724.942 551.858)"/>
        <circle cx="700.625" cy="539.559" r="1" fill="#E6E8EC" fill-rule="nonzero"/>
        <circle cx="749.676" cy="563.858" r="1.375" fill="#E6E8EC" fill-rule="nonzero"/>
        <path fill="#EE8E9E" fill-rule="nonzero" d="M725.38 554.46c-.092 12.206 25.196 14.794 25.196 14.794l6.461 1.024 2.893.457 1.206-11.928s-1.325-.197-2.982-.582c-2.448-.569-5.619-1.554-6.283-2.932-1.111-2.311-26.4-13.038-26.492-.832z"/>
        <path fill="#000" fill-rule="nonzero" d="M764.803 475.059c.598.045 1.16.295 1.593.707.736.773.776 2.142 1.732 2.618.356.156.752.201 1.135.13 2.528-.354 3.992-3.186 6.42-3.964 1.419-.362 2.92-.234 4.255.362.542.168 1.03.478 1.41.897.813 1.044.242 2.578.619 3.84.522 1.751 2.63 2.447 4.457 2.677 1.826.229 3.883.356 5.102 1.723.814 1.032 1.144 2.36.907 3.65-.112.443-.116.906-.012 1.35.503 1.415 2.97 1.206 3.616.088.47-.812.328-1.486 1.438-1.712.798-.065 1.599.072 2.328.399 1.936.66 3.977.971 6.024.917 3.564-7.523 2.46-16.407-2.84-22.847-5.3-6.44-13.854-9.293-22-7.337-8.147 1.955-14.44 8.372-16.184 16.502z" opacity=".1"/>
        <path fill="#3F3D56" fill-rule="nonzero" d="M793.273 488.131c-.1-.445-.097-.91.011-1.353.232-1.291-.09-2.622-.882-3.656-1.189-1.371-3.195-1.5-4.976-1.729-1.782-.23-3.836-.925-4.346-2.679-.367-1.264.189-2.803-.603-3.847-.37-.42-.844-.73-1.373-.898-1.303-.598-2.766-.727-4.15-.366-2.367.78-3.795 3.619-6.26 3.973-.373.071-.758.026-1.106-.13-.933-.477-.972-1.848-1.689-2.621-1.125-1.215-3.262-.43-4.641-1.333-.9-.59-1.246-1.739-1.498-2.798-.49-2.054-.883-4.209-.41-6.267.806-3.515 3.887-5.925 5.856-8.926 1.835-2.797 2.865-6.339 5.622-8.19 2.709-1.82 6.297-1.432 9.407-.493 1.434.516 2.908.91 4.407 1.178 2.507.314 5.023-.38 7.547-.47 3.566-.115 7.069.97 9.968 3.088.654.434 1.208 1.006 1.626 1.677.419.95.664 1.97.725 3.009.297 1.954.961 3.83 1.957 5.528.78 1.328 1.759 2.535 2.462 3.908.786 1.346 1.024 2.952.665 4.475-.239.78-.706 1.48-.885 2.278-.412 1.845.78 3.608 1.595 5.31.788 1.552 1.162 3.289 1.084 5.035-.092 1.76-.897 3.4-2.223 4.532-1.378.975-3.023 1.483-4.701 1.452-2.035.07-4.065-.241-5.99-.916-.712-.326-1.492-.463-2.27-.4-1.083.227-.944.902-1.403 1.716-.63 1.12-3.034 1.33-3.526-.087z"/>
        <path fill="#000" fill-rule="nonzero" d="M781.46 609.247l12.053-9.441 18.966-18.7s-2.55-.124-6.259-.284c-.735.664-1.205 1.571-1.322 2.555-.093 2.286-5.127.16-7.742 1.467-2.615 1.31-15.415 17.702-17.657 17.596-2.243-.11-4.017-1.139-4.953.451-.02.037-.045.07-.067.104-.372.427-.871.724-1.424.847l8.406 5.405z" opacity=".1"/>
        <path fill="#65617D" fill-rule="nonzero" d="M756.552 607.859l6.058 19.428.95 3.05 2.883-.794 6.36-1.755 28.324-7.817c3.555-.158 7.033-1.09 10.194-2.732 5.355-3.015 11.483-4.357 17.6-3.856 3.745.352 7.908-1.272 11.363-7.685 0 0 7.85-23.285-11.963-29.952-19.81-6.668-20.757 3.544-20.757 3.544s-.1.056-.269.166c-.768.493-2.924 2.042-3.002 3.924-.093 2.295-5.128.16-7.744 1.473-2.615 1.315-15.419 17.777-17.662 17.67-2.242-.11-4.017-1.143-4.953.454-.02.037-.045.07-.068.104-.692.958-2.772 1.18-4.149 1.22-.751.022-1.295-.011-1.295-.011l-.177.053-1.438.431-10.255 3.085z"/>
        <path fill="#000" fill-rule="nonzero" d="M758.386 571.183l3.235.47 1.349-12.24s-1.483-.202-3.335-.598c.491 1.708-.622 8.309-1.25 12.368z" opacity=".1"/>
        <path fill="#000" fill-rule="nonzero" d="M835.805 515.088s8.75-2.523 6.586 22.152c-2.164 24.675-18.347 40.284-18.347 40.284s-18.63 8.132-27.003 6.823c-8.374-1.308-14.49-1.589-14.49-1.589-2.635-1.323-5.519-2.087-8.467-2.243-4.705-.187-14.584-3.084-14.772-4.02-.188-.934 2.446-14.673 1.317-15.701 0 0 13.172.536 14.49 1.483 1.317.947 3.199.268 4.61 0 1.411-.268 5.74-4.007 14.301-.736 0 0 2.917.28 4.046-.467 1.129-.748 2.943-.187 2.943-.187.726-.247 1.413-.593 2.043-1.028.283-.374 2.54 0 2.54 0 .272.132.59.135.864.008s.475-.37.548-.662c.296-.767.744-1.466 1.317-2.057 0 0 2.54-14.207 7.339-19.534 0 0 1.411-1.215 1.035-2.71-.376-1.496 7.81-22.807 19.1-19.816z" opacity=".1"/>
        <path fill="#3F3D56" fill-rule="nonzero" d="M834.888 512.337s8.75-2.523 6.586 22.152c-2.164 24.675-18.347 40.284-18.347 40.284s-18.63 8.132-27.003 6.823c-8.374-1.308-14.49-1.589-14.49-1.589-2.635-1.323-5.518-2.087-8.467-2.243-4.704-.187-14.584-3.084-14.772-4.019-.188-.935 2.447-14.674 1.317-15.702 0 0 13.173.536 14.49 1.483 1.317.947 3.199.268 4.61 0 1.411-.268 5.74-4.007 14.301-.736 0 0 2.917.28 4.046-.467 1.129-.748 2.943-.187 2.943-.187.726-.247 1.414-.593 2.044-1.028.282-.374 2.54 0 2.54 0 .272.132.589.135.863.008s.476-.37.548-.662c.296-.767.744-1.466 1.317-2.057 0 0 2.54-14.206 7.34-19.534 0 0 1.41-1.215 1.034-2.71-.376-1.496 7.81-22.806 19.1-19.816z"/>
        <path fill="#000" fill-rule="nonzero" d="M766.637 605.098l12.584 15.153c.031-.025.058-.055.08-.088.094-.285 1.332-3.51 1.046-3.698-.286-.19-2.475-4.933-6.86-6.924-2.223-1.083-4.091-2.776-5.384-4.878l-1.466.435z" opacity=".1"/>
        <path fill="#000" fill-rule="nonzero" d="M766.91 630.471c.868.492 1.392.783 1.392.783s3.226-2.533 6.442-5.083c3.171-2.516 6.329-5.047 6.378-5.188.095-.283 1.347-3.489 1.058-3.675-.15-.1-.812-1.403-2.03-2.915-8.63-2.364-3.134 3.494-2.402 3.763 0 0-10.505-2.358-11.083 8.832-.077 1.167.006 2.338.246 3.483z" opacity=".1"/>
        <path fill="#3F3D56" fill-rule="nonzero" d="M777.427 635.606l1.801 1.012 18.283.458c2.05 1.21 4.217 2.222 6.47 3.023.3.09.608.155.919.196 1.695.131 3.396.162 5.095.093 1.401-.036 2.484-.093 2.484-.093s-.864-22.376-1.517-24.73c-.313-1.126-1.845-.878-3.357-.315-1.135.447-2.23.985-3.274 1.608 0 0-7.767.73-9 1.379-1.23.648-4.735-.373-6.915 0-2.18.372-6.062-2.488-6.062-2.488-10.611-3.4-4.643 2.943-3.884 3.218 0 0-10.325-2.3-10.894 8.616-.568 10.913 9.85 8.023 9.85 8.023z"/>
        <path fill="#565387" fill-rule="nonzero" d="M804.236 626.97c.19 4.641 3.746 10.405 5.868 13.454 1.34-.036 2.375-.094 2.375-.094s-.826-22.428-1.45-24.789c-.3-1.127-1.764-.879-3.21-.315-1.755 3.345-3.735 8-3.583 11.744z"/>
        <path fill="#000" fill-rule="nonzero" d="M804.236 626.97c.19 4.641 3.746 10.405 5.868 13.454 1.34-.036 2.375-.094 2.375-.094s-.826-22.428-1.45-24.789c-.3-1.127-1.764-.879-3.21-.315-1.755 3.345-3.735 8-3.583 11.744z" opacity=".1"/>
        <path fill="#000" fill-rule="nonzero" d="M800.865 627.568c1.245 4.475 1.23 9.494 3.214 12.53.296.09.6.155.907.196 1.676.132 3.358.163 5.038.094 1.385-.036 2.455-.094 2.455-.094s-.854-22.396-1.5-24.754c-.31-1.126-1.823-.878-3.318-.314-1.122.447-2.205.986-3.237 1.61 0 0-5.15 5.001-3.559 10.732z" opacity=".05"/>
        <path fill="#000" fill-rule="nonzero" d="M737.298 581.739s9.43 2.823 17.42 12.837l-17.42-12.837z" opacity=".1"/>
        <g fill="#000" fill-rule="nonzero" opacity=".1">
            <path d="M50.931 6.635c-.017.066-.033.131-.054.196-.087.262-.19.519-.31.768.09-.332.213-.654.364-.964zM.3 2.168C.457 1.522.69.898.996.307.947.465.899.623.86.787c-.475 2.005-.08 4.106.414 6.107.254 1.033.601 2.153 1.507 2.728 1.39.88 3.54.115 4.673 1.3.721.753.76 2.089 1.7 2.554.35.152.738.196 1.114.127 2.48-.346 3.918-3.112 6.301-3.873 1.393-.352 2.866-.226 4.177.357.533.163 1.01.465 1.382.876.798 1.016.238 2.516.608 3.75.513 1.709 2.581 2.387 4.374 2.61 1.793.224 3.813.349 5.01 1.685.798 1.008 1.121 2.305.888 3.564-.109.432-.113.884-.011 1.319.495 1.38 2.915 1.176 3.55.085.46-.794.321-1.452 1.411-1.673.783-.062 1.569.072 2.285.39 1.938.658 3.982.96 6.03.892 1.69.031 3.345-.464 4.733-1.415.6-.475 1.095-1.068 1.452-1.741-.313 1.227-1.019 2.322-2.012 3.123-1.388.95-3.044 1.446-4.733 1.415-2.048.068-4.092-.235-6.03-.893-.716-.318-1.502-.451-2.285-.39-1.09.221-.95.88-1.412 1.673-.634 1.091-3.055 1.296-3.55-.084-.1-.435-.097-.887.012-1.32.233-1.258-.09-2.555-.889-3.563-1.196-1.337-3.216-1.461-5.01-1.685-1.792-.224-3.86-.902-4.373-2.611-.37-1.233.19-2.733-.608-3.75-.372-.41-.85-.713-1.382-.876-1.311-.582-2.784-.708-4.177-.356-2.383.76-3.82 3.527-6.301 3.873-.376.069-.764.024-1.114-.128-.94-.464-.979-1.8-1.7-2.554-1.133-1.185-3.284-.42-4.673-1.3C1.315 10.43.968 9.308.713 8.276.22 6.274-.176 4.174.3 2.168z" transform="translate(760.22 462.535)"/>
        </g>
        <path fill="#000" fill-rule="nonzero" d="M812.228 539.602c-1.615 2.387-3.46 4.595-4.889 7.12-1.43 2.524-2.44 5.473-2.143 8.425 1.479-1.66 2.157-3.956 3.09-6.039 1.58-3.528 3.94-6.518 5.931-9.76.382-.622 2.817-4.2 1.584-4.37-1.018-.142-3.022 3.81-3.573 4.624z" opacity=".1"/>
        <ellipse cx="315.094" cy="465.744" fill="#F1F1F1" fill-rule="nonzero" rx="88.475" ry="82.985"/>
        <path fill="#16374E" fill-rule="nonzero" d="M419.55 559.248l-43.546-13.012c-15.14 7.303-31.73 11.083-48.533 11.06-57.126 0-103.602-42.645-103.602-95.063 0-52.417 46.476-95.062 103.602-95.062 57.127 0 103.603 42.645 103.603 95.062 0 26.461-12.12 51.855-33.287 69.816l26.069 18.317c2.26 1.587 2.804 4.706 1.217 6.965-1.237 1.76-3.462 2.532-5.523 1.917zm-43.675-14.577l.273.081 46.995 14.043c1.587.474 3.259-.428 3.733-2.016.37-1.236-.094-2.571-1.15-3.313l-30.338-21.316.735-.612c21.285-17.715 33.492-42.976 33.492-69.305 0-51.61-45.821-93.6-102.144-93.6-56.322 0-102.143 41.99-102.143 93.6 0 51.611 45.821 93.6 102.143 93.6 16.677.025 33.14-3.749 48.148-11.036l.256-.126z"/>
        <ellipse cx="292.632" cy="467.119" fill="url(#prefix__e)" fill-rule="nonzero" rx="8.252" ry="8.253"/>
        <ellipse cx="316.469" cy="467.119" fill="url(#prefix__e)" fill-rule="nonzero" rx="8.252" ry="8.253"/>
        <ellipse cx="339.39" cy="467.119" fill="url(#prefix__e)" fill-rule="nonzero" rx="8.252" ry="8.253"/>
        <path fill="url(#prefix__f)" fill-rule="nonzero" d="M281.517 377.865c5.034 3.364 12.665 1.762 12.665 1.762s11.527-5.448 14.937-5.448 11.69-3.364 11.69-3.364l-.28-2.27-.845-6.834c5.247 4.08 11.078 2.673 13.952 2.374 3.085-.32 19.561-10.094 21.146-10.735.595-.358 1.091-.858 1.445-1.455h.003c1.062-1.62 1.994-3.32 2.79-5.086l-.002.001c1.033-.906 1.786-1.634 1.732-1.792.22-.936.56-1.84 1.01-2.69 1.77-.255 3.47-.866 4.998-1.796.255-.207.487-.442.691-.699.628-.807.957-1.805.932-2.826 0 0 16.074-16.183 13.964-22.913-2.111-6.73 5.195-6.89 5.195-6.89s11.203-4.806 12.762-7.69c.961-1.776 9.362-5.67 15.687-8.406l.777-.335c2.46 5.368 14.917 1.238 17.372-1.033 2.598-2.403 10.23-3.525 10.23-3.525s.324-31.405 2.76-35.41c1.155-1.9 1.435-8.101 1.405-14.09 0-.214-.002-.426-.004-.638 3.412-.664 11.524-2.203 15.293-2.577 2.389-.237 4.877-1.722 6.785-3.166.146.18.225.282.225.282.658.27 1.368.386 2.077.341.627.067 1.26-.052 1.82-.34 1.461-.802 6.82-2.404 8.768-3.205 1.948-.801-.325-6.57-1.786-7.691-1.462-1.122-2.436-2.564-1.624-3.205.812-.64-1.948-2.243-3.572-2.563-1.624-.32-6.495-2.564-6.495-2.564s-1.786-3.685-4.708-3.685c-2.923 0-6.82-2.884-6.82-2.884-.162-1.282-3.247-1.442-3.247-1.442s-11.69-8.973-13.638-7.851c-1.948 1.121-7.306-1.763-7.306-1.763s-6.572.734-8.118-.473v-.008c-.01-.395-.147-.776-.39-1.087-.35-1.083-2.049-2.57-3.695-3.808.125-.765.188-1.54.188-2.315 0-.336-.013-.673-.036-1.003-.004-.056-.01-.11-.015-.166l.23-2.256c.017-.742.211-1.47.567-2.123.274-.421.677-.754.982-1.156.072-.097.139-.197.2-.3l.047-.085c.044-.08.085-.16.122-.242.012-.027.026-.055.037-.083.092-.22.163-.448.21-.682l.01-.055c.02-.106.037-.213.049-.321l.005-.045c.066-.932-.058-1.868-.365-2.751-.487-1.513-1.249-2.977-1.33-4.556.038-.784.01-1.57-.083-2.348-.39-1.75-2.197-2.867-3.933-3.593-2.4-1.004-3.61-2.1-5.54-3.593-1.638-1.268-4.341-.631-6.404-.5-4.71.302-9.362 1.717-13.792 3.181-1.748.47-3.385 1.282-4.818 2.387-.903.766-1.524 1.81-1.763 2.969v.002c-.048.267-.066.539-.054.81l.005.072c.007.103.018.207.035.31l.016.1c.023.125.053.247.09.368l.003.01c.186.59.534 1.125.735 1.712.044.13.08.261.11.395l.009.043c.027.128.05.257.065.386.18 1.457-.359 2.978-.598 4.463-.034.21-.056.424-.073.64v-.002.008c-.07.86.005 1.724.224 2.558l.007.029c.029.102.061.203.094.304l.043.13c.03.086.064.17.098.254.023.056.045.112.07.167.032.075.068.148.104.22.03.062.062.124.094.184.036.066.074.131.113.196.038.063.077.126.118.187.04.06.08.118.121.175.046.063.094.124.143.185.042.053.085.105.13.155.054.062.112.121.17.18.044.045.088.09.135.134.065.06.134.117.203.173.045.037.09.076.137.111.08.06.166.116.252.171.04.027.08.055.121.08.133.08.27.151.41.215.932.424 2.106.576 2.67 1.392.132.194.225.41.274.639 0 .055-.004.11-.004.165v.141c.006.474.032.942.081 1.404-.004.254.01.507.042.76.029.19.082.374.16.55.656 3.228 2.392 6.138 4.924 8.252.047.247.102.537.166.862-1.427 1.078-3.023 1.913-4.724 2.47-3.896 1.138-9.417 6.39-9.417 6.39s-2.744 19.709-3.4 22.112c-.659 2.403-1.146 11.697-1.146 11.697s-.65 3.845-1.624 5.768c-.688 1.356-.565 7.178 1.36 10.715-.315.696-.718 1.348-1.197 1.943-3.897 4.486-15.587 4.326-19.484 4.326-3.59 0-4.696 2.17-4.849 2.513-7.133 2.022-30.24 8.603-32.981 9.799-3.248 1.416-5.034 15.407-5.034 15.407s-6.819 23.233-6.494 26.29c.325 3.057-2.273 11.523-2.273 11.523s0 9.585-1.104 10.236c-.01.009-.02.015-.033.019-1.136.48-.974 5.127-.974 5.127s.835.241 2.14.571c-.346 2.35-1.623 5.634-2.63 7.966-.505-.638-.999-.906-1.296-.16-.812 2.038-12.989 16.458-16.074 16.458-1.47 0-3.9 1.202-5.497 2.824-1.75 1.781-2.494 4.07.14 5.829zm55.853-83.479c13.8 1.282 28.576-.977 28.576-.977s-1.137 4.022-2.11 5.624c-.975 1.602-3.735 10.735-3.735 12.658s-4.384 18.426-5.683 19.227c-.641.544-1.129 1.247-1.412 2.038-.342.796-.63 1.614-.86 2.449.018.418.057.812.11 1.186-.97.888-1.995 1.816-2.91 2.64 0 0-5.806 3.224-7.754 4.986-1.949 1.762-11.041 3.922-11.041 3.922-2.248.966-4.43 2.078-6.534 3.327-2.817 1.696-5.637 3.847-6.372 5.974.318-3.58.838-7.894 1.184-10.638.177-.004.35-.01.519-.021 4.55-.282 3.87-4.615 3.63-5.688-.032-.154-.058-.24-.058-.24 3.247-3.526 10.553-29.803 9.58-32.687-.975-2.884.811-5.448 1.197-5.448.387 0 .913-3.204.101-4.967-.812-1.762 3.572-3.365 3.572-3.365zM448.973 223.7c-.287.07-.574.139-.86.212l-.012-.186s.325 0 .872-.026zm-47.176-24.177c-.13.16-.263.318-.4.467-.055.06-.112.116-.167.173-.004-.3-.004-.6 0-.89.186.088.376.17.567.25zm-16.265 31.085l.06.902s-.089.55-.253 1.492l.193-2.394zm74.615-8.954l-2.831.487c.401-.151.796-.316 1.179-.497.284-.134.59-.217.903-.245.359.036.713.112 1.056.225-.103.003-.205.013-.307.03z"/>
        <path fill="#BE6F72" fill-rule="nonzero" d="M363.228 337.444s-3.338 7.1-3.175 7.603c.163.503-7.173 6.536-7.173 6.536l-7.989-5.866.816-4.022s8.966-8.305 9.618-9.264c.652-.959 7.903 5.013 7.903 5.013z"/>
        <path fill="#3F3D56" fill-rule="nonzero" d="M317.537 359.748c5.48 5.168 11.928 3.602 14.99 3.289 3.063-.314 19.42-9.866 20.993-10.492.592-.351 1.085-.84 1.435-1.422h.003c1.054-1.585 1.98-3.246 2.77-4.97-.11.028-5.471 1.515-6.825-.004 0 0-2.257-2.687-2.74-2.687-.484 0-.04-4.717-.04-4.717s-5.763 3.151-7.697 4.874c-1.935 1.722-10.961 3.833-10.961 3.833-2.233.945-4.4 2.03-6.486 3.251-4.275 2.534-8.559 6.107-5.442 9.045z"/>
        <path fill="#000" fill-rule="nonzero" d="M318.43 360.654c5.352 5.183 11.65 3.612 14.641 3.298 2.991-.314 18.968-9.894 20.504-10.522.579-.352 1.06-.842 1.402-1.426-1.864-1.11-14.034 6.608-17.441 8.022-3.404 1.413-12.022.628-16.903-1.414-2.437-1.017.032-4.149 3.111-7.03-4.175 2.542-8.36 6.126-5.315 9.072z" opacity=".1"/>
        <path fill="#BE6F72" fill-rule="nonzero" d="M319.22 343.718s-2.35 16.406-1.753 18.553c.598 2.146-14.75-7.36-14.75-7.36s5.37-10.28 3.796-12.643c-1.576-2.362 12.707 1.45 12.707 1.45z"/>
        <path fill="#3F3D56" fill-rule="nonzero" d="M304.558 343.655s9.264 2.72 14.375 2.4c4.475-.282 3.807-4.609 3.57-5.681-.031-.154-.057-.24-.057-.24 3.195-3.52 10.382-29.765 9.423-32.645-.958-2.88.799-5.441 1.179-5.441s.898-3.2.099-4.961c-.799-1.76 3.514-3.36 3.514-3.36 13.575 1.28 28.11-.977 28.11-.977s-1.119 4.017-2.077 5.617c-.958 1.6-3.674 10.722-3.674 12.642s-4.312 18.403-5.59 19.203c-.632.546-1.111 1.247-1.389 2.036-.337.795-.62 1.612-.846 2.445.479 10.722 12.617 6.561 14.374 5.12 1.05-.86 1.641-2.16 1.597-3.52 0 0 15.811-16.162 13.735-22.883-2.076-6.722 5.11-6.882 5.11-6.882s11.021-4.8 12.554-7.68c.946-1.774 9.21-5.663 15.432-8.396 3.897-1.712 6.992-2.967 6.992-2.967l-2.59-9.307-2.042-7.335-3.842-1.447-12.289-4.634-22.062-3.04-2.022.262-21.434 2.778s-31.303 8.961-34.498 10.376c-3.194 1.414-4.95 15.388-4.95 15.388s-6.709 23.204-6.39 26.257c.32 3.053-2.235 11.509-2.235 11.509s0 9.573-1.086 10.223c-.01.008-.02.015-.032.019-1.118.48-.959 5.12-.959 5.12z"/>
        <path fill="#000" fill-rule="nonzero" d="M337.557 294.345c13.766 1.26 28.505-.961 28.505-.961.972-2.977 14.586-11.166 14.586-11.166-11.169-2.677-43.091 12.127-43.091 12.127z" opacity=".1"/>
        <path fill="#444053" fill-rule="nonzero" d="M352.226 335.586c.496 10.269 13.063 6.284 14.882 4.904.26-.198.496-.422.704-.668-4.391 1.5-12.176 2.658-14.71-6.578-.348.761-.64 1.544-.876 2.342zM304.559 344.646s9.368 2.637 14.536 2.327c4.526-.273 3.85-4.468 3.612-5.508-4.743-.143-12.909-.57-17.147-1.803-.01.009-.02.015-.032.019-1.131.465-.97 4.965-.97 4.965z"/>
        <path fill="#000" fill-rule="nonzero" d="M352.226 335.586c.496 10.269 13.063 6.284 14.882 4.904.26-.198.496-.422.704-.668-4.391 1.5-12.176 2.658-14.71-6.578-.348.761-.64 1.544-.876 2.342zM304.559 344.646s9.368 2.637 14.536 2.327c4.526-.273 3.85-4.468 3.612-5.508-4.743-.143-12.909-.57-17.147-1.803-.01.009-.02.015-.032.019-1.131.465-.97 4.965-.97 4.965z" opacity=".1"/>
        <path fill="#3F3D56" fill-rule="nonzero" d="M282.406 376.963c4.95 3.34 12.457 1.75 12.457 1.75s11.338-5.409 14.692-5.409c3.354 0 11.499-3.34 11.499-3.34l-.275-2.253-1.322-10.793s-12.438-.318-12.936-1.431c0 0-2.236-5.48-3.034-3.456-.799 2.024-12.777 16.341-15.81 16.341-1.448 0-3.837 1.194-5.408 2.804-1.722 1.769-2.453 4.04.137 5.787z"/>
        <path fill="#000" fill-rule="nonzero" d="M325.638 283.728s9.506 5.905 6.874 7.201c-2.633 1.296-6.874-7.2-6.874-7.2zM321.054 295.648s10.343 8.035 6.464 8.25c-3.879.213-6.464-8.25-6.464-8.25zM310.968 323.157s5.18 8.483 3.228 9.956c-1.952 1.473-3.228-9.956-3.228-9.956zM360.584 332.063c-1.583 1.754 15.047-5.79 11.246-6.141s-11.246 6.14-11.246 6.14z" opacity=".1"/>
        <path fill="#BE6F72" fill-rule="nonzero" d="M395.318 212.205l.533-.077c1.99-.295 9.195-1.395 15.66-2.759 1.576-.332 3.104-.68 4.505-1.037 4.952-1.262 8.274-2.622 6.158-3.738-2.804-1.478-4.281-4.165-5.062-6.477-.073-.226-.143-.447-.207-.664-.346-1.167-.562-2.365-.646-3.576 0 0-18.064-6.213-14.547 0 1.726 3.047.566 5.536-1.065 7.279-1.119 1.151-2.435 2.105-3.89 2.817l-1.44 8.232z"/>
        <path fill="#000" fill-rule="nonzero" d="M413.347 206.704s-6.407 4.612-12.951.795c-6.545-3.817-15.104 33.717-15.104 33.717l-8.876 21.948s-5.75 4.772 1.404 6.84c7.155 2.067 23.03-2.068 27.06 3.975 4.029 6.044 11.662 6.998 12.442 6.998.78 0 3.8-22.743 3.8-22.743l.784-32.922-8.56-18.608z" opacity=".1"/>
        <path fill="#F3F5F9" fill-rule="nonzero" d="M378.737 269.086c7.154 2.068 23.03-2.067 27.06 3.976 1.697 2.456 4.065 4.368 6.818 5.506 1.78.803 3.68 1.307 5.624 1.492.104 0 .253-.416.428-1.139 1.116-4.602 3.373-21.604 3.373-21.604l.783-32.922-7.532-16.372-1.027-2.236c-1.013.675-2.111 1.21-3.266 1.593-3.188 1.185-6.735.893-9.687-.798-1.921-1.12-4.014 1.32-6.014 5.328-4.815 9.65-9.089 28.39-9.089 28.39l-8.876 21.947c-.21.182-.412.375-.602.58-1.262 1.332-3.624 4.634 2.007 6.26z"/>
        <path fill="#000" fill-rule="nonzero" d="M413.187 270.09c-.34 2.784-.409 5.596-.205 8.394.248 3.979.728 7.938 1.436 11.856.043.246.106.488.187.724 3.728-1.706 6.69-2.955 6.69-2.955l-2.479-9.271c1.076-4.613 3.252-21.653 3.252-21.653l.755-32.995-7.262-16.409c4.734-1.294 7.91-2.69 5.886-3.835-2.94-1.664-4.355-4.823-5.036-7.329-1.247 1.808-2.706 3.445-4.343 4.875-.06.054-.095.083-.095.083l-.55 5.563-.168 1.708-.351 3.548s1.68 41.922 2.903 44.313c1.223 2.391.611 7.014-.458 12.433-.061.306-.113.622-.162.95z" opacity=".1"/>
        <path fill="#67647E" fill-rule="nonzero" d="M412.588 268.143c-1.138 5.399-.163 14.29 1.138 21.119 1.3 6.827 15.117 2.381 17.718 0 2.6-2.382 10.24-3.494 10.24-3.494s.326-31.122 2.764-35.091c1.158-1.883 1.437-8.028 1.408-13.964-.023-5.332-.293-10.492-.393-12.242l-.04-.629s10.567-17.466 10.404-18.737c-.163-1.27-3.251-1.429-3.251-1.429s-11.704-8.892-13.655-7.78c-1.95 1.111-7.314-1.747-7.314-1.747s-6.798.753-8.203-.527c-.174-.144-.267-.362-.25-.584.16-2.033-6.928-6.374-7.146-6.507 5.972 5.25-3.687 13.338-4.782 14.224l-.101.082-1.138 10.779s1.788 41.76 3.088 44.142c1.3 2.382.65 6.987-.487 12.385z"/>
        <circle cx="413.654" cy="222.292" r="1" fill="#444053" fill-rule="nonzero"/>
        <path fill="#000" fill-rule="nonzero" d="M411.82 201.946l4.834 4.758 7.086-12.028c-.171-.148-.262-.369-.245-.596.155-2.072-6.78-6.496-6.994-6.632 5.845 5.35-3.608 13.594-4.68 14.498z" opacity=".1"/>
        <circle cx="415.488" cy="247.967" r="1" fill="#000" fill-rule="nonzero" opacity=".1"/>
        <circle cx="415.488" cy="247.967" r="1" fill="#444053" fill-rule="nonzero"/>
        <path fill="#67647E" fill-rule="nonzero" d="M411.82 201.946l4.834 4.758 7.086-12.028c-.171-.148-.262-.369-.245-.596.155-2.072-6.78-6.496-6.994-6.632 5.845 5.35-3.608 13.595-4.68 14.498z"/>
        <path fill="#3F3D56" fill-rule="nonzero" d="M416.687 245.825l-7.696-.176c-.938-.021-1.681-.8-1.66-1.737l.457-20.043c.021-.938.8-1.682 1.738-1.66l7.696.175c.938.022 1.681.8 1.66 1.738l-.457 20.042c-.021.939-.8 1.682-1.738 1.66z"/>
        <path fill="#000" fill-rule="nonzero" d="M416.687 245.825l-7.696-.176c-.938-.021-1.681-.8-1.66-1.737l.457-20.043c.021-.938.8-1.682 1.738-1.66l7.696.175c.938.022 1.681.8 1.66 1.738l-.457 20.042c-.021.939-.8 1.682-1.738 1.66z" opacity=".1"/>
        <path fill="#3F3D56" fill-rule="nonzero" d="M416.746 246.345l-7.696-.176c-.938-.021-1.682-.8-1.66-1.737l.456-20.043c.022-.938.8-1.682 1.738-1.66l7.696.175c.939.022 1.682.8 1.66 1.738l-.456 20.042c-.022.939-.8 1.682-1.738 1.66z"/>
        <circle cx="412.737" cy="229.628" r="1.834" fill="#67647E" fill-rule="nonzero"/>
        <path fill="#000" fill-rule="nonzero" d="M354.06 266.83c4.004 1.757 30.268-2.876 34.112-3.995 3.844-1.118 9.45-9.745 6.727-15.976-2.723-6.23.96-12.302.96-12.302s5.766-12.301 7.047-14.698c1.281-2.396 3.953-9.374 4.324-10.544.03-.265-.052-.53-.227-.732-1.041-1.581-5.058-4.38-5.058-4.38-1.13.409-1.271-2.822-1.227-5.196.026-1.329.106-2.39.106-2.39s-.532.54-1.4 1.275c-.317.265-.679.56-1.079.863-1.51 1.203-3.218 2.134-5.048 2.751-3.844 1.134-9.289 6.371-9.289 6.371l1.602 24.536s-3.684 23.073-7.527 27.547c-3.844 4.473-15.375 4.313-19.219 4.313-3.843 0-4.804 2.556-4.804 2.556z" opacity=".1"/>
        <path fill="#67647E" fill-rule="nonzero" d="M353.143 265.912c4.004 1.758 30.269-2.875 34.112-3.994 3.844-1.118 9.45-9.745 6.727-15.976-2.723-6.23.96-12.301.96-12.301s5.766-12.302 7.047-14.699c1.281-2.396 3.953-9.374 4.324-10.544.03-.265-.052-.53-.227-.732-1.041-1.581-5.058-4.38-5.058-4.38-1.13.409-1.271-2.822-1.226-5.196.025-1.329.105-2.39.105-2.39s-.531.54-1.4 1.275c-.317.265-.678.56-1.079.863-1.509 1.203-3.217 2.134-5.048 2.751-3.843 1.134-9.289 6.371-9.289 6.371l1.602 24.537s-3.684 23.072-7.527 27.546c-3.844 4.473-15.375 4.313-19.218 4.313-3.844 0-4.805 2.556-4.805 2.556z"/>
        <path fill="#000" fill-rule="nonzero" d="M397.151 196.617s.137.835.368 2.117c.784 4.343 2.657 13.828 4.007 13.461.969-.262 2.605-2.123 3.877-3.73-.948-1.566-4.606-4.337-4.606-4.337-1.03.405-1.158-2.794-1.117-5.144l-1.178-1.104-1.35-1.263z" opacity=".1"/>
        <path fill="#67647E" fill-rule="nonzero" d="M398.068 195.7s.137.835.368 2.117c.784 4.343 2.657 13.828 4.007 13.461.969-.262 2.605-2.123 3.877-3.73-.948-1.566-4.606-4.337-4.606-4.337-1.03.405-1.158-2.794-1.117-5.144l-1.178-1.104-1.35-1.263z"/>
        <path fill="#BE6F72" fill-rule="nonzero" d="M386.754 243.79s7.99-1.585 10.227-5.07c2.237-3.485 17.457-6.495 15.6-2.851-1.857 3.643-15.6 15.565-15.6 15.565l-5.954 8.453-7.949-1.999-3.347-6.454 7.023-7.645z"/>
        <path fill="#000" fill-rule="nonzero" d="M405.403 252.552s-7.097 2.794-8.166 6.52c-1.068 3.725 8.166-6.52 8.166-6.52zM409.06 257.136s.645 4.958-8.241 4.563l8.24-4.563zM451.625 206.102l3.526-.315s3.848 2.833 6.733 2.833c2.886 0 4.65 3.62 4.65 3.62s4.808 2.204 6.411 2.52c1.604.314 4.329 1.888 3.527 2.518-.801.63.16 2.046 1.603 3.148 1.443 1.102 3.687 6.769 1.764 7.556-1.924.787-7.214 2.361-8.657 3.148-1.021.442-2.185.442-3.206 0 0 0-8.493-10.861-12.823-8.815-4.33 2.046-10.261 2.046-10.261 2.046l-4.65-9.602 11.383-8.657z" opacity=".1"/>
        <path fill="#67647E" fill-rule="nonzero" d="M378.215 256.78c.648 1.082 1.76 1.83 3.036 2.04 3.187.36 6.417.072 9.482-.847 0 0-16.402-5.039-.609-17.291h-4.233l-1.41-.517.645-3.263.928-29.411-3.42-.787s-2.751 19.366-3.409 21.728c-.661 2.362-1.15 11.494-1.15 11.494s-.65 3.779-1.628 5.668c-.736 1.42-.547 7.825 1.768 11.185z"/>
        <path fill="#000" fill-rule="nonzero" d="M379.731 259.37c.617 1.162 1.676 1.964 2.89 2.19 3.035.386 6.11.077 9.03-.909 0 0-15.619-5.405-.58-18.549h-4.031l-1.343-.554c-2.208 4.26-5.684 11.84-5.966 17.823z" opacity=".1"/>
        <path d="M378.814 259.37c.617 1.162 1.676 1.964 2.89 2.19 3.035.386 6.11.077 9.03-.909 0 0-15.619-5.405-.58-18.549h-4.031l-1.343-.554c-2.208 4.26-5.683 11.84-5.966 17.823z"/>
        <path fill="#67647E" fill-rule="nonzero" d="M378.814 259.37c.617 1.162 1.676 1.964 2.89 2.19 3.035.386 6.11.077 9.03-.909 0 0-15.619-5.405-.58-18.549h-4.031l-1.343-.554c-2.208 4.26-5.683 11.84-5.966 17.823z"/>
        <path fill="#000" fill-rule="nonzero" d="M399.902 200.888c5.61 2.403 12.217 1.22 16.503-2.957-.074-.221-.144-.436-.208-.647-.347-1.136-.564-2.302-.648-3.48 0 0-18.105-6.048-14.58 0 1.73 2.966.567 5.388-1.067 7.084z" opacity=".1"/>
        <path fill="#BE6F72" fill-rule="nonzero" d="M391.65 186.53v.142c.007.477.032.948.08 1.412.05.445.117.887.2 1.32 1.3 6.5 6.795 11.321 13.408 11.765 6.613.443 12.702-3.601 14.858-9.87.097-.284.187-.57.264-.86.352-1.273.53-2.588.529-3.909 0-.338-.013-.677-.035-1.01-.545-7.886-7.24-13.924-15.14-13.652-7.9.272-14.163 6.756-14.164 14.662z"/>
        <path fill="#000" fill-rule="nonzero" d="M391.65 187.198c.08.483.107.973.08 1.462-.003.265.011.529.043.791.028.198.081.391.158.575.594 1.442 2.53 2.374 3.809 1.446.493-.42.885-.951 1.146-1.553 1.356-2.608 3.244-5.61 6.214-5.66 1.265-.023 2.456.528 3.68.852 1.22.32 2.676.36 3.59-.5.7-.662 1.032-1.794 1.975-2.028.955-.237 1.807.661 2.24 1.536.432.872.774 1.903 1.65 2.354.387.2.842.257 1.223.47 1.756.996.949 4.482 2.772 5.046.058.018.116.033.175.043l.09-.934.494-5.092c-.545-8.167-7.248-14.42-15.157-14.137-7.91.281-14.182 6.995-14.182 15.182v.147z" opacity=".1"/>
        <path fill="#3F3D56" fill-rule="nonzero" d="M416.384 165.308c1.67.74 3.41 1.878 3.785 3.66.09.795.116 1.595.08 2.394.078 1.608.81 3.1 1.28 4.642.468 1.541.635 3.34-.304 4.65-.293.41-.681.75-.945 1.18-.342.665-.53 1.406-.546 2.162l-.772 8.036c-1.983-.386-1.1-3.976-2.853-4.977-.368-.21-.807-.266-1.183-.462-.846-.44-1.177-1.448-1.597-2.302-.42-.854-1.244-1.732-2.17-1.5-.91.227-1.231 1.337-1.91 1.982-.884.843-2.293.804-3.476.488-1.182-.315-2.336-.854-3.56-.833-2.875.05-4.703 2.985-6.016 5.535-.25.59-.63 1.11-1.108 1.52-1.396 1.027-3.6-.265-3.84-1.977-.134-.958.152-2.028-.377-2.839-.543-.832-1.673-.986-2.57-1.418-2.283-1.1-2.99-4.079-2.611-6.577.274-1.801.96-3.655.398-5.388-.193-.597-.528-1.143-.707-1.745-.502-1.68.316-3.535 1.605-4.728 1.375-1.125 2.951-1.951 4.636-2.432 4.262-1.492 8.737-2.934 13.27-3.241 1.985-.135 4.585-.784 6.162.509 1.856 1.52 3.02 2.638 5.33 3.66z"/>
        <circle cx="412.737" cy="210.372" r="1" fill="#000" fill-rule="nonzero" opacity=".1"/>
        <circle cx="412.737" cy="209.455" r="1" fill="#444053" fill-rule="nonzero"/>
        <circle cx="419.155" cy="260.804" r="1" fill="#000" fill-rule="nonzero" opacity=".1"/>
        <circle cx="419.155" cy="259.887" r="1" fill="#444053" fill-rule="nonzero"/>
        <circle cx="415.488" cy="273.642" r="1" fill="#000" fill-rule="nonzero" opacity=".1"/>
        <circle cx="415.488" cy="273.642" r="1" fill="#444053" fill-rule="nonzero"/>
        <path fill="#000" fill-rule="nonzero" d="M387.983 222.292s-2.063 12.333 0 14.48c2.063 2.147 0-14.48 0-14.48zM440.286 246.133s4.028 7.149 0 14.004c-4.028 6.855-6.521 9.639-5.179 14.015 1.343 4.376 5.18-28.02 5.18-28.02zM282.406 377.034c4.95 3.23 12.457 1.692 12.457 1.692s11.338-5.23 14.692-5.23c3.354 0 11.499-3.23 11.499-3.23l-.275-2.178c-3.31.615-10.834 2.076-11.703 2.793-1.118.923-14.852 5.384-14.852 5.384s-9.352-1.126-11.955-4.827c-1.722 1.71-2.453 3.907.137 5.596z" opacity=".1"/>
        <g fill="#000" fill-rule="nonzero" opacity=".1">
            <path d="M35.757 1.092c-.009-.168-.009-.336-.006-.504.014.192.017.385.014.58-.002-.026-.007-.05-.008-.076zM3.512 14.263c.905.41 2.045.556 2.593 1.345.535.77.246 1.785.381 2.693.242 1.624 2.467 2.849 3.876 1.876.482-.39.865-.883 1.12-1.443 1.324-2.418 3.169-5.201 6.071-5.25 1.236-.02 2.4.492 3.594.791 1.193.3 2.615.337 3.509-.463.684-.612 1.009-1.665 1.927-1.88.935-.22 1.766.612 2.19 1.423.424.81.758 1.765 1.612 2.183.38.186.822.24 1.194.439 1.77.949.878 4.354 2.88 4.72l.78-7.622c.016-.717.205-1.42.55-2.051.266-.408.658-.73.954-1.118.358-.482.581-1.047.648-1.64.169 1.006-.063 2.037-.648 2.878-.296.389-.688.711-.954 1.118-.345.632-.534 1.335-.55 2.052l-.78 7.622c-2.002-.366-1.11-3.772-2.88-4.72-.372-.2-.815-.253-1.194-.44-.854-.417-1.188-1.372-1.612-2.183-.424-.81-1.255-1.642-2.19-1.422-.918.215-1.243 1.267-1.927 1.88-.894.8-2.315.762-3.51.463-1.193-.3-2.357-.81-3.593-.79-2.902.048-4.747 2.83-6.072 5.25-.254.559-.637 1.053-1.12 1.441-1.408.973-3.633-.252-3.875-1.875-.135-.909.154-1.924-.38-2.693-.549-.79-1.69-.936-2.594-1.345C1.405 14.548.63 12.104.805 9.88c.154 1.833.987 3.604 2.707 4.382zM.564 1.26c.181.571.519 1.089.714 1.655.21.658.27 1.353.18 2.036-.032-.27-.092-.538-.18-.797C1.083 3.588.745 3.07.564 2.5.403 1.976.371 1.422.472.884c.023.127.054.253.092.377z" transform="translate(384.315 169.109)"/>
        </g>
        <path fill="#000" fill-rule="nonzero" d="M431.769 240.67c3.709-.833 12.417-3.467 12.417-3.467s.59-.123 1.558-.321c-.023-5.556-.29-10.933-.39-12.756l-.04.007s-7.417 2.481-9.191 3.805c-1.774 1.323-7.257.992-7.257.992s-8.547.497-15.642 8.604c-7.095 8.107 14.836 3.97 18.545 3.137z" opacity=".1"/>
        <path fill="#BE6F72" fill-rule="nonzero" d="M468.332 225.909c.668.309 1.133.947 1.23 1.689.098.741-.186 1.482-.75 1.96-1.944 1.641-4.783 3.606-7.49 3.884-4.52.463-15.397 2.689-16.477 2.911-.06.012-.114.026-.171.043-.897.27-8.744 2.614-12.201 3.387-3.67.82-25.367 4.89-18.347-3.086 3.938-4.613 9.38-7.615 15.32-8.45.093-.01.186-.012.28-.007.82.039 5.457.202 7.055-.983.834-.534 1.719-.984 2.64-1.342 3.469-1.461 7.086-2.525 10.785-3.172l7.505-1.335c.428-.076.868-.019 1.264.164l9.357 4.337z"/>
        <path fill="#67647E" fill-rule="nonzero" d="M452.541 206.102l3.527-.315s3.848 2.833 6.733 2.833c2.886 0 4.649 3.62 4.649 3.62s4.81 2.204 6.412 2.52c1.603.314 4.329 1.888 3.527 2.518-.801.63.16 2.046 1.603 3.148 1.443 1.102 3.687 6.769 1.764 7.556-1.924.787-7.214 2.361-8.657 3.148-1.021.442-2.185.442-3.206 0 0 0-8.493-10.861-12.823-8.815-4.33 2.046-10.262 2.046-10.262 2.046l-4.649-9.602 11.382-8.657z"/>
        <g fill-rule="nonzero" transform="translate(148 131)">
            <ellipse cx="68.384" cy="68.5" fill="#16374E" stroke="#1B435E" stroke-width="7" rx="68.043" ry="68.5"/>
            <g fill="#FFF">
                <path d="M77.894 6.583L57.567 27.67c-.073.07-.113.168-.113.27 0 .102.04.2.113.27l14.262 15.464c.698.716.906 1.79.527 2.723-.378.933-1.268 1.544-2.259 1.55-.651-.002-1.276-.266-1.738-.735L54.17 31.803c-.15-.15-.393-.15-.544 0l-3.457 3.56c-2.859 2.981-6.776 4.661-10.866 4.66-4.167-.02-8.152-1.746-11.057-4.792l-3.321-3.462c-.151-.152-.393-.152-.544 0L10.228 47.142c-.46.47-1.084.734-1.735.734s-1.275-.264-1.735-.734c-.463-.468-.723-1.105-.723-1.77 0-.664.26-1.3.723-1.769l14.208-15.428c.13-.156.13-.385 0-.54L.638 6.549C.532 6.439.37 6.406.23 6.465c-.14.06-.23.2-.23.354v42.193c.011 3.395 2.708 6.144 6.038 6.156h66.47c3.33-.012 6.027-2.761 6.039-6.156V6.853c.006-.16-.087-.309-.233-.37-.147-.06-.315-.02-.42.1z" transform="translate(28.654 41.376)"/>
                <path d="M39.703 34.94c2.783.027 5.46-1.089 7.415-3.092L76.72 1.374C75.67.494 74.35.008 72.985 0H6.475C5.11.005 3.789.49 2.74 1.374l29.608 30.474c1.94 1.992 4.591 3.107 7.355 3.091z" transform="translate(28.654 41.376)"/>
            </g>
        </g>
        <g fill-rule="nonzero" transform="translate(689 180)">
            <circle cx="68.5" cy="68.5" r="68.5" fill="#16374E" stroke="#1B435E" stroke-width="7"/>
            <path fill="#FFF" d="M92.748 38.332L27.81 64.189c-1.23.49-2.04 1.679-2.044 3.003-.005 1.32.806 2.505 2.038 2.98l26.528 10.21c1.32.508 2.363 1.551 2.87 2.87l10.211 26.529c.474 1.232 1.66 2.043 2.98 2.038 1.324-.005 2.513-.814 3.002-2.044l25.848-64.949c1.021-2.566-.231-5.473-2.797-6.494-1.187-.473-2.51-.473-3.698 0z"/>
        </g>
        <g fill-rule="nonzero" transform="translate(511 638)">
            <circle cx="68.5" cy="68.5" r="68.5" fill="#16374E" stroke="#1B435E" stroke-width="7"/>
            <path fill="#FFF" d="M100.25 86.653c-2.388-2.388-8.132-5.991-10.98-7.336-3.287-1.578-4.495-1.55-6.822.13-1.935 1.373-3.19 2.697-5.414 2.21-2.224-.487-6.63-3.808-10.891-8.056-4.262-4.248-7.57-8.625-8.043-10.883-.474-2.258.83-3.486 2.217-5.421 1.674-2.326 1.722-3.534.13-6.82-1.373-2.849-4.934-8.578-7.343-10.98-2.409-2.402-2.93-1.873-4.248-1.372-1.356.568-2.658 1.257-3.89 2.058-2.39 1.599-3.727 2.93-4.667 4.934s-2.004 5.723 3.465 15.46C47.8 68.026 52.91 74.84 58.93 80.799c5.98 6.035 12.818 11.154 20.293 15.193 9.731 5.49 13.457 4.398 15.461 3.465 2.004-.933 3.335-2.258 4.928-4.666.802-1.232 1.491-2.534 2.058-3.89.453-1.318.988-1.854-1.42-4.248z"/>
        </g>
    </g>
</svg>
