<svg xmlns="http://www.w3.org/2000/svg" width="611" height="500" viewBox="0 0 611 500">
    <defs>
        <linearGradient id="prefix__a" x1=".97%" x2="91.643%" y1="77.085%" y2="31.275%">
            <stop offset="0%" stop-color="#2CCCCC"/>
            <stop offset="100%" stop-color="#0CEFA5"/>
        </linearGradient>
        <linearGradient id="prefix__b" x1="49.998%" x2="49.998%" y1="100%" y2="0%">
            <stop offset="0%" stop-color="gray" stop-opacity=".25"/>
            <stop offset="54%" stop-color="gray" stop-opacity=".12"/>
            <stop offset="100%" stop-color="gray" stop-opacity=".1"/>
        </linearGradient>
        <linearGradient id="prefix__c" x1="50%" x2="50%" y1="100%" y2="0%">
            <stop offset="0%" stop-color="gray" stop-opacity=".25"/>
            <stop offset="54%" stop-color="gray" stop-opacity=".12"/>
            <stop offset="100%" stop-color="gray" stop-opacity=".1"/>
        </linearGradient>
        <linearGradient id="prefix__d" x1="50%" x2="50%" y1="62.766%" y2="44.766%">
            <stop offset="0%" stop-color="gray" stop-opacity=".25"/>
            <stop offset="54%" stop-color="gray" stop-opacity=".12"/>
            <stop offset="100%" stop-color="gray" stop-opacity=".1"/>
        </linearGradient>
        <linearGradient id="prefix__e" x1="49.997%" x2="49.997%" y1="100%" y2=".005%">
            <stop offset="0%" stop-color="gray" stop-opacity=".25"/>
            <stop offset="54%" stop-color="gray" stop-opacity=".12"/>
            <stop offset="100%" stop-color="gray" stop-opacity=".1"/>
        </linearGradient>
        <linearGradient id="prefix__f" x1="49.965%" x2="49.965%" y1="99.993%" y2="-.007%">
            <stop offset="0%" stop-color="gray" stop-opacity=".25"/>
            <stop offset="54%" stop-color="gray" stop-opacity=".12"/>
            <stop offset="100%" stop-color="gray" stop-opacity=".1"/>
        </linearGradient>
    </defs>
    <g fill="none">
        <ellipse cx="105" cy="482" fill="#17E4B2" opacity=".1" rx="105" ry="18"/>
        <ellipse cx="506" cy="477" fill="#17E4B2" opacity=".1" rx="105" ry="18"/>
        <path fill="url(#prefix__a)" d="M163.973.264c-27.446 1.467-55.178 9.481-76.592 26.707-18.789 15.122-32.339 38.895-29.033 62.782 3.902 28.197 29.075 48.709 38.412 75.607 6.008 17.291 5.072 36.372 1.14 54.26-2.53 11.526-6.42 23.064-13.896 32.199-13.467 16.433-37.768 24.363-44.385 44.547-7.196 21.949 10.936 43.474 27.97 59.085 13.599 12.456 27.84 24.852 44.976 31.68 12.53 4.996 26.128 6.79 39.606 7.506 37.219 1.952 74.43-3.99 109.187-17.435 16.653-6.457 32.762-14.644 50.19-18.538 37.142-8.3 75.357 3.667 113 9.272 32.268 4.79 65.06 4.887 97.355.287 20.322-2.898 41.318-8.128 56.622-21.794 15.513-13.875 23.27-35.353 22.41-56.163-.859-20.81-9.641-40.844-22.577-57.182-16.706-21.102-39.748-36.116-59.796-54.1-20.413-18.321-37.778-39.773-51.443-63.55-7.876-13.714-14.576-28.27-24.779-40.344-15.913-18.818-38.991-30.01-62.052-38.656-53.197-19.915-108.375-23.97-163.84-32.77-17.333-2.762-34.916-4.318-52.475-3.4z" opacity=".845"/>
        <g opacity=".7" transform="translate(154 43)">
            <path fill="#F6F7F9" d="M0.322 175.451H114.164V238.893H0.322z"/>
            <ellipse cx="12.215" cy="12.176" fill="#17E4B2" opacity=".2" rx="11.852" ry="11.819" transform="translate(9.538 191.438)"/>
            <path fill="#17E4B2" d="M0.364 0.547H52.003V3.7870000000000004H0.364z" opacity=".2" transform="translate(47.692 189.06)"/>
            <path fill="#17E4B2" d="M0.364 0.482H26.672V3.7220000000000004H0.364z" opacity=".2" transform="translate(47.692 197.383)"/>
            <path fill="#17E4B2" d="M0.364 0.416H42.910999999999994V3.656H0.364z" opacity=".2" transform="translate(47.692 205.706)"/>
            <path fill="#17E4B2" d="M0.364 0.351H52.003V3.591H0.364z" opacity=".2" transform="translate(47.692 214.03)"/>
            <path fill="#17E4B2" d="M0.161 0.38H14.450999999999999V6.64H0.161z" opacity=".2" transform="translate(85.25 225.92)"/>
            <path fill="#F6F7F9" d="M96.166 0.119H210.00799999999998V63.561H96.166z"/>
            <ellipse cx="12.084" cy="12.229" fill="#17E4B2" opacity=".2" rx="11.852" ry="11.819" transform="translate(105.52 16.052)"/>
            <path fill="#17E4B2" d="M0.233 0.006H51.872V3.246H0.233z" opacity=".2" transform="translate(143.673 14.269)"/>
            <path fill="#17E4B2" d="M0.233 0.535H26.541V3.7750000000000004H0.233z" opacity=".2" transform="translate(143.673 21.998)"/>
            <path fill="#17E4B2" d="M0.233 0.47H42.779999999999994V3.71H0.233z" opacity=".2" transform="translate(143.673 30.32)"/>
            <path fill="#17E4B2" d="M0.233 0.41H51.872V3.6500000000000004H0.233z" opacity=".2" transform="translate(143.673 38.644)"/>
            <path fill="#17E4B2" d="M0.024 0.434H14.313999999999998V6.694H0.024z" opacity=".2" transform="translate(181.23 50.535)"/>
            <path fill="#F6F7F9" d="M134.057 106.634H247.899V170.076H134.057z"/>
            <ellipse cx="12.412" cy="12.33" fill="#17E4B2" opacity=".2" rx="11.852" ry="11.819" transform="translate(143.077 122.473)"/>
            <path fill="#17E4B2" d="M0.566 0.107H52.205000000000005V3.3470000000000004H0.566z" opacity=".2" transform="translate(181.23 120.69)"/>
            <path fill="#17E4B2" d="M0.566 0.042H26.874V3.282H0.566z" opacity=".2" transform="translate(181.23 129.012)"/>
            <path fill="#17E4B2" d="M0.566 0.571H43.113V3.811H0.566z" opacity=".2" transform="translate(181.23 136.741)"/>
            <path fill="#17E4B2" d="M0.566 0.505H52.205000000000005V3.745H0.566z" opacity=".2" transform="translate(181.23 145.065)"/>
            <path fill="#17E4B2" d="M0.358 0.535H14.648V6.795H0.358z" opacity=".2" transform="translate(218.788 156.955)"/>
        </g>
        <path fill="url(#prefix__b)" d="M115 81H306V190H115z"/>
        <path fill="#F6F7F9" d="M116 82H305V188H116z"/>
        <circle cx="20.149" cy="20.006" r="19.678" fill="#17E4B2" opacity=".2" transform="translate(131 109)"/>
        <path fill="#17E4B2" d="M0.546 0.264H85.72800000000001V5.682H0.546z" opacity=".2" transform="translate(194 106)"/>
        <path fill="#17E4B2" d="M0.552 0.288H44.448V5.706H0.552z" opacity=".2" transform="translate(194 119)"/>
        <path fill="#17E4B2" d="M0.552 0.306H71.55000000000001V5.724H0.552z" opacity=".2" transform="translate(194 133)"/>
        <path fill="#17E4B2" d="M0.546 0.324H85.72800000000001V5.742H0.546z" opacity=".2" transform="translate(194 147)"/>
        <path fill="#2BCDCC" d="M257 167H281V177H257z"/>
        <path fill="url(#prefix__c)" d="M249 228H431V330H249z"/>
        <path fill="#F6F7F9" d="M251 229H430V329H251z"/>
        <ellipse cx="19.463" cy="18.834" fill="#17E4B2" opacity=".2" rx="19.11" ry="18.62" transform="translate(265 254)"/>
        <path fill="#17E4B2" d="M0.321 0.33H81.507V5.484H0.321z" opacity=".2" transform="translate(326 250)"/>
        <path fill="#17E4B2" d="M0.319 0.282H41.491V5.436H0.319z" opacity=".2" transform="translate(325 263)"/>
        <path fill="#17E4B2" d="M0.322 0.253H67.46900000000001V5.98H0.322z" opacity=".2" transform="translate(325 276)"/>
        <path fill="#17E4B2" d="M0.321 0.193H81.507V5.92H0.321z" opacity=".2" transform="translate(326 289)"/>
        <path fill="#2BCDCC" d="M0.212 0.556H22.509999999999998V10.707H0.212z" opacity=".5" transform="translate(385 308)"/>
        <path fill="url(#prefix__d)" d="M.43.46L.8.54C.692.466.56.437.43.46z" opacity=".1" transform="translate(49 171)"/>
        <path fill="url(#prefix__e)" d="M141.697 241.317c-1.315-8.852-9.333-29.503-9.333-29.503-.143-.596-.298-1.229-.476-1.837-5.693-19.619-13.569-21.355-13.569-21.355l-28.213-6.03c.232.146.435.336.594.56l-.446.072c-1.295-1.531-2.15-3.387-2.474-5.368-.054-.293-.101-.597-.137-.907 4.102-4.006 6.278-9.595 5.968-15.329-.31-5.734-3.076-11.054-7.586-14.592-.292-.232-.595-.453-.904-.674 1.332-1.413 1.374-3.388.38-5.368-2.224-4.635-7.054-7.564-12.027-8.99-3.796-1.09-7.912-1.443-11.671-.25-2.148.68-4.099 1.831-6.11 2.84-3.747 1.878-7.875 3.364-10.707 6.448-.66.721-1.26 1.64-1.07 2.588.148.71.702 1.253 1.064 1.885.803 1.408.595 3.18.054 4.713-.541 1.533-1.362 2.982-1.749 4.533-.387 1.551-.232 3.424.946 4.545.572.45 1.168.868 1.784 1.253.647.549 1.213 1.185 1.684 1.891l3.343 4.527c1.56 2.008 2.953 4.14 4.164 6.377.827 1.64 1.475 3.4 2.587 4.867.328.437.7.837 1.113 1.193-.107-.041-.22-.077-.327-.125.995.973 2.346 1.493 3.735 1.438h.167c.255-.004.499-.104.684-.28v.596c.06 2.177.053 4.492-.101 6.663l-.262-.131c-.791-.399-1.742-.299-2.433.256L34.38 208.701s-5.645 7.754-4.86 21.116l-4.55 20.054s-5.693 17.018-1.315 29.169c4.378 12.15 6.918 19.088 6.918 19.088s1.749 13.803 4.378 14.912c2.63 1.11 3.766 1.742 3.766 1.742l.523 3.299s.173.316.482.865c1.915 3.334 9 15.109 13.122 13.856.515 3.196.74 6.433.672 9.67l4.07 27.439s2.843 7.462 2.67 11.369c-.172 3.907 3.325 9.466 3.325 9.466-2.123 3.894-2.746 8.435-1.749 12.76 1.666 7.295 3.766 40.973 3.766 40.973l3.063 8.16-.089 9.544c-.254 1.55-.901 3.009-1.88 4.235-1.975 2.148-1.844 4.63-6.543 7.558-4.7 2.929-7.733 4.032-7.733 7.94-.005.54-.053 1.078-.143 1.61-.44 2.857-1.29 4.396 7.436 5.231 10.243.972 17.072-5.732 17.072-5.732s1.505-2.738 8.601-3.842c0 0 2.422-.13 2.558-2.284.048-.74.036-2.16-.03-3.722-.112-2.983-.398-6.455-.773-6.628-.47-.208-1.302-3.209-1.588-4.294h1.975s1.838-13.803 0-22.75c-1.838-8.948-.173-15.277-.173-15.277l-.35-23.61s-2.481-2.523-.536-7.116c1.945-4.593 0-27.343 0-27.343s.708-8.16 2.719-10.07c2.01-1.908.1-11.96 0-12.484l3.569 12.05s1.576 23.96 4.907 28.303l.964 10.844s6.829 9.986 5.514 15.372c-1.315 5.387 1.404 24.827 1.404 24.827v19.88s-3.07 7.988 1.225 10.851l1.85-.071c-.63.596-1.082 1.425-1.784 2.159-.821.847-1.285 4.068-1.547 6.836-.22 2.344-.291 4.36-.291 4.36s1.838 2.93 5.252 3.126c3.415.197 14.71 8.858 14.71 8.858s11.172 0 14.057-.596l.173-.042c.926-.296 1.705-.937 2.177-1.79.582-.988.77-2.16.53-3.28-.364-1.712-1.714-3.58-4.718-5.184-7.49-3.967-8.602-7.677-8.602-7.677l-4.907-7.373h.702s-.434-7.814 4.901-16.582l-.345-38.63s2.183-13.284-1.576-20.49c0 0-.31-7.64 2.207-9.985 2.516-2.344-3.35-26.043-3.35-26.043s-1.189-12.718-2.64-24.325c5.907 5.619 12.04-14.62 13.086-18.217h.155s-.03-.096-.071-.263c-.042-.167.071-.256.071-.256 0-.03-1.309-4.683-.35-3.735.957.949 3.33-2.6 3.33-2.6s-.35-19.363 3.766-29.121c4.116-9.76-1.856-33.494-1.856-33.494zm-17.602 12.318l.03-.054c.595 11.823-.119 37.049-.119 37.049s-.809 3.233-1.677 7.038l-.625-23.967-.595-22.571 2.986 2.505zm-75.385-8.148s2.974 37.329 0 42.71c-.85 1.532-1.558 4.258-2.147 7.378-.982-2.589-3.064-8.667-2.32-11.888.963-4.176-1.928-15.11-1.928-15.366 0-.257-.261-6.079 1.839-10.552 2.1-4.474.701-6.383.701-6.383s1.755-7.29 3.855-5.9z"/>
        <path fill="#EFB7B9" d="M55.505 329.22c-2.715 11.235-13.54-5.759-16.006-9.834L39 318.54l1.174-5.166L46.379 311c.98.481 1.908 1.051 2.771 1.7 3.415 2.487 8.453 7.817 6.355 16.52zM136 310.861l-.065.251c0 .076-.054.163-.084.274-1.011 3.497-7.027 23.113-12.834 17.664-6.355-5.98-3.267-19.71-3.267-19.71h.06l13.37-1.34 2.647 2.67.173.191z"/>
        <path fill="#1B435E" d="M128.757 409.39l.34 38.424c-5.238 8.728-4.815 16.499-4.815 16.499l-17.259.687c-4.213-2.845-1.19-10.79-1.19-10.79v-19.78s-2.696-19.332-1.41-24.712c1.285-5.38-5.416-15.285-5.416-15.285l-.94-10.79c-3.273-4.315-4.82-28.154-4.82-28.154l-3.518-11.956c.09.52 1.917 10.569 0 12.416-1.916 1.847-2.666 10.018-2.666 10.018s1.893 22.626 0 27.199c-1.892 4.573.512 7.173.512 7.173l.351 23.487s-1.636 6.306.167 15.2c1.803 8.896 0 22.626 0 22.626H69.525l.083-9.564-3.005-8.118s-2.065-33.505-3.696-40.755c-.98-4.301-.37-8.814 1.714-12.697 0 0-3.433-5.53-3.26-9.415.172-3.886-2.625-11.31-2.625-11.31l-4-27.288c.113-5.25-.553-10.488-1.975-15.542C50.434 319.192 47 309 47 309l3.88.347 19.591 1.751s47.61-3.216 49.758-.544c.452.872.758 1.814.905 2.786 2.136 9.654 4.963 39.877 4.963 39.877s5.76 23.576 3.285 25.907c-2.476 2.332-2.166 9.93-2.166 9.93 3.69 7.125 1.541 20.335 1.541 20.335z"/>
        <path fill="#16374D" d="M86.973 476.143c-.136 2.13-2.497 2.26-2.497 2.26-6.907 1.095-8.372 3.808-8.372 3.808s-6.653 6.633-16.618 5.699c-8.495-.821-7.675-2.38-7.238-5.176.087-.527.133-1.06.136-1.594 0-3.867 2.952-4.968 7.55-7.865 4.6-2.897 4.476-5.354 6.394-7.478 1.919-2.124 2.114-6.246 2.114-6.246 2.172-3.808 7.674.595 7.674.595.254 1.35 8.442 1.19 8.442 1.19s1.087 4.384 1.642 4.64c.366.172.643 3.61.755 6.544.053 1.487.06 2.897.018 3.623z"/>
        <path fill="#000" d="M86.974 475.806c-.136 2.19-2.497 2.324-2.497 2.324-6.908 1.126-8.372 3.916-8.372 3.916s-6.653 6.822-16.619 5.861c-8.495-.844-7.675-2.447-7.238-5.323 3.796.98 11.058 2.338 15.297-.048 5.903-3.317 10.113-5.635 10.113-5.635L86.944 472c.065 1.61.071 3.06.03 3.806z" opacity=".1"/>
        <path fill="#16374D" d="M141.373 487.633c-.466.83-1.247 1.455-2.182 1.745-.055.019-.112.032-.17.04-2.891.582-14.056.582-14.056.582s-11.316-8.408-14.71-8.6c-3.394-.192-5.255-3.024-5.255-3.024s.067-1.954.285-4.221c.267-2.681.733-5.815 1.552-6.618 1.515-1.512 1.818-3.587 5.255-2.267 0 0 4.848-8.205 10.57-1.867l5.916 8.612s1.115 3.587 8.607 7.431c3 1.541 4.351 3.355 4.71 5.012.245 1.084.06 2.217-.522 3.175z"/>
        <path fill="#000" d="M141.37 487.46c-.666.581-1.411 1.205-2.181 1.872-.055.02-.112.036-.17.044-2.89.624-14.055.624-14.055.624s-11.315-9.02-14.71-9.227c-3.393-.206-5.254-3.244-5.254-3.244s.067-2.096.285-4.529c3.473 1.073 8.746 2.963 10.158 4.99 2.163 3.12 8.74 7.43 8.74 7.43s12.26-1.21 17.71-1.378c.248 1.167.062 2.387-.522 3.419z" opacity=".1"/>
        <path fill="#EFB7B9" d="M94 187.203L78.193 204s-19.145-1.42-15.8-7.107c1.7-2.892 1.968-8.944 1.82-14.227-.143-5.086-.665-9.415-.665-9.415s26.853-13.44 24.796-.906c-.437 2.362-.463 4.783-.077 7.155 1.168 6.332 5.733 7.703 5.733 7.703z"/>
        <path fill="#000" d="M86.887 172.23c-.438 2.311-.464 4.68-.077 7-3.723 3.698-8.804 5.777-14.104 5.77-3.666 0-7.588-2.917-10.533-4.638-.143-4.976-.173-7.246-.173-7.246s26.952-13.15 24.887-.887z" opacity=".1"/>
        <path fill="#EFB7B9" d="M93 163.992c.003 9.332-6.448 17.426-15.546 19.504-9.097 2.078-18.423-2.412-22.472-10.82-4.05-8.407-1.745-18.497 5.552-24.315 7.296-5.817 17.647-5.815 24.94.006 4.755 3.793 7.524 9.544 7.526 15.625z"/>
        <path fill="#000" d="M121 313.161c-5.005 12.322-37.202 12.577-37.202 12.577v-13.43l-1.95-.131c.842 3.844-1.205 13.225-1.205 13.225C55.197 329.14 49 314.133 49 314.133l.88-5.133 19.826 1.825s48.18-3.351 50.354-.567c.467.908.784 1.889.94 2.903z" opacity=".1"/>
        <path fill="#E1E7EF" d="M84.48 323.756v-12.889l-1.934-.119c.835 3.687-1.194 12.685-1.194 12.685-18.97 2.677-27.151-4.78-30.033-8.664-.516-.667-.958-1.388-1.319-2.15l7.692-43.373 1.79-63.832 2.775-11.197.644-5.377v-.06l.066.03 1.957.842 11.744 5.08 13.409-10.08.197-.15.662-.502 1.104.89 2.739 2.2 8.796 56.845s15.252 43.773 18.08 61.441c.114.705.21 1.363.281 1.978 1.856 16.103-37.457 16.402-37.457 16.402z"/>
        <circle cx="77" cy="196" r="1" fill="#67647E"/>
        <circle cx="78" cy="207" r="1" fill="#67647E"/>
        <circle cx="79" cy="224" r="1" fill="#67647E"/>
        <circle cx="81" cy="241" r="1" fill="#67647E"/>
        <circle cx="82" cy="259" r="1" fill="#67647E"/>
        <circle cx="83" cy="276" r="1" fill="#67647E"/>
        <circle cx="83" cy="295" r="1" fill="#67647E"/>
        <path fill="#000" d="M64.131 276.417s-1.311 16.51-3.71 21.309C58.02 302.525 56.932 316 56.932 316l-5.566-.594c-.535-.663-.993-1.38-1.367-2.138l7.971-43.11 1.856-63.446 2.875-11.13.668-5.345c.022-.015.048-.026.075-.03.632-.286 1.368-.275 1.99.03l.273.131c-.08.22-.16.445-.235.677-2.177 6.563-2.993 18.666-2.993 18.666s3.129 22.134 3.481 32.433c.353 10.298-1.83 34.273-1.83 34.273zM50 312.622c-.061.13-.13.254-.21.375-2.158 3.318-7.631 5.427-9.298 6.003l-.492-.806 1.156-4.928L47.27 311c.966.46 1.88 1.003 2.731 1.622z" opacity=".1"/>
        <path fill="#1B435E" d="M35.653 228l-5.044 2.928L26 250.71s-5.755 16.787-1.324 28.773 7.012 18.82 7.012 18.82 1.77 13.634 4.424 14.73c2.654 1.097 3.813 1.714 3.813 1.714l.527 3.254s7.207-2.371 9.756-6.52c2.55-4.15-1.875-14.53-1.875-14.53s-3.806-8.82-2.831-12.927c.974-4.108-1.95-14.903-1.95-15.158 0-.254-.263-5.998 1.84-10.409 2.101-4.41.71-6.289.71-6.289l-1.33-12.59L35.652 228z"/>
        <path fill="#000" d="M121 309.633s-13.023 4.904-17.167.595c-4.144-4.31-3.709-24.403-3.709-24.403s-3.964-37.146-6.472-43.246c-2.508-6.101-1.195-50.133-1.195-50.133s-1.695-5.684-3.146-7.19c-.092-.1-.196-.185-.311-.256l.508.107 1.79.387 2.742 2.19 8.801 56.627s15.263 43.603 18.093 61.203l.066 4.119z" opacity=".1"/>
        <path fill="#000" d="M136 311.166h-.155c-1.704.25-16.789 2.351-16.845-1.262 0-.42.021-.838.062-1.255L133.034 307l2.767 3.284c.05.215.093.401.13.545l.069.337z" opacity=".1"/>
        <path fill="#1B435E" d="M122.526 208l9.751 4.939s8.089 20.42 9.415 29.181c0 0 6.004 23.458 1.834 33.104-4.169 9.646-3.796 28.801-3.796 28.801s-2.384 3.519-3.356 2.574c-.973-.945.354 3.69.354 3.69s-16.647 2.152-16.727-1.033c-.08-3.186 3.821-18.377 3.821-18.377s1.058-36.147-.446-41.811c-1.504-5.664-.85-41.068-.85-41.068z"/>
        <path fill="#000" d="M94.442 247s-5.16 12.903-6.793 13.756c-1.634.852.332 4.244.332 4.244s9.362-13.415 6.461-18zM90 201.006c.057-.23-6.122 5.808-7.77 6.707-1.647.9 6.008-.05 7.77-6.707zM73 246s-9.084 6.204-7.892 8.648C66.299 257.092 73 246 73 246zM90 339s8.205 4.791 21 6l-21-6zM70 351s7.861 9.733 11.447 9.995C85.033 361.257 70 351 70 351zM81 390c-.333.172-4.227 8.734-8.203 8.995C68.822 399.255 81 390 81 390zM117 408.25s7.365-1.698 9 3.75c0 0-.492-1.704-9-3.75zM112 439.853s8.91-2.414 10.807.88c1.896 3.295-10.807-.88-10.807-.88zM84.656 445c0 .086-9.003 1.963-8.646 3.21.357 1.247 9.597 1.068 9.926-.895.128-.493.063-1.021-.18-1.46-.242-.438-.64-.748-1.1-.855zM108 452.53s15.957-1.84 14.955 1.337C121.952 457.044 108 452.53 108 452.53zM28 260c.092.261 10.578 1.665 12 5 0 0-10.308-4.739-11.908-4.739M42 287s-8.575 2.65-7.97 6.667c.606 4.017-.865-1.875 7.97-6.667zM38 308s2.8-4.768 5.464-3.893C46.128 304.983 38 308 38 308zM84.976 148.403c-.294.29-.623.54-.979.745-2.425 1.43-3.074 3.605-4.236 6.17-1.062 2.326-2.236 4.807-4.39 6.105-2.773 1.7-6.43 1.075-9.316 2.565-2.615 1.396-4.14 4.265-3.858 7.258.187 1.128.463 2.239.826 3.322.65 2.344.947 4.775.879 7.21.008.074.008.148 0 .222-6.744-3.426-10.976-10.47-10.901-18.144.075-7.673 4.443-14.63 11.252-17.92 6.808-3.29 14.863-2.334 20.747 2.461l-.024.006z" opacity=".1"/>
        <path fill="#185C8A" d="M85.304 142.067c-2.167-4.66-6.874-7.604-11.716-9.067-3.697-1.094-7.706-1.45-11.373-.248-2.09.683-3.998 1.813-5.953 2.853-3.655 1.892-7.677 3.385-10.423 6.492-.637.72-1.228 1.65-1.039 2.605.142.713.685 1.257 1.033 1.892.786 1.415.591 3.198.054 4.74-.538 1.54-1.323 2.979-1.701 4.563-.378 1.583-.23 3.439.915 4.57.554.448 1.13.868 1.725 1.257.625.557 1.176 1.197 1.635 1.904l3.254 4.551c1.53 2.02 2.893 4.167 4.075 6.42.815 1.65 1.44 3.415 2.521 4.89 1.08 1.474 2.776 2.66 4.57 2.496.282.01.551-.121.721-.35.07-.145.103-.305.095-.466.073-2.45-.223-4.897-.88-7.254-.363-1.09-.64-2.207-.827-3.342-.28-3.011 1.246-5.897 3.862-7.302 2.894-1.493 6.555-.864 9.33-2.575 2.156-1.336 3.331-3.808 4.394-6.147 1.181-2.557 1.813-4.77 4.24-6.208 2.427-1.439 2.687-3.826 1.488-6.274z"/>
        <path fill="#000" d="M76 468s3.817 3.61 2.84 5.655C77.863 475.699 76 468 76 468zM118 478s.685-5.869 3.442-5.923c2.757-.054 2.89-.316 4.993.58 2.102.894 4.072 2.294 3.448 2.51-.624.215-3.636-3.366-6.666-1.542-1.925 1.163-3.683 2.637-5.217 4.375zM68.229 202L77 196.227s-12.88-7.135-14.413-6.13C61.053 191.1 60 200.107 60 200.107L68.229 202z" opacity=".1"/>
        <path fill="#E1E7EF" d="M68.192 202L77 195.669s-12.88-7.636-14.413-6.566C61.053 190.173 60 200.362 60 200.362L68.192 202z"/>
        <path fill="#000" d="M68.192 202L77 195.669s-12.88-7.636-14.413-6.566C61.053 190.173 60 200.362 60 200.362L68.192 202z" opacity=".03"/>
        <path fill="#1B435E" d="M62.714 189.37l-.254-.13c-.766-.394-1.691-.296-2.36.249l-25.304 20.659s-5.5 7.654-4.72 20.867l14.917 21.277s1.706-7.21 3.753-5.837c0 0 2.898 36.888 0 42.209-2.897 5.32-4.178 25.22-4.178 25.22L54.37 315s1.02-13.468 3.322-18.272c2.302-4.804 3.54-21.312 3.54-21.312s2.072-23.985 1.73-34.288c-.342-10.303-3.322-32.423-3.322-32.423s.832-12.97 3.074-19.335z"/>
        <path fill="#000" d="M89.17 198L78 194.068s14.231-14.796 16-6.588L89.17 198z" opacity=".1"/>
        <path fill="#E1E7EF" d="M89.17 197L78 193.074s14.231-14.803 16-6.594L89.17 197z"/>
        <path fill="#000" d="M89.17 197L78 193.074s14.231-14.803 16-6.594L89.17 197z" opacity=".03"/>
        <path fill="#000" d="M88.135 184.433c.254-.046.515.008.73.15l-.73-.15z" opacity=".1"/>
        <path fill="#1B435E" d="M89 184.01l28.244 6.067s7.766 1.718 13.375 21.13c5.61 19.41-7.682 43.205-7.682 43.205l-2.933-2.48 1.47 56.705s-13.035 4.895-17.175.595c-4.14-4.3-3.716-24.383-3.716-24.383s-3.966-37.128-6.475-43.241c-2.51-6.114-1.195-50.092-1.195-50.092s-2.336-7.844-3.913-7.505z"/>
        <path fill="#000" d="M115.364 220.26c-.392.366-.842 17.402.848 30.369 1.037 7.896 2.637 15.707 4.788 23.371l-2.508-51.963s-1.947-2.905-3.128-1.777zM112 205c.773.432 4.145 7.627 2.6 10.579C113.052 218.53 112 205 112 205zM85.302 142.503c-1.38-2.732-3.534-4.995-6.192-6.503 1.973 1.411 3.568 3.29 4.642 5.47 1.193 2.42.859 4.847-1.507 6.222-2.367 1.375-3.106 3.586-4.274 6.139-1.073 2.313-2.265 4.781-4.44 6.073-2.801 1.697-6.49 1.076-9.411 2.546-2.642 1.392-4.182 4.247-3.898 7.227.186 1.123.466 2.228.834 3.305.662 2.331.96 4.75.882 7.173.01.159-.02.317-.089.46-.172.227-.443.357-.727.347-.73.057-1.461-.079-2.122-.395.974.966 2.303 1.484 3.671 1.43.285.009.556-.12.728-.348.068-.143.1-.301.095-.46.071-2.422-.228-4.841-.888-7.173-.369-1.077-.648-2.182-.835-3.305-.283-2.978 1.258-5.831 3.898-7.221 2.92-1.476 6.61-.855 9.411-2.546 2.176-1.321 3.368-3.766 4.44-6.08 1.193-2.528 1.825-4.715 4.274-6.138 2.45-1.423 2.712-3.802 1.508-6.223z" opacity=".1"/>
        <ellipse cx="577.5" cy="454" fill="#17E4B2" opacity=".1" rx="24.5" ry="3"/>
        <ellipse cx="385.5" cy="485.5" fill="#17E4B2" opacity=".1" rx="17.5" ry="2.5"/>
        <ellipse cx="230.5" cy="468.5" fill="#17E4B2" opacity=".1" rx="17.5" ry="2.5"/>
        <path fill="#2BCDCC" d="M239.595 463.235c1.116-.907 1.927-2.132 2.327-3.51.304-1.39-.291-3.062-1.628-3.572-1.495-.57-3.093.467-4.302 1.51-1.21 1.043-2.601 2.237-4.18 2.013 1.655-1.501 2.402-3.758 1.968-5.948-.072-.445-.26-.864-.547-1.213-.832-.885-2.34-.503-3.33.194-3.16 2.213-4.04 6.5-4.059 10.35-.316-1.388-.048-2.837-.06-4.244-.013-1.407-.396-3.032-1.605-3.771-.743-.41-1.58-.62-2.43-.607-1.416-.054-3.002.091-3.968 1.128-1.215 1.285-.893 3.444.152 4.85 1.045 1.407 2.643 2.31 4.113 3.287 1.177.7 2.18 1.655 2.935 2.795.091.16.165.328.22.503h8.907c1.989-1.006 3.834-2.272 5.487-3.765zM587.571 450.235c1.122-.905 1.942-2.13 2.351-3.51.304-1.39-.291-3.032-1.628-3.572-1.494-.57-3.092.467-4.3 1.51-1.21 1.043-2.601 2.237-4.187 2.013 1.661-1.498 2.41-3.758 1.969-5.948-.066-.447-.255-.867-.547-1.213-.826-.885-2.333-.503-3.323.194-3.16 2.213-4.04 6.5-4.058 10.35-.322-1.388-.049-2.837-.061-4.244-.012-1.407-.4-3.032-1.604-3.771-.743-.41-1.58-.62-2.43-.607-1.421-.054-3 .091-3.973 1.128-1.215 1.285-.893 3.444.158 4.85 1.051 1.407 2.643 2.31 4.113 3.287 1.176.7 2.179 1.655 2.934 2.795.089.16.162.329.219.503h8.9c1.982-1.006 3.821-2.272 5.467-3.765zM390.592 478.203c1.115-.905 1.928-2.126 2.333-3.5.298-1.391-.298-3.023-1.628-3.561-1.495-.569-3.093.459-4.302 1.505-1.209 1.046-2.6 2.225-4.186 2.007 1.659-1.495 2.406-3.747 1.968-5.93-.068-.446-.257-.864-.546-1.21-.833-.883-2.333-.502-3.33.193-3.16 2.213-4.04 6.482-4.058 10.327-.316-1.385-.049-2.83-.055-4.232-.006-1.403-.401-3.023-1.604-3.76-.744-.408-1.581-.617-2.43-.605-1.422-.049-3.002.09-3.974 1.124-1.215 1.288-.893 3.44.158 4.837 1.051 1.396 2.643 2.297 4.107 3.277 1.192.706 2.206 1.674 2.965 2.83.088.158.16.324.219.495h8.895c1.986-1.014 3.826-2.292 5.468-3.797z"/>
        <path fill="url(#prefix__f)" d="M565.959 206.314c-7.775-.155-14.637-5.705-18.524-12.436-1.019-1.607-1.66-3.428-1.873-5.322.027-.432.099-.86.213-1.277.25-.632.448-1.282.593-1.946.033-.265.033-.534 0-.8v-.035c.19-1.444-.652-2.834-1.707-3.83-1.054-.997-2.34-1.72-3.425-2.68-3.342-2.954-4.355-7.692-4.42-12.203v-.239c.035-1.927.19-3.866.171-5.8.027-1.098-.02-2.196-.142-3.287-.32-2.733-1.35-5.514-3.484-7.256-5.564-4.541-14.921.185-20.675-4.112-1.405-1.044-2.536-2.601-4.231-2.983-1.286-.31-2.62.107-3.87.525-4.242 1.408-8.971 3.264-10.63 7.417-.949 2.387-.682 5.066-1.553 7.465-.593 1.605-1.641 2.983-2.424 4.51-.645 1.146-.959 2.45-.906 3.766-.066.681.03 1.368.278 2.005.293.76.765 1.438 1.375 1.975-.223.473-.502.918-.83 1.325-1.084 1.336-2.75 2.291-3.875 3.58-2.086 2.435-2.009 5.746-.978 8.61 1.031 2.865 2.88 5.472 4.148 8.26.551 1.193.996 2.565.42 3.77-.396.836-1.226 1.468-1.872 2.19-.946 1.07-1.538 2.408-1.694 3.831-12.7 2.918-12.705 13.187-12.705 13.187l-6.85 17.388s-1.097 2.924-2.37 6.785L456 237.235l5.606 9.512c-1.073 3.872-1.825 7.465-1.576 9.267 0 0-2.519 11.934 1.961 14.016l9.896 4.482c.427.26.888.461 1.369.596l.403.18c.291.143.633.143.924 0h.16c.202.02.405-.009.593-.084.222-.117.396-.31.492-.543.002-.018.002-.036 0-.054l2.962-.865 2.513 2.983c1.132.8 2.24 1.498 3.324 2.125l-3.863 38.905s-.628 51.711-2.519 63.484c-.705 4.362-.71 7.334-.444 9.357l-.071.13c.468 3.324 1.683 3.98 1.683 3.98v-.047l.07.048c.573-1.51 1.252-2.975 2.033-4.386v.847c-.035 4.392-.171 10.532-.592 14.524-.77 6.79 1.961 29.287 1.961 29.287l.942 20.467c.153 3.472-.646 6.92-2.31 9.965-2.235 4.087-5.144 9.834-5.334 12.382-.009.139-.009.278 0 .417l-4.954 5.806s-1.896 2.942 2.37 4.13c2.294.644 6.258 0 9.434-.758 2.86-.661 4.89-3.221 4.895-6.176.818-2.82 2.193-5.444 4.041-7.716l.8 4.708 5.334 1.331.681-12.907c.277-.726.402-1.502.367-2.28 1.05-9.177-2.47-8.353-2.47-8.353.089.087.149.2.171.322-.059-.101-.118-.209-.172-.316-2.163-4.296-1.102-11.338-1.102-11.338s2.803-20.455 3.787-25.855c.693-3.813.409-16.308.178-23.308 0-.292 0-.596-.03-.84 8.254-.108 18.37-.395 25.48-1.087v.847l-1.315 48.334c-.088 3.08-.708 6.12-1.83 8.986 0 .054-.048.108-.066.161-1.573 4.038-2.47 8.311-2.655 12.645l-.592 15.359v.424c-1.061.411-2.732 1.599-2.78 5.042-.07 5.042 8.753 3.36 8.753 3.36 8.823 0 8.888-9.25 8.888-9.25s.285-8.479.7-14.154c.414-5.674-1.328-4.421-1.328-4.421l-.13 16.111v.125-14.148l.136-2.052v-.06l.03-.436 1.096-16.648s8.124-27.747 9.387-33.07c.894-3.777.521-15.174.225-21.481 0-.292 0-.567-.036-.835 2.513-.227 4.74-.251 5.636-.251h.408s-.42-44.562-1.47-61.378c-1.048-16.815-2.73-32.162-6.938-36.787-2.536-2.792-6.074-11.42-8.48-17.812 5.017 2.189 10.225 3.906 15.555 5.132 13.31 2.805 11.49-8.831 11.49-8.831l-1.35-22h.088c-.048-5.765-.54-11.516-1.47-17.204-.699-4.362-1.777-8.873-3.425-12.53 1.446-.556 2.868-1.194 4.267-1.791 3.615-1.605 7.703-3.885 8.213-7.811h-.178c.067-.274.113-.554.137-.835zm-82.499 31.828c.036 2.274-.053 6.212-.184 10.574l-4.225-5.68 4.237-6.923.172 2.03zm58.404 20.115l-7.04-2.28c1.25-1.96 2.709-3.776 4.35-5.417l.593-.597-.22.048.344-.31.202-.048-.326.31.385-.078c.425 1.781 1.246 3.442 2.4 4.858 2.512 2.816-.711 3.514-.711 3.514h.023z"/>
        <path fill="#0F2636" d="M499 462L498.192 478 493.079 476.658 492 470z"/>
        <path fill="#EFB7B9" d="M518 479.329l8.016 1.671 5.93-5.289v-14.893l.13-2.035v-.06l.03-.43 1.078-16.534s8.016-27.56 9.262-32.83c.883-3.754.515-15.078.225-21.333-.119-2.567-.225-4.28-.225-4.28L524.753 379l-.373 13.729-1.293 47.992c-.088 3.057-.702 6.077-1.814 8.923l-.06.161c-1.54 4.021-2.408 8.271-2.567 12.577l-.593 15.251v.424L518 479.33z"/>
        <path fill="#000" d="M532.475 459.15L532.475 459.86 532.475 459.86 532.525 459.14zM518 479.47l8.048 1.53 5.952-4.842V475c-.037.523-.36.994-.857 1.251l-.083.044c-2.772 1.347-5.914 1.918-9.036 1.64l-3.143-.246c-.283.028-.562.09-.827.185v.388L518 479.47z" opacity=".1"/>
        <path fill="#16374D" d="M531.57 476.661l.083-.048c.527-.299.853-.865.85-1.479l.13-16.02s1.714-1.234 1.303 4.396c-.41 5.63-.687 14.046-.687 14.046s-.064 9.179-8.689 9.179c0 0-8.624 1.664-8.56-3.34.065-5.004 3.564-5.213 3.564-5.213l3.094.274c3.08.298 6.178-.326 8.912-1.795z"/>
        <path fill="#EFB7B9" d="M476.01 476.868c.213 3.624 11.087 1.53 11.087 1.53l7.32-13.94s6.099-4.605 3.05-8.648c-.167-.22-.318-.449-.452-.688v-.036c-.067-.107-.122-.215-.183-.329-2.196-4.27-1.116-11.273-1.116-11.273s2.842-20.334 3.842-25.716c.702-3.798.415-16.232.177-23.193-.091-2.889-.177-4.838-.177-4.838L481.492 385v5.28c-.036 4.367-.17 10.479-.61 14.45-.78 6.764 1.995 29.143 1.995 29.143l.957 20.37c.137 3.448-.692 6.867-2.397 9.886-2.269 4.067-5.22 9.79-5.428 12.326-.012.137-.012.275 0 .413z"/>
        <path fill="#000" d="M476 476.857c.21 3.642 10.934 1.539 10.934 1.539l7.217-14.013s6.014-4.628 3.007-8.692c-.164-.22-.312-.451-.445-.691-.096 2.122-2.406 7.418-2.406 7.418s-5.96 11.92-7.818 14.65c-1.859 2.728-10.134-.506-10.44-.602-.028.129-.044.26-.049.39z" opacity=".1"/>
        <path fill="#16374D" d="M496.284 455.018s3.582-.806 2.519 8.245c.079 2.095-1.006 4.07-2.843 5.175-2.561 1.565-6.522 4.926-8.521 11.464.003 2.907-2.058 5.433-4.976 6.1-3.234.728-7.269 1.374-9.604.74-4.346-1.185-2.445-4.072-2.445-4.072l4.988-5.738s8.693 3.32 10.618.622c1.926-2.696 7.947-14.445 7.947-14.445s3.405-7.332 2.317-8.09z"/>
        <path fill="#000" d="M525.368 381L525 395c4.668-.469 7.959-1.126 8.53-2.045 1.22-1.978 5.677-2.818 9.47-3.16-.117-2.617-.222-4.364-.222-4.364L525.368 381zM481 391.933c.436-.866 1.072-1.62 1.858-2.201 1.79-.978 1.597 6.252 1.597 6.252s5.937.056 13.545-.04c-.085-2.703-.165-4.52-.165-4.52L481.005 387s.023 2.062-.005 4.933z" opacity=".1"/>
        <path fill="#1B435E" d="M478.883 393.997s2.107-5.652 3.997-6.69c1.89-1.038 1.692 6.678 1.692 6.678s46.32.418 48.637-3.133c2.318-3.55 15.791-3.336 15.791-3.336s-.421-44.25-1.475-60.948c-1.053-16.697-2.74-31.933-6.947-36.522-2.727-2.984-6.623-12.586-8.994-18.995-1.307-3.503-2.168-6.051-2.168-6.051l-44.212 2.506-.361 3.545-4.696 46.548s-.602 51.322-2.529 63.03c-1.926 11.709 1.265 13.368 1.265 13.368z"/>
        <g fill="#000" opacity=".1">
            <path d="M52.638 126.358c2.304-3.559 15.738-3.35 15.738-3.35s-.42-44.42-1.47-61.183c-1.05-16.762-2.73-32.057-6.924-36.664-2.718-2.995-6.6-12.634-8.964-19.068C49.926 3.139 49.146.863 48.924.21l3.42-.192s.858 2.558 2.16 6.075c2.4 6.434 6.246 16.085 8.964 19.068 4.2 4.607 5.874 19.902 6.924 36.664 1.05 16.762 1.446 61.154 1.446 61.154s-13.428-.216-15.732 3.379c-1.974 3.043-35.946 3.18-45.81 3.157 12.648-.06 40.542-.438 42.342-3.157zM2.46 122.763c.852-.473 1.278.839 1.488 2.396-.761 1.382-1.425 2.816-1.986 4.29 0 0-1.2-.653-1.68-3.966.666-1.18 1.44-2.307 2.178-2.72z" transform="translate(477 265)"/>
        </g>
        <path fill="#185C8A" d="M492.915 157.265c-3.093 4.125.037 9.98-3.282 13.986-1.096 1.326-2.782 2.271-3.927 3.567-2.119 2.413-2.033 5.682-.992 8.518 1.04 2.835 2.922 5.409 4.213 8.167.56 1.189 1.01 2.538.432 3.727-.402.826-1.217 1.45-1.9 2.17-2.13 2.323-2.191 5.557-1.047 8.291 1.145 2.734 3.343 5.106 5.48 7.412.853.916 1.93 1.92 3.349 1.897.747-.06 1.47-.292 2.106-.678 5.05-2.596 8.882-6.992 10.698-12.274 1.535-4.97 1.211-10.31-.913-15.069-1.827-4.202-4.798-8.232-4.822-12.678 0-3.525 1.857-6.89 2.185-10.402.402-4.262-2.185-11.039-7.458-12.899.347 2.752-2.527 4.173-4.122 6.265z"/>
        <path fill="#000" d="M526 308c-6.022.338-11.688 3.076-16.958 6.178-5.27 3.101-10.37 6.642-16.042 8.822M523 323c-6.111.568-11.807 3.25-16.044 7.554-1.5 1.54-2.792 3.268-4.357 4.743-2.4 2.26-5.362 3.88-8.599 4.703M524 333c-4.791 1.363-9.128 4.043-12.541 7.75-.92 1.017-1.77 2.112-2.68 3.123-4.975 5.445-11.998 8.38-18.779 11.127" opacity=".1"/>
        <path fill="#CC9C9E" d="M523.748 182.293c.14 4.867.569 9.722 1.286 14.54.576 3.435 1.397 6.492 2.574 7.85 3.425 3.98-16.715 9.317-16.715 9.317L499 205.025s9.43-8.48 5.037-16.754c-4.394-8.276 19.71-5.978 19.71-5.978z"/>
        <path fill="#000" d="M486 270h46c-1.286-3.473-2.133-6-2.133-6l-43.512 2.485L486 270z" opacity=".1"/>
        <path fill="#1B435E" d="M482.114 270h49.929c-1.402-4.971 0-9.58 2.003-13.114 1.4-2.483 3.161-4.749 5.227-6.724l.343-.304 17.445-3.833.939-.202s.138-31.408-11.08-35.718c-11.22-4.31-17.957-10.133-17.957-10.133l-15.424 4.72L502.175 199c-3.645 3.892-13.324 2.384-13.324 2.384C473 203.173 473 215.005 473 215.005s9.258 21.405 9.962 21.405c.704 0-.848 33.59-.848 33.59z"/>
        <path fill="#000" d="M500 250s-10.446-2.182-14-6M550.674 238L539 247.717c.085.768.214 1.53.387 2.283l.34-.308L557 245.809 550.674 238zM518 266.66s2.7 1.446 6.83 3.34h7.08c-1.463-4.983 0-9.602 2.09-13.146L521.49 253c4.268 3.764-3.49 13.66-3.49 13.66z" opacity=".1"/>
        <path fill="#1B435E" d="M480.002 211l-6.998 3.742-6.86 17.199s-7.136 18.864-6.44 23.861c0 0-2.515 11.785 1.962 13.867l11.68 5.235c.422.19.919.092 1.235-.243.317-.335.382-.833.163-1.238-1.662-3.123-3.487-8.001-.6-10.708l-3.36-6.93 12.165-19.68 4.051-6.77L480.002 211z"/>
        <path fill="#000" d="M496.07 245.845c.591 2.513 2.613 6.373 9.283 7.83l7.343 6.184 7.787 3.66 3.169 1.481L525 254.974l-3.057-1.726-3.547-2.006s-8.035-15.026-20.765-8.678c-1.205.578-1.855 1.945-1.56 3.281z" opacity=".1"/>
        <path fill="#EFB7B9" d="M496.069 245.636c.591 2.408 2.613 6.108 9.283 7.504l7.344 5.933 7.787 3.507 3.169 1.42 1.348-9.609-3.057-1.648-3.548-1.929s-8.035-14.395-20.765-8.317c-1.202.553-1.852 1.86-1.561 3.139z"/>
        <circle cx="510" cy="177" r="18" fill="#000" opacity=".1"/>
        <circle cx="510" cy="177" r="18" fill="#EFB7B9"/>
        <path fill="#215578" d="M521.466 215L516 204.7s8.04-3.128 8.624-6.76c.583-3.632 7.7 4.253 6.158 6.866-1.543 2.613-9.316 10.194-9.316 10.194z" opacity=".1"/>
        <path fill="#215578" d="M521.466 214L516 203.7s8.04-3.128 8.624-6.76c.583-3.633 7.7 4.259 6.158 6.866-1.543 2.607-9.316 10.194-9.316 10.194z"/>
        <path fill="#F6F8FB" d="M476.799 241.905L507 282.327s-11.126 6.017-26.48-4.77l-6.644-7.852L455 238l21.799 3.905z"/>
        <path fill="#EFB7B9" d="M471.733 263.281l2.734-.071s16.705-16.029 20.803-7.92c4.098 8.11-10.401 15.673-10.401 15.673l-4.41 2.375-5.782 1.662-3.677-4.88.733-6.839z"/>
        <path fill="#000" d="M475.694 271.521c.256.937.5 1.971.073 2.842-.099.235-.279.428-.507.544-.193.08-.404.109-.612.085-1.472-.125-2.842-.797-3.833-1.88-.978-1.077-1.814-2.272-2.488-3.556-.758-1.3-1.546-2.751-1.271-4.233.3-1.62 1.76-2.745 3.154-3.627 2.818-1.845 2.886.302 3.527 2.672l1.957 7.153z" opacity=".1"/>
        <path fill="#215578" d="M475.694 271.521c.256.937.5 1.971.073 2.842-.099.235-.279.428-.507.544-.193.08-.404.109-.612.085-1.472-.125-2.842-.797-3.833-1.88-.978-1.077-1.814-2.272-2.488-3.556-.758-1.3-1.546-2.751-1.271-4.233.3-1.62 1.76-2.745 3.154-3.627 2.818-1.845 2.886.302 3.527 2.672l1.957 7.153z"/>
        <path fill="#000" d="M483 236.692L485 234 483.249 239zM521 262.612l3.508 1.388 1.492-9.39-3.384-1.61c2.31 2.319.288 6.625-1.616 9.612zM534 250.947s-10.533.557-15-1.947" opacity=".1"/>
        <g fill="#000" opacity=".1">
            <path d="M44.327 58.266c1.396-2.499 3.15-4.78 5.205-6.768.494-.31 1.005-.591 1.532-.84l16.154-3.324.933-.204s.144-31.614-11.02-35.952c-6.257-2.393-12.122-5.707-17.405-9.834l1.227-.378s6.695 5.874 17.853 10.2C69.964 15.492 69.838 47.13 69.838 47.13h-1.675l-16.537 3.174-.933.894c-2.073 2.08-3.851 4.436-5.283 7.002-2.182 4.07-2.679 8.838-1.382 13.272h-1.71c-1.377-5.004.041-9.642 2.01-13.206zM.24 2.472c.269-.036.526-.078.801-.108 1.132.16 2.273.255 3.416.282-1.408.039-2.817-.02-4.218-.174zM23.92 5.718L13.7.552c.213-.168.413-.35.6-.546l10.66 5.4-1.04.312z" transform="translate(488 200)"/>
        </g>
        <path fill="#1B435E" d="M550.71 237l6.819 8.515 1.39 23.11s1.79 11.769-11.406 8.934C534.318 274.725 519 265.931 519 265.931s7.373-10.071 3.34-13.897l18.916 6.24s3.197-.711.692-3.546c-2.506-2.834-2.947-7.942-2.947-7.942l11.71-9.786z"/>
        <path fill="#000" d="M554 261l4 5c-2.098-.7-3.649-2.638-4-5zM547 261L553 268.32 550.003 269zM489.298 167.961c-.642-1.581-.155-3.409.594-4.93.75-1.521 1.825-2.904 2.378-4.516.862-2.405.594-5.098 1.533-7.467 1.647-4.149 6.325-6.013 10.521-7.414 1.236-.415 2.556-.835 3.828-.529 1.676.41 2.8 1.966 4.16 3.006 5.695 4.293 14.95-.432 20.454 4.113 2.11 1.738 3.132 4.528 3.447 7.257.315 2.73 0 5.502-.03 8.255-.088 4.81.797 10.09 4.37 13.282 1.075.962 2.341 1.69 3.388 2.682 1.046.992 1.872 2.405 1.688 3.83-.148.662-.347 1.311-.595 1.942-.713 2.513.345 5.177 1.635 7.443 3.852 6.734 10.634 12.284 18.331 12.44-.517 3.926-4.547 6.205-8.125 7.817-4.56 2.05-9.35 4.064-14.331 3.806-4.981-.259-10.176-3.482-11.062-8.418-.303-1.702-.261-3.788-1.724-4.684-.88-.541-2.02-.403-2.972-.812-1.373-.6-2.056-2.128-2.508-3.571-.928-2.966-1.427-6.052-1.48-9.163-.06-3.686.428-7.708-1.64-10.745-1.915-2.807-5.314-4.208-7.52-6.818-2.033-2.405-4.25-5.279-7.584-5.736-4.482-.655-14.028 5.688-16.756-1.07z" opacity=".1"/>
        <path fill="#185C8A" d="M489.298 166.961c-.642-1.581-.155-3.41.594-4.93.75-1.521 1.825-2.904 2.378-4.516.862-2.405.594-5.098 1.533-7.467 1.647-4.149 6.325-6.013 10.521-7.414 1.236-.415 2.556-.835 3.828-.529 1.676.41 2.8 1.966 4.16 3.006 5.695 4.3 14.95-.432 20.454 4.113 2.11 1.744 3.132 4.527 3.447 7.257.315 2.73 0 5.502-.03 8.255-.088 4.81.797 10.09 4.37 13.282 1.075.962 2.341 1.69 3.388 2.682 1.046.992 1.872 2.405 1.688 3.83-.149.663-.348 1.315-.595 1.948-.713 2.507.345 5.177 1.635 7.437 3.852 6.734 10.634 12.284 18.331 12.44-.517 3.926-4.547 6.205-8.125 7.817-4.56 2.056-9.35 4.064-14.331 3.805-4.981-.258-10.176-3.48-11.062-8.447-.303-1.702-.261-3.788-1.724-4.684-.88-.541-2.02-.403-2.972-.812-1.373-.6-2.056-2.128-2.508-3.571-.928-2.966-1.427-6.053-1.48-9.163-.06-3.686.428-7.708-1.64-10.745-1.915-2.807-5.314-4.208-7.52-6.818-2.033-2.405-4.25-5.279-7.584-5.736-4.482-.595-14.028 5.718-16.756-1.04z"/>
        <path fill="#000" d="M502.582 214L513 205.404s-7.13-3.93-7.982-7.282c-.852-3.352-6.557 1.59-5.977 4.599.58 3.008 3.541 11.279 3.541 11.279z" opacity=".1"/>
        <path fill="#215578" d="M502.582 213L513 204.404s-7.13-3.93-7.982-7.282c-.852-3.352-6.557 1.59-5.977 4.599.58 3.008 3.541 11.279 3.541 11.279z"/>
        <circle cx="513" cy="211" r="1" fill="#000" opacity=".1"/>
        <circle cx="513" cy="215" r="1" fill="#000" opacity=".1"/>
        <circle cx="513" cy="220" r="1" fill="#000" opacity=".1"/>
        <g fill="#000" opacity=".1">
            <path d="M4.614 6.99c.812-2.231.639-4.73 1.397-6.972-.348.497-.638 1.032-.866 1.594-.943 2.344-.68 5.02-1.54 7.394 0 .041-.042.089-.06.136.422-.683.78-1.404 1.069-2.153zM69.55 63.04c-4.578 2.034-9.389 4.02-14.397 3.765-5.007-.256-10.212-3.444-11.102-8.357-.304-1.684-.262-3.748-1.73-4.634-.884-.535-2.03-.398-2.985-.803-1.385-.595-2.066-2.106-2.52-3.533-.932-2.938-1.433-5.996-1.486-9.077-.06-3.647.424-7.626-1.647-10.63-1.922-2.778-5.336-4.164-7.55-6.745-2.048-2.38-4.269-5.223-7.623-5.675-4.596-.595-14.188 5.651-16.922-1.035-.439-1.264-.377-2.646.173-3.866-.197.333-.388.666-.561 1.005-.776 1.505-1.266 3.313-.597 4.878 2.74 6.685 12.326.41 16.928 1.035 3.349.452 5.575 3.313 7.622 5.674 2.215 2.558 5.623 3.968 7.545 6.752 2.077 2.974 1.594 6.983 1.654 10.623.049 3.08.547 6.135 1.48 9.071.454 1.422 1.14 2.974 2.519 3.534.955.398 2.1.267 2.984.803 1.463.88 1.427 2.974 1.725 4.627.89 4.914 6.107 8.108 11.109 8.364 5.002.255 9.819-1.737 14.39-3.772 3.296-1.457 6.967-3.485 7.952-6.804-1.6 2.183-4.394 3.664-6.96 4.8z" transform="translate(489 149)"/>
        </g>
    </g>
</svg>
