<svg xmlns="http://www.w3.org/2000/svg" xmlns:xlink="http://www.w3.org/1999/xlink" width="36" height="46" viewBox="0 0 36 46">
    <defs>
        <path id="prefix__a" d="M0.09 22.484L22.349 44.748 22.349 0.221z"/>
        <path id="prefix__d" d="M.067 5.838l-.043 20.48 23.78.05.054-26.262L.08.056.067 5.838"/>
        <path id="prefix__f" d="M.005.13l.043 20.663.012 5.833 23.78-.05L23.784.081"/>
        <linearGradient id="prefix__b" x1="-.001%" x2="99.999%" y1="50%" y2="50%">
            <stop offset="0%" stop-color="#2BCCCD"/>
            <stop offset="100%" stop-color="#08F49E"/>
        </linearGradient>
    </defs>
    <g fill="none" fill-rule="evenodd">
        <g transform="translate(12.612 .651)">
            <mask id="prefix__c" fill="#fff">
                <use xlink:href="#prefix__a"/>
            </mask>
            <path fill="url(#prefix__b)" d="M0.09 22.484L22.349 44.748 22.349 0.221z" mask="url(#prefix__c)"/>
        </g>
        <g transform="translate(.77 18.976)">
            <mask id="prefix__e" fill="#fff">
                <use xlink:href="#prefix__d"/>
            </mask>
            <path fill="#112C3E" d="M-1.936 8.491C-1.078 5.641-.777 2.906.08.056c13.165 15 14.423 15.683 34.47 38.523" mask="url(#prefix__e)"/>
        </g>
        <path fill="#1B435E" d="M0.812 45.345L24.574 45.345 0.812 21.578z"/>
        <g transform="translate(.77 .874)">
            <mask id="prefix__g" fill="#fff">
                <use xlink:href="#prefix__f"/>
            </mask>
            <path fill="#112C3E" d="M2.89 14.41c-.219 2.326-.33 4.799-.283 7.403.01.529.025 1.051.047 1.567L24.249-.426l.108-.126c3.612-4.206 7.276-8.339 11-12.39" mask="url(#prefix__g)"/>
        </g>
        <path fill="#1B435E" d="M0.812 0.98L24.574 0.98 0.812 24.747z"/>
    </g>
</svg>
