<svg xmlns="http://www.w3.org/2000/svg" xmlns:xlink="http://www.w3.org/1999/xlink" width="132" height="64" viewBox="0 0 132 64">
    <defs>
        <path id="prefix__a" d="M0.09 22.484L22.349 44.748 22.349 0.221z"/>
        <path id="prefix__d" d="M.067 5.838l-.043 20.48 23.78.05.054-26.262L.08.056.067 5.838"/>
        <path id="prefix__f" d="M.005.13l.043 20.663.012 5.833 23.78-.05L23.784.081"/>
        <linearGradient id="prefix__b" x1="-.001%" x2="99.999%" y1="50%" y2="50%">
            <stop offset="0%" stop-color="#2BCCCD"/>
            <stop offset="100%" stop-color="#08F49E"/>
        </linearGradient>
    </defs>
    <g fill="none" fill-rule="evenodd">
        <text fill="#FFF" font-family="Lato-Black, Lato" font-size="10" font-weight="700" letter-spacing="1.203">
            <tspan x="0" y="61">Gemeinsam Erfolgreich</tspan>
        </text>
        <path fill="#CFD1D0" d="M9.443 38.007L28.981 38.007 28.981 46.751 0.303 46.751 0.303 0.381 28.649 0.381 28.649 9.125 9.443 9.125 9.443 18.995 26.994 18.995 26.994 27.607 9.443 27.607z"/>
        <path fill="#FFF" d="M9.029 37.93L28.114 37.93 28.114 46.656.1 46.656.1.381 27.791.381 27.791 9.107 9.029 9.107 9.029 18.957 26.173 18.957 26.173 27.551 9.029 27.551zM130.435.381L130.435 46.751 121.361 46.751 121.361 16.677 108.314 38.206 107.255 38.206 94.207 16.743 94.207 46.751 85.068 46.751 85.068.381 94.472.381 107.784 22.308 121.031.381z"/>
        <g fill="#CFD1D0">
            <path d="M36.403 23.274l.023-6.771c.002-.004 3.02-5.64 6.415-11.786C45.26.337 45.46.06 45.526.089c.245.107-1.288 4.465-9.123 23.185M9.312 23.318l-.023-6.771c-.002-.004-3.021-5.64-6.415-11.786C.454.38.255.104.189.133-.057.24 1.477 4.598 9.312 23.318" transform="translate(84.903 .204)"/>
        </g>
        <g transform="translate(51.612 .651)">
            <mask id="prefix__c" fill="#fff">
                <use xlink:href="#prefix__a"/>
            </mask>
            <path fill="url(#prefix__b)" d="M0.09 22.484L22.349 44.748 22.349 0.221z" mask="url(#prefix__c)"/>
        </g>
        <g transform="translate(39.77 18.976)">
            <mask id="prefix__e" fill="#fff">
                <use xlink:href="#prefix__d"/>
            </mask>
            <path fill="#158768" d="M-1.936 8.491C-1.078 5.641-.777 2.906.08.056c13.165 15 14.423 15.683 34.47 38.523" mask="url(#prefix__e)"/>
        </g>
        <path fill="#FFF" d="M39.812 45.345L63.574 45.345 39.812 21.578z"/>
        <g transform="translate(39.77 .874)">
            <mask id="prefix__g" fill="#fff">
                <use xlink:href="#prefix__f"/>
            </mask>
            <path fill="#158768" d="M2.89 14.41c-.219 2.326-.33 4.799-.283 7.403.01.529.025 1.051.047 1.567L24.249-.426l.108-.126c3.612-4.206 7.276-8.339 11-12.39" mask="url(#prefix__g)"/>
        </g>
        <path fill="#FFF" d="M39.812 0.98L63.574 0.98 39.812 24.747z"/>
    </g>
</svg>
