<svg xmlns="http://www.w3.org/2000/svg" xmlns:xlink="http://www.w3.org/1999/xlink" width="884" height="629" viewBox="0 0 884 629">
    <defs>
        <path id="prefix__a" d="M0 667L884 667 884 0.699 0 0.699z"/>
    </defs>
    <g fill="none" fill-rule="evenodd" transform="translate(0 -38)">
        <path fill="#ECECEC" d="M0 587.25L884 587.25 884 586.75 0 586.75zM736 615.25L795 615.25 795 614.75 736 614.75zM570 621.25L585 621.25 585 620.75 570 620.75zM701 599.25L735 599.25 735 598.75 701 598.75zM93 603.25L169 603.25 169 602.75 93 602.75zM185 603.25L197 603.25 197 602.75 185 602.75zM232 609.249L398 609.249 398 608.751 232 608.751z"/>
        <mask id="prefix__b" fill="#fff">
            <use xlink:href="#prefix__a"/>
        </mask>
        <path fill="#E7E7E7" d="M473.437 586.239L535.495 586.239 535.495 352.464 473.437 352.464z" mask="url(#prefix__b)"/>
        <path fill="#F0F0F0" d="M483.765 586.239L473.437 586.239 473.437 565.203 494.594 565.203z" mask="url(#prefix__b)"/>
        <path fill="#E7FCF7" d="M726.013 586.239L788.072 586.239 788.072 352.464 726.013 352.464z" mask="url(#prefix__b)"/>
        <path fill="#E7FCF7" d="M481.449 424.362L727.016 424.362 727.016 362.467 481.449 362.467z" mask="url(#prefix__b)"/>
        <path fill="#F0F0F0" d="M592.632 381.702h23.198c10.078 0 19.71-7.636 26.64-21.117h-76.478c6.93 13.481 16.565 21.117 26.64 21.117M724.699 586.239L735.026 586.239 735.026 565.203 713.87 565.203z" mask="url(#prefix__b)"/>
        <path fill="#E7FCF7" d="M481.449 496.261L727.016 496.261 727.016 434.365 481.449 434.365z" mask="url(#prefix__b)"/>
        <path fill="#F0F0F0" d="M592.632 453.6h23.198c10.078 0 19.71-7.636 26.64-21.117h-76.478c6.93 13.481 16.565 21.117 26.64 21.117" mask="url(#prefix__b)"/>
        <path fill="#E7FCF7" d="M481.449 568.159L727.016 568.159 727.016 506.264 481.449 506.264z" mask="url(#prefix__b)"/>
        <path fill="#F0F0F0" d="M592.632 525.498h23.198c10.078 0 19.71-7.636 26.64-21.117h-76.478c6.93 13.481 16.565 21.117 26.64 21.117" mask="url(#prefix__b)"/>
        <path fill="#E7E7E7" d="M137.899 299.447L374.881 299.447 374.881 56.904 137.899 56.904z" mask="url(#prefix__b)"/>
        <path fill="#E7FCF7" d="M121.435 299.447L370.507 299.447 370.507 56.904 121.435 56.904z" mask="url(#prefix__b)"/>
        <path fill="#FFF" d="M142.303 278.345L349.641 278.345 349.641 78.01 142.303 78.01z" mask="url(#prefix__b)"/>
        <path fill="#F0F0F0" d="M282.61 210.43v-64.505c17.583 17.784 17.583 46.722 0 64.506zm-73.278 0c-17.583-17.783-17.583-46.721 0-64.505v64.506zm35.224-105.86l-38.057 38.49c-19.145 19.365-19.147 50.873-.001 70.237l38.056 38.491c.781.79 2.05.789 2.832-.001l38.056-38.491c19.146-19.365 19.148-50.873.002-70.238l-38.054-38.49c-.782-.791-2.053-.791-2.834.001z" mask="url(#prefix__b)"/>
        <path fill="#E7E7E7" d="M719.318 269.012L586.913 269.012 579.355 348.093 711.762 348.093zM711.762 348.093L711.226 352.465 578.813 352.465 579.349 348.093z" mask="url(#prefix__b)"/>
        <path fill="#F0F0F0" d="M715.243 269.012L582.837 269.012 575.279 348.093 707.687 348.093z" mask="url(#prefix__b)"/>
        <path fill="#FFF" d="M705.01 342.941l5.532-68.504c.08-.976-.683-1.811-1.65-1.811H587.166c-.863 0-1.581.668-1.652 1.537l-5.534 68.507c-.08.974.683 1.81 1.65 1.81h121.728c.863 0 1.581-.67 1.652-1.539" mask="url(#prefix__b)"/>
        <path fill="#F0F0F0" d="M673.186 348.093L672.65 352.465 526.843 352.465 527.379 348.093z" mask="url(#prefix__b)"/>
        <path fill="#E7FCF7" d="M495.197 226.746L743.833 226.746 743.833 59.574 495.197 59.574z" mask="url(#prefix__b)"/>
        <path fill="#F5F5F5" d="M489.672 226.746L738.308 226.746 738.308 59.574 489.672 59.574z" mask="url(#prefix__b)"/>
        <path fill="#FFF" d="M499.591 215.479L728.391 215.479 728.391 70.841 499.591 70.841z" mask="url(#prefix__b)"/>
        <path fill="#E7E7E7" d="M499.591 215.479L503.769 215.479 503.769 70.841 499.591 70.841z" mask="url(#prefix__b)"/>
        <path fill="#F5F5F5" d="M493.774 196.288L734.206 196.288 734.206 181.161 493.774 181.161z" mask="url(#prefix__b)"/>
        <path fill="#E7E7E7" d="M478.86 40.924h275.785c.84 0 1.528.695 1.528 1.545 0 .849-.688 1.543-1.528 1.543H478.86c-.84 0-1.528-.694-1.528-1.543 0-.85.688-1.545 1.528-1.545" mask="url(#prefix__b)"/>
        <path fill="#E7E7E7" d="M473.516 42.468c0 2.131 1.71 3.86 3.817 3.86 2.108 0 3.817-1.729 3.817-3.86 0-2.132-1.71-3.861-3.817-3.861s-3.817 1.73-3.817 3.86M741.773 51.116c1.133 0 2.061-.939 2.061-2.085v-4.478c0-1.148-.928-2.085-2.061-2.085-1.134 0-2.062.937-2.062 2.085v4.478c0 1.146.928 2.085 2.062 2.085M501.887 51.116c1.133 0 2.062-.939 2.062-2.085v-4.478c0-1.148-.929-2.085-2.062-2.085-1.133 0-2.061.937-2.061 2.085v4.478c0 1.146.928 2.085 2.061 2.085" mask="url(#prefix__b)"/>
        <path fill="#E7FCF7" d="M479.347 204.898L734.206 204.898 734.206 42.466 479.347 42.466z" mask="url(#prefix__b)"/>
        <path fill="#E7E7E7" d="M713.401 42.468c0 2.131 1.71 3.86 3.818 3.86 2.107 0 3.817-1.729 3.817-3.86 0-2.132-1.71-3.861-3.817-3.861-2.108 0-3.818 1.73-3.818 3.86" mask="url(#prefix__b)"/>
        <path fill="#F0F0F0" d="M352.716 574.655L373.154 574.655 373.154 395.358 352.716 395.358zM131.012 586.016L365.306 586.016 365.306 574.655 131.012 574.655z" mask="url(#prefix__b)"/>
        <path fill="#E7FCF7" d="M123.162 574.655L352.716 574.655 352.716 395.358 123.162 395.358z" mask="url(#prefix__b)"/>
        <path fill="#F0F0F0" d="M324.054 476.23H151.826c-6.954 0-12.592-5.704-12.592-12.738v-33.329c0-7.035 5.638-12.737 12.592-12.737h172.228c6.955 0 12.591 5.702 12.591 12.737v33.329c0 7.034-5.636 12.737-12.591 12.737M324.054 552.585H151.826c-6.954 0-12.592-5.703-12.592-12.738V506.52c0-7.035 5.638-12.737 12.592-12.737h172.228c6.955 0 12.591 5.702 12.591 12.737v33.328c0 7.035-5.636 12.738-12.591 12.738" mask="url(#prefix__b)"/>
        <path fill="#F5F5F5" d="M195.168 450.86h85.543c2.193 0 3.987-1.816 3.987-4.033 0-2.217-1.794-4.032-3.987-4.032h-85.543c-2.192 0-3.987 1.815-3.987 4.032s1.795 4.032 3.987 4.032M195.168 527.215h85.543c2.193 0 3.987-1.815 3.987-4.032 0-2.218-1.794-4.033-3.987-4.033h-85.543c-2.192 0-3.987 1.815-3.987 4.033 0 2.217 1.795 4.032 3.987 4.032" mask="url(#prefix__b)"/>
        <path fill="#F5F5F5" d="M785 646.5c0 11.323-153.342 20.5-342.5 20.5S100 657.823 100 646.5c0-11.32 153.342-20.5 342.5-20.5S785 635.18 785 646.5"/>
        <path fill="#1A2E35" d="M517.624 84L191 84 216.376 534 543 534z"/>
        <path fill="#1B435E" d="M524.624 84L198 84 223.376 534 550 534z"/>
        <g>
            <path fill="#000" d="M289.154 36.46L0.161 36.46 20.877 444.602 317.381 444.602z" transform="translate(212 62)"/>
            <path fill="#FFF" d="M.16 36.46c21.48 136.047 6.746 272.095 28.226 408.142H324.89c-21.48-136.047-6.747-272.095-28.225-408.142H.16z" transform="translate(212 62)"/>
            <path fill="#1B435E" d="M60.605 153.569c-16.223 0-28.71 13.342-28.137 29.795.574 16.454 14.065 29.8 30.294 29.798 16.22-.002 29.036-13.337 28.46-29.798-.57-16.457-14.393-29.794-30.617-29.795m.18 5.188c13.41.004 24.845 11.067 25.322 24.676.23 6.56-2.091 12.723-6.52 17.358-4.429 4.63-10.433 7.177-16.903 7.179-13.416.004-24.622-11.067-25.099-24.674-.23-6.564 2.042-12.72 6.408-17.355 4.37-4.631 10.326-7.182 16.793-7.184" transform="translate(212 62)"/>
            <path fill="#E1E1E1" d="M224.717 382.25h-93.659c-3.027.003-5.261 2.492-4.972 5.56.288 3.07 2.996 5.558 6.02 5.56h93.658c3.028-.002 5.232-2.488 4.944-5.56-.288-3.07-2.966-5.559-5.991-5.56M274.791 358.866H129.212c-3.024-.002-5.31 2.481-5.083 5.56.224 3.072 2.88 5.562 5.905 5.562h145.579c3.029 0 5.286-2.487 5.06-5.561-.002 0-.002 0 0 0-.226-3.067-2.854-5.561-5.882-5.561" transform="translate(212 62)"/>
            <path fill="#1B435E" d="M63.696 249.943c-16.216-.003-29.057 13.348-28.575 29.8.479 16.454 14.175 29.796 30.402 29.796 16.221-.002 28.835-13.339 28.352-29.796-.485-16.461-13.948-29.798-30.179-29.8m.064 5.192c13.418.002 24.597 11.063 24.998 24.674.196 6.554-2.116 12.731-6.52 17.359-4.402 4.635-10.383 7.18-16.85 7.18-13.41.002-24.756-11.072-25.15-24.675-.194-6.563 2.155-12.726 6.599-17.355 4.446-4.639 10.456-7.186 16.923-7.183" transform="translate(212 62)"/>
            <path fill="#E1E1E1" d="M172.737 177.235h-50.062c-3.028 0-5.578-2.488-5.698-5.561 0 .002 0 .002 0 0-.128-3.073 2.227-5.56 5.252-5.56h50.063c3.03.002 5.592 2.49 5.712 5.56 0 .002 0 .002 0 0 .122 3.074-2.238 5.557-5.267 5.561M230.542 177.235h-33.925c-3.024 0-5.573-2.488-5.698-5.561 0 .002 0 .002 0 0-.122-3.073 2.225-5.56 5.253-5.56h33.925c3.031.002 5.587 2.49 5.712 5.56 0 .002 0 .002 0 0 .122 3.074-2.24 5.557-5.267 5.561M257.858 200.617H123.456c-3.029-.002-5.555-2.489-5.652-5.561 0 .002 0 .002 0 0-.099-3.071 2.275-5.565 5.303-5.561h134.401c3.03.003 5.566 2.494 5.661 5.56 0 .003 0 .003 0 0 .094 3.073-2.28 5.562-5.311 5.562" transform="translate(212 62)"/>
            <path fill="#1B435E" d="M67.346 346.32c-16.216-.001-28.618 13.34-27.243 29.8 1.361 16.452 16.06 29.796 32.279 29.796 16.225.002 27.837-13.34 26.475-29.796-1.374-16.458-15.279-29.807-31.511-29.8m.256 5.19c13.42.003 25.004 11.071 26.141 24.676.55 6.557-1.391 12.724-5.495 17.357-4.103 4.635-9.896 7.18-16.368 7.183-13.41-.006-25.537-11.067-26.666-24.676-.547-6.56 1.51-12.727 5.758-17.355 4.245-4.637 10.165-7.182 16.63-7.184" transform="translate(212 62)"/>
            <path fill="#E1E1E1" d="M280.892 285.873H125.736c-3.025.003-5.405 2.49-5.302 5.56.102 3.07 2.644 5.558 5.671 5.56 51.718.002 103.437.002 155.154 0 3.026 0 5.396-2.483 5.294-5.56-.1-3.068-2.635-5.564-5.661-5.56M244.094 262.489H125.07c-3.026.002-5.419 2.49-5.334 5.563.081 3.069 2.609 5.559 5.636 5.56h119.026c3.026-.001 5.408-2.488 5.327-5.56-.083-3.078-2.603-5.565-5.63-5.563" transform="translate(212 62)"/>
            <path fill="#13E8AC" d="M63.467 200.948c-.696-1.157-1.393-2.318-2.091-3.475-4.566-7.586-14.118-14.356-17.412-16.33.828-1.482 1.655-2.964 2.48-4.446 3.905 2.342 11.82 8.116 17.083 14.976 7.516-10.219 18.476-20.748 33.33-32.103 1.069 1.4 2.136 2.797 3.201 4.196-15.895 12.132-27.168 23.22-34.383 33.916l-2.208 3.266M66.118 297.325c-.703-1.159-1.406-2.316-2.107-3.475-4.592-7.582-14.1-14.358-17.38-16.332.837-1.482 1.676-2.964 2.517-4.443 3.879 2.332 11.744 8.11 17.008 14.975 7.52-10.212 18.58-20.75 33.66-32.103l3.121 4.196c-16.11 12.13-27.445 23.228-34.625 33.916l-2.194 3.266M72.163 393.934c-.777-1.16-1.554-2.317-2.328-3.476-5.074-7.584-14.939-14.358-18.323-16.332.76-1.482 1.522-2.962 2.289-4.443 3.997 2.33 12.156 8.109 17.824 14.974 6.918-10.21 17.447-20.748 32.08-32.102 1.094 1.4 2.193 2.797 3.292 4.194-15.6 12.133-26.338 23.232-32.848 33.919-.664 1.089-1.325 2.176-1.986 3.266" transform="translate(212 62)"/>
            <path fill="#18E2B4" d="M183.867 70.694c-3.108 6.874-6.293 13.746-9.547 20.62 13.288 6.89 23.08 20.409 24.095 35.968h23.476c-1.57-24.363-17.07-45.58-38.024-56.588" transform="translate(212 62)"/>
            <path fill="#5F8896" d="M94.45 127.283h23.477c-.956-14.66 5.542-27.499 16.29-34.701-4.566-6.876-9.199-13.752-13.908-20.628-17.122 11.324-27.372 31.861-25.858 55.329" transform="translate(212 62)"/>
            <path fill="#007CFF" d="M152.12 62.661c-12.051-.002-22.884 3.397-31.81 9.293 4.708 6.876 9.341 13.752 13.907 20.628 5.785-3.873 12.811-6.123 20.594-6.118 6.881-.004 13.544 1.757 19.51 4.85 3.252-6.873 6.438-13.747 9.547-20.62-9.725-5.113-20.588-8.031-31.748-8.033" transform="translate(212 62)"/>
            <path fill="#385F7A" d="M152.12 62.661c-12.051-.002-22.884 3.397-31.81 9.293 4.708 6.876 9.341 13.752 13.907 20.628 5.785-3.873 12.811-6.123 20.594-6.118 6.881-.004 13.544 1.757 19.51 4.85 3.252-6.873 6.438-13.747 9.547-20.62-9.725-5.113-20.588-8.031-31.748-8.033" transform="translate(212 62)"/>
            <path fill="#1A2E35" d="M155.9 128.972c-.957-1.31-.74-3.098.493-3.988 1.23-.883 3.02-.54 3.983.768.962 1.312.74 3.1-.496 3.987-1.235.883-3.023.543-3.98-.767m24.896-17.979c.012.004-23.693 9.736-26.207 11.54-2.508 1.811-2.948 5.432-1.001 8.1 1.952 2.667 5.567 3.37 8.084 1.558 2.561-1.804 19.168-21.201 19.124-21.198" transform="translate(212 62)"/>
            <path fill="#FFF" d="M208.896 99.618c.414 4.673-3.018 8.45-7.618 8.453-4.603 0-8.639-3.779-9.049-8.453-.413-4.67 2.954-8.454 7.555-8.453 4.603-.001 8.706 3.79 9.112 8.453" transform="translate(212 62)"/>
            <path fill="#1A2E35" d="M198.567 97.671c.067.746-.471 1.353-1.206 1.346-.731.001-1.383-.604-1.449-1.346-.067-.742.474-1.343 1.207-1.345.728-.006 1.38.6 1.448 1.345M204.866 97.671c.064.746-.473 1.353-1.206 1.346-.732.001-1.38-.604-1.449-1.346-.067-.742.475-1.343 1.207-1.345.733-.006 1.38.6 1.448 1.345M200.954 104.738h-.016c-1.724 0-3.398-.668-4.714-1.883-.27-.247-.29-.67-.044-.942.243-.273.66-.292.929-.045 1.072.99 2.434 1.535 3.83 1.535h.013c1.373 0 2.612-.53 3.496-1.496.245-.27.662-.285.929-.034.266.251.282.672.035.943-1.134 1.24-2.718 1.922-4.458 1.922" transform="translate(212 62)"/>
            <path fill="#FFF" d="M161.822 74.427c.526 4.667-2.812 8.455-7.415 8.453-4.607-.002-8.722-3.78-9.252-8.453-.526-4.667 2.74-8.454 7.34-8.452 4.602.005 8.802 3.782 9.327 8.452" transform="translate(212 62)"/>
            <path fill="#1A2E35" d="M151.444 72.48c.085.744-.442 1.346-1.173 1.346-.735-.002-1.393-.6-1.482-1.346-.085-.743.44-1.345 1.173-1.345.731.002 1.395.606 1.482 1.345M157.743 72.48c.088.744-.442 1.346-1.173 1.346-.735-.002-1.394-.6-1.482-1.346-.085-.743.443-1.345 1.173-1.345.731.002 1.395.606 1.482 1.345M157.922 77.838h-8.263c-.364 0-.659-.299-.659-.666 0-.37.295-.668.659-.668h8.263c.364 0 .657.299.657.668 0 .367-.293.666-.657.666" transform="translate(212 62)"/>
            <path fill="#FFF" d="M119.873 99.618c.415 4.673-3.019 8.45-7.618 8.453-4.601 0-8.637-3.779-9.049-8.453-.406-4.67 2.95-8.454 7.555-8.453 4.603-.001 8.702 3.79 9.112 8.453" transform="translate(212 62)"/>
            <path fill="#1A2E35" d="M109.544 97.671c.07.746-.472 1.353-1.207 1.346-.733.001-1.38-.604-1.448-1.346-.067-.742.471-1.343 1.206-1.345.73-.006 1.385.6 1.449 1.345M115.843 97.671c.065.746-.473 1.353-1.206 1.346-.735.001-1.384-.604-1.449-1.346-.067-.742.475-1.343 1.207-1.345.733-.006 1.38.6 1.448 1.345M107.788 104.738c-.161 0-.322-.06-.449-.18-.267-.25-.28-.673-.032-.942 1.143-1.245 2.72-1.911 4.469-1.922 1.733.002 3.409.67 4.72 1.885.268.247.286.67.04.942-.244.272-.66.29-.929.043-1.07-.994-2.49-1.557-3.85-1.535-1.362 0-2.6.532-3.489 1.498-.129.14-.304.21-.48.21M148.438 21.298c-4.327 0-8.063-3.57-8.31-7.974-.248-4.406 3.085-7.976 7.413-7.976 4.343 0 8.063 3.57 8.31 7.976.25 4.403-3.07 7.974-7.413 7.974m93.095 16.314c-5.514-11.756-18.382-19.55-32.25-19.55H181.04c-4.223 0-8.159-2.051-9.803-5.195C167.296 5.378 157.904.032 147.242.032c-10.649 0-19.438 5.346-22.536 12.835-1.291 3.144-4.993 5.195-9.217 5.195H87.244c-13.867 0-25.858 7.794-30.05 19.55-.155.427-.206.865-.182 1.306.101 1.794 1.615 3.388 3.531 3.388H238.71c2.381 0 3.862-2.462 2.823-4.694" transform="translate(212 62)"/>
        </g>
        <g>
            <path fill="#007CFF" d="M143.882 527.153c-.215 0-.413.021-.586.071-.275.077-.456.22-.553.434-.176.388-.076.577.014.688.698.848 3.98.868 6.354.523-1.272-.625-3.712-1.716-5.229-1.716m2.338 2.545c-1.665 0-3.298-.232-3.92-.988-.219-.266-.417-.716-.125-1.36.164-.36.464-.605.893-.726 2.093-.595 6.917 2.018 7.12 2.13.118.065.192.192.185.32-.005.127-.091.23-.213.256-.81.166-2.39.368-3.94.368" transform="translate(491 104)"/>
            <path fill="#007CFF" d="M146.347 524.016c-.06 0-.122.003-.184.009-.545.057-.558.277-.561.35-.043.89 2.311 3.12 4.015 4.092-.28-1.032-.976-3.149-2.158-4.047-.358-.272-.722-.404-1.112-.404m3.752 5.32c-.042 0-.086-.01-.129-.028-1.644-.71-5.059-3.549-4.984-5.031.015-.35.211-.783 1.047-.87.62-.064 1.213.114 1.762.534 1.803 1.37 2.543 4.905 2.573 5.053.023.11-.014.218-.096.282-.05.04-.11.06-.173.06" transform="translate(491 104)"/>
            <path fill="#FFC4BE" d="M164.329 529.024L151.358 529.024 146.708 498.638 159.68 498.638z" transform="translate(491 104)"/>
            <path fill="#1A2E35" d="M151.275 527.505h14.167c.53 0 1.03.372 1.203.897l3.85 11.663c.4 1.208-.38 2.355-1.608 2.333-5.119-.087-12.537-.39-18.96-.39-7.511 0-6.838.415-15.646.415-5.326 0-7.406-5.448-5.23-5.94 9.9-2.246 11.046-2.485 19.212-7.956.888-.593 1.892-1.022 3.012-1.022" transform="translate(491 104)"/>
            <path fill="#000" d="M146.712 498.645L149.106 514.308 162.083 514.308 159.689 498.645z" transform="translate(491 104)"/>
            <path fill="#FFC4BE" d="M162.855 201.644l-8.805 9.023 13.528 4.836s5.243-7.363 1.584-12.397l-6.307-1.462z" transform="translate(491 104)"/>
            <path fill="#FFC4BE" d="M151.058 223.277L164.556 225.274 167.578 215.501 154.05 210.668z" transform="translate(491 104)"/>
            <path fill="#1A2E35" d="M168.745 90.578c1.148 2.49 2.063 4.621 2.988 6.938.922 2.272 1.8 4.553 2.65 6.846 1.68 4.595 3.183 9.265 4.569 14.004 1.409 4.728 2.551 9.6 3.507 14.561l.669 3.751.54 3.826c.196 1.263.311 2.578.428 3.887.105 1.356.275 2.48.287 4.137l.048 2.313-.081 2.05-.104 2.03-.184 1.91c-.226 2.573-.569 4.986-.894 7.43-.704 4.826-1.508 9.534-2.405 14.212-1.873 9.338-3.92 18.473-6.394 27.66l-16.088-3.204c1.015-9.086 2.084-18.297 2.924-27.367.417-4.534.843-9.051 1.095-13.48.102-2.19.228-4.407.228-6.485l.02-1.571-.04-1.46-.03-1.44-.114-1.171c-.016-.675-.255-1.849-.396-2.806-.155-1-.302-1.997-.538-3.023l-.64-3.05-.766-3.076c-1.1-4.107-2.336-8.234-3.749-12.366-1.407-4.126-2.979-8.232-4.633-12.312-.823-2.04-1.67-4.074-2.548-6.084-.862-1.972-1.816-4.094-2.624-5.814l22.275-10.846z" transform="translate(491 104)"/>
            <path fill="#1B435E" d="M107.778 195.245s2.152 100.45 7.985 140.465c6.065 41.622 28.173 175.564 28.173 175.564h21.976s-7.89-127.481-10.394-168.437c-2.728-44.647-2.13-147.592-2.13-147.592h-45.61z" transform="translate(491 104)"/>
            <path fill="#1A2E35" d="M138.73 502.42c-.101 0 2.26 9.23 2.26 9.23h26.73l-.186-8.236-28.804-.993zM102.828 32.312c-.039 1.111-.652 2.012-1.37 2.012-.719 0-1.27-.9-1.231-2.012.039-1.11.653-2.01 1.37-2.01.719 0 1.27.9 1.231 2.01" transform="translate(491 104)"/>
            <path fill="#FF857F" d="M102.277 34.325s-2.722 6.41-5.58 9.504c1.878 1.834 5.212.997 5.212.997l.368-10.501z" transform="translate(491 104)"/>
            <path fill="#1A2E35" d="M106.936 26.155c-.13 0-.261-.04-.373-.124-2.274-1.7-4.53-.86-4.554-.852-.335.13-.704-.037-.82-.373-.117-.336.061-.714.398-.845.119-.044 2.946-1.1 5.768 1.011.282.211.333.618.114.911-.132.177-.333.272-.533.272" transform="translate(491 104)"/>
            <path fill="#FFC4BE" d="M137.178 44.59c-2.194 9.599-4.667 27.189 1.75 33.594 0 0-2.934 9.738-20.568 9.738-19.39 0-8.926-9.738-8.926-9.738 10.67-2.556 10.676-10.497 9.092-17.956l18.652-15.638z" transform="translate(491 104)"/>
            <path fill="#1B435E" d="M145.781 82.688c1.906-3.924 4.01-8.413.03-9.82-4.377-1.547-28.585-3.126-37.052-.22-8.467 2.904-6.373 10.862-6.373 10.862l43.395-.822z" transform="translate(491 104)"/>
            <path fill="#1A2E35" d="M164.344 81.952c11.178 5.213 16.864 44.757 16.864 44.757l-22.515 7.145s-6.457-16.435-9.766-32.173c-3.465-16.49 3.989-25.057 15.417-19.729" transform="translate(491 104)"/>
            <path fill="#FFC4BE" d="M25.973 143.475l-10.377-9.029-9.343 13.752s8.393 6.803 17.584 4.012l2.136-8.735z" transform="translate(491 104)"/>
            <path fill="#FFC4BE" d="M1.922 130.075L.481 143.664 6.253 148.198 15.595 134.446zM139.552 29.957c-1.305 13.648-1.384 21.679-8.442 28.682-10.62 10.539-27.054 4.287-29.798-9.334-2.47-12.262.08-32.521 13.475-37.953 13.197-5.351 26.07 4.957 24.765 18.605" transform="translate(491 104)"/>
            <path fill="#1A2E35" d="M111.838 34.325c-1.188-9.428-.992-13 3.992-15.085-5.17-1.041-9.657-1.19-11.792-4.242-2.133-3.05-2.648-10.865 7.726-14.438-.955 1.862 2.06 5.507 11.626 2.158 9.564-3.35 23.466-3.72 24.683 6.103 5.04-1.786 13.503 13.993 3.593 25.504-8.308 9.652-13.856 16.304-15.49 21.418-.332 1.041-1.44 1.541-2.419 1.079-3.457-1.633-9.611-.24-12.336.514-.807.223-1.647-.159-2.011-.92-1.766-3.69-6.59-14.305-7.572-22.091" transform="translate(491 104)"/>
            <path fill="#1A2E35" d="M146.323 10.015s4.09-5.845 11.946-1.499c0 0-6.712-.395-11.946 1.499" transform="translate(491 104)"/>
            <path fill="#1A2E35" d="M147 11.277S152.695 7.74 148.25.965c0 0 .52 5.793-1.252 10.312" transform="translate(491 104)"/>
            <path fill="#FFC4BE" d="M118.527 34.723c-.583 3.53-2.55 6.776-4.724 8.848-3.269 3.119-6.1.908-6.195-3.117-.084-3.622 1.512-9.607 5.277-11.219 3.706-1.586 6.309 1.449 5.642 5.488" transform="translate(491 104)"/>
            <path fill="#000" d="M109.595 251.064c1.272 29.972 3.267 64.767 6.163 84.647 1.113 7.573 2.737 18.183 4.68 30.49 7.804-43.083 12.466-98.597-10.843-115.137" transform="translate(491 104)"/>
            <path fill="#007CFF" d="M97.898 527.153c-.216 0-.417.021-.597.071-.286.077-.487.22-.616.434-.232.388-.16.577-.085.688.574.848 3.853.868 6.278.523-1.182-.625-3.463-1.716-4.98-1.716m1.967 2.545c-1.663 0-3.263-.232-3.775-.988-.18-.266-.313-.716.072-1.36.216-.36.553-.605 1-.726 2.177-.595 6.621 2.018 6.81 2.13.108.065.163.192.138.32-.025.127-.125.23-.252.256-.834.166-2.44.368-3.993.368" transform="translate(491 104)"/>
            <path fill="#007CFF" d="M100.819 524.016c-.06 0-.122.003-.186.009-.554.057-.597.277-.61.35-.174.89 1.855 3.12 3.42 4.092-.131-1.032-.52-3.149-1.572-4.047-.316-.272-.662-.404-1.052-.404m2.979 5.32c-.043 0-.085-.01-.124-.028-1.542-.71-4.544-3.549-4.256-5.031.07-.35.327-.783 1.175-.87.628-.064 1.197.114 1.686.534 1.602 1.37 1.828 4.905 1.836 5.053.007.11-.046.218-.136.282-.054.04-.118.06-.181.06" transform="translate(491 104)"/>
            <path fill="#FFC4BE" d="M118.073 529.024L105.101 529.024 104.87 498.638 117.842 498.638z" transform="translate(491 104)"/>
            <path fill="#1A2E35" d="M105.24 527.505h14.167c.53 0 .976.372 1.071.897l2.157 11.663c.224 1.208-.724 2.355-1.948 2.333-5.107-.087-12.481-.39-18.905-.39-7.51 0-14.01.415-22.818.415-5.326 0-6.613-5.448-4.367-5.94 10.226-2.246 18.522-2.485 27.482-7.956.974-.593 2.041-1.022 3.16-1.022" transform="translate(491 104)"/>
            <path fill="#000" d="M104.872 498.645L104.989 514.308 117.967 514.308 117.849 498.645z" transform="translate(491 104)"/>
            <path fill="#1B435E" d="M84.626 195.245s-5.21 98.11-5.197 138.125c.015 41.622 20.832 177.904 20.832 177.904h21.975s-5.723-133.851-3.318-174.728c2.62-44.563 15.374-141.301 15.374-141.301H84.626z" transform="translate(491 104)"/>
            <path fill="#1A2E35" d="M96.341 502.42c-.1 0 .918 9.23.918 9.23h26.731l1.01-8.236-28.659-.993zM89.353 81.827s-22.112 56.495-12.48 154.137h80.734c.855-10.773-7.6-104.05 4.445-154.814 0 0-11.808-2.413-23.124-2.967-8.85-.43-21.675-.718-29.494.002-10.309.948-20.081 3.642-20.081 3.642" transform="translate(491 104)"/>
            <path fill="#000" d="M77.932 132.89c-1.2 9.002-2.19 19.13-2.825 30.311 15.68-14.575 21.048-50.888 21.048-50.888L77.932 132.89z" transform="translate(491 104)"/>
            <path fill="#1A2E35" d="M97.666 108.726c-3.168 8.36-6.386 16.406-9.916 24.5-3.475 8.082-7.193 16.09-11.294 24.072l-1.568 2.995-.798 1.497c-.335.599-.302.649-1.227 2.194-1.49 2.443-3.906 4.69-6.378 6.001-2.469 1.327-4.884 1.892-6.903 2.113-4.08.402-7.127-.177-9.894-.81-2.746-.672-5.18-1.53-7.485-2.462-4.603-1.872-8.691-4.11-12.66-6.436-1.982-1.159-3.898-2.395-5.791-3.658-1.918-1.286-3.689-2.518-5.686-3.983l9.546-14.78c6.859 3.684 14.547 7.325 21.446 9.407 1.715.52 3.38.913 4.819 1.111 1.409.215 2.668.141 2.836-.002.099-.048-.233-.107-.823.192-.613.26-1.413.986-1.8 1.58-.365.624.115-.31.267-.671l.645-1.397 1.273-2.813c3.35-7.57 6.449-15.419 9.475-23.314 2.974-7.886 5.951-15.948 8.66-23.817l23.256 8.481z" transform="translate(491 104)"/>
            <path fill="#1A2E35" d="M106.458 87.748c4.121 11.68-25.115 58.709-25.115 58.709L63.995 129.09s4.442-14.786 10.29-32.564c5.755-17.492 28.234-19.942 32.173-8.779" transform="translate(491 104)"/>
        </g>
    </g>
</svg>
