<svg xmlns="http://www.w3.org/2000/svg" width="139" height="139" viewBox="0 0 139 139">
    <defs>
        <filter id="prefix__a" width="165.9%" height="230.4%" x="-33%" y="-65.2%" filterUnits="objectBoundingBox">
            <feGaussianBlur in="SourceGraphic" stdDeviation="10"/>
        </filter>
    </defs>
    <g fill="none" fill-rule="evenodd" transform="translate(24)">
        <rect width="91" height="46" y="68" fill="#2BCDCC" filter="url(#prefix__a)" opacity=".848" rx="19"/>
        <rect width="114" height="114" fill="#2BCDCC" rx="25"/>
        <g fill="#16374E" fill-rule="nonzero" stroke="#16374E">
            <path d="M25.948 52.467c-.104-.03-.21-.046-.316-.051 1.564-1.629 2.528-3.828 2.528-6.248v-7.44c0-.068-.007-.135-.016-.2.01-.134.016-.27.016-.406v-4.708c0-.78-.64-1.414-1.428-1.414h-9.577c-4.034 0-7.315 3.25-7.315 7.244v6.924c0 2.42.964 4.62 2.528 6.248-.106.005-.212.022-.315.05C5.305 53.073 0 58.707 0 65.544v6.043C0 72.366.64 73 1.428 73h35.144c.789 0 1.428-.633 1.428-1.414v-6.043c0-6.838-5.305-12.47-12.052-13.076zm-13.252-11.43v-1.793c0-2.435 2-4.416 4.459-4.416h8.149v3.294c0 1.658-1.362 3.006-3.036 3.006h-9.572v-.09zm0 2.92h9.572c1.11 0 2.149-.306 3.036-.836v3.047c0 3.443-2.828 6.244-6.304 6.244-3.476 0-6.304-2.801-6.304-6.244v-2.211zm9.412 11.283L19 58.32l-3.108-3.079h6.216zm13.036 14.931h0H2.856v-2.828h5.926c.788 0 1.427-.633 1.427-1.414 0-.781-.639-1.415-1.427-1.415H2.908c.48-4.768 4.256-8.587 9.032-9.188l6.05 5.993c.268.265.631.414 1.01.414s.742-.15 1.01-.414l6.05-5.993c5.115.644 9.084 4.979 9.084 10.217v4.628zM60.948 20.467c-.103-.03-.21-.046-.316-.051 1.564-1.628 2.528-3.828 2.528-6.248v-7.44c0-.068-.007-.135-.016-.2.01-.134.016-.27.016-.406V1.414C63.16.634 62.52 0 61.732 0h-9.578c-4.033 0-7.314 3.25-7.314 7.244v6.924c0 2.42.964 4.62 2.528 6.248-.107.005-.213.022-.316.05C40.305 21.073 35 26.707 35 33.544v6.043c0 .78.64 1.414 1.428 1.414h11.489c.788 0 1.428-.633 1.428-1.414 0-.782-.64-1.415-1.428-1.415H37.856v-4.627c0-5.239 3.969-9.574 9.084-10.218l6.05 5.993c.28.276.644.414 1.01.414.365 0 .73-.138 1.01-.414l6.05-5.993c5.115.644 9.084 4.979 9.084 10.218v4.627H59.625c-.788 0-1.427.634-1.427 1.415 0 .78.639 1.414 1.427 1.414h11.947c.789 0 1.428-.633 1.428-1.414v-6.042c0-6.838-5.305-12.472-12.052-13.077zM54 26.319l-3.108-3.078h6.216L54 26.319zm6.304-12.15c0 3.442-2.828 6.243-6.304 6.243-3.476 0-6.304-2.8-6.304-6.244v-2.21h9.572c1.11 0 2.149-.307 3.036-.837v3.047h0zm0-8.047c0 1.658-1.362 3.007-3.036 3.007h-9.572V7.244c0-2.435 2-4.415 4.459-4.415h8.149v3.293z" transform="translate(21 21)"/>
            <path d="M55.56 38.44c-.279-.28-.666-.44-1.06-.44-.396 0-.782.16-1.06.44-.281.279-.44.666-.44 1.06 0 .396.159.782.44 1.06.279.281.664.44 1.06.44.395 0 .782-.159 1.06-.44.28-.279.44-.664.44-1.06 0-.395-.16-.782-.44-1.06zM38.578 20.096l-6.034-6.006V7.18c0-3.959-3.236-7.18-7.213-7.18H7.213C3.236 0 0 3.221 0 7.18v12.64C0 23.778 3.236 27 7.213 27h18.118c2.982 0 5.583-1.782 6.674-4.452h5.552c.584 0 1.11-.35 1.333-.887.223-.536.1-1.154-.312-1.565zm-7.625-.42c-.672 0-1.255.462-1.406 1.114-.454 1.965-2.188 3.338-4.216 3.338H7.213c-2.386 0-4.328-1.933-4.328-4.309V7.181c0-2.376 1.942-4.309 4.328-4.309h18.118c2.386 0 4.328 1.933 4.328 4.309v7.504c0 .38.152.746.422 1.015l3.993 3.976h-3.121zM65.787 46H47.669c-2.982 0-5.583 1.782-6.674 4.452h-5.552c-.584 0-1.11.35-1.333.887-.223.536-.1 1.154.312 1.565l6.034 6.006v6.91c0 3.959 3.236 7.18 7.213 7.18h18.118C69.764 73 73 69.779 73 65.82V53.18c0-3.959-3.236-7.18-7.213-7.18zm4.328 19.82c0 2.375-1.942 4.308-4.328 4.308H47.669c-2.386 0-4.328-1.933-4.328-4.309v-7.504c0-.38-.152-.746-.422-1.015l-3.993-3.976h3.121c.672 0 1.255-.462 1.406-1.114.454-1.965 2.188-3.338 4.216-3.338h18.118c2.386 0 4.328 1.933 4.328 4.309v12.638z" transform="translate(21 21)"/>
            <path d="M63.439 55.6c-.748-.8-1.96-.8-2.709 0l-5.092 5.45-2.368-2.534c-.748-.8-1.96-.8-2.709 0-.748.8-.748 2.099 0 2.9l3.722 3.984c.374.4.865.6 1.355.6s.98-.2 1.354-.6l6.447-6.9c.748-.8.748-2.099 0-2.9zM22.988 9.788c-.17-2.547-2.164-4.6-4.637-4.775-1.402-.1-2.738.387-3.762 1.372C13.579 7.355 13 8.728 13 10.15c0 .82.646 1.486 1.442 1.486.797 0 1.442-.665 1.442-1.486 0-.61.24-1.176.673-1.593.433-.417 1-.624 1.596-.58 1.044.074 1.885.94 1.957 2.015.073 1.088-.619 2.048-1.645 2.285-1.123.258-1.907 1.264-1.907 2.445v.793c0 .82.646 1.485 1.442 1.485.796 0 1.442-.665 1.442-1.485v-.433c2.234-.686 3.709-2.856 3.546-5.294zM18.56 19.44c-.278-.28-.665-.44-1.06-.44-.396 0-.782.16-1.06.44-.281.278-.44.665-.44 1.06s.159.782.44 1.06c.278.28.664.44 1.06.44.395 0 .782-.16 1.06-.44.28-.278.44-.665.44-1.06s-.16-.782-.44-1.06zM15.56 64.44c-.279-.28-.665-.44-1.06-.44s-.781.16-1.06.44c-.28.279-.44.666-.44 1.06s.16.781.44 1.06c.279.28.665.44 1.06.44s.781-.16 1.06-.44c.28-.279.44-.666.44-1.06s-.16-.781-.44-1.06z" transform="translate(21 21)"/>
        </g>
    </g>
</svg>
