<svg xmlns="http://www.w3.org/2000/svg" width="139" height="139" viewBox="0 0 139 139">
    <defs>
        <filter id="prefix__a" width="165.9%" height="230.4%" x="-33%" y="-65.2%" filterUnits="objectBoundingBox">
            <feGaussianBlur in="SourceGraphic" stdDeviation="10"/>
        </filter>
    </defs>
    <g fill="none" fill-rule="evenodd" transform="translate(24)">
        <rect width="91" height="46" y="68" fill="#2BCDCC" filter="url(#prefix__a)" opacity=".848" rx="19"/>
        <rect width="114" height="114" fill="#2BCDCC" rx="25"/>
        <g fill="#16374E" fill-rule="nonzero">
            <path d="M36.793 70.343l-4.625-18.571c-.282-1.13-.828-2.134-1.561-2.957 1.098-1.232 1.768-2.858 1.768-4.638 0-3.84-3.112-6.964-6.937-6.964h-4.961l-2.707-5.435-.031-.06c3.176-1.47 5.387-4.697 5.387-8.433 0-5.12-4.15-9.285-9.25-9.285-5.099 0-9.248 4.165-9.248 9.285 0 2.428.934 4.64 2.458 6.296-1.072.91-1.883 2.151-2.251 3.621L.21 51.772c-.521 2.094-.061 4.272 1.263 5.975.716.92 1.628 1.626 2.654 2.082L.072 76.112c-.31 1.244.444 2.504 1.683 2.815 1.239.31 2.494-.446 2.804-1.69l1.874-7.526h15.901l.999 4.012c.938 3.759 4.717 5.999 8.412 5.066 3.71-.93 5.974-4.719 5.048-8.446zm-22.916-51.7c2.55 0 4.624 2.082 4.624 4.642 0 2.56-2.074 4.643-4.624 4.643s-4.625-2.083-4.625-4.643c0-2.56 2.075-4.643 4.625-4.643zM7.589 65.067l1.156-4.642h11.277l1.156 4.642H7.589zm23.032 9.217c-1.214.307-2.486-.421-2.802-1.69l-3.748-15.053c-.258-1.034-1.182-1.759-2.244-1.759H6.94c-.716 0-1.38-.326-1.822-.893-.442-.569-.595-1.294-.422-1.992L9.32 34.331c.524-2.088 3.359-2.392 4.313-.478l.003.005 3.344 6.714c.391.786 1.192 1.283 2.068 1.283h6.39c1.275 0 2.313 1.041 2.313 2.321 0 1.28-1.038 2.322-2.313 2.322H16.19c-.882 0-1.674-.492-2.068-1.283-.571-1.147-1.96-1.612-3.102-1.038-1.143.573-1.606 1.967-1.034 3.114 1.182 2.375 3.56 3.85 6.204 3.85h9.25c1.062 0 1.985.723 2.243 1.757l4.624 18.57c.309 1.243-.445 2.507-1.685 2.817zM74.873 59.83c2.984-1.327 4.761-4.666 3.917-8.057L74.164 33.2c-.368-1.468-1.178-2.71-2.25-3.618 1.524-1.656 2.458-3.868 2.458-6.296 0-5.12-4.149-9.285-9.249-9.285-5.1 0-9.249 4.165-9.249 9.285 0 3.737 2.211 6.962 5.387 8.434l-.03.058-2.708 5.436h-4.961c-3.825 0-6.937 3.124-6.937 6.964 0 1.78.67 3.406 1.769 4.639-.734.822-1.28 1.827-1.562 2.957l-4.625 18.572c-.926 3.726 1.338 7.515 5.044 8.444 3.671.927 7.472-1.281 8.417-5.066l.998-4.011h15.901l1.874 7.527c.31 1.244 1.566 2 2.804 1.69 1.24-.312 1.992-1.572 1.683-2.816L74.873 59.83zM60.5 23.286c0-2.56 2.074-4.643 4.624-4.643s4.625 2.083 4.625 4.643c0 2.56-2.075 4.642-4.625 4.642s-4.624-2.082-4.624-4.642zM57.822 65.07l1.156-4.643h11.277l1.156 4.643H57.82zm14.238-9.286H57.173c-1.061 0-1.986.725-2.244 1.759l-3.748 15.053c-.318 1.274-1.59 1.997-2.806 1.69-1.236-.31-1.99-1.573-1.681-2.816l4.624-18.57c.258-1.035 1.18-1.758 2.244-1.758h9.249c2.645 0 5.022-1.475 6.205-3.85.57-1.146.108-2.541-1.034-3.114-1.142-.573-2.531-.109-3.102 1.038-.395.791-1.187 1.283-2.069 1.283h-9.249c-1.275 0-2.312-1.042-2.312-2.322s1.037-2.321 2.312-2.321h6.39c.876 0 1.677-.497 2.069-1.283l3.346-6.719c.968-1.943 3.796-1.584 4.312.474L74.304 52.9c.364 1.464-.74 2.885-2.244 2.885zM48.995 0h-18.99C26.142 0 23 3.106 23 6.923v4.923c0 3.818 3.142 6.923 7.005 6.923h8.54l8.813 8.568c.67.653 1.672.843 2.54.484.868-.36 1.432-1.199 1.432-2.129v-7.318c2.718-.953 4.67-3.52 4.67-6.528V6.923C56 3.106 52.858 0 48.995 0zm2.335 11.846c0 1.273-1.047 2.308-2.335 2.308-1.29 0-2.335 1.033-2.335 2.308v3.724l-5.523-5.37c-.437-.424-1.024-.662-1.637-.662h-9.495c-1.288 0-2.335-1.035-2.335-2.308V6.923c0-1.272 1.047-2.308 2.335-2.308h18.99c1.288 0 2.335 1.035 2.335 2.308v4.923z" transform="translate(18 18)"/>
        </g>
    </g>
</svg>
