<svg xmlns="http://www.w3.org/2000/svg" width="139" height="139" viewBox="0 0 139 139">
    <defs>
        <filter id="prefix__a" width="165.9%" height="230.4%" x="-33%" y="-65.2%" filterUnits="objectBoundingBox">
            <feGaussianBlur in="SourceGraphic" stdDeviation="10"/>
        </filter>
    </defs>
    <g fill="none" fill-rule="evenodd" transform="translate(24)">
        <rect width="91" height="46" y="68" fill="#2BCDCC" filter="url(#prefix__a)" opacity=".848" rx="19"/>
        <rect width="114" height="114" fill="#2BCDCC" rx="25"/>
        <g fill="#16374E" fill-rule="nonzero" stroke="#16374E" transform="translate(31 19)">
            <path d="M9.632 22.679c-2.002.715-3.494 2.44-3.893 4.5l-.441 2.27c-.219 1.126.08 2.279.822 3.162C6.86 33.494 7.95 34 9.113 34h11.23c1.153 0 2.239-.5 2.979-1.371.74-.872 1.048-2.015.845-3.134l-.41-2.26c-.38-2.093-1.877-3.844-3.906-4.57l-1.372-.49v-1.997c0-.056-.005-.111-.013-.165 1-1.005 1.574-2.376 1.574-3.778v-2.972C20.04 10.36 17.645 8 14.701 8c-2.943 0-5.338 2.36-5.338 5.263v3.065c0 1.442.602 2.758 1.572 3.714-.006.044-.01.09-.01.136v2.038l-1.293.463zm12.326 7.205c.085.474-.045.956-.357 1.325-.313.368-.771.579-1.259.579H9.112c-.49 0-.95-.214-1.263-.587-.313-.373-.44-.86-.348-1.336l.442-2.271c.252-1.299 1.192-2.385 2.453-2.836l.847-.303c.022.022.043.044.066.064.967.832 2.18 1.248 3.393 1.248 1.212 0 2.424-.415 3.39-1.246l.02-.017c.028-.025.054-.051.08-.079l.894.32c1.279.457 2.222 1.561 2.462 2.88l.41 2.26zM14.7 10.212c1.44 0 2.65.976 2.994 2.292-.144.069-.292.134-.443.195-1.38.544-.332 2.473.544 2.16v1.376c0 .846-.355 1.674-.973 2.272-.286.276-.612.49-.963.637-.027.01-.053.02-.078.032-.361.14-.746.211-1.142.203-1.673-.032-3.034-1.4-3.034-3.05v-3.066c0-1.682 1.388-3.051 3.095-3.051zm-.104 11.378l.102.001c.527 0 1.043-.078 1.536-.228v1.769c-.935.568-2.13.568-3.066 0v-1.766c.454.136.933.215 1.428.224zM42.228 52.5c0-.829-.485-1.5-1.084-1.5H12.312c-.599 0-1.084.671-1.084 1.5s.485 1.5 1.084 1.5h28.832c.599 0 1.084-.671 1.084-1.5zM13.279 56c-.58 0-1.051.671-1.051 1.5s.47 1.5 1.05 1.5h26.899c.58 0 1.05-.671 1.05-1.5s-.47-1.5-1.05-1.5H13.279zM44.228 39.5c0-.829-.477-1.5-1.066-1.5H12.294c-.589 0-1.066.671-1.066 1.5s.477 1.5 1.066 1.5h30.868c.589 0 1.066-.671 1.066-1.5zM43.228 46.5c0-.829-.483-1.5-1.08-1.5H12.308c-.596 0-1.08.671-1.08 1.5s.484 1.5 1.08 1.5h29.842c.596 0 1.079-.672 1.079-1.5z"/>
            <circle cx="7.728" cy="52.5" r="1.5"/>
            <circle cx="7.728" cy="39.5" r="1.5"/>
            <circle cx="7.728" cy="46.5" r="1.5"/>
            <circle cx="7.728" cy="57.5" r="1.5"/>
            <path d="M58.552 25.12c-.369-.57-.858-1.028-1.428-1.351V19.16c0-.928-.371-1.837-1.02-2.493L40.631 1.026c-.273-.278-.589-.501-.935-.671-.015-.009-.03-.016-.046-.024l-.036-.019-.015-.006-.02-.008C39.136.1 38.667 0 38.185 0H5.53C2.607 0 .228 2.415.228 5.383V57.54c0 .624.497 1.128 1.111 1.128s1.111-.504 1.111-1.128V5.383c0-1.724 1.382-3.127 3.081-3.127h32.515v9.682c0 4.056 3.252 7.357 7.249 7.357h3.685c.613 0 1.11-.505 1.11-1.128 0-.623-.497-1.128-1.11-1.128h-3.685c-2.772 0-5.026-2.288-5.026-5.101V3.843l14.267 14.423c.233.235.366.561.366.894v4.084c-1.82.096-3.424 1.425-3.811 3.32L44.225 60.2c-.029.143-.03.297-.003.441l1.066 5.68c-.139.064-.274.128-.406.191-1.792.864-3.831.337-5.594 1.22-.525.524-1.456.623-2.076.22-.62-.402-.923-1.301-.674-2.004.181-.512-.024-1.083-.487-1.356-.464-.274-1.053-.172-1.402.24-1.364 1.614-3.611 2.183-6.193 2.71-.601.124-.99.719-.87 1.33.122.61.709 1.005 1.31.882 1.671-.342 3.79-.775 5.58-1.876.29.799.819 1.508 1.539 1.975.624.405 1.35.602 2.076.602.992 0 1.985-.368 2.716-1.076 1.587.013 3.582-.132 5.028-.829.362-.174.685-.329.982-.398.122.024.243.037.364.037.608 0 1.184-.303 1.535-.828l3.39-5.063c.08-.117.14-.265.17-.405l2.626-12.869v22.593c0 1.724-1.382 3.127-3.081 3.127H5.53c-1.699 0-3.08-1.403-3.08-3.127V62.43c0-.623-.498-1.127-1.112-1.127-.614 0-1.111.504-1.111 1.127v9.187C.228 74.585 2.608 77 5.53 77h46.29c2.924 0 5.303-2.415 5.303-5.383v-33.48l2.017-9.88c.223-1.09.014-2.205-.59-3.137h0zm-3.063.412l.01.002c.061.013.12.029.18.047l.006.002c.414.132.768.403 1.01.776.276.428.372.94.27 1.44l-.364 1.782-3.698-.778.364-1.781c.21-1.031 1.205-1.698 2.222-1.49zm-3.036 5.48l3.698.778-.493 2.41-3.697-.777.492-2.41zm-.944 4.62l3.699.777-.283 1.384v.005l-4.6 22.533-3.698-.778 4.882-23.921zm-4.14 29.727l-.653-3.483 2.618.55-1.964 2.933z"/>
        </g>
    </g>
</svg>
