<svg xmlns="http://www.w3.org/2000/svg" xmlns:xlink="http://www.w3.org/1999/xlink" width="756" height="701" viewBox="0 0 756 701">
    <defs>
        <path id="prefix__a" d="M605.853 436.827c-8.932 50.218-34.621 95.94-72.89 129.729-13.212 11.631-27.508 21.975-42.694 30.888-53.522 32.308-119.853 51.891-188.907 67.953l-11.818 2.656c-10.264 2.328-20.793 3.284-31.31 2.842-109.829-4.571-184.637-167.103-207.902-338.16C30.037 180.456 64.007 7.978 216.097.194 273.21-2.647 339.85 25.77 401.725 71.485c4.455 3.274 8.91 6.671 13.303 10.13l2.723 2.163C533.273 175.7 627.634 324.765 605.853 436.827z"/>
    </defs>
    <g fill="none" fill-rule="evenodd">
        <g transform="matrix(-1 0 0 1 756 0)">
            <use fill="#2BCDCC" fill-rule="nonzero" opacity=".6" xlink:href="#prefix__a"/>
            <path fill="#F5F9FD" fill-rule="nonzero" d="M67.076 580.262c8.55 17.373 11.686 39.383-5.475 46.432-19.19 7.913-49.822-4.823-58.68-33.82-5.72-18.547-3.751-44.39 12.302-54.345 13.102-8.532 41.642 20.465 51.853 41.733z"/>
            <path fill="#1B435E" fill-rule="nonzero" d="M418.282 42.61c-11.671-9.933-21.008-24.696-11.11-34.63 9.896-9.933 36.599-10.753 52.284 7.382 9.99 11.574 16.9 30.529 9.337 42.102-6.723 9.842-35.946-2.734-50.511-14.854z" opacity=".3"/>
        </g>
        <path fill="#1B435E" fill-rule="nonzero" d="M512.992 700.465c4.147-.24 8.276-.721 12.364-1.44.212-.027.401-.142.52-.314.118-.172.154-.386.099-.586-.03-.192-.14-.364-.302-.477-.164-.113-.367-.158-.564-.123-4.088.72-8.217 1.2-12.365 1.44-.207 0-.406.083-.547.232-.141.148-.212.347-.194.548.011.232.129.446.32.585.191.14.436.189.669.135zm-12.745.071c.41 0 .742-.322.742-.72.037-.194-.018-.395-.15-.546-.132-.151-.327-.237-.53-.234-4.153-.272-8.284-.793-12.37-1.56-.425-.074-.834.19-.927.6-.036.192.01.389.126.547.117.158.294.264.492.293 4.086.78 8.217 1.32 12.37 1.62h.247zm36.758-3.754c3.915-1.177 7.762-2.559 11.527-4.14.372-.164.556-.58.427-.96-.191-.375-.634-.554-1.037-.42-3.704 1.561-7.49 2.923-11.344 4.08-.42.117-.666.546-.549.96.186.347.591.521.976.42v.06zm-60.765-.963c.34.01.641-.214.726-.54.121-.397-.091-.819-.484-.96-1.754-.54-3.569-1.2-5.383-1.86l-6.048-2.22c-.184-.078-.392-.077-.576.002-.183.08-.325.23-.392.418-.1.18-.11.395-.027.583.083.188.25.328.45.377l6.049 2.28c1.814.66 3.69 1.32 5.504 1.86l.181.06zm-23.002-7.859c.306-.007.576-.198.678-.48.101-.18.112-.395.027-.583-.084-.188-.254-.328-.459-.377l-11.457-4.44c-.39-.127-.816.054-.985.42-.131.38.055.796.431.96l11.457 4.44.308.06zm106.513-.982h.37c3.582-1.795 7.164-3.821 10.684-5.79.26-.282.26-.701 0-.984-.14-.13-.328-.204-.525-.204s-.386.074-.525.204c-3.458 2.142-7.04 4.11-10.56 5.79-.26.282-.26.7 0 .984.187.043.384.023.556-.058v.058zm-130.507-8.98c.298.02.575-.146.683-.41.18-.371.015-.81-.372-.994-3.852-1.464-7.703-2.986-11.492-4.566-.392-.099-.805.071-.994.41-.084.17-.092.365-.022.541.07.176.213.319.395.395 3.851 1.58 7.64 3.103 11.491 4.566l.311.059zm151.495-4.032c.14.045.29.045.43 0 3.186-2.409 6.128-4.937 9.56-7.646.322-.266.363-.738.092-1.054-.27-.316-.75-.356-1.072-.09-3.126 2.649-6.13 5.238-9.5 7.586-.158.137-.249.334-.249.541 0 .208.09.405.249.542.185.107.41.13.613.06l-.123.06zM407.251 669c.308-.008.578-.21.68-.505.084-.184.091-.395.022-.584-.07-.19-.211-.344-.393-.426-3.771-1.768-7.543-3.473-11.253-5.304-.264-.217-.633-.241-.922-.06-.29.18-.437.526-.369.865.069.339.338.598.673.647l11.253 5.304.31.063zm-23.036-11c.296.002.566-.16.69-.416.105-.18.124-.393.052-.587-.072-.194-.228-.348-.429-.425l-11.148-5.354c-.247-.227-.617-.283-.926-.138-.308.144-.488.457-.449.782.04.324.29.59.624.665 3.758 1.844 7.453 3.629 11.273 5.354l.313.119zm214.569-1.046c.155.061.327.061.482 0 2.81-2.781 5.641-5.684 8.492-8.707.153-.127.242-.315.242-.514 0-.2-.089-.388-.242-.514-.303-.292-.781-.292-1.084 0-2.83 3.023-5.662 6.047-8.432 8.647-.153.126-.242.315-.242.514 0 .2.089.388.242.514.17.086.372.086.542 0v.06zM362.261 647c.274-.024.52-.189.657-.44.182-.384.052-.851-.299-1.07-3.524-2.013-7.048-4.09-10.393-6.291-.291-.265-.724-.265-1.015 0-.135.142-.211.334-.211.535 0 .2.076.393.21.535l10.454 6.29.597.441zm254.485-7.125c.19.077.401.077.591 0 2.543-3.052 5.026-6.228 7.509-9.654.245-.327.192-.8-.118-1.059-.31-.258-.76-.202-1.005.125-2.484 3.3-5.026 6.228-7.509 9.592-.285.313-.285.808 0 1.121l.532-.125zM341.16 634c.262.004.503-.134.622-.357.14-.134.219-.316.219-.505 0-.19-.079-.372-.22-.506-3.604-2.14-7.147-4.281-10.504-6.422-.14-.134-.33-.21-.528-.21-.199 0-.389.076-.529.21s-.219.316-.219.505c0 .19.079.372.22.506 3.356 2.14 6.899 4.281 10.504 6.422l.435.357zm-20.963-13.07c.188.093.406.093.594 0 .135-.144.21-.34.21-.544 0-.204-.075-.4-.21-.544-3.269-2.56-6.479-5.056-9.57-7.616-.134-.145-.315-.226-.505-.226s-.371.081-.505.226c-.135.144-.21.34-.21.544 0 .204.075.4.21.544 3.09 2.56 6.3 5.12 9.63 7.616.061-.01.122-.032.177-.064l.179.064zm311.482-.93c.267-.009.51-.151.644-.378 2.51-3.273 5.02-6.736 7.467-10.261.281-.328.281-.805 0-1.133-.324-.304-.835-.304-1.159 0-2.446 3.462-4.957 6.925-7.403 10.261-.145.142-.227.334-.227.535s.082.394.227.535c.048.147.137.278.258.378l.193.063zM301.15 606c.244-.013.472-.129.628-.32.142-.143.222-.339.222-.542 0-.204-.08-.4-.222-.543-3.203-2.748-6.28-5.559-9.483-8.37-.141-.144-.334-.225-.534-.225s-.392.081-.534.225c-.303.322-.303.83 0 1.15l9.546 8.37c.053.073.116.138.189.191l.188.064zm344.359-7c.275-.01.529-.145.686-.366 2.182-3.359 4.426-6.9 6.608-10.38.263-.299.263-.74 0-1.038-.14-.138-.331-.216-.53-.216s-.39.078-.53.216c-2.12 3.48-4.364 6.96-6.546 10.38-.263.298-.263.74 0 1.038l.312.366zM282.26 588.876c.155.075.337.075.492 0 .156-.125.247-.313.247-.51 0-.198-.09-.385-.247-.51-2.89-2.882-5.78-6.003-8.485-8.644-.139-.136-.327-.212-.523-.212s-.384.076-.522.212c-.297.302-.297.778 0 1.08 2.705 2.882 5.595 6.003 8.546 8.704.174.018.348-.025.492-.12zM657.903 578c.284 0 .548-.136.701-.364 2.04-3.455 4.143-7.031 6.374-10.669.085-.345-.083-.701-.41-.87-.327-.17-.733-.112-.992.143-2.04 3.637-4.143 7.214-6.374 10.608-.27.296-.27.735 0 1.03l.7.122zm-391.619-7.025h.493c.297-.308.297-.793 0-1.1-2.586-3.18-5.111-6.114-7.513-9.66-.138-.137-.327-.215-.523-.215-.197 0-.385.078-.524.216-.139.137-.217.324-.217.52 0 .194.078.381.217.519 2.402 3.24 4.927 6.54 7.575 9.72.12.033.249.033.37 0h.122zM669.764 557c.29.002.556-.17.678-.442 1.912-3.785 3.762-7.633 5.49-11.356.083-.184.09-.394.02-.584-.069-.19-.21-.343-.39-.425-.282-.257-.707-.257-.987 0l-5.49 11.356c-.188.385-.054.853.308 1.072l.37.379zm-418.354-7.08h.371c.14-.135.219-.32.219-.512s-.079-.376-.219-.511c-2.229-3.37-4.334-6.802-6.192-10.293-.077-.321-.354-.561-.692-.599-.338-.038-.664.135-.814.432-.15.296-.093.652.144.89 2.043 3.49 4.21 6.982 6.192 10.352.206.254.543.37.867.301l.124-.06zM680.802 534c.31.002.594-.169.724-.437 1.844-3.806 3.623-7.611 5.4-11.48.09-.181.098-.39.024-.577-.075-.187-.225-.339-.418-.42-.207-.103-.452-.114-.668-.03-.216.085-.381.255-.452.466-1.712 3.806-3.557 7.612-5.335 11.355-.19.397-.016.865.395 1.06l.33.063zm-441.272-5.073c.41-.197.583-.668.393-1.067-1.9-3.7-3.668-7.526-5.372-11.414-.085-.184-.245-.327-.442-.398-.197-.07-.415-.063-.606.022-.4.171-.598.605-.459 1.003 1.704 3.889 3.473 7.777 5.373 11.477.205.392.697.558 1.113.377zm451.233-17.929c.288.02.556-.155.66-.432 1.558-3.827 3.057-7.654 4.495-11.482.099-.194.109-.423.028-.625-.081-.203-.245-.358-.448-.424-.396-.124-.817.093-.959.494-1.438 3.827-2.936 7.654-4.495 11.42-.134.409.045.856.42 1.05h.3zM230.004 506c.39-.142.6-.567.48-.966-1.32-3.802-2.46-7.666-3.54-11.468-.1-.4-.502-.644-.9-.544-.397.1-.64.506-.54.906 1.08 3.863 2.28 7.786 3.54 11.59.121.292.405.482.72.482h.24zm469.947-18c.315 0 .6-.193.72-.489 1.38-3.786 2.76-7.634 4.08-11.482.15-.388-.039-.825-.42-.977-.38-.152-.81.04-.96.428-1.38 3.847-2.7 7.695-4.14 11.543-.12.404.09.833.48.977h.24zm-476.691-6.538c.409-.09.674-.486.6-.897-.84-3.945-1.62-7.89-2.22-11.955-.09-.408-.488-.672-.9-.598-.193.03-.365.135-.478.293-.113.157-.157.354-.122.544.6 3.886 1.38 7.83 2.22 11.955-.118.227-.125.495-.02.728.105.233.311.405.56.468l.36-.538zM708.164 465c.324-.026.605-.24.72-.549 1.26-3.842 2.52-7.684 3.72-11.588.032-.366-.188-.706-.53-.822-.343-.116-.72.022-.91.334-1.2 3.904-2.46 7.746-3.72 11.588-.076.194-.067.41.025.597.092.186.257.324.455.379l.24.061zm-488.57-7c.198.003.387-.086.515-.242.128-.157.182-.365.145-.567-.42-4.043-.78-8.212-1.02-12.442.001-.21-.083-.41-.231-.551-.148-.142-.347-.213-.549-.195-.394.058-.695.396-.72.808 0 4.23.6 8.399 1.02 12.442.043.336.282.61.6.685l.24.062zm495.73-17c.314 0 .598-.19.72-.48 1.14-3.843 2.28-7.745 3.36-11.588.054-.191.026-.396-.076-.567-.102-.17-.27-.291-.465-.333-.183-.056-.38-.037-.55.053-.168.09-.294.244-.35.427-1.08 3.902-2.22 7.745-3.36 11.527-.12.397.09.82.48.961h.24zm-497.6-8c.398 0 .72-.333.72-.743 0-4.088.3-8.238.6-12.387.035-.207-.017-.42-.143-.585-.125-.165-.313-.268-.516-.282-.207-.018-.412.051-.57.19-.158.14-.255.339-.27.553 0 4.088-.54 8.3-.6 12.387-.001.421.313.773.72.805l.06.062zm504.788-16c.337.01.636-.213.72-.539v-.597c1.02-3.887 2.04-7.774 3-11.96.045-.404-.208-.783-.6-.896-.39-.053-.763.17-.9.538-.96 3.886-1.92 7.773-2.94 11.6v.598c-.116.413.126.84.54.957l.18.299zm-502.624-9c.37.01.695-.25.78-.622.6-3.978 1.32-8.081 2.16-12.433.08-.408-.155-.812-.54-.932-.412-.077-.81.197-.9.622-.9 4.102-1.62 8.205-2.22 12.432-.035.198.01.403.123.567.113.164.285.273.477.304l.12.062zm507.883-15c.356.005.661-.259.72-.622.9-4.103 1.74-8.206 2.46-12.434.054-.207.019-.428-.096-.606-.115-.179-.298-.298-.504-.326-.19-.036-.388.01-.546.127-.159.117-.264.295-.294.495-.78 3.978-1.62 8.082-2.46 12.433-.054.199-.027.411.076.588.102.176.27.301.464.345h.18zm-502.553-9c.355.005.661-.25.72-.6 1.08-3.717 2.28-7.613 3.54-11.39.076-.19.067-.404-.025-.587-.092-.183-.257-.319-.455-.372-.19-.076-.404-.067-.587.025-.183.092-.319.257-.373.454-1.26 3.837-2.46 7.734-3.54 11.51-.054.192-.027.397.076.567.102.17.27.29.464.333l.18.06zm507.793-15.062c.355.005.66-.258.72-.62.72-4.087 1.38-8.236 1.98-12.386.034-.214-.016-.433-.14-.608-.125-.175-.312-.29-.52-.32-.41-.038-.778.26-.84.68-.6 4.088-1.26 8.176-1.92 12.387-.074.426.19.836.6.929l.12-.062zM233.71 361c.312 0 .593-.195.712-.495 1.425-3.773 2.91-7.608 4.512-11.443.08-.18.088-.386.02-.572-.066-.186-.202-.337-.376-.418-.378-.179-.823-.015-1.01.371-1.602 3.835-3.146 7.67-4.511 11.505-.077.189-.076.401.003.589.078.187.228.332.412.401l.238.062zm502.57-17c.388.005.72-.287.78-.684.48-4.106.96-8.274 1.38-12.442.034-.208-.018-.421-.143-.587-.126-.166-.314-.27-.517-.284-.41-.037-.778.262-.84.684-.42 4.106-.9 8.274-1.38 12.442-.034.208.018.421.143.587.126.166.314.27.517.284h.06zm-492.837-6c.303-.015.58-.182.741-.447 1.73-3.708 3.644-7.543 5.62-11.378.261-.312.261-.775 0-1.087-.376-.195-.835-.056-1.05.32-1.976 3.835-3.89 7.67-5.682 11.441-.178.407-.015.887.37 1.087V338zm496.198-18.062c.376.001.689-.297.72-.685 0-4.23.6-8.46.78-12.442.001-.423-.313-.776-.72-.808-.2-.018-.4.053-.548.195-.148.142-.232.342-.232.551 0 4.044-.48 8.212-.78 12.442-.017.209.052.415.189.569.137.154.33.24.531.24l.06-.062zM254.681 316c.271.005.522-.136.646-.363 2.132-3.452 4.394-6.904 6.461-10.355.283-.316.283-.775 0-1.09-.315-.256-.783-.256-1.098 0-2.326 3.512-4.588 6.963-6.462 10.415-.146.136-.228.322-.228.515s.082.378.228.515l.452.363zm13.043-20.063c.23.084.484.084.714 0 2.336-3.472 4.802-7.01 7.333-10.611.147-.145.229-.341.229-.547 0-.205-.082-.401-.229-.546-.326-.31-.842-.31-1.168 0-2.596 3.537-5.062 7.138-7.398 10.611-.273.314-.273.78 0 1.093.166.072.354.072.52 0zM740.031 295c.398 0 .72-.334.72-.747v-8.771-3.733c0-.412-.322-.746-.72-.746-.2-.018-.4.053-.548.195-.148.142-.232.342-.232.551V294.192c-.017.208.052.414.189.568.137.154.33.24.531.24h.06zm-458.325-20.067c.193.09.415.09.607 0 2.491-3.297 4.982-6.533 7.473-9.647.137-.137.214-.324.214-.519s-.077-.381-.214-.519c-.139-.158-.338-.248-.547-.248-.21 0-.409.09-.547.248-2.43 3.114-4.981 6.106-7.472 9.647-.293.307-.293.792 0 1.1l.486-.062zM740.389 270c.202 0 .394-.086.531-.24s.206-.36.189-.569c0-4.168-.42-8.336-.72-12.442 0-.21-.084-.41-.232-.551-.148-.142-.347-.213-.548-.195-.417.062-.725.434-.72.87 0 4.044.54 8.275.72 12.443.06.397.392.689.78.684zm-442.645-14.063c.205.084.436.084.64 0l8.39-9.606c.145-.142.226-.336.226-.537 0-.202-.081-.395-.226-.537-.146-.163-.356-.257-.576-.257-.221 0-.43.094-.577.257-2.754 3.033-5.571 6.32-8.39 9.542-.308.318-.308.82 0 1.138.166.063.348.063.513 0zm440.167-10.941c.407-.065.696-.447.66-.874-.48-4.183-1.02-8.366-1.68-12.486-.03-.2-.135-.379-.293-.496-.158-.118-.356-.164-.547-.128-.2.011-.385.116-.502.287-.117.17-.153.386-.098.587.6 3.995 1.14 8.178 1.62 12.485.089.4.449.667.84.625zm-424.138-8.07c.175.076.376.076.551 0 2.757-2.925 5.636-5.97 8.454-8.656.296-.3.296-.774 0-1.074-.319-.261-.784-.261-1.102 0-2.818 2.865-5.698 5.969-8.454 8.715-.296.3-.296.774 0 1.074.186.032.377.012.551-.06zm420.722-15.929c.206-.028.39-.147.504-.326.115-.179.15-.4.096-.608-.78-4.048-1.74-8.158-2.7-12.455-.04-.217-.169-.404-.354-.512-.185-.108-.407-.126-.606-.048-.385.12-.619.524-.54.934 1.02 3.985 1.92 8.096 2.76 12.144-.018.236.065.47.226.637.162.168.386.253.614.234zm-403.68-1.169c.184.088.4.088.583 0 3.167-2.894 6.465-5.788 9.374-8.558.146-.14.228-.327.228-.524 0-.196-.082-.385-.228-.523-.325-.297-.839-.297-1.164 0-3.103 2.77-6.465 5.665-9.374 8.558-.312.31-.312.799 0 1.109.284.167.649.142.905-.062h-.323zm18.017-16.98c.163.053.338.053.501 0 3.07-2.885 6.266-5.706 9.462-8.462.273-.334.273-.82 0-1.154-.315-.31-.813-.31-1.128 0l-9.462 8.461c-.273.334-.273.82 0 1.154.282.204.658.204.94 0h-.313zm379.406-5.877c.37-.165.572-.573.48-.972-1.26-3.95-2.58-7.838-4.02-11.545-.183-.351-.581-.528-.96-.425-.187.068-.338.21-.417.394-.08.184-.081.393-.003.578 1.38 3.646 2.7 7.534 3.96 11.423.116.419.546.664.96.547zm-359.529-10.017c.159.061.334.061.493 0 3.199-2.565 6.152-5.191 9.598-7.635.257-.289.268-.72.025-1.021-.243-.301-.669-.386-1.01-.2-3.138 2.504-6.152 5.07-9.598 7.696-.139.137-.217.324-.217.519s.078.381.217.519c.148.089.32.131.492.122zm349.845-13.024c.19-.08.337-.244.405-.448.069-.204.05-.43-.05-.619-1.658-3.828-3.494-7.593-5.39-11.233-.073-.335-.338-.585-.661-.625-.323-.039-.635.141-.779.45-.143.31-.088.68.138.928 1.895 3.577 3.672 7.343 5.39 11.17.077.185.22.328.399.4.178.07.375.062.548-.023zM387.69 171h.418c3.17-2.576 6.46-5.151 9.689-7.598.24-.284.27-.709.072-1.03-.198-.32-.573-.453-.91-.322-3.289 2.51-6.518 5.086-9.748 7.662-.135.145-.211.342-.211.547 0 .206.076.403.211.548.132.125.302.194.479.193zm20.015-14.048c.14.064.303.064.442 0l10.484-6.604c.366-.212.479-.661.252-1.003-.227-.342-.707-.448-1.073-.236-3.58 2.123-7.116 4.305-10.61 6.546-.267.288-.267.715 0 1.003.105.17.294.281.505.294zm299.635-5.01h.439c.141-.133.221-.316.221-.506s-.08-.373-.221-.507c-2.382-3.398-4.89-6.618-7.459-9.719-.141-.134-.333-.21-.533-.21s-.391.076-.532.21c-.162.136-.255.332-.255.537 0 .205.093.4.255.537 2.507 3.04 5.014 5.962 7.333 9.54.203.18.499.227.752.119zM428.588 144h.432c3.458-2.28 7.038-4.493 10.619-6.512.231-.151.369-.421.36-.709-.008-.287-.16-.547-.4-.683-.24-.136-.531-.127-.763.024-3.58 2.15-7.16 4.429-10.618 6.512-.14.147-.218.346-.218.554 0 .208.078.407.218.554.107.14.262.234.432.26h-.062zm263.671-11.08c.166.057.348.057.514 0 .145-.14.227-.33.227-.528s-.082-.389-.227-.528c-3.02-3.046-6.427-6.215-9.384-8.64-.323-.299-.833-.299-1.156 0-.31.314-.31.807 0 1.12 3.149 2.672 6.427 5.53 9.255 8.514.247.164.565.188.835.062h-.064zM450.629 131h.36c3.509-1.87 7.038-3.683 10.587-5.437.211-.106.362-.3.409-.528.047-.228-.016-.464-.17-.641-.089-.177-.25-.31-.443-.365-.193-.056-.401-.03-.574.072-3.47 1.696-7.058 3.567-10.587 5.437-.135.132-.211.31-.211.497s.076.366.211.497c.036.203.17.377.359.468h.06zm22.13-11h.377c3.7-1.847 7.589-3.694 11.414-5.41.392-.206.558-.701.377-1.12-.082-.194-.235-.345-.423-.42-.189-.074-.398-.066-.58.023-3.89 1.781-7.715 3.563-11.478 5.476-.184.086-.327.246-.398.445-.07.198-.063.418.022.61.13.237.367.387.627.396h.063zm200.386-3.002c.253.017.495-.099.632-.303.143-.137.223-.322.223-.516s-.08-.38-.223-.516c-3.474-2.367-7.012-4.613-10.676-6.616-.371-.13-.786.014-.987.34-.2.328-.131.746.166.996 3.6 2.003 7.202 4.188 10.55 6.494.075.055.16.096.252.121h.063zm-177.884-7.224c3.721-1.44 7.503-2.88 11.225-4.2.39-.141.6-.563.48-.96-.183-.347-.581-.52-.96-.42-3.782 1.32-7.564 2.76-11.286 4.2-.397 0-.72.323-.72.72 0 .398.323.72.72.72l.54-.06zM651.246 104c.285-.023.54-.178.682-.416.179-.378.015-.824-.372-1.01-3.717-1.605-7.558-3.15-11.523-4.517-.188-.077-.401-.076-.589.003-.188.079-.333.228-.402.413-.132.377.056.788.434.95 3.903 1.368 7.743 2.913 11.398 4.518l.372.059zm-132.922-2.579c4.033-1.2 8.067-2.28 12.1-3.3.388-.137.623-.51.568-.9-.042-.224-.185-.419-.391-.534-.206-.116-.454-.14-.68-.066-3.971 1.02-8.068 2.1-12.165 3.36-.417 0-.756.322-.756.72 0 .398.339.72.756.72h.568zm109.898-5.307c.337-.026.628-.236.748-.54.12-.414-.13-.844-.56-.96-3.926-1.02-8.038-1.92-12.462-2.7-.199-.055-.412-.027-.589.075s-.302.27-.346.465c-.077.412.198.81.623.9 4.112.78 8.162 1.68 12.088 2.7l.498.06zm-86.336-.255c4.118-.84 8.235-1.62 12.477-2.22.426-.09.701-.488.624-.9-.03-.192-.14-.365-.305-.478-.164-.113-.37-.157-.568-.122-3.993.66-8.173 1.38-12.477 2.28-.426.09-.701.487-.624.9.093.376.479.615.873.54zm24.8-4.644c4.058-.42 8.177-.72 12.295-.9.326.091.676-.029.872-.3.196-.27.196-.63 0-.9-.196-.271-.546-.39-.872-.3-4.057 0-8.237.48-12.294.9-.208.014-.4.113-.53.273-.128.16-.182.366-.146.567.05.342.326.61.676.66zm37.55-.076c.193.017.385-.045.529-.171.143-.126.224-.303.223-.49.038-.194-.018-.395-.151-.546-.134-.15-.331-.237-.538-.233-4.077-.42-8.279-.72-12.544-.84-.402.028-.722.334-.752.72-.018.2.053.4.197.548.143.148.344.232.555.232 4.202 0 8.404.36 12.544.78h-.063z"/>
        <g fill-rule="nonzero" transform="matrix(-1 0 0 1 625 81)">
            <path fill="#FFF" d="M235 139H295V151H235zM186 188H246V200H186z"/>
            <path fill="#16374E" d="M298 277H328V289H298zM403 277H433V289H403zM458 277H488V289H458zM430 367H460V379H430zM540 367H570V379H540zM512 277H542V289H512zM567 277H597V289H567zM625 213L265 213 265 162 265.788 162 265.788 212.209 625 212.209z"/>
            <path fill="#16374E" d="M596 304L363 304 363 213 363.789 213 363.789 303.212 596 303.212zM313 213H314V264H313z"/>
            <path fill="#16374E" d="M417 213H418V264H417zM472 213H473V264H472zM527 213H528V264H527zM582 213H583V264H582zM445 304H446V355H445zM554 304H555V355H554z"/>
            <path fill="#FFF" d="M235 239H295V251H235z"/>
            <path fill="#16374E" d="M298 102H328V114H298zM403 102H433V114H403zM458 102H488V114H458zM430 12H460V24H430zM540 12H570V24H540zM512 102H542V114H512zM567 102H597V114H567zM625 177L265 177 265 228 265.788 228 265.788 177.791 625 177.791z"/>
            <path fill="#16374E" d="M596 87L363 87 363 178 363.789 178 363.789 87.788 596 87.788zM313 127H314V178H313z"/>
            <path fill="#16374E" d="M417 127H418V178H417zM472 127H473V178H472zM527 127H528V178H527zM582 127H583V178H582zM445 36H446V87H445zM554 36H555V87H554z"/>
            <path fill="#185C8A" d="M108.51 16.972C98.984.814 80.136.06 80.136.06S61.771-2.297 49.99 22.311C39.01 45.25 23.853 67.396 47.55 72.766l4.28-13.373L54.48 73.76c3.374.244 6.76.302 10.14.174 25.377-.822 49.545.24 48.767-8.9-1.035-12.152 4.29-32.515-4.877-48.062z"/>
            <path fill="#EBAAAA" d="M72.954 71.63c.046 1.805.033 3.71-.871 5.278-1.791 3.108-6.164 3.573-8.795 6.023-2.766 2.576-3.08 6.757-3.21 10.52-.139 3.936-.256 8 1.19 11.666.886 2.02 2.006 3.93 3.337 5.693 1.605 2.299 3.226 4.587 4.862 6.866.873 1.283 1.847 2.496 2.911 3.629 2.93 2.963 6.948 4.603 10.96 5.774 2.592.756 5.39 1.345 7.962.523 1.702-.66 3.27-1.617 4.63-2.827 1.989-1.416 3.755-3.117 5.242-5.046 2.16-3.11 2.758-7.006 3.205-10.758 1.324-11.097 1.839-22.275 1.541-33.445.055-1.217-.165-2.431-.643-3.554-1.332-2.583-4.899-3.134-6.779-5.356-1.607-1.9-1.672-4.61-1.659-7.092l.035-6.316c.056-.532-.052-1.069-.309-1.539-.47-.511-1.127-.815-1.824-.845-3.953-.651-7.96-.918-11.965-.795-3.247.099-9.478-.171-12.285 1.625-2.549 1.63.642 6.133 1.233 8.662.793 3.72 1.206 7.51 1.232 11.313z"/>
            <path fill="#2F2E41" d="M20.704 495.279c-.83 2.784-1.215 6.03.509 8.381.953 1.178 2.207 2.084 3.634 2.624 3.6 1.545 7.628 1.85 11.549 1.67 1.52.07 3.002-.49 4.085-1.546 9.114-7.437 15.278-17.801 17.41-29.273.172-.592.14-1.224-.093-1.796-.3-.443-.72-.795-1.212-1.014-2.028-1.253-4.214-2.237-6.502-2.927-12.521-3.186-26.278 13.477-29.38 23.88zM150.273 455.694c1.684 1.91 3.758 3.455 6.09 4.533 2.371 1.072 5.113 1.027 7.445-.124 3.447-1.917 4.423-6.374 4.148-10.242-.509-7.153-4.005-13.598-8.022-19.442-1.271-1.848-4.085-7.35-6.555-7.419-1.173-.032-5.56 4.125-6.752 4.916-4.355 2.891-7.372 4.96-6.466 10.508 1.011 6.19 5.85 12.813 10.112 17.27z"/>
            <circle cx="80.5" cy="35.5" r="25.5" fill="#FFB8B8"/>
            <path fill="#2BCDCC" d="M69.796 98.453c-1.63-2.424-2.97-5.03-3.994-7.764-1.024-2.763-1.048-5.796-.07-8.575-2.768-1.607-6.525-.305-8.54 2.182-2.016 2.487-2.633 5.821-2.81 9.019-.179 3.197.01 6.442-.685 9.568-1.539 6.916-7.247 12.602-7.671 19.674-.418 6.958 4.35 13.02 6.695 19.583 1.421 4.09 2.015 8.423 1.748 12.746-.076 1.396-.164 2.986.82 3.978.512.447 1.118.774 1.773.956 11.317 3.985 23.54 4.33 35.534 4.633l19.809.502c1.198.144 2.412-.06 3.498-.586 1.777-1.09 2.015-3.535 2.045-5.621.26-17.967-.503-35.931-1.267-53.884-.276-6.507-.558-13.052-1.937-19.417-.35-1.621-.926-3.423-2.421-4.139-1.266-.605-2.767-.213-4.083.273-6.14 2.285-11.446 6.374-15.224 11.73-4.065 5.789-6.064 12.734-10.042 18.567-2.887 4.234-4.556.544-6.48-2.573-2.232-3.618-4.464-7.235-6.698-10.852z"/>
            <path fill="#1B435E" d="M63.808 75.15c-1.533.747-3.264 1.071-4.723 1.95-1.747 1.053-2.935 2.793-4.067 4.479l-6.107 9.094c-1.436 1.952-2.612 4.079-3.5 6.328-.954 2.758-1.019 5.728-1.108 8.642-.248 8.106-.757 16.198-1.526 24.278-.303 3.895-.87 7.766-1.697 11.587-.728 3.098-1.756 6.118-2.783 9.132L26.98 183.848c-.699 1.654-1.031 3.437-.975 5.23.188 1.777 1.376 3.583 3.153 3.9 1.174.099 2.353-.137 3.397-.68 4.32-1.786 8.608-3.9 11.935-7.161 5.467-5.36 7.666-13.088 9.655-20.447 1.056-3.904 2.119-7.864 2.114-11.905-.01-9.174-5.482-17.671-5.627-26.844.026-2.493.253-4.98.678-7.436.975-6.682 1.987-13.413 4.325-19.755 2.338-6.34 6.123-12.341 11.69-16.24 2.669-1.868 9.835-5.61 7.037-9.906-2.79-4.283-7.827 1.22-10.555 2.547z"/>
            <path fill="#16374E" d="M112.873 157.572c-18.36-1.42-36.737-2.601-55.13-3.543-1.546-.079-3.304-.076-4.365 1.048-.455.553-.795 1.19-1 1.876l-3.928 10.568c-1.74 4.682-2.534 9.101-6.01 12.696-3.474 3.594-7.608 6.51-11.039 10.146-5.118 5.449-8.485 12.3-9.667 19.673-.956 6.05-.413 12.32-1.98 18.242-1.932 7.298 1.168 14.899 1.12 22.447-.073 11.242-1.619 22.417-3.162 33.553-4.475 32.289-8.95 64.578-13.81 96.81-3.992 26.464-7.921 55.031 4.54 78.731 2.979 5.665 7.036 11.044 12.732 13.982 3.155 1.48 6.496 2.525 9.933 3.11 8.824 1.841 17.75 3.16 26.73 3.949 3.644.32 7.89.314 10.226-2.492 1.567-1.882 1.786-4.505 1.937-6.947l.982-15.95c1.27-20.64.804-42.037-3.813-62.196-1.557-6.797-3.515-13.505-4.818-20.355-1.237-6.506-1.878-13.111-1.914-19.734-.101-4.747.337-9.49 1.305-14.14 3.378-14.989 14.569-28.506 12.942-43.784 10.311 15.084 13.73 32.353 16.956 50.324 2.354 13.108 4.9 26.245 9.355 38.798 4.845 13.647 12.038 27.196 11.015 41.638-.25 3.01-.751 5.994-1.498 8.92-2.93 12.122 9.45 22.487 20.866 17.405l.234-.106c10.55-4.847 15.879-17.61 26.64-21.97 4.996-2.024 11.22-2.31 13.245-8.43.45-1.413.6-2.905.443-4.38-.474-4.949-3.301-8.952-5.502-13.206-4.8-9.28-6.62-19.762-8.347-30.06-1.716-10.233-3.4-20.47-5.053-30.713-1.08-6.696-2.157-13.434-4.364-19.85-.966-2.807-2.146-5.547-2.92-8.413-2.893-10.711.099-22.123-1.11-33.15-1.361-12.404-3.86-24.721-6.594-36.897-3.543-15.772-4.267-32.023-4.836-48.176-.226-6.416-.462-12.99-2.887-18.937-3.42-8.389-10.166-15.087-17.454-20.487z"/>
            <path fill="#185C8A" d="M104.123 15.581L85.701 6 60.263 9.919 55 33 68.102 32.499 71.762 24.02 71.762 32.359 77.807 32.129 81.316 18.629 83.509 33 105 32.564z"/>
            <path fill="#1B435E" d="M94.031 87.079c1.514-1.42 3.422-2.36 5.478-2.696.72-.004 1.411-.28 1.933-.772.256-.43.37-.927.33-1.423.065-4.497-.311-8.988-1.124-13.412 1.765-.621 3.64-.874 5.509-.742l17.315.048c3.481.01 7.086.045 10.254 1.477 3.245 1.62 5.852 4.267 7.408 7.522 1.534 3.236 2.658 6.648 3.349 10.157 2.058 8.813-5.33 17.683-5.99 26.705-.19 2.602.03 5.223-.211 7.82-.254 2.736-1.018 5.42-1.08 8.165-.077 3.396.92 6.722 2.07 9.922 3.514 9.775 8.517 18.95 12.578 28.515 1.039 2.181 1.737 4.506 2.072 6.896.324 2.418-.367 4.862-1.91 6.761-1.693 1.885-4.27 2.654-6.648 3.553-2.986 1.13-5.838 2.583-8.503 4.333-1.076.79-2.238 1.458-3.464 1.99-1.203.374-2.436.644-3.685.809-3.208.605-6.238 1.888-9.337 2.907-1.022.336-2.202.63-3.125.08-.518-.366-.933-.856-1.208-1.424-5.941-10.204-8.04-22.128-9.401-33.833-1.362-11.706-2.114-23.6-5.727-34.825-1.098-3.413-2.461-6.763-3.085-10.292-.903-5.101-.227-10.383-1.156-15.48-.823-4.518-2.956-8.18-2.642-12.761z"/>
            <path fill="#FFB8B8" d="M133.742 184.3c-5.083 2.433-9.104 6.301-12.506 10.795-.72.951.246 2.725 2.404 2.696 2.009-.027 3.208-2.604 5.217-2.63.614 5.37 1.725 10.673 3.32 15.839 4.007-3.52 6.407-8.477 8.702-13.293l4.538-9.52c1.666-3.495 3.332-6.991 4.834-10.56.408-.834.66-1.736.744-2.662.198-6.141-5.854-6.178-8.463-2.335-2.855 4.204-3.744 9.256-8.79 11.67z"/>
            <path fill="#1B435E" d="M134.292 78c3.942 4.076 7.912 8.187 10.973 12.954 3.06 4.768 5.186 10.296 5.044 15.951-.152 1.432-.1 2.878.156 4.295.445 1.306 1.11 2.529 1.964 3.615 3.862 5.642 6.86 11.824 8.895 18.343.33 1.286.82 2.527 1.455 3.694.583.948 1.377 1.748 2.018 2.658 2.286 3.356 2.355 7.74.176 11.166-.323.402-.56.866-.695 1.363-.264 1.558 1.701 2.495 2.424 3.902.732 1.427.03 3.25-1.184 4.3-1.296.961-2.789 1.625-4.372 1.946 2.033 2.896-.434 6.967-1.262 10.402-.579 2.404-.572 4.908-.95 7.35-.38 2.444-1.232 4.956-3.123 6.56-.241.23-.537.394-.86.478-1.05.204-1.764-1.004-2.131-2.002-1.144-3.11-2.298-6.28-4.314-8.915-2.016-2.635-5.071-4.698-8.4-4.688-.558-1.33-.436-2.845.327-4.07.666-1.25 1.644-2.311 2.38-3.524.931-1.652 1.565-3.454 1.872-5.325 1.643-8.59-.01-17.482-4.636-24.918-1.075-1.764-2.375-3.381-3.868-4.812-1.625-1.515-3.527-2.733-5.027-4.37-2.313-2.725-3.711-6.102-4-9.657-.276-3.531-.181-7.082.283-10.594.675-6.97 1.542-13.949 2.542-20.88.077-.902.312-1.785.695-2.607.785-1.458 2.113-1.912 3.618-2.615z"/>
        </g>
    </g>
</svg>
