<svg xmlns="http://www.w3.org/2000/svg" width="570" height="504" viewBox="0 0 570 504">
    <g fill="none">
        <ellipse cx="56.5" cy="492.5" fill="#E6E6E6" rx="56.5" ry="11.5"/>
        <path fill="#FFB8B8" d="M102.721 318l2.152 4.532s12.21 16.613 4.667 19.215c-7.543 2.603-11.546-15.756-11.546-15.756L96 323.421l6.721-5.421z"/>
        <path fill="#575A89" d="M88.857 231.866L90.82 231s2.323.866 2.323 4.592c0 3.725-2.857 58.115-2.857 58.115L96 323.51 88.143 325 76 297.432l12.857-65.566z"/>
        <path fill="#1B435E" d="M88.446 231.867l2.052-.867s2.43.867 2.43 4.598c0 3.73-2.988 58.199-2.988 58.199L106 319.539 95.542 327 75 297.528l13.446-65.66z"/>
        <path fill="#1B435E" d="M86.016 318.978s9.688 3.722 8.943 10.423c-.745 6.7-10.433 139.965-10.433 139.965l2.98 14.89-28.32.744-.744-96.04L38.32 485H10l20.122-169 55.894 2.978z"/>
        <path fill="#16374D" d="M85.373 481l6.855 6.353s15.994 2.824 12.186 7.765C100.606 500.06 61 493.706 61 493.706l.762-11.294L85.372 481zM36.373 481l6.855 6.353s15.994 2.824 12.186 7.765C51.606 500.06 12 493.706 12 493.706l.762-11.294L36.372 481z"/>
        <path fill="#F7ADAD" d="M74 197L72.485 228 49 214.39 52.031 197z"/>
        <circle cx="63" cy="187" r="18" fill="#FFB8B8"/>
        <path fill="#17E4B2" d="M49 208L70.582 223.534 74.303 212.438 81 230.192 77.279 262z"/>
        <path fill="#1B435E" d="M51.895 206l21.5 32.643.863-27.292 2.648 2.083c2.952 2.322 4.675 5.866 4.675 9.617L92 232.703l-3.72 37.125-.745 43.807s4.465 3.713 2.977 5.94C89.023 321.803 83.07 327 76.372 327S28 321.803 28 318.833c0-2.97 1.488-41.58 1.488-41.58v-51.975l17.86-13.365L51.896 206z"/>
        <path fill="#FFB8B8" d="M26 328.116L35.389 342 39 325.923 34.667 323z"/>
        <path fill="#000" d="M45.678 369.004L87.051 369.013 87.052 370.505 45.678 370.496z" opacity=".2" transform="rotate(-69.737 66.365 369.754)"/>
        <path fill="#185C8A" d="M53.293 170.283s2.24-11.232 14.938-8.986l-1.493.749s11.95-1.498 10.457 5.242c0 0 9.71 5.99 7.47 12.73-1.318 3.907-2.318 7.914-2.989 11.982l-2.24-2.247s-2.241-14.977-15.686-13.479c-10.084 1.123-14.192 5.897-15.243 9.337-.483 1.618-1.1 3.192-1.845 4.707l-.839.184s-4.482-16.474 7.47-20.219z"/>
        <path fill="#1B435E" d="M36.515 223.315L29.758 223l-1.408 1.059c-1.616 1.62-3.105 3.362-4.454 5.21-1.485 2.234-20.785 56.577-20.785 56.577-.358 3.3.154 6.637 1.485 9.677C6.823 300.734 24.638 332 24.638 332L38 323.811l-17.816-36.476 12.62-17.866 3.711-46.154zM435 114.304h-2.645v-72.4c0-11.114-4.417-21.772-12.281-29.63C412.21 4.413 401.544 0 390.424 0H236.93c-11.12 0-21.786 4.415-29.65 12.273C199.418 20.132 195 30.79 195 41.903v397.194c0 11.113 4.418 21.771 12.281 29.63 7.864 7.858 18.53 12.273 29.65 12.273h153.493c11.12 0 21.786-4.415 29.65-12.273 7.864-7.859 12.281-18.517 12.281-29.63V165.839H435v-51.535z"/>
        <path fill="#E6E6E6" d="M422 39.684v401.632C421.996 458.813 407.778 473 390.238 473H233.775c-17.545 0-31.77-14.182-31.775-31.684V39.684C202.005 22.182 216.23 8 233.775 8h18.98c-1.893 4.643-1.347 9.92 1.455 14.08s7.494 6.657 12.518 6.664h89.206c5.024-.007 9.716-2.504 12.518-6.664 2.802-4.16 3.348-9.437 1.455-14.08h20.331c17.54 0 31.758 14.187 31.762 31.684z"/>
        <path fill="#FFF" d="M234 248H392V406H234zM267 177H357V184H267zM256 195H368V202H256z"/>
        <path fill="#E6E6E6" d="M279 264H341V269H279z"/>
        <path fill="#17E4B2" d="M279 277H374V282H279z"/>
        <path fill="#E6E6E6" d="M280 290H357V295H280zM279 304H324V309H279z"/>
        <path fill="#17E4B2" d="M279 319H347V324H279z"/>
        <path fill="#E6E6E6" d="M251 263H258V270H251z"/>
        <path fill="#17E4B2" d="M251 276H258V283H251z"/>
        <path fill="#E6E6E6" d="M251 289H258V296H251zM251 303H258V310H251z"/>
        <path fill="#17E4B2" d="M251 317H258V324H251z"/>
        <path fill="#E6E6E6" d="M279 332H341V337H279z"/>
        <path fill="#17E4B2" d="M279 346H374V351H279z"/>
        <path fill="#E6E6E6" d="M280 358H357V363H280zM279 373H324V378H279zM279 387H347V392H279zM251 331H258V338H251z"/>
        <path fill="#17E4B2" d="M251 344H258V351H251z"/>
        <path fill="#E6E6E6" d="M251 357H258V364H251zM251 372H258V379H251zM251 385H258V392H251z"/>
        <circle cx="312.5" cy="106.5" r="51.5" fill="#FFF"/>
        <path fill="#17E4B2" d="M312.5 80c-14.083 0-25.5 11.417-25.5 25.5s11.417 25.5 25.5 25.5 25.5-11.417 25.5-25.5c-.041-14.066-11.434-25.459-25.5-25.5zm0 7.65c3.094 0 5.884 1.864 7.068 4.722 1.184 2.86.53 6.15-1.659 8.337-2.188 2.188-5.478 2.843-8.337 1.659-2.858-1.184-4.722-3.974-4.722-7.068.014-4.22 3.43-7.636 7.65-7.65zm0 36.828c-6.135-.028-11.861-3.084-15.3-8.165.123-5.1 10.2-7.908 15.3-7.908 5.1 0 15.177 2.808 15.3 7.908-3.442 5.077-9.166 8.131-15.3 8.165z"/>
        <ellipse cx="513" cy="486.5" fill="#E6E6E6" rx="57" ry="11.5"/>
        <path fill="#FFB8B8" d="M452.216 311.978l-7.632-1.29s-15.595-7.01-16.54-1.7c-.946 5.31 13.938 10.012 13.938 10.012L458 317.33l-5.784-5.352z"/>
        <path fill="#16374E" d="M496.027 258L485.498 305.821 450.348 310.772 449 324.88 494.33 325 517 283.691z"/>
        <path fill="#FFB8B8" d="M443.508 271.17l-5.34-5.504s-8.36-14.907-12.218-11.019c-3.858 3.888 5.28 16.453 5.28 16.453L445 279l-1.492-7.83z"/>
        <path fill="#185C8A" d="M517.097 242.494l6.681-1.62c5.163.007 10.056-2.293 13.327-6.264 3.272-3.971 4.577-9.194 3.554-14.226.016-12.347-10.037-22.368-22.454-22.384-12.416-.015-22.494 9.98-22.51 22.328-1.758 6.085-.127 12.642 4.283 17.21 4.41 4.568 10.932 6.456 17.119 4.956z"/>
        <path fill="#16374E" d="M477 352.669L482.468 411.365 492.371 468.98 509 469 506.855 412.482 498.075 344z"/>
        <path fill="#16374D" d="M494.6 465l-10.953 6.472s-17.515 2.14-14.239 7.55c3.277 5.409 41.59 2.213 41.592.051.003-2.162-1.077-14.054-3.266-14.057L494.6 465z"/>
        <path fill="#1B435E" d="M520.868 346.612s5.555 9.01-2.093 22.059l1.04 40.267L559 459.047 544.812 471l-47.902-54.473-11.91-65.31L500.282 336l20.586 10.612z"/>
        <path fill="#16374D" d="M555.229 459s12.648 2.186 10.532 7.608c-2.115 5.423-7.416 30.37-21.117 27.097 0 0-6.325-.008-4.212-4.345 1.27-2.609 2.682-5.142 4.226-7.59l.018-14.104L555.229 459z"/>
        <circle cx="509.5" cy="227.5" r="16.5" fill="#FFB8B8"/>
        <path fill="#FFB8B8" d="M517 238.019L516.977 256 500 255.979 502.144 238z"/>
        <path fill="#1B435E" d="M527 355l-10.96-1.81c-13.984-2.321-28.304-1.726-42.04 1.746l4.958-48.727.644-6.352 1.383-13.602s-4.778-17.924 2.235-23.978c8.561-7.392 16.141-13.277 16.141-13.277l16.735 1.323c9.357 18.418 7.33 41.57 1.018 66.51L527 355z"/>
        <path fill="#1B435E" d="M509.893 252l-36.097 33.164-31.237-16.475L436 276.84l27.593 24.692c3.862 2.812 8.929 3.254 13.207 1.151l35.2-17.301L509.893 252z"/>
        <circle cx="542" cy="205" r="10" fill="#185C8A"/>
        <path fill="#185C8A" d="M531.417 198.86c.002-3.026 1.417-5.892 3.854-7.808 2.438-1.916 5.642-2.681 8.729-2.084-3.672-1.667-8.015-1.152-11.155 1.323-3.14 2.475-4.515 6.467-3.532 10.253.984 3.786 4.15 6.69 8.132 7.456-3.683-1.667-6.032-5.228-6.028-9.14zM522.966 203.643L508.733 201l-10.946 6.92c-5.495 3.473-8.483 9.856-7.649 16.342l10.963-2.802 2.455-6.208c1.576 2.597 3.777 4.752 6.399 6.265 6.21 3.596 7.65 11.24 8.385 19.483l12.009-6.586L538 222.32l-15.034-18.677z"/>
        <path fill="#000" d="M508 276L479 306 479.649 299.669z" opacity=".2"/>
    </g>
</svg>
