<svg xmlns="http://www.w3.org/2000/svg" width="58" height="42" viewBox="0 0 58 42">
    <g fill="#FFF">
        <path d="M57.518 6.109l-15.01 15.577c-.053.052-.083.124-.083.2 0 .075.03.147.083.199L53.04 33.508c.515.53.668 1.322.39 2.012-.28.69-.938 1.14-1.67 1.144-.48 0-.942-.196-1.283-.542L40.001 24.74c-.112-.112-.29-.112-.402 0l-2.552 2.63c-2.112 2.202-5.005 3.443-8.025 3.442-3.077-.015-6.019-1.29-8.164-3.54l-2.453-2.558c-.11-.112-.29-.112-.4 0L7.552 36.071c-.34.347-.8.542-1.282.542-.48 0-.941-.195-1.281-.542-.341-.346-.534-.816-.534-1.307 0-.49.193-.961.534-1.307l10.492-11.398c.096-.115.096-.284 0-.399L.472 6.083c-.08-.081-.199-.105-.302-.062-.103.044-.17.147-.17.261v31.17C.008 39.96 2 41.992 4.458 42h49.083c2.46-.008 4.45-2.04 4.459-4.548V6.308c.005-.119-.064-.228-.172-.273-.108-.045-.232-.015-.31.074z"/>
        <path d="M29.012 26.598c2.108.02 4.133-.809 5.614-2.3L57.033 1.621C56.238.966 55.239.605 54.206.599H3.86C2.827.602 1.827.964 1.033 1.62l22.412 22.677c1.468 1.483 3.476 2.312 5.567 2.3z"/>
    </g>
</svg>
