<svg xmlns="http://www.w3.org/2000/svg" xmlns:xlink="http://www.w3.org/1999/xlink" width="584" height="794" viewBox="0 0 584 794">
    <defs>
        <path id="prefix__a" d="M0 0.623L583.775 0.623 583.775 792.728 0 792.728z"/>
        <path id="prefix__c" d="M301.91 82.791c-1.553 0-2.331.522-4.143.262-1.813-.262-3.113-1.816-5.186-2.594-2.072-.774-3.883.518-5.179 1.036-1.3.52-2.597.52-3.89-1.036-1.263-1.517-3.253-4.25-1.917-4.397-1.405-1.228-3.74-1.977-5.602-1.564-2.327.518-2.327-1.812-.775-2.852 1.555-1.036-1.816-2.596-3.368-3.112-1.555-.519-4.406-4.145-4.928-5.445-.516-1.294-2.332-3.624-3.621-5.963-1.3-2.332-2.08-2.848-4.145-3.108-2.077-.26-2.341 1.034-3.633 2.588-1.298 1.562-2.851 1.562-4.147 1.042-1.297-.522-3.365-3.112-4.149-4.404-.777-1.298-1.551-1.556-2.849-1.036-.925.363-2.518-.459-3.347-.957-.635.232-1.208.472-1.578.695-1.291.78-3.107-.258-4.662-.522-1.554-.26-4.15-1.814-5.183-2.336-1.038-.52-3.89-2.33-5.186-3.1-1.292-.785-2.326.255-3.883.517-1.558.252-1.818.77-2.855 1.808-1.028 1.033-2.072.775-3.893 1.033-1.808.264-4.131-2.589-5.435-4.143-1.292-1.56-1.813-1.038-3.367-.262-1.552.784-1.813 1.816-3.111 2.856-1.29 1.034-3.11 0-3.63-1.04-.515-1.032 0-2.334-1.037-2.592-1.034-.258-1.81.776-3.105 1.822-1.298 1.032-2.071-2.08-3.105-3.122-1.042-1.036-.786-3.364-.526-4.925.258-1.554-1.036-2.848-2.335-3.882-1.294-1.038-5.439-1.816-7.768-2.854-2.34-1.036-5.71-6.481-6.48-9.333-.78-2.85-3.885-4.149-5.189-5.705-.684-.824-2.38-3.688-3.835-6.193.188.592.3.923.3.923s-2.423-3.455-4.84-5.184c-2.42-1.731-4.831-3.115-7.605-2.765-2.768.347-5.534 0-7.945 1.729-2.418 1.726-5.53 2.415-9.325 1.726-3.808-.69-6.222 1.039-8.298-1.385-2.073-2.42-5.182-6.911-7.6-4.146-2.42 2.763-4.146 4.84-4.495 6.915-.345 2.072-1.724 7.95-3.11 10.367-1.38 2.418-.346 7.26 1.037 9.335 1.387 2.074 2.073 2.763 2.073 5.532v5.528s-1.038-2.765-2.417-4.149c-1.38-1.38 0 0-2.766-.692-2.761-.687-2.761 0-4.484-2.416-1.736-2.424-3.115-5.877-5.531-4.15-2.423 1.726-3.457 1.381-3.457 3.805 0 2.415 0 4.146-.692 5.875-.695 1.727 1.377 3.46 2.764 1.383 1.385-2.076 2.071-.349 2.424 2.765.34 3.109 0 4.49-1.736 6.566-1.726 2.075-3.452 3.46-5.869 1.033-2.423-2.418-1.732-4.83-4.841-4.83-3.107 0-4.84-4.156-2.76-4.845 2.073-.689 4.488 1.388 5.522-.689 1.041-2.076 1.383-3.457 0-5.875-1.377-2.425-2.07-5.538-3.105-6.915-1.038-1.386-3.8 0-3.8-3.113 0-3.11.684-3.799-1.732-4.495 0 0-2.758-1.032-4.836-1.032-2.071 0-4.146-1.039-5.53.347-1.376 1.381-6.222.685-8.293 1.725-2.072 1.036-8.635 3.799-10.71 2.767-2.072-1.042-5.871-2.073-8.294-1.386-2.419.691-7.6 0-9.67 2.074-2.074 2.075-5.884 4.84-7.263 6.916-1.375 2.074-1.033 3.112 1.038 4.49 2.073 1.385 1.385 2.767-1.726 2.421-3.111-.345-3.111 0-3.806 2.765-.682 2.763-.682 5.53-1.722 8.297-1.032 2.769-1.726 7.26 2.073 7.946 3.802.694 9.673-.342 11.405.357 1.722.689.34 0 0 2.757-.345 2.765 0 4.839-1.387 6.224-1.379 1.384.693 1.73.35 4.496-.35 2.761-1.387 1.032-2.074 3.456-.69 2.417-.341 3.456.345 6.911.693 3.454 1.728 8.64 0 11.755-1.73 3.11-4.143 8.983-6.224 11.403-2.071 2.43-3.107 6.92-2.766 10.028.351 3.114-1.036 7.951-1.036 9.333 0 1.377 0 5.535-2.412 4.142-2.417-1.373-4.151-.687-6.568-1.373-2.42-.697-4.145-2.083-5.869-1.392-1.732.695-6.224-.343-6.224 2.078 0 2.416-.343 4.496.692 5.185 1.036.693 2.415 1.383.344 2.421C.345 133.953 0 133.608 0 135.678c0 2.075 0 5.187 1.722 5.882 1.732.69 6.224 2.413 8.298 3.108 2.073.695 5.528 1.725 5.87.345.35-1.381 2.418-4.492 2.769-1.725.347 2.761 2.418 6.22 3.454 6.906 1.036.693 1.377 4.156 0 5.881-1.377 1.729-3.107 6.57-2.42 7.602.69 1.038 2.42 2.076 2.42 2.076s-.077.08-.216.197c1.13.012 2.442-.165 2.978-.977 1.04-1.55 5.705-1.296 7.26-1.55 1.556-.268 6.738-.778 8.55-2.594 1.813-1.818 5.96-4.15 7.52-5.183 1.555-1.04 2.845-1.814 4.66-2.854 1.814-1.036 1.556-1.298 2.076-2.332.516-1.038 1.295-1.562-.52-2.852-1.814-1.297 0-1.817.52-3.113.516-1.3 1.295-2.598 2.855-1.554 1.55 1.032 2.065 2.072 3.363 2.594 1.292.514.518 2.073 1.042 3.625.514 1.556 1.813 1.818 3.103 2.072 1.294.262 1.813 1.044 2.85 1.82 1.039.78 2.594.78 3.636 0 1.032-.776 3.363-.52 4.137.78.782 1.288.522 3.627 2.073 4.145 1.556.522 1.822 2.072-.518 2.332-2.329.264-1.809 1.556-1.293 2.598.52 1.028.774 1.028 0 2.588-.778 1.555.26 3.113-1.298 3.887-1.553.776-2.07 1.554 0 2.852 2.072 1.3 3.375 1.816 4.93 1.556 1.554-.256 1.29.782.769 2.593-.512 1.812.262 2.852-2.072 3.632-2.33.78-2.591.78-4.143 2.07-1.553 1.296-1.817 1.554 0 2.594 1.814 1.036 1.552 3.115 3.37 2.597 1.81-.518 2.845-1.04 3.63-2.08.776-1.035 2.072-1.035 4.141-.78 2.074.263 3.631.263 5.189-.519 1.553-.776 1.295-1.55 2.591-3.102 1.292-1.56 1.556-2.854 3.365-2.6 1.816.262 3.63-.516 4.405.522.78 1.036 3.113 2.592 3.629 1.036.518-1.558 1.04-2.594 2.853-3.37 1.818-.779 4.663-1.81 4.143-3.113-.516-1.296-1.814-1.296-2.845-2.078-1.042-.774-.522-.516 0-2.584.52-2.075 1.555-8.56.52-9.597-1.042-1.034-1.306-1.552-1.562-3.365-.256-1.814-2.07-3.114-3.885-3.634-1.817-.518-3.37-1.552-3.885-2.852-.522-1.296-2.075-3.625 0-3.625 2.068 0 2.587.776 4.66.514 2.076-.258 3.63.522 4.152-1.294.52-1.814-1.298-2.594.254-3.63 1.555-1.036 1.555-2.334 2.85-2.334 1.299 0 .26 1.818 2.588 1.298 2.341-.518 2.851-.518 4.415-1.554 1.553-1.038 2.327-1.038 3.623 0 1.298 1.036.262 2.59 1.298 4.144 1.035 1.56 1.293 3.892.777 4.929-.523 1.034-1.295 2.586 1.034 3.37 2.333.778 6.22 1.554 8.298.516 2.07-1.034 5.956-.262 6.216-2.334.264-2.074 1.814-2.329 2.591-4.405.78-2.076 1.294-3.112 2.848-3.372 1.551-.258 3.115-1.03 4.41.26 1.298 1.298.262 2.596-1.035 3.37-1.3.778-1.038 2.339.261 3.107 1.294.778 1.294 2.074.254 3.374-1.04 1.298-1.553 4.928-3.623 5.185-2.075.256-3.115.518-3.892 2.332-.774 1.818-1.814 3.114-.774 4.144 1.033 1.044 1.033 2.34 2.845 3.114 1.821.78 3.89 1.3 2.855 2.079-1.034.778-2.337 1.034-2.071 2.07.252 1.038 0 1.816-1.038 2.334-1.04.518-1.04 2.334-.784 3.116.264.775 1.038 1.547 3.633 1.547 2.595 0 4.403-.256 4.917 1.042.524 1.296-.25 2.082 0 3.112.27 1.038 2.08 2.07 2.08 2.07s.261 2.855.515 4.413c.26 1.554.52 3.364-.254 4.666-.784 1.298.514 3.627 2.588 2.076 2.075-1.56 3.627 0 3.627 1.81 0 1.815.783 3.373 2.071 3.373 1.298 0 1.817 1.814 1.817 3.888 0 2.076 1.818 2.076 4.41 1.812 2.59-.258 2.075 2.075 1.037 3.627-1.038 1.56.52 1.04.52 2.596 0 1.558-1.304 2.854-2.334 3.627-1.045.782-1.045 1.814-.78 3.632.257 1.818 1.81 3.106.518 4.406-1.297 1.294-2.85 2.337-1.297 3.635 1.042.865 2.422.919 3.228.86.744-.594 1.804-1.281 2.566-1.126 1.287.266 1.204 2.596 2.498 2.596 1.297 0 2.335.258 3.888-.516 1.554-.78 3.63-1.038 3.89.258.26 1.298 2.333 2.852 3.107 3.37.781.518.52 2.854-1.29 2.074-1.818-.782-3.117-.522-2.34.524.782 1.03 1.556 2.069 0 1.813-1.551-.262.522 1.292-.777 2.328-1.29 1.036-1.036 2.334-.254 3.112.776.778 1.813 3.369 1.553 4.403-.26 1.042 1.298 1.562.518 3.114-.778 1.552-.518 1.812-2.33 2.074-1.82.258-2.077 1.036-2.338 2.336-.256 1.297-.776 2.589 1.041 3.62 1.81 1.041 6.217 2.343 6.998 3.381.774 1.036 2.068 2.33 3.367 1.036 1.294-1.298 2.33-2.074.52-2.85-1.82-.784-2.595-2.34-2.595-3.114 0-.776.262-.26 1.815-1.293 1.554-1.046 3.108-1.56 3.63-2.858.515-1.3 2.335-2.07 2.593-1.036.258 1.036.775 2.078.775 2.078s-.517-2.594.778-3.112c1.294-.524 1.814-.262 2.847.518.945.703 1.435 1.826 1.522 2.803 1.352-.459 3.776-1.368 4.272-2.11.689-1.036 2.59-2.767 3.623-2.942 1.036-.176 2.25-.176 3.459 0 1.204.175 3.456-.516 3.978-1.729.516-1.21.343-3.108 1.2-3.46.865-.343 1.556 1.563 2.937.523 1.385-1.04 2.772-1.9 3.629-2.942.865-1.036 1.214-1.38 2.422-2.072 1.209-.689 1.554-.86 1.726-2.249.175-1.372.175-3.11 1.209-3.622 1.036-.522 2.593-.522 3.458-.522.867 0 2.939.518 3.621 1.381.699.867 2.423 2.594 3.631 1.904 1.212-.687 1.044-1.904 2.078-2.424 1.037-.516 1.555-.516 2.414.345.865.866 3.288.175 2.246-1.032-1.03-1.215-1.895-1.215-1.724-2.421.173-1.207.695-1.556 1.897-2.245.677-.383.815-.93 1.075-1.308l-.728-2.329c-.26-2.328 0-4.66-1.55-5.956-1.555-1.296-3.113-2.856-3.63-4.407-.522-1.56-1.816-4.41-1.034-6.482.77-2.075 1.034-2.075 2.59-3.629 1.553-1.56 2.848-3.374 1.29-4.666-1.557-1.296-2.588-1.562-1.557-2.854 1.042-1.299 1.302-1.813-.514-2.589-1.81-.776-4.406-1.556-3.889-3.376.52-1.816.26-.774 2.334-.774 2.07 0 2.07.514 3.37-1.298 1.293-1.814 2.07-2.329 4.41-2.593 2.323-.262 6.736 0 8.801-.52 2.08-.516 3.377.258 5.445-.78 2.071-1.034 2.071-1.808.777-3.106-1.29-1.294-.777-2.334 1.294-2.592 2.076-.26 2.595-.776 3.631-2.334 1.034-1.55 2.335-3.63 0-4.149-2.327-.516-1.81-2.332-1.036-3.108.774-.778 3.112-.778 3.371-1.556.258-.776-.26-1.3-1.813-2.597-1.558-1.296-2.593-2.328-2.331-3.626.254-1.298 1.037-3.632-.518-4.412-1.556-.773-1.304-1.289 1.035-1.815 2.326-.514 4.145-3.108 2.326-4.142-1.806-1.038-2.843-2.336-4.665-3.37-1.81-1.037-3.883-3.113-3.619-5.183.252-2.072 0-2.336 1.81-2.594 1.81-.26 2.847-.26 2.847-.26s-2.332-1.298-3.11-3.117c-.775-1.812-1.295-3.362-1.035-4.662.26-1.296 1.298-3.368 1.813-4.152.52-.769-1.033-1.549-2.845-.515-1.821 1.039-2.335-1.814-3.109-3.37-.782-1.554-3.375-3.886-3.375-3.886-.256-1.036-3.105-2.6-3.371-3.893-.252-1.296-2.07-5.188-1.811-7.254.261-2.077.261-4.155 2.85-4.41 2.594-.265 4.925.517 6.743-.265 1.81-.774 2.33-1.036 3.105-2.326.78-1.296.524-3.374 2.333-3.63 1.812-.262 5.439-.78 5.439-.78s1.82 2.076 2.593 1.56c.786-.524 1.042-1.299 2.595-.524 1.56.78 3.621 2.854 4.667 2.594 1.032-.258.776 0 2.585-.516 1.816-.52 3.113-.52 4.15-1.554 1.037-1.042 2.594-1.82 3.884-2.857 1.304-1.032 2.078-1.812 3.375-2.076 1.296-.252-.782-1.29.256-2.846 1.04-1.556 1.816-4.409 1.816-4.409s1.297 1.294 2.071.774c.782-.512 2.073-1.292 2.073-2.328 0-.581.818-1.564 1.526-2.324-.07 0-.145-.014-.23-.014"/>
        <path id="prefix__g" d="M0.525 129.996L130.369 259.706 130.369 0.286z"/>
        <path id="prefix__i" d="M.388 34.01L.141 153.336l138.712.291.32-153.011L.461.324C.461.838.39 33.494.388 34.01"/>
        <path id="prefix__k" d="M.029.76l.25 120.383.073 33.983 138.713-.29L138.74.47"/>
        <linearGradient id="prefix__e" x1="0%" x2="100%" y1="87.885%" y2="12.115%">
            <stop offset="0%" stop-color="#2CCCCC"/>
            <stop offset="100%" stop-color="#0CEFA5"/>
        </linearGradient>
        <filter id="prefix__d" width="162.9%" height="172.2%" x="-31.4%" y="-32.3%" filterUnits="objectBoundingBox">
            <feOffset dy="10" in="SourceAlpha" result="shadowOffsetOuter1"/>
            <feGaussianBlur in="shadowOffsetOuter1" result="shadowBlurOuter1" stdDeviation="30"/>
            <feColorMatrix in="shadowBlurOuter1" values="0 0 0 0 0 0 0 0 0 0 0 0 0 0 0 0 0 0 0.311980988 0"/>
        </filter>
    </defs>
    <g fill="none" fill-rule="evenodd">
        <g opacity=".101">
            <path fill="#414042" d="M176.01 34.806c-.78-1.301-1.208-2.02-2.38-2.02-.378 0-.792.084-1.365.196-1.774.357-1.81.367-3.919 1.066-.459.154-.753.172-.935.172-.14 0-.26-.013-.369-.023-.14-.01-.268-.02-.39-.02-.972 0-1.559.599-2.247 1.627l-.054.08-.037.092c-.034.086-.83 2.151.378 4.565.962 1.92 3.13 2.22 5.226 2.51.764.107 1.558.216 2.301.401.489.123.901.182 1.261.182 1.779 0 2.129-1.388 2.409-2.504.127-.502.27-1.071.529-1.674.922-2.16.929-2.638.053-3.933-.13-.194-.285-.424-.461-.717M182.532 38.374l-1.513 2.272c-.852 1.28-1.006 1.448-1.453 1.94-.267.292-.627.69-1.26 1.442-.794.957-1.777 1.049-3.02 1.167-.906.086-1.929.183-2.91.675l-.84.417.424.833c.082.16.57 1.004 2.147 1.8.435.216.934.328 1.486.328 1.132 0 2.341-.444 3.622-.914.377-.137.759-.276 1.138-.406 2.633-.878 2.431-5.843 2.365-6.83l-.186-2.724zM465.402 53.366c.127.095.226.17.346.316.388.486.998.73 1.813.73.943 0 2.006-.33 2.538-.54l.561.136.368-.456.327-.4c1.019-1.264 1.441-1.787 2.696-2.538 2.874-1.719 3.926-3.405 3.123-5.014-.127-.255-.262-.605-.417-.997-.7-1.766-1.655-4.184-3.578-4.184-.355 0-.712.09-1.065.265-.76.382-1.697.607-2.603.826-1.623.392-3.304.795-4.106 2.173-.52.887-.573 2.014-.166 3.442.266.952.166 1.6-.345 3.49-.374 1.37-.39 2.09.508 2.751M170.837 64.167c-.271-.322-.517-.623-.734-.894-1.015-1.238-1.476-1.805-2.188-1.805-1.246 0-1.246 1.54-1.246 2.197 0 .691-.176 1.313-.33 1.863-.318 1.122-.796 2.819 1.698 3.53l.643.187c.752.223 1.294.384 1.792.384 1.43 0 1.869-1.335 2.16-2.219.385-1.149.106-1.896-.2-2.32-.443-.618-1.133-.842-1.595-.923"/>
            <path fill="#414042" d="M163.817 36.017l-2.004 1.665c-.562.467-1.073.702-1.52.91-1.347.618-2.205 1.236-1.927 4.052.063.62.102 1.176.139 1.67.165 2.323.276 3.86 2.444 4.95 1.227.611 2.195 1.096 3.027 1.096.537 0 1.785-.22 1.785-2.27 0-.337.01-.6.016-.812.048-1.286-.113-1.509-1.154-2.948l-.422-.585c-1.467-2.058-.888-5.138-.882-5.169l.498-2.559zM175.235 60.334c.497 1.162 1.01 2.362 2.518 2.362.362 0 .76-.075 1.22-.228.213-.07.44-.107.685-.107.263 0 .53.041.789.078.282.043.548.079.785.079 1.89 0 2.09-2.042 2.177-2.915.094-.937.24-1.771.368-2.507.283-1.618.47-2.687-.167-3.447-.337-.402-.83-.603-1.466-.603-1.773 0-3.77 1.914-4.574 2.773-1.229.008-2.43.1-2.997 1.018-.573.932-.02 2.034.162 2.396.199.395.357.767.5 1.101M175.412 53.132c-.033-.818-.602-1.242-.715-1.319-.816-.604-2.225-1.273-3.167-1.273-.773 0-1.085.46-1.183.656-.237.47-.13 1.008.314 1.605.271.357.39.902.496 1.382.15.68.401 1.823 1.517 1.823.429 0 .856-.192 1.388-.62.924-.738 1.38-1.496 1.35-2.254"/>
            <g transform="translate(0 .65)">
                <mask id="prefix__b" fill="#fff">
                    <use xlink:href="#prefix__a"/>
                </mask>
                <path fill="#414042" d="M580.863 366.59c-1.374-2.772-4.143-7.616-2.76-10.389 1.386-2.765 0-7.266-3.464-6.229-3.46 1.037-6.233-1.387-8.31-2.421-1.241-.621-3.09-2.098-4.384-3.193l.995-.333-1.087-.966c.73-.658 1.778-1.67 2.453-2.571 1.313-1.735 1.223-2.45.136-5.693-.28-.845-.426-1.633-.563-2.325-.341-1.816-.663-3.53-3.206-4.166-2.15-.54-2.438-1.716-3.07-4.293l-.058-.221c-.47-1.881-1.494-2.927-2.477-3.94-.651-.662-1.26-1.293-1.771-2.18-1.038-1.814-.822-2.03 1.233-4.08 1.932-1.93 4.84-6.104 4.413-9.088-.086-.621-.194-1.15-.29-1.634-.29-1.388-.435-2.084.204-3.362.137-.286.327-.616.525-.98 1.35-2.457 3.616-6.569.58-8.835-3.4-2.554-4.613-4.567-3.603-5.983 1.102-1.553 1.376-2.33 1.044-2.975-.191-.37-.564-.59-.991-.59h-.027c-.32-.115-.818-.381-.934-.726l-.008-.024c.063-.057.158-.127.23-.187.298-.228.7-.543 1.046-1.06.619-.925.378-2.317-.056-3.313-.617-1.43-1.729-2.41-2.98-2.618-.292-.05-.628-.102-.988-.155-1.277-.187-4.667-.691-4.832-1.538-.16-.787-.495-1.601-.848-2.463-.482-1.18-1.031-2.518-1.225-4.045-.173-1.4-.85-2.285-1.398-2.996-.686-.891-.965-1.26-.42-2.36.972-1.942 1.553-2.585 2.505-3.653.346-.383.736-.814 1.18-1.359 1.733-2.082 1.435-3.226.81-4.923-.089-.246-.193-.512-.287-.81-.597-1.779-.283-3.758.708-4.503.44-.326.683-.807.691-1.357.033-1.697-2.413-4.007-4.476-5.648-.723-.583-1.948-1.047-3.364-1.59-2.283-.873-5.133-1.96-6.09-3.68-.554-1-.886-1.89-1.178-2.678-.61-1.641-1.132-3.057-3.183-3.644-1.205-.346-1.921-.88-2.828-1.554-.757-.563-1.616-1.203-2.905-1.847-2.527-1.262-4.495-3.853-4.517-3.881l-.301-.398-.498.031c-.014 0-.174.01-.425.01-1.603 0-2.912-.34-3.333-.865-.108-.133-.218-.344-.12-.789.23-1.047.547-1.795.826-2.457.528-1.252.985-2.336.133-4.042-1.55-3.109-.794-4.143.035-4.695 3.635-2.43 6.033-4.357 7.131-5.734.185-.232.402-.496.639-.784 2.141-2.6 4.062-5.098 4.062-7.07 0-2.1-.35-7.01-.708-9.15-.278-1.678-.11-2.464 1.534-4.448 1.068-1.28 2.307-3.186 2.125-4.992-.09-.875-.511-1.639-1.224-2.205-1.428-1.143-1.727-2.873-1.727-4.123v-.927h-.114c-.444-2.461-2.106-7.88-2.812-8.935-.3-.45-.81-2.031-1.258-3.423-.46-1.421-.934-2.894-1.427-4.04-.222-.522-.494-1.07-.774-1.64-.97-1.978-2.068-4.215-1.605-6.077.606-2.399-.714-5.996-1.586-8.377-.226-.616-.423-1.146-.49-1.421l-.018-.077-.033-.07c-.013-.031-1.318-3.001-1.485-5.236-.095-1.448-.62-2.42-1.201-3.366l-.272-.445H515.53l-.024.004c-.318-.056-.579-.08-.83-.08-1.099 0-1.994.472-2.592 1.367l-.199.3c-.495.765-.626.97-1.803 1.206-.516.102-1.057.156-1.608.156-1.125 0-2.344-.218-3.629-.647-.552-.183-1.114-.343-1.674-.501-1.466-.414-2.851-.807-3.715-1.568-.792-.688-1.615-1.075-2.409-1.448-.744-.352-1.513-.712-2.304-1.345-.858-.686-1.033-1.397-1.059-1.771.041-.036.08-.069.116-.102.496-.439.514-.455 1.921-.455l.687.005.508.005c1.378 0 2.136-.183 3.271-1.317.532-.53.81-1.047 1.036-1.466.351-.644.432-.794 1.159-.858.911-.084 1.72-.084 2.578-.084.878 0 1.87 0 3.114-.091.685-.047 1.62-.075 2.783-.075.622 0 1.244.007 1.807.017l.997.018-.052-.999-.343-6.168-.018-.334-.227-.25c-.172-.184-4.23-4.572-5.665-5.647-.514-.386-1.199-1.113-1.927-1.876-1.105-1.164-2.357-2.483-3.65-3.347-.476-.315-.895-.633-1.302-.941-1.418-1.074-2.758-2.09-5.61-2.662-.704-.14-1.267-.227-1.735-.295-1.676-.252-1.775-.267-3.216-2.423-.81-1.214-1.413-2.46-1.899-3.461-.836-1.724-1.388-2.866-2.512-2.866-.152 0-.307.026-.456.077-1.162.385-1.849 2.412-2.235 4.259-.263-.047-.73-.205-1.453-.689-1.037-.688-1.946-1.009-2.858-1.009-1.477 0-2.746.887-3.793 1.755-1.76 1.472-4.808 1.867-6.329 1.867-.846 0-1.237.432-1.394.69-.483.788-.083 1.796.456 2.875-.474-.305-1.1-.795-1.867-1.561-2.494-2.493-2.837-3.984-2.837-5.227 0-.394-.143-1.674-1.988-1.674-.311 0-.659.032-1.006.068-.283.029-.562.058-.814.058-.204 0-.283-.021-.293-.026-.47-.217-1.363-2.164-1.743-2.99-.176-.391-.342-.75-.49-1.047-.009-.014-.014-.026-.023-.042.257.142.514.303.772.465.875.546 1.778 1.11 2.819 1.11.42 0 .828-.095 1.206-.284 1.196-.598 2.634-2.24 2.875-3.729.12-.758-.077-1.437-.557-1.917-.298-.302-.477-.514-.592-.704l-.563-.925c.02-.01.04-.018.06-.025l.371-.154.143-.377.057-.159.042-.117c.151-.382.258-.701.348-.979.28-.847.329-1 1.621-1.647.654-.326 1.112-.587 1.469-.79.591-.338.79-.452 1.197-.485-.057.166-.118.355-.17.565-.06.236-.181.725.14 1.136l.278.355.48.013c.568 0 .84-.355 1.562-1.3.513-.674 1.211-1.591 1.767-2.01.047-.038.086-.062.121-.081.046.057.1.13.143.184.27.363.642.858 1.308 1.078.173.058.357.088.552.088.903 0 1.938-.684 2.674-1.286.329.562.563 1.097.584 1.366-1.369 1.071-.743 3.556-.596 4.056l.104.367.333.188c.185.103 1.834 1 3.074 1 .893 0 1.544-.463 1.74-1.238.376-1.523.376-3.385.01-4.584.002-.003.005-.007.007-.007.327-.231.876-.617 1.296-1.458.913-1.825-1.034-3.275-2.751-4.554-.326-.244-.654-.489-.96-.732-.814-.654-1.674-1.2-2.628-1.665l-.341-.166-.358.119c-.383.126-.603.152-.724.152-.156 0-.212 0-.58-.617l-.197-.328-.373-.096c-.343-.087-.687-.367-1.05-.855l-.125-.164-.18-.098c-.11-.058-.183-.096-.265-.149-.433-.248-.824-.355-1.22-.355-.752 0-1.323.374-1.878.738-.324.212-.657.43-1.029.57-.136.053-.265.08-.368.08-.257 0-.501-.18-.944-.526-.285-.223-.61-.475-1.013-.704-.605-.343-.592-1.08-.41-2.804l.01-.1c.18-1.823-.541-2.351-1.679-2.583-.155-.031-.325-.065-.511-.126-.785-.266-1.22-.41-1.64-2.113-.235-.935-.528-2.095-1.643-2.095-.224 0-.41.055-.575.102-.143.044-.267.077-.413.077-.374 0-.845-.737-.98-2.102-.088-.863-.221-2.164-1.518-2.164-.292 0-.583.077-.951.172-.163.042-.352.09-.564.141-.38.082-.79.191-1.113.415.36-.28.69-.608.992-.91.354-.355.76-.757 1.017-.857.276-.112.833-.341 2.861-2.924l.202-.257-.005-.331c-.016-1.046.353-1.87 1.236-2.751 1.712-1.723 1.304-3.867 1.286-3.957l-.131-.654-.664-.083c-.02-.004-.51-.064-1.224-.064-1.124 0-2.756.147-4.152.843-.832.416-1.673.719-2.485 1.012-1.174.423-2.282.824-3.192 1.503-1.587 1.187-2.335 3.674-2.414 3.952l-.502 1.755 1.711-.627 2.904-1.06c.087.614.052 1.6-.59 2.882-.5.999-.825 1.856-1.086 2.547l-.4 1.062-.257.287c-.07.078-.104.088-.193.088-.244 0-.497-.127-.767-.26-.317-.157-.674-.336-1.1-.336-1.239 0-1.628 1.381-1.797 1.97-.348 1.201-.38 2.437-.412 3.525l-.006.136-.028.543c-.019.367-.072 1.338-.356 1.621-.992.993-2.004 2.258-2.004 4.123 0 1.453.867 2.545 2.158 2.718l.834.112.06-.258.124.038c.023.015.149.132.24.217.492.452 1.315 1.212 3.054 1.212.898 0 2.09 1.488 2.09 2.61 0 .273 0 .727-1.054.727-3.401 0-5.198.274-5.624.346h-.765l-.145.848c-.07.774-.107 1.424-.107 1.984 0 2.128 1.442 2.934 2.599 3.583l.296.168c.201.113.4.224.598.333.958.523 1.789.98 2.392 1.821.693.973 1.39 1.462 2.27 2.08.356.25.75.527 1.212.885.518.402 1.02.6 1.537.6 1.2 0 1.93-1.038 2.638-2.042.182-.26.374-.534.58-.802.15-.19.256-.31.327-.383.234.102.594.24 1.102.24.117 0 .242-.007.378-.023.588-.071 1.434-.332 2.647-.812l-.563.653-.164.194-.139.17c-1.664 1.801-4.04 2.823-4.714 2.989l-1.59.39c-.79-.327-1.72-.398-2.637-.41v-.198c-1.21-.125-2.221-.294-2.7-.454-2.333-.778-3.897-1.73-4.291-2.615-.457-1.03-1.64-3.573-2.722-4.88-.137-.26-.086-1.54.686-3.829l.168-.497-.34-.401c-.282-.83-1.234-1.139-2.336-1.493-1.797-.582-2.305-.912-2.161-1.416.283-.994.009-1.645-.273-2.018-.486-.648-1.353-.98-2.577-.987l-.462-.003-.146.194-.899-.396c-.76-.31-1.597-.467-2.48-.467-.362 0-.732.028-1.105.08-2.415.346-7.517.685-9.566.685-.633 0-1.56.058-2.63.126-1.343.082-2.866.179-4.137.179-1.62 0-2.068-.163-2.168-.21-.346-.173-.764-.828-1.1-1.351-.589-.92-1.258-1.962-2.375-1.962-.275 0-.546.066-.81.2-1.583.793-2.793 2.617-3.59 5.421-.533 1.85-1.045 2.592-1.98 3.94-.205.296-.43.62-.675.983-1.518 2.294-2.917 4.414-2.917 6.407 0 .956-.612 1.435-1.783 2.269-.206.146-.415.295-.625.449-1.014.767-3.306 2.62-5.148 4.11l-1.796 1.448c-1.931 1.547-3.387 4.51-3.756 5.624l-.042.127c-.196.609-.23.717-2.31.974-.713.089-1.485.105-2.302.123-2.262.047-4.822.1-6.839 1.821-.548.47-1.025.921-1.46 1.332-1.194 1.13-1.854 1.717-2.588 1.717-.182 0-.377-.036-.595-.107-.581-.194-.996-.53-1.477-.92-.772-.63-1.649-1.341-3.202-1.341-.423 0-.863.052-1.352.159-1.089.242-1.787.256-2.35.264-1.137.022-1.879.109-2.74 1.552-.353.582-.87 1.05-1.37 1.502-.63.567-1.223 1.104-1.462 1.85l-.103.331.138.32c.279.647.549 1.602.38 2.66-.23-.731-.914-1.156-1.566-1.48-.422-.21-.755-.304-1.08-.304-.682 0-1.091.41-1.453.771-.145.146-.322.32-.554.516-1.182.986-1.112 2.098-1.054 2.994.014.209.028.429.028.662v.383l.268.27.52.518.503.508.621-.359c.09-.053.46-.272.934-.585-.226.254-.444.54-.64.868l-.161.272c-.176.29-.354.59-.44.685-.006-.002-.015-.004-.034-.004l-.182.002c-.13 0-.28-.005-.461-.01-.28-.007-.616-.018-1.04-.018-2.464 0-4.59 0-6.597 2.413-1.045 1.255-1.956 3.035-1.378 4.264.286.617.892.97 1.66.97.427 0 .903-.102 1.456-.308 1.428-.537 1.79-.72 1.986-.816.062-.032.078-.04.341-.107l-.001.014c-.052.509-.124 1.202-.124 2.12 0 .282.007.567.01.847.01.93.03 2.484-.249 2.754-.104-.012-.347-.037-.836-.284-1.322-.656-2.233-1.233-3.038-1.74-.865-.549-1.613-1.021-2.574-1.405l-1.733-.691-.67-.266-.424.583c-.51.696-1.515 1.66-2.078 1.66-.161 0-.327-.164-.49-.495-1.04-2.069.047-3.302.173-3.437l1.185-1.244-1.683-.317c-1.578-.286-3.269-.975-3.418-1.39-.424-1.697-3.489-2.147-5.052-2.147-1.093 0-2.575.178-3.424 1.024-1.346 1.345-6.067 4.704-7.65 5.337-.333.133-.772.311-.971.353-.138-.149-.36-.518-.621-.952-.969-1.613-2.66-2.035-4.15-2.41-.558-.14-1.083-.274-1.531-.452-.699-.28-1.708-1.407-2.123-2.743-.187-.598-.314-1.449.124-2.112 1.296-1.942 2.44-2.699 4.082-2.699 2.515 0 5.656-1.653 6.093-3.864.25-1.218 1.158-1.732 2.614-2.462l.36-.178c3.106-1.536 6.03-3.244 6.384-5.348.322-1.928-.373-4.459-.834-6.136-.087-.313-.161-.59-.22-.82-.32-1.28-.32-5.883-.32-7.395 0-.351.033-.748.063-1.157.017-.229.035-.456.047-.688.34.24.722.366 1.12.366.604 0 1.176-.29 1.608-.818.58-.706.808-1.726.607-2.727-.289-1.428-.289-1.428 1.328-2.506.526-.349.76-.378.816-.378.084 0 .216.118.43.313.324.298.775.706 1.475.884.446.11.852.16 1.207.2.846.102 1.403.168 2.175.938.43.434.888.653 1.363.653.653 0 1.208-.433 1.453-1.127.357-1.016.046-2.649-1.232-3.674-.847-.675-1.195-1.593-1.563-2.564-.273-.72-.556-1.465-1.05-2.118-.241-.322-.402-.748-.573-1.198-.432-1.14-1.022-2.7-3.399-3.296-2.709-.682-3.67-1.004-5.29-1.972-.683-.411-1.267-.683-1.901-.683-1.206 0-1.996.928-3.431 2.61-1.331 1.552-1.455 2.203-1.492 3.02-.015.344-.028.643-.366 1.315-.771 1.543-.607 2.303-.314 3.134.117.33.216.612.216 1.093v.786l.777.13c.03.006.32.05.754.05.815 0 2.392-.166 3.781-1.28.168-.136.299-.232.4-.3.007.02.017.038.027.055.15.29.36.687.676 1.115.506.677-.544 2.182-1.108 2.989-.116.161-.218.311-.307.446-.219.326-.336.65-.374.962-.51-.005-.97-.04-1.416-.075-.499-.038-.986-.076-1.525-.076-.638 0-1.275.054-1.946.165-2.845.473-5.087 1.354-6.662 2.616-.593.474-1.141 1.196-1.719 1.966-1.2 1.59-2.56 3.389-4.561 3.389-.107 0-.214-.005-.324-.014-2.812-.262-4.366-2.041-5.394-3.22-.229-.257-.43-.487-.61-.67-1.275-1.274-6.72-3.37-9.172-3.723-1.553-.224-2.836-1.132-4.071-2.01-.478-.337-.973-.688-1.47-.984-.348-.209-3.464-2.032-5.735-2.032-1.158 0-1.761.484-2.065.892-.35.464-1.222.84-2.064 1.208-.612.264-1.235.536-1.765.885-.056-.108-.122-.217-.192-.326-.89-1.332-.757-1.831-.738-1.882.01-.027.037-.108.257-.18.606-.204.977-.688.994-1.293.034-1.233-1.538-2.632-3.017-3.224-.301-.118-.594-.251-.876-.38-.885-.4-1.796-.813-2.812-.813-.61 0-1.183.144-1.75.44-1.026.023-4.504.205-5.947 1.647-1.014 1.021-3.509 2.438-5.285 2.438-.364 0-.672-.059-.913-.182-.112-.055-.368-.2-.353-.326.056-.406.925-1.21 1.849-1.395l.412-.078c1.836-.352 4.611-.882 6.096-3.486 1.247-2.176 1.852-4.818 1.852-8.077 0-1.662.167-2.621.396-3.95.092-.53.191-1.11.293-1.8.095-.664.159-1.621-.373-2.286-.495-.62-1.216-.68-1.743-.722-.223-.018-.434-.036-.584-.087-.42-.137-.981-.273-1.518-.39.477-.658.93-1.564 1.1-2.748.37-2.579.022-4.522-1.156-6.494-1.136-1.891-3.31-3.35-3.402-3.412l-1.443-.962v1.735c0 .024-.078 2.533-1.145 2.533-1.844 0-3.325-.59-4.537-1.805-1.491-1.49-2.99-1.917-5.259-2.568l-.33-.093c-1.834-.52-4.78-2.125-5.908-2.76V20.9l-1.395.814c-.173.1-4.238 2.474-5.999 3.888-.825.659-1.412 1.482-1.883 2.142-.05.069-.103.143-.155.218-.292-.82-.52-2.041-.61-2.79l-.104-.816h-.819c-.103 0-2.538.027-4.522 2.411-.943 1.134-2.046 1.836-2.88 1.836-.298 0-.743-.075-1.174-.716-.57-.86-.529-1.53-.484-2.238.047-.726.108-1.633-.67-2.408-1.126-1.131-3.435-2.349-5.843-2.349-1.849 0-5.284 0-6.798-.904-.274-.165-.522-.321-.752-.465-1.287-.81-2.214-1.394-4.22-1.394h-8.656c-.446 0-1.01.101-1.662.216-.798.145-1.701.306-2.513.306-.84 0-1.387-.17-1.667-.521-.645-.8-1.501-1.222-2.48-1.222-1.175 0-2.124.611-2.227.678l-.126.083-.092.121c-.027.032-.553.715-1.06 1.664l-9.95-.29c-.63-.001-1.987-.219-2.311-.87-.246-.495-.246-.842-.246-1.533 0-.752 0-1.787-.364-3.446-.853-3.806-.282-4.106-.276-4.11.061-.02.147-.03.255-.03.158 0 .32.017.482.034.232.02.467.043.702.043 1.098 0 1.925-.485 2.526-1.489.291-.485.873-.968 1.385-1.392.835-.696 1.623-1.351 1.516-2.3-.068-.58-.47-1.063-1.201-1.43-.502-.249-.971-.574-1.423-.89-.84-.58-1.632-1.127-2.533-1.127-.807 0-1.505.435-2.083 1.297-1.322 1.99-1.507 3.982-1.53 4.53l-.633 2.205c-1.683 3.033-2.8 5.584-3.508 9.54-.55 3.02-.47 5.636-.407 7.735.02.63.039 1.222.039 1.778 0 .594-.044 1.225-.088 1.837-.145 2.044-.294 4.157 1.488 4.597.354.092.645.131.909.131.724 0 1.15-.327 1.383-.604.605-.728.67-1.96.225-4.396l-.079-.44c-.522-2.858-.522-2.858.194-4.504l.175-.407.103-.24c.25-.582.536-1.247.779-1.74.034.094.065.191.098.288.361 1.083.86 2.565 2.644 2.565.497 0 1.063-.122 1.73-.373 2.131-.798 2.487-1.001 3.404-1.59.234-.15.514-.33.903-.567.495-.293 1.085-.432 1.851-.432.51 0 1.027.06 1.523.12.473.054.919.106 1.339.106h.038c-.098.66-.059 1.254.118 1.788.645 1.932 1.737 4.688 3.761 6.316.431.344.8.586 1.108.788.817.536.817.536.634 1.82-.421 2.995.574 5.41 2.42 5.876.701.173 1.024 1.632 1.024 2.562 0 1.064 1.153 1.965 2.485 3.01.574.45 1.288 1.01 1.489 1.31.161.242.34.457.509.657.473.555.5.59-.119 1.368-.964 1.202-.735 2.155-.515 2.617.41.852 1.422 1.38 2.649 1.38.263 0 .53-.025.794-.074-.051.076-.11.159-.177.25-.728.967-.548 1.965-.413 2.695.14.783.193 1.217-.26 1.784-.48.597-.887.824-1.32 1.065-.676.378-1.442.808-1.954 2.334-.612 1.836-.596 3.22.049 4.118.311.434.922.949 2.06.949.197 0 .405-.015.634-.047.19-.03.38-.038.57-.038.534 0 1.082.085 1.614.168.525.082 1.021.161 1.505.161 1.356 0 2.237-.673 2.616-1.994.57-2.022 1.144-3.546 1.705-4.538.159.282.383.748.69 1.518.333.824.482 1.912-1.346 3.005-1.824 1.09-2.33 1.935-3.245 3.47l-.186.313c-.365.607-.55.865-.643.965-.053-.004-.101-.006-.156-.007-.136-.011-.296-.02-.485-.02-.258 0-.673-.023-1.18-.051-.858-.047-1.924-.104-3-.104-1.044 0-1.88.054-2.553.168-.552.092-1.277.099-2.046.108-1.945.023-4.37.052-6.3 1.431l-2.42 1.736-1.336.96 1.511.647c.216.091 1.834.772 3.255 1.022-.186.14-.406.3-.664.484-1.049.75-1.634.79-2.196.829-.628.043-1.406.098-2.158 1.097-1.472 1.974 1.577 4.849 2.203 5.404l.064.056.071.044.41.248c1.415.849 1.756 1.072 1.954 1.674.28.833.882.92 1.131.92.549 0 .909-.357 1.366-.814.493-.493 1.171-1.17 2.22-1.618.595-.257 1.408-.387 2.412-.387 1.335 0 2.644.237 3.238.359.182.363.536 1.337.325 3.227-.213 1.903-.38 2.146-.778 2.736-.225.33-.504.74-.859 1.449-1.106 2.218-1.262 3.325.087 5.126.431.573.45.745.483 1.055.039.345.09.816.47 1.574.552 1.105 1.495 1.738 2.59 1.738.843 0 1.727-.363 2.624-1.082.364-.292.523-.307.523-.307.095.087.36.682.519 1.037.1.23.209.463.32.69.237.474.513.949.79 1.422.521.896 1.015 1.744 1.215 2.545.405 1.623.371 2.826.128 3.134-.014.02-.028.035-.12.035-.091 0-.254-.02-.515-.118-.509-.19-.957-.367-1.36-.529-1.234-.49-2.127-.845-3.03-.845-.529 0-1.034.125-1.544.38-.276.14-.569.244-.841.344-.757.281-1.615.597-1.854 1.46-.224.805.269 1.544.66 2.032 1.37 1.716 2.343 3.017 3.333 5.319.215.503.4.963.572 1.385.677 1.667 1.166 2.872 2.394 4.101 1.157 1.153 2.47 2.22 4.234 2.22.504 0 1.032-.09 1.564-.265.302-.102.661-.15 1.104-.15.74 0 1.575.136 2.46.282.955.155 1.945.317 2.902.317.327 0 .627-.02.916-.056 2.052.005 5.635.254 6.723.906.492.29 1.004.5 1.502.705 1.41.578 2.626 1.075 3.282 3.262.377 1.264.7 2.311.972 3.171-.894-1.048-2.045-2.263-3.199-3.088-2.422-1.732-4.84-3.117-7.616-2.767-2.773.347-5.544 0-7.96 1.73-2.421 1.73-5.54 2.419-9.34 1.73-3.813-.693-6.233 1.039-8.312-1.388-2.077-2.422-5.19-6.92-7.613-4.152-2.423 2.767-4.152 4.847-4.502 6.925-.346 2.075-1.727 7.962-3.115 10.382-1.383 2.42-.347 7.27 1.038 9.347 1.388 2.078 2.077 2.768 2.077 5.54v5.537s-1.041-2.77-2.422-4.156c-1.383-1.38 0 0-2.77-.694-2.765-.687-2.765 0-4.492-2.417-1.74-2.428-3.12-5.887-5.54-4.157-2.427 1.729-3.464 1.384-3.464 3.81 0 2.418 0 4.151-.692 5.884-.696 1.73 1.379 3.463 2.767 1.384 1.39-2.078 2.076-.348 2.43 2.77.34 3.112 0 4.495-1.74 6.576-1.728 2.076-3.457 3.464-5.877 1.033-2.428-2.422-1.737-4.835-4.85-4.835-3.114 0-4.847-4.164-2.765-4.854 2.076-.69 4.495 1.389 5.53-.69 1.045-2.078 1.386-3.461 0-5.883-1.379-2.428-2.073-5.545-3.11-6.925-1.04-1.386-3.806 0-3.806-3.116 0-3.115.686-3.804-1.734-4.502 0 0-2.762-1.034-4.845-1.034-2.074 0-4.153-1.038-5.537.349-1.382 1.383-6.233.685-8.31 1.725-2.074 1.038-8.65 3.806-10.727 2.771-2.076-1.043-5.88-2.075-8.31-1.387-2.42.691-7.612 0-9.686 2.078-2.077 2.077-5.892 4.846-7.274 6.925-1.378 2.078-1.035 3.116 1.04 4.495 2.076 1.387 1.387 2.77-1.73 2.426-3.115-.345-3.115 0-3.811 2.768-.685 2.768-.685 5.54-1.727 8.31-1.033 2.772-1.728 7.269 2.078 7.956 3.808.695 9.69-.344 11.424.356 1.726.691.34 0 0 2.762-.345 2.77 0 4.846-1.39 6.234-1.38 1.385.694 1.731.35 4.502-.35 2.765-1.389 1.034-2.076 3.46-.692 2.42-.342 3.46.345 6.92.694 3.46 1.732 8.655 0 11.772-1.732 3.115-4.15 8.998-6.233 11.419-2.075 2.433-3.112 6.93-2.771 10.04.351 3.12-1.037 7.964-1.037 9.348 0 1.378 0 5.544-2.418 4.148-2.42-1.375-4.159-.687-6.578-1.375-2.425-.698-4.154-2.086-5.88-1.395-1.734.697-6.235-.343-6.235 2.083 0 2.418-.343 4.503.695 5.19 1.037.695 2.417 1.387.344 2.426-2.076 1.038-2.422.692-2.422 2.765 0 2.079 0 5.195 1.726 5.891 1.734.691 6.234 2.416 8.31 3.111 2.078.696 5.539 1.728 5.881.346.353-1.383 2.423-4.497 2.774-1.728.347 2.765 2.424 6.229 3.46 6.916 1.039.693 1.38 4.162 0 5.89-1.38 1.73-3.113 6.579-2.426 7.613.384.576 1.083 1.147 1.634 1.545l-.001.002c-.629.5-1.681 1.137-3.146 1.34-2.482.358-3.044 1.76-3.497 2.886-.097.238-.196.487-.318.736-.119.235-.157.274-.855.319-.621.04-1.475.094-2.33.735-.989.742-1.48 2.07-1.955 3.352-.28.753-.595 1.608-.914 1.928-.734.735-1.38.764-3.504.764-2.827 0-4.088 2.539-4.626 3.632-.12-.03-.255-.05-.406-.05-.877 0-1.412.716-1.59.95-.535.71-.745 1.37-.635 2.013.183 1.088 1.19 1.837 2.588 2.777l.718.472c1.722 1.134 3.082 2.029 3.908 3.122.235.314.455.562.642.777.158.176.351.392.377.471-.001.013-.001.193-.384.832-.332.552-.592.963-.827 1.336-.51.802-.914 1.434-1.632 2.87-.652 1.315-2.357 2.646-3.138 2.828-.53-2.223-2.049-2.56-2.924-2.56-.515 0-1.071.103-1.703.313-1.535.512-7.37 2.73-8.67 4.034-.624.623-1.955 1.5-2.961 1.5-.372 0-.634-.12-.846-.386-1.072-1.332-2.578-2.224-3.752-2.224-.807 0-1.43.42-1.666 1.119-.337 1.018.392 1.806.98 2.443.333.358.789.852.726 1.094-.015.07-.033.122-.046.158-.187-.049-.636-.248-1.587-1.004-1.549-1.245-3.61-2.681-5.802-2.681-.274 0-.545.02-.808.065-.719.12-1.353.182-1.88.182-1.08 0-1.749-.24-1.988-.714-.177-.36-.341-.802-.5-1.23-.477-1.29-1.02-2.753-2.4-2.753-.585 0-2.535.092-3.13 1.288-.17.34-.357 1.048.308 1.931.194.257.453.575.74.919.433.524 1.243 1.496 1.568 2.098-2.305-.018-2.753-.408-3.155-1.217-.408-.811-1.08-1.27-1.851-1.27-.986 0-1.975.75-2.583 1.958-.47.943-1.41 1.237-3.477 1.578-1.226.206-2.068.857-2.31 1.793-.28 1.079.293 2.314 1.539 3.312 1.062.846 1.381 1.585 1.34 1.877-.022.152-.237.268-.412.34-1.943.777-2.764 1.946-2.855 2.076l-1.25 1.862 2.203-.434s.363-.068.898-.068c.512 0 1.284.063 2.041.365 1.092.44 1.147 1.143 1.147 3.29 0 2.212.395 3.421 2.66 4.326l.578.224c.515.2 1.418.546 1.77.814-.037.04-.09.087-.163.144-.963.775-1.722 1.383-1.774 2.348-.05.912.557 1.703 1.696 2.841 2.12 2.117 2.93 3.307 3.211 4.716.191.957.567 1.575.93 2.176.401.662.817 1.347 1.155 2.714.155.623.344 1.228.53 1.822.616 1.967 1.146 3.67.233 5.497-.914 1.833-.771 3.444-.655 4.736.077.869.143 1.62-.088 2.317-.266.8-.522.98-1.132 1.417-.618.44-1.46 1.04-2.534 2.47-1.132 1.507-1.957 2.902-2.688 4.134-.634 1.074-1.182 2-1.794 2.773-.493.613-2.946 3.802-2.55 6.034.121.678.489 1.219 1.063 1.566.72.428 1.487.645 2.29.645.641 0 1.26-.137 1.847-.346l-.238.17.769.774s.309.336.395.827c-.423.037-1.029.111-1.814.425l-.503.196c-1.566.607-3.042 1.179-4.132 3.367-.485.96-.583 1.003-.91 1.14-.334.143-.84.355-1.61.975-1.38 1.094-2.156 2.73-2.727 3.923-.188.403-.36.757-.51 1.011-.388-.136-1.143-.879-1.143-1.445 0-1.868-1.164-2.016-1.522-2.016-.556 0-1.182.285-2.037.928-1.367 1.02-.874 2.387-.515 3.389.24.67.487 1.364.487 2.197 0 .509-.05 1.032-.1 1.537-.117 1.199-.228 2.334.444 3.076.36.393.859.591 1.489.591.31 0 .654-.047 1.05-.145 1.512-.378 2.462-.423 3.226-.464.61-.033 1.135-.06 1.696-.244.074-.028.151-.04.225-.04.112 0 .17.03.182.037.008.047-.014.388-.436 1.023-.915 1.367-.72 2.382-.394 2.99.52.969 1.759 1.57 3.24 1.57.553 0 .68.084.683.088.12.163.12 1.005.12 1.751 0 .713.136 1.44.258 2.078.114.604.289 1.514.132 1.74-.026.034-.128.085-.304.111-.194.033-.396.05-.622.05-.407 0-.818-.052-1.216-.103-.376-.048-.73-.092-1.072-.092-.222 0-.903 0-1.422.476-.402.37-.597.899-.597 1.624 0 2.35-.13 2.732-.997 2.907-1.23.242-1.568.867-1.633 1.35-.149 1.088 1.061 1.94 2.103 2.46.33.167.642.282.925.382.191.068.456.164.522.221-.011 0 .047.246-.192 1.083-.501 1.756-.496 2.863.018 3.704.4.657 1.08 1.071 2.077 1.266.215.043.445.065.679.065.626 0 1.206-.151 1.713-.288.377-.099.73-.192.993-.192.186 0 .317.023.504.331.633 1.06.688 1.227.953 2.028.143.433.34 1.018.694 1.971.338.901.33 1.461.324 1.96-.016 1.322.299 1.995 2.299 2.737.664.25 1.294.372 1.92.372.557 0 1-.098 1.325-.171.075-.015.158-.034.23-.045.032.062.073.16.125.31.228.688.528 1.116.755 1.398-.3.3-.827.761-1.176 1.068-1.056.922-1.688 1.163-2.151 1.338-1.074.407-1.507.841-1.95 2.602-.632 2.52-.014 3.47 1.003 4.632.173.196.356.405.54.652.197.263.316.492.435.716.287.553.682 1.31 1.98 1.31.464 0 1.077-.09 1.992-.292.34-.078.667-.115.962-.115 1.668 0 2.59 1.177 3.54 3.083.379.755.83 1.268 1.193 1.679.686.78.869.989.197 2.336-1.352 2.692-1.994 4.202-.659 6.432.145.243.336.474.552.704l-.01.043.416.358h.001l1.184 1.028.024-.113c.233.174.457.356.505.461-.01.003-.042.096-.178.269l-.1.125c-.838 1.05-1.563 1.958-2.192 1.958-.187 0-.413-.076-.663-.227-.661-.397-1.311-.596-1.934-.596-1.47 0-2.663 1.046-3.55 3.108-.516 1.213-1.772 1.644-3.1 2.104-.794.276-1.546.534-2.139.98-1.696 1.265-2.94 3.791-1.66 6.347.052.104.142.287.226.465-.343.148-.811.388-1.356.823-1.192.947-1.383 1.336-1.518 2.382-.06.452-.139 1.068-.514 2.195-.262.789-.603 1.573-.931 2.327-.97 2.24-1.972 4.552-.728 6.737.55.964.997 2.137 1.431 3.269.64 1.674 1.243 3.256 2.181 4.199.33.33.658.607.976.87.992.827 1.648 1.374 1.872 3.422.337 3.052 1.615 5.205 3.907 6.578.482.289.885.691 1.312 1.119.855.853 1.823 1.823 3.495 1.823.203 0 .417-.014.642-.046.67-.098 1.166-.164 1.502-.164.067 0 .115.004.154.008.029.117.06.384.06.963 0 2.244 2.132 3.698 5.431 3.698 1.076 0 1.985.321 2.313.82.21.32.193.773-.055 1.345-.495 1.16-.461 2.395-.435 3.485.041 1.609.02 2.471-.906 3.003-.455.262-.862.474-1.224.66-1.62.842-2.69 1.4-3.04 3.82-.076.546-.121 1.027-.16 1.456-.13 1.437-.19 2.092-1.309 3.207-1.723 1.73-2.954 3.298-3.369 5.324-.098.502-.308 1.028-.528 1.583-.216.537-.436 1.09-.572 1.67l-.544 2.283 1.353-.894c.023.245.068.49.166.734.693 1.728.693 6.922 3.808 5.186 3.116-1.728 3.116 1.042 4.502 1.732 1.38.696 4.842 2.08 4.15 3.815-.693 1.725.346 3.113 1.732 3.808 1.382.691 1.038 1.035 0 2.074-1.04 1.036-.344 2.076 1.382 4.153 1.731 2.08 4.851 4.156 4.851 6.234 0 2.077 1.03 4.497 2.762 3.805 1.736-.689 0 .692-.344 2.768-.344 2.082.694 2.776 3.122 3.117 2.416.346 2.072 1.733 3.454 1.733 1.386 0 3.115-2.43 2.771-3.814-.346-1.382-2.076-2.763-.69-3.112 1.384-.342 4.146-1.38 5.881-.342 1.728 1.033 4.156.342 5.194 2.763 1.037 2.43 1.037 3.466 1.728 5.54.697 2.077 3.116 2.077 3.116.348 0-1.73 1.38-1.383 3.116 0 1.728 1.378 5.883 3.116 7.61 2.079 1.731-1.04 2.084 1.036 3.81-.701.66-.655 1.308-1.355 1.87-1.98l.167 1.23 1.345-1.534c.271-.308.489-.561.625-.723.782-.267 2.41-.756 3.396-.756.297 0 .4.049.4.049.532.355 1.252.443 2.012.538 1.387.167 1.981.33 2.078.911.09.55.068 1.12.046 1.72-.058 1.423-.126 3.195 1.741 4.436.654.436 1.251.963 1.778 1.429.94.828 1.62 1.43 2.421 1.43.5 0 .94-.247 1.24-.693.096-.144.204-.211.333-.211.155 0 .355.103.431.333.214.64 1.893 4.078 4.173 4.078.524 0 1.012-.177 1.45-.53.368-.292.879-.7 1.029-.751-.028.018.164.108.318.178.219.105.49.23.84.371.42.166.847.254 1.263.254 1.106 0 1.956-.58 2.705-1.09.326-.222.635-.433.95-.594l.041-.019c.093.09.234.288.342.438.4.544.944 1.29 1.965 1.702.188.073.369.148.54.22.793.33 1.541.64 2.379.64.853 0 1.649-.316 2.504-.997.578-.463.982-.68 1.274-.68.373 0 .894.36 1.722 1.022 1.033.829 2.485 1.523 3.762 2.138.999.477 1.938.927 2.49 1.342.206.154.409.316.617.479 1.266.996 2.705 2.131 4.79 2.131.976 0 2.418.948 3.554 1.925l-.373.446c-1.776 1.973-4.258 4.883-5.097 7.101-.306.825-.543 1.77-.795 2.771-.515 2.058-1.16 4.62-2.393 4.973-2.59.74-3.781 1.508-5.31 3.423-.956 1.195-1.871 2.928-2.607 4.324-.37.702-.69 1.308-.907 1.635-.575.863-2.882 3.217-4.654 4.63-2.014 1.614-4.846 5.7-4.846 9.73 0 3.407-.856 5.642-2.779 7.244-1.65 1.37-1.585 2.978-1.53 4.394.033.787.063 1.53-.157 2.302-.313 1.088-.368 3.02-.425 5.067-.057 1.991-.151 5.333-.644 5.882l-.141.107c-1.37 1.023-2.554 1.911-3.298 4.889-.431 1.723-1.14 2.849-2.122 4.403-.475.753-1.017 1.607-1.593 2.649-.898 1.612-1.443 2.963-1.877 4.054-.407 1.011-.729 1.82-1.172 2.408-1.306 1.741-2.257 5.175-1.552 8.377.562 2.527 1.738 4.563 2.596 6.05.238.414.448.777.604 1.083.525 1.058.196 2.373-.865 3.432-1.447 1.442-2.266 3.57-2.065 5.259-.613.852-1.946 3.051-1.285 5.34.478 1.697.478 1.697-.438 3.022-.142.21-.305.442-.483.71-1.425 2.14-1.676 4.171-.784 6.402.371.919.275 1.087-.339 2.158-.197.341-.425.74-.671 1.23-.783 1.567-1.526 4.695 2.297 8.035 1.805 1.581 1.9 2.91 1.975 3.975.028.41.056.8.174 1.159.353 1.051 1.535 1.842 2.751 1.842 1.06 0 2.027-.573 2.72-1.617.541-.812.92-1.125 1.11-1.244-.009.27-.59 1.019-.909 1.429-.403.526-.821 1.069-1.115 1.659-.357.716-.3 1.545.154 2.279.618.999 1.813 1.597 3.196 1.597.762 0 1.556-.18 2.36-.536 1.248-.56 2.863-1.485 4.422-2.377 2.012-1.155 4.767-2.734 5.58-2.734.254.112.547 1.172.687 1.678.324 1.17.692 2.498 1.855 2.79.668.167 2.053.184 2.617.184 1.431 0 8.71-.136 11.422-2.853 1.834-1.845 6.485-4.09 9.3-4.09.904 0 1.459.226 1.648.679 1.59 3.822 4.8 4.26 7.076 4.26 1.389 0 3.044-.182 5.366-.593l.956-.167-.213-.948c-.05-.24-.43-2.418 1.892-3.45.503-.222 1.03-.337 1.561-.337 1.546 0 2.763.972 3.018 1.352v.791h.93c.997 0 2.976-.67 3.336-3.209.086-.6.383-1.088.671-1.561.384-.628.82-1.344.559-2.2-.24-.777-.974-1.391-2.456-2.068-1.02-.466-1.854-.691-2.555-.691-1.416 0-2.098.896-2.598 1.551-.275.363-.536.708-.903.926-.72.432-1.695.691-2.6.691-.82 0-1.968-.204-2.782-1.192-.626-.75-.83-1.859-.554-2.976.218-.868.71-1.59 1.227-1.794 1.874-.746 2.217-2.62 2.468-3.986.05-.28.098-.554.16-.8.173-.206 1.35-.447 2.054-.59 1.26-.257 2.686-.551 3.793-1.288.68-.456 1.116-.548 1.364-.548.642 0 .903.892 1.011 1.64.218 1.509 1.116 2.05 1.886 2.05 1.06 0 2.183-1.02 2.579-2.647 2.473.968 4.34 2.183 4.351 2.685-.535.807-1.258 1.164-2.024 1.548-.993.489-2.117 1.053-2.605 2.512-.316.957-.033 1.644.263 2.055.917 1.266 3.033 1.367 3.66 1.367.499 0 .962-.049 1.339-.142.055-.015.105-.021.16-.021.408 0 .97.345 1.467.651.62.377 1.258.771 1.96.771.685 0 1.249-.374 1.508-1.006.409-.984-.021-2.406-1.046-3.52.312.123.684.307 1.116.58 2.574 1.605 2.592 2.661 2.351 3.873-.155.775.016 1.51.479 2.069.51.628 1.323.973 2.284.973.977 0 2.065-.355 3.144-1.032 2.286-1.43 4.476-2.154 6.515-2.154.605 0 1.208.066 1.785.196 3.146.705 7.601 2.456 9.478 3.387.673.335 1.861.727 3.368 1.216 2.703.887 7.74 2.531 8.307 3.855 2.678 6.228 4.888 9.26 6.958 9.552.355.052.714.077 1.06.077 2.204 0 3.935-1.044 5.812-2.299.23-.155.475-.23.747-.23 1.034 0 2.214 1.083 2.546 1.46l.519.594.672-.422 2.388-1.495c.71.228 2.14.638 3.255.638.907 0 1.545-.266 1.902-.803.412-.61.542-1.345.57-2.003l.11.013-.15-1.177-.01-.071-.005-.039c.285-1.436.967-3.561 1.688-4.106.24-.177.615-.287 1.01-.287.544 0 1.043.196 1.27.497.058.078.24.318.082.873-.54 1.89-.106 3.01.353 3.619.523.69 1.36 1.079 2.36 1.079.237 0 .488-.02.754-.066.359-.063.772-.139 1.22-.225 1.3-.252 2.916-.565 4.027-.565.499 0 .715.066.786.095.19.303.373.767.566 1.25.411 1.037.925 2.328 1.938 3.335 1.373 1.373 3.48 2.094 4.845 2.094.27 0 .517-.028.74-.083.398.28 1.296 1.492 1.554 2.819.077.39.152 1.102-.219 1.468-1.152 1.16-1.698 2.5-1.543 3.77.13 1.042.74 1.943 1.719 2.535.753.452 1.747.697 2.803.697 2.176 0 3.92-1.013 4.447-2.579.118-.356.283-.356.353-.356.162 0 .434.104.666.39.212.264.532.862.304 1.885-.17.771-.299 1.47-.416 2.121-.332 1.806-.551 3.002-1.307 3.572-.968.724-1.402 1.873-1.075 2.85.285.862 1.082 1.382 2.13 1.382.351 0 .734-.061 1.139-.173.241-.069.511-.14.801-.218 2.763-.743 7.385-1.985 8.804-5.517 1.294-3.242 3.879-5.424 4.903-5.686 1.37-.34 1.956-1.774 2.52-3.155.249-.607.506-1.24.819-1.762.862-1.44 1.133-4.212.594-6.047-.27-.916-.715-1.536-1.326-1.837-.974-.494-1.47-.745-.898-2.72.163-.57.275-1.08.343-1.53.461.561 1.017 1.005 1.695 1.143.605.12 1.39.19 2.162.19 1.729 0 4.74-.328 5.473-2.532.138-.413.409-.885 1.305-.885.642 0 1.458.258 2.184.693.87.522 2.17 1.017 3.423 1.504 1.365.526 2.778 1.069 3.421 1.551.814.619 1.738.93 2.742.93 1.142 0 2.39-.394 3.813-1.208.327-.186.693-.285 1.057-.285.717 0 1.268.363 1.385.716.149.445-.433.939-.687 1.13-.49.368-1.638 1.226-1.283 2.288.347 1.048 1.766 1.136 3.187 1.136.325 0 .653-.01.969-.014.28-.003.55-.006.799-.006 1.369 0 2.585 2.511 2.906 3.798.029.12.057.253.084.398.274 1.326.783 3.8 4.817 3.8.285 0 .587-.012.91-.037 2.873-.218 6.488-1.495 9.392-2.521.617-.22 1.224-.434 1.785-.625-.115.343-.167.699-.119 1.061.064.493.336 1.177 1.271 1.648l.53.267c.693.362 1.192.62 1.766.62 1.04 0 1.665-.802 2.678-2.216l.32-.455c1.438-2.032 2.188-3.006 3.524-3.006.146 0 .303.007.464.028 2.332.34 3.699.67 3.712.674l1.15.281V768.323l-1.396 1.683c.001-.022.002-.034.005-.053.338-3.044.552-3.321 2.54-3.321.66 0 1.358.038 2.095.082.747.042 1.524.088 2.27.088 1.322 0 2.994-.125 4.175-1.078 1.323-1.047.954-2.04.732-2.631-.196-.526-.35-.944.466-2.028 1.658-2.21 3.215-2.387 5.57-2.664l.723-.087c.24-.028.495-.039.768-.039.738 0 1.607.087 2.527.179 1.045.104 2.125.213 3.184.213 1.993 0 3.393-.402 4.4-1.262 2.002-1.711 7.827-3.616 10.266-3.616.15 0 .285.002.394.028 1.035.165 2.23.336 3.43.508 1.223.175 2.448.346 3.496.52 1.01.17 1.791.274 2.575.274.787 0 1.569-.105 2.578-.274l.114-.02c1.15-.19 1.98-.325 2.337-1.123.374-.827-.079-1.706-1.124-3.384l-.394-.619c-1.612-2.534-2.1-3.481-.774-4.81.805-.804 1.454-1.599 2.023-2.3.633-.779 1.2-1.472 1.69-1.79.048.788-.25 2.472-.7 3.366-.135.271-.536 1.074-.11 1.756.174.288.54.629 1.283.629.727 0 1.865-.33 3.804-1.1 1.738-.695 3.738-1.115 5.351-1.115 1.536 0 2.306.38 2.514.726.232.388.466.854.709 1.341.887 1.764 1.991 3.958 3.948 4.608.325.11.622.225.902.332.704.275 1.368.533 2.107.533 1.107 0 2.085-.566 3.177-1.841.409-.482.767-.93 1.102-1.357 1.323-1.664 2.052-2.585 4.18-2.82l.77-.087c1.007-.117 1.875-.224 2.58-.224 1.005 0 1.598.206 2.12.732.408.41.634.929.893 1.53.461 1.064 1.033 2.386 2.858 3.173.35.148.551.266.667.348-.155.18-.435.442-.655.643-.204.19-.425.39-.645.614-.61.61-.841 1.452-.644 2.36.369 1.7 2.233 3.532 4.437 4.356 1.124.423 2.108 1.442 3.149 2.526 1.236 1.285 2.515 2.614 4.21 3.043 2.804.7 2.804.7 4.548 1.04.242.055.467.078.68.078 1.29 0 1.865-.85 2.374-1.602.252-.369.515-.758.902-1.14 1.33-1.334.565-2.665.11-3.457-.272-.466-.526-.909-.526-1.36 0-.577-.12-1.125-.24-1.655-.277-1.245-.494-2.23.704-3.631.215-.247.428-.49.634-.723 1.767-1.993 3.443-3.88 1.527-6.941-.32-.518-.657-1.19-1.012-1.899-1.219-2.435-2.734-5.465-5.422-5.465-.803 0-1.64.283-2.486.846-.658.44-2.408 1.61-2.99 1.61-.17-.11-.45-.865-.676-1.472l-.143-.384c-.483-1.296-.265-1.595.38-2.483.417-.567.932-1.283 1.352-2.405.262-.698.793-1.483 1.355-2.31 1.505-2.222 3.38-4.986 1.332-8.207-.855-1.34-1.493-2.65-2.06-3.805-1.077-2.218-1.931-3.967-3.62-4.53-1.792-.6-3.243-2.424-3.535-4.437-.328-2.331-1.989-2.988-3.749-3.675-.613-.243-1.25-.491-1.941-.839-1.134-.568-1.876-1.337-2.143-2.228-.247-.815-.088-1.758.458-2.71.551-.963 1.29-1.383 2.224-1.914 1.07-.605 2.283-1.291 3.293-2.911.822-1.317 1.085-2.448 1.276-3.271.251-1.073.326-1.303.997-1.53.428-.139.908-.207 1.51-.207.312 0 .613.018.897.032.285.014.552.033.8.033.416 0 1.52 0 2.12-.913.712-1.062 4.37-4.952 6.82-5.87 1.833-.685 4.376-1.24 6.62-1.722 1.068-.236 2.095-.456 2.978-.677 2.75-.69 12.66-6.322 13.483-10.045.369-1.655.369-2.95.369-4.095 0-1.088 0-2.032.31-3.115.678-2.379 1.364-4.443 1.37-4.463l.101-.306-.107-.304c-.37-1.019-1.328-3.942-1.328-5.223 0-.153 0-.307.002-.433.343-.13.876-.346 1.66-.874 1.327-.882 1.605-1.34 1.88-1.936.12-.26.221-.484.682-.947.02-.015.034-.03.047-.045.402.453 1.064 1.129 2.429 1.642 1.252.47 2.419.731 3.445.963 1.22.272 2.273.511 2.904.984.354.265.799.763 1.228 1.252.985 1.11 2.006 2.262 3.23 2.262.42 0 .812-.136 1.162-.4.987-.744 1.304-1.656 1.608-2.537.233-.667.473-1.359 1.022-2.186.427-.64.797-.906 1.187-1.188.917-.658 1.602-1.308 2.067-3.646.206-1.025.485-1.987.73-2.832.599-2.093 1.12-3.898.197-5.441-.296-.493-.57-.835-.784-1.11-.503-.633-.686-.868-.47-2.81.088-.815.204-1.485.307-2.078.286-1.672.494-2.884-.4-4.669-.287-.571-.519-1.06-.73-1.499-.572-1.2-.983-2.065-1.791-3.144-1.045-1.402-2.677-4.049-2.976-4.937-.215-.65-.755-1.022-1.475-1.022-.373 0-.756.094-1.196.2-.496.116-1.056.25-1.632.25-.185 0-.376-.012-.572-.045-1.535-.255-2.408-1.165-3.456-3.601-1.216-2.831-4.012-3.63-6.48-4.334-.242-.069-.478-.103-.702-.105-1.444 0-1.963 1.311-2.272 2.096-.06.148-.139.346-.209.491-.066-.046-.159-.11-.274-.212-2.32-1.99-4.666-2.794-5.843-3.186.046-.326.185-.844.285-1.216.346-1.283.74-2.74.271-3.9-.747-1.885-5.435-7.406-7.606-7.83-1.537-.312-5.523-.359-6.742-.367-.61-.566-1.665-1.717-1.864-2.714-.445-2.238-3.308-4.482-4.932-5.458-.837-.504-1.146-1.21-1.535-2.103-.259-.598-.527-1.217-.979-1.817-1.406-1.883-2.79-3.503-4.23-4.94l-.323-.327c-1.718-1.728-4.592-4.627-8.259-4.627-.548 0-1.107.069-1.649.205l-.629.16c-1.603.406-2.871.725-3.78.725-.818 0-1.342-.216-1.77-1.353-1.175-3.155-4.98-6.83-8.13-6.83-.232 0-.34-.076-.422-.159-.676-.678-.66-3.032-.651-4.588.007-.968.011-1.807-.095-2.442-.336-2.043-2.338-3.005-3.295-3.355-.627-1.863-2.414-7.088-3.066-8.076-.411-.607-1.075-.928-1.664-1.212-.998-.474-1.03-.593-.976-.866.278-1.36 1.011-4.987-1.373-5.582-1.911-.474-4.322-1.485-5.023-2.424-1.02-1.36-1.3-1.844-.36-3.021 1.252-1.568 3.518-2.868 3.54-2.882l3.039-1.735h-3.498c.013 0-.24-.017-.332-.157-.107-.162-.122-.604.162-1.36l.126-.337c.927-2.48 1.274-3.408 2.836-5.281 1.028-1.239 2.026-2.697 1.643-4.138-.251-.953-1.03-1.662-2.381-2.167-2.243-.845-2.419-1.37-2.43-1.427-.01-.04.034-.211.335-.514.652-.65.87-1.487.601-2.294-.436-1.317-2.18-2.446-4.24-2.737-1.661-.244-2.114-.603-3.62-1.788-.417-.326-.9-.709-1.493-1.151-1.122-.844-2.177-1.356-3.103-1.811-1.397-.682-2.32-1.133-2.823-2.316-.864-2.008-2.205-2.657-3.28-3.176-.428-.205-.831-.398-1.177-.662-.292-.217-.485-.708-.532-1.343-.073-1.049.27-2.09.632-2.455.94-.932 1.325-2.723.878-4.072-.372-1.117-1.238-1.825-2.442-1.999-1.156-.162-1.599-.477-2.207-.912-.518-.366-1.104-.784-2.129-1.126-.644-.216-1.067-.673-1.104-1.197-.036-.494.285-.95.88-1.249.637-.315 1.088-.836 1.297-1.504.474-1.506-.417-3.39-.823-4.131l-.12-.222c.631-.392 1.542-.855 2.344-.855 1.385 0 1.04 2.773 2.081 4.151 1.03 1.388 3.11.69 4.15 1.734 1.036 1.042.35 1.728 0 2.77-.342 1.035 1.036.352 1.381 1.726.351 1.39 1.73 6.582 3.463 1.39 1.73-5.196 2.08-7.962 3.114-8.658 1.037-.687 1.735-2.768 1.735-4.148 0-1.386 2.766-2.426 3.81-2.772 1.033-.345 1.726-2.419 2.42-3.813.69-1.378 9.345-3.109 10.727-2.762 1.381.344 1.39 0 4.159-2.081 2.762-2.073 5.536-2.422 9.339-.344 3.81 2.078 2.777 2.425 2.777 2.425s3.803-.697 4.839-3.813c1.042-3.112-.346-3.8.346-5.88.696-2.075 2.076 0 3.808-.695 1.728-.69 2.771-1.38 4.846-.69 2.077.69 3.807-.348 3.807-3.464 0-3.113 1.39-6.227 2.771-5.542 1.38.701 3.461 2.777 3.806 1.045.35-1.736.342-2.775 1.729-4.503 1.386-1.734 1.733-3.805 1.733-3.805s-.347 2.07 1.383 3.463c1.729 1.379 2.766 2.425 3.804 1.379 1.04-1.037 1.392-.691 2.775-2.771 1.386-2.07 1.386-2.768 1.386-4.496 0-1.737-1.042-4.147.687-3.806 1.733.344 2.768.699 5.195-.697 2.42-1.378 3.453-.342 5.192-.342 1.73 0 2.078-1.036 4.496-1.73 2.43-.696 2.77.694 4.846 0 2.082-.696 3.463-.696 2.772-2.424-.69-1.733 0-4.839 4.154-5.882 4.152-1.044 4.5.684 7.611-1.383 3.116-2.074 5.889-3.814 7.968-4.852 2.072-1.038-.694-.688 1.726-2.768 2.423-2.077 3.12-1.38 5.883-2.077 2.768-.691 5.536-2.772 1.733-4.149-3.81-1.388-4.496-1.735-4.496-3.118 0-1.385-2.084-1.039-2.774-2.078-.69-1.036-.696-1.036 0-3.461.69-2.423.347-2.423 3.11-2.076 2.775.346 2.775.346 4.16 1.727 1.386 1.388 2.073 1.736 3.46-.347 1.381-2.08 2.773-2.08 4.153-.69 1.39 1.386 4.842 2.425 5.537 3.811.69 1.38.69 3.457-.345 4.844-1.037 1.388 0 3.462 2.424 2.077 2.421-1.387 3.108 1.728 1.723 3.46-1.373 1.727-.686 3.118 1.743 3.464 2.422.343 5.534 1.381 6.221 2.42.687 1.038 4.154.347 4.5-2.766.345-3.118.345-5.193 2.414-7.62 2.092-2.422 1.743-6.578 2.783-9 1.038-2.42 4.833-13.84 3.798-15.92-1.037-2.079 0-4.852.698-7.267.691-2.421-1.385-6.226-2.775-9" mask="url(#prefix__b)"/>
            </g>
            <path fill="#414042" d="M268.942 73.68c.09-.863.182-1.527.26-1.766.036-.028.213-.129.408-.235-.24.693-.476 1.404-.668 2.001"/>
        </g>
        <g transform="translate(58 122)">
            <mask id="prefix__f" fill="#fff">
                <use xlink:href="#prefix__c"/>
            </mask>
            <use fill="#000" filter="url(#prefix__d)" xlink:href="#prefix__c"/>
            <use fill="url(#prefix__e)" xlink:href="#prefix__c"/>
            <g mask="url(#prefix__f)" opacity=".359">
                <g>
                    <g transform="translate(48 -22) translate(69.57 .793)">
                        <mask id="prefix__h" fill="#fff">
                            <use xlink:href="#prefix__g"/>
                        </mask>
                        <path fill="#16374E" d="M0.525 129.996L130.369 259.706 130.369 0.286z" mask="url(#prefix__h)"/>
                    </g>
                    <g transform="translate(48 -22) translate(.493 106.555)">
                        <mask id="prefix__j" fill="#fff">
                            <use xlink:href="#prefix__i"/>
                        </mask>
                        <path fill="#112C3E" d="M-11.29 49.472c5-16.61 6.755-32.54 11.752-49.148 76.794 87.389 84.133 91.37 201.075 224.443" mask="url(#prefix__j)"/>
                    </g>
                    <path fill="#1B435E" d="M0.735 260.182L139.347 260.182 0.735 121.714z" transform="translate(48 -22)"/>
                    <g transform="translate(48 -22) translate(.493 1.095)">
                        <mask id="prefix__l" fill="#fff">
                            <use xlink:href="#prefix__k"/>
                        </mask>
                        <path fill="#112C3E" d="M16.864 83.96c-1.28 13.546-1.926 27.953-1.656 43.126.055 3.08.148 6.123.271 9.127C62.01 84.987 103.72 39.064 141.45-2.48c.102-.115.532-.618.632-.735 21.071-24.507 42.446-48.581 64.162-72.185" mask="url(#prefix__l)"/>
                    </g>
                    <path fill="#1B435E" d="M0.735 1.711L139.347 1.711 0.735 140.179z" transform="translate(48 -22)"/>
                </g>
            </g>
        </g>
        <circle cx="165.5" cy="200.5" r="6.5" fill="#16374E"/>
        <text fill="#16374E" font-family="Gilroy-Bold, Gilroy" font-size="30" font-weight="bold">
            <tspan x="177" y="211">Hanover</tspan>
        </text>
    </g>
</svg>
