<svg xmlns="http://www.w3.org/2000/svg" width="1354" height="487" viewBox="0 0 1354 487">
    <defs>
        <linearGradient id="prefix__a" x1="1.309%" x2="98.691%" y1="100%" y2="0%">
            <stop offset="0%" stop-color="#2CCCCC"/>
            <stop offset="100%" stop-color="#0CEFA5"/>
        </linearGradient>
    </defs>
    <g fill="none" fill-rule="evenodd" transform="translate(1 -12.96)">
        <path fill="#247D70" d="M607.052 12.96c14.619 2.874 29.835 13.027 42.147 28.396l-5.165 35.682 13.88-23.075c1.614 2.716 3.14 5.54 4.567 8.465 13.187 27.039 14.315 55.47 4.856 74.134-12.343-2.426-25.112-10.04-36.199-21.604l22.47-6.126-32.45-6.034c-3.394-4.826-6.507-10.077-9.25-15.704-5.566-11.41-8.983-23.068-10.364-34.135l25.564 3.127-26.267-15.02c.096-10.255 2.088-19.656 5.873-27.428l.338-.679z"/>
        <path fill="#56CBB9" d="M573.795 123.56c6.493-6.22 15.864-9.942 26.157-10.275l12.237 17.703-3.807-17.223c1.905.277 3.821.67 5.74 1.184 15.52 4.158 26.982 15.133 30.619 27.621-9.393 8.998-24.807 12.771-40.328 8.613-6.569-1.76-12.41-4.742-17.24-8.542l10.433-11.4-15.096 7.151c-4.033-4.261-6.985-9.184-8.58-14.38l-.135-.452z"/>
        <path fill="#247D70" d="M766.905 61.478c5.495 9.876 7.001 22.417 4.046 34.928l-24.99 8.746 21.721 1.076c-.91 2.1-1.954 4.177-3.133 6.22-9.914 17.172-26.762 27.269-42.964 27.526-7.879-14.16-7.558-33.799 2.356-50.97 4.19-7.26 9.621-13.255 15.718-17.776l10.603 16.428-3.908-20.665c6.388-3.395 13.224-5.295 19.965-5.5l.586-.013z"/>
        <path fill="#56CBB9" d="M817.22 123.278c-7.296-5.255-17.093-7.638-27.333-6.534l-9.653 19.233 1.372-17.585c-1.847.539-3.69 1.195-5.519 1.97-14.79 6.279-24.614 18.742-26.477 31.615 10.554 7.603 26.343 9.194 41.134 2.916 6.26-2.657 11.63-6.422 15.884-10.858l-11.918-9.837 15.944 4.98c3.4-4.78 5.639-10.066 6.496-15.434l.07-.466z"/>
        <path stroke="#0D5147" d="M628.328 136.587L656.462 144.401 668.966 164.717"/>
        <path fill="#56CBB9" d="M720.144 28.057c8.852 9.949 14.021 24.72 14.228 41.192l-24.516 19.838 23.685-6.947c-.429 3.047-1.024 6.121-1.793 9.207-6.203 24.878-22.067 43.802-39.958 50.434-12.686-14.254-17.809-38.412-11.606-63.29 2.71-10.865 7.26-20.594 13.019-28.66l16.54 16.17-10.162-23.917c5.973-6.28 12.775-11.01 19.916-13.782l.647-.245z"/>
        <path stroke="#0D5147" d="M770.562 147.527L742.428 153.778 734.613 164.717M659.588 120.96L672.092 141.276 675.218 163.154"/>
        <g>
            <g>
                <path fill="#8D5219" d="M50.447 0L80.144 0 9.809 234.314 -1.133 234.314z" transform="translate(211.006 247.543) translate(0 18.753)"/>
                <path fill="#7C4612" d="M83.27 0L12.935 234.314H6.683L77.018 0h6.252z" transform="translate(211.006 247.543) translate(0 18.753)"/>
                <path fill="#8D5219" d="M150.479 1.662L180.176 1.662 109.841 235.976 98.9 235.976z" transform="translate(211.006 247.543) translate(0 18.753) matrix(-1 0 0 1 280.209 0)"/>
                <path fill="#7C4612" d="M129.73 1.662l51.579 234.314h-6.252L123.477 1.662h6.252z" transform="translate(211.006 247.543) translate(0 18.753)"/>
            </g>
            <path fill="#AB6C2C" d="M1.896 8.172L181.699 7.357 181.628 24.001 1.825 24.816z" transform="translate(211.006 247.543) rotate(-4 91.762 16.087)"/>
            <path fill="#824D18" d="M165.838 1.703L181.473 1.632 181.402 18.276 165.767 18.347z" transform="translate(211.006 247.543) rotate(-4 173.62 9.99)"/>
        </g>
        <path stroke="#0D5147" d="M697.101 124.085L692.412 141.276 692.412 163.154M729.924 127.211L722.109 139.713 717.42 166.28"/>
        <path fill="url(#prefix__a)" d="M646.27 163.154h101.662c3.866 0 7 3.134 7 7v84.207c0 14.359-11.64 26-26 26h-63.663c-14.359 0-26-11.641-26-26v-84.207c0-3.866 3.134-7 7-7z"/>
        <path fill="#12CD9D" d="M747.932 163.154c3.866 0 7 3.134 7 7v84.207c0 14.359-11.64 26-26 26h-12.504c14.36 0 26-11.641 26-26v-84.207c0-3.866-3.134-7-7-7h12.504z"/>
        <path fill="#8D5219" d="M580.035 286.612h29.537l-68.31 215.162c-.981 3.088-3.848 5.186-7.088 5.186-2.386 0-4.32-1.934-4.32-4.32 0-.33.038-.658.112-.98l50.069-215.048z"/>
        <g transform="translate(0 45.948)">
            <path fill="#16374E" d="M12.861.363L186.19-.003c5.828-.012 10.952 3.856 12.537 9.463l74.837 264.675c1.953 6.909-2.064 14.093-8.973 16.047-1.15.325-2.341.49-3.537.49H30.317c-6.848 0-12.521-5.312-12.972-12.145L-.083 14.218C-.556 7.054 4.869.863 12.033.391c.276-.018.552-.028.828-.028z"/>
            <rect width="337.609" height="53.134" x="17.193" y="267.231" fill="#1B435E" rx="5"/>
        </g>
        <g>
            <g>
                <path fill="#8D5219" d="M50.447 0L80.144 0 9.809 234.314 -1.133 234.314z" transform="translate(28.134 253.231) translate(0 17.753)"/>
                <path fill="#7C4612" d="M83.27 0L12.935 234.314H6.683L77.018 0h6.252z" transform="translate(28.134 253.231) translate(0 17.753)"/>
                <path fill="#8D5219" d="M150.479 1.662L180.176 1.662 109.841 235.976 98.9 235.976z" transform="translate(28.134 253.231) translate(0 17.753) matrix(-1 0 0 1 280.209 0)"/>
                <path fill="#7C4612" d="M129.73 1.662l51.579 234.314h-6.252L123.477 1.662h6.252z" transform="translate(28.134 253.231) translate(0 17.753)"/>
            </g>
            <path fill="#AB6C2C" d="M1.896 7.172L181.699 6.357 181.628 23.001 1.825 23.816z" transform="translate(28.134 253.231) rotate(-4 91.762 15.087)"/>
            <path fill="#824D18" d="M165.838 0.703L181.473 0.632 181.402 17.276 165.767 17.347z" transform="translate(28.134 253.231) rotate(-4 173.62 8.99)"/>
        </g>
        <g>
            <g>
                <path fill="#8D5219" d="M50.447 0L80.144 0 9.809 234.314 -1.133 234.314z" transform="matrix(-1 0 0 1 1175.38 247.543) translate(0 18.753)"/>
                <path fill="#7C4612" d="M83.27 0L12.935 234.314H6.683L77.018 0h6.252z" transform="matrix(-1 0 0 1 1175.38 247.543) translate(0 18.753)"/>
                <path fill="#8D5219" d="M150.479 1.662L180.176 1.662 109.841 235.976 98.9 235.976z" transform="matrix(-1 0 0 1 1175.38 247.543) translate(0 18.753) matrix(-1 0 0 1 280.209 0)"/>
                <path fill="#7C4612" d="M129.73 1.662l51.579 234.314h-6.252L123.477 1.662h6.252z" transform="matrix(-1 0 0 1 1175.38 247.543) translate(0 18.753)"/>
            </g>
            <path fill="#AB6C2C" d="M1.896 8.172L181.699 7.357 181.628 24.001 1.825 24.816z" transform="matrix(-1 0 0 1 1175.38 247.543) rotate(-4 91.762 16.087)"/>
            <path fill="#824D18" d="M165.838 1.703L181.473 1.632 181.402 18.276 165.767 18.347z" transform="matrix(-1 0 0 1 1175.38 247.543) rotate(-4 173.62 9.99)"/>
        </g>
        <g transform="matrix(-1 0 0 1 1352 45.948)">
            <path fill="#16374E" d="M12.861.363L186.19-.003c5.828-.012 10.952 3.856 12.537 9.463l74.837 264.675c1.953 6.909-2.064 14.093-8.973 16.047-1.15.325-2.341.49-3.537.49H30.317c-6.848 0-12.521-5.312-12.972-12.145L-.083 14.218C-.556 7.054 4.869.863 12.033.391c.276-.018.552-.028.828-.028z"/>
            <rect width="337.609" height="53.134" x="17.193" y="267.231" fill="#1B435E" rx="5"/>
        </g>
        <g>
            <g>
                <path fill="#8D5219" d="M50.447 0L80.144 0 9.809 234.314 -1.133 234.314z" transform="matrix(-1 0 0 1 1352 252.231) translate(0 18.753)"/>
                <path fill="#7C4612" d="M83.27 0L12.935 234.314H6.683L77.018 0h6.252z" transform="matrix(-1 0 0 1 1352 252.231) translate(0 18.753)"/>
                <path fill="#8D5219" d="M150.479 1.662L180.176 1.662 109.841 235.976 98.9 235.976z" transform="matrix(-1 0 0 1 1352 252.231) translate(0 18.753) matrix(-1 0 0 1 280.209 0)"/>
                <path fill="#7C4612" d="M129.73 1.662l51.579 234.314h-6.252L123.477 1.662h6.252z" transform="matrix(-1 0 0 1 1352 252.231) translate(0 18.753)"/>
            </g>
            <path fill="#AB6C2C" d="M1.896 8.172L181.699 7.357 181.628 24.001 1.825 24.816z" transform="matrix(-1 0 0 1 1352 252.231) rotate(-4 91.762 16.087)"/>
            <path fill="#824D18" d="M165.838 1.703L181.473 1.632 181.402 18.276 165.767 18.347z" transform="matrix(-1 0 0 1 1352 252.231) rotate(-4 173.62 9.99)"/>
        </g>
        <path fill="#8D5219" d="M676.782 286.612h29.697l-9.56 210.195c-.14 3.057-2.659 5.465-5.72 5.465-3.057 0-5.57-2.412-5.697-5.466l-8.72-210.194zM804.788 286.612h-29.537l68.31 215.162c.981 3.088 3.848 5.186 7.088 5.186 2.386 0 4.32-1.934 4.32-4.32 0-.33-.037-.658-.112-.98l-50.069-215.048z"/>
        <rect width="379.81" height="10.939" x="498.599" y="280.361" fill="#1B435E" rx="2.5"/>
        <rect width="286.03" height="9.377" x="548.615" y="291.3" fill="#75471A" rx="2.5"/>
    </g>
</svg>
