<svg xmlns="http://www.w3.org/2000/svg" width="51" height="51" viewBox="0 0 51 51">
    <path fill="#FFF" d="M49.857 40.339l-7.876-7.895c-1.57-1.566-4.167-1.519-5.79.109l-3.969 3.976c-.25-.138-.51-.283-.783-.437-2.505-1.391-5.935-3.298-9.544-6.918-3.62-3.628-5.524-7.07-6.917-9.583-.147-.266-.288-.523-.427-.767l2.663-2.665 1.31-1.314c1.626-1.63 1.67-4.233.105-5.804l-7.876-7.895C9.188-.423 6.59-.375 4.963 1.255l-2.22 2.237.06.06c-.743.953-1.365 2.05-1.828 3.234C.548 7.913.282 8.99.16 10.066c-1.04 8.642 2.9 16.54 13.592 27.256 14.78 14.813 26.691 13.694 27.205 13.639 1.12-.134 2.192-.402 3.282-.826 1.17-.459 2.265-1.081 3.214-1.826l.049.043 2.249-2.207c1.622-1.63 1.67-4.233.105-5.806z"/>
</svg>
