<svg xmlns="http://www.w3.org/2000/svg" width="892" height="693" viewBox="0 0 892 693">
    <defs>
        <linearGradient id="prefix__a" x1="0%" x2="100%" y1="100%" y2="0%">
            <stop offset="0%" stop-color="#2CCCCC"/>
            <stop offset="100%" stop-color="#0CEFA5"/>
        </linearGradient>
        <linearGradient id="prefix__b" x1="41.347%" x2="58.653%" y1="100%" y2="0%">
            <stop offset="0%" stop-color="#2CCCCC"/>
            <stop offset="100%" stop-color="#0CEFA5"/>
        </linearGradient>
        <linearGradient id="prefix__c" x1="39.014%" x2="60.986%" y1="100%" y2="0%">
            <stop offset="0%" stop-color="#2CCCCC"/>
            <stop offset="100%" stop-color="#0CEFA5"/>
        </linearGradient>
        <linearGradient id="prefix__d" x1="45.117%" x2="54.883%" y1="100%" y2="0%">
            <stop offset="0%" stop-color="#2CCCCC"/>
            <stop offset="100%" stop-color="#0CEFA5"/>
        </linearGradient>
    </defs>
    <g fill="none" fill-rule="evenodd" transform="translate(-322 -61)">
        <path fill="#F2F2F2" fill-rule="nonzero" d="M574.57 62.765l-133.458 72.342c6.623 11.41 6.52 25.522-.269 36.834-6.788 11.312-19.188 18.033-32.365 17.543-13.176-.49-25.043-8.112-30.975-19.897l-39.712 21.526c-4.85 2.636-6.653 8.702-4.03 13.56l116.117 214.533c2.623 4.86 8.692 6.666 13.549 4.037.002-.001.004-.002.002-.008l236.78-128.348c4.85-2.636 6.653-8.702 4.03-13.56L588.123 66.794c-2.623-4.86-8.692-6.666-13.549-4.037-.002.001-.004.002-.002.008z"/>
        <circle cx="409" cy="151" r="30" fill="url(#prefix__a)" fill-rule="nonzero"/>
        <path fill="#F2F2F2" fill-rule="nonzero" d="M950.342 676.908l144.38-47.003c-4.462-12.39-1.82-26.222 6.899-36.104 8.718-9.881 22.13-14.248 35.01-11.398 12.88 2.851 23.186 12.468 26.9 25.1l42.95-13.981c5.25-1.71 8.122-7.353 6.412-12.604 0-.004-.002-.008-.003-.011l-75.632-231.413c-1.714-5.245-7.353-8.11-12.6-6.402L868.52 426.478c-5.252 1.71-8.123 7.353-6.413 12.604 0 .004.002.008.003.011l75.632 231.413c1.714 5.245 7.353 8.11 12.6 6.402z"/>
        <circle cx="1129" cy="619" r="30" fill="url(#prefix__a)" fill-rule="nonzero"/>
        <rect width="709" height="323" x="426" y="196" fill="#1B435E" fill-rule="nonzero" rx="10"/>
        <rect width="709" height="5" x="427" y="514" fill="#236089" rx="2.5"/>
        <rect width="687" height="292" x="438" y="210" fill="#FFF" fill-rule="nonzero" rx="10"/>
        <rect width="66" height="22" x="989" y="488" fill="#1B435E" fill-rule="nonzero" rx="3"/>
        <rect width="49" height="4" x="998" y="510" fill="#17E4B2" fill-rule="nonzero" rx="2"/>
        <rect width="49" height="4" x="748" y="510" fill="#17E4B2" fill-rule="nonzero" rx="2"/>
        <path stroke="#1B435E" stroke-linecap="round" stroke-width="2" d="M494 320h145.511c1.714 0 3.308-.877 4.224-2.325L672.663 272H692M494 384h145.511c1.714 0 3.308.877 4.224 2.325L672.663 432H692"/>
        <circle cx="597" cy="319" r="8" fill="#17E4B2" fill-rule="nonzero"/>
        <circle cx="656" cy="299" r="8" fill="#17E4B2" fill-rule="nonzero"/>
        <circle cx="638" cy="384" r="8" fill="#17E4B2" fill-rule="nonzero"/>
        <circle cx="585" cy="384" r="8" fill="#17E4B2" fill-rule="nonzero"/>
        <rect width="23" height="23" x="681" y="260" fill="url(#prefix__a)" rx="6"/>
        <rect width="23" height="23" x="681" y="420" fill="url(#prefix__a)" rx="6"/>
        <text fill="#1B435E" font-family="Gilroy-Bold, Gilroy" font-size="20" font-weight="bold" letter-spacing="-.004">
            <tspan x="722" y="278">Unternehmercoaching</tspan>
        </text>
        <text fill="#1B435E" font-family="Gilroy-Bold, Gilroy" font-size="20" font-weight="bold" letter-spacing="-.004">
            <tspan x="722" y="438">Karrieremanagament</tspan>
        </text>
        <ellipse cx="458.5" cy="728.5" fill="#F2F2F2" fill-rule="nonzero" rx="136.5" ry="25.5"/>
        <rect width="49" height="4" x="515.107" y="505.17" fill="#17E4B2" fill-rule="nonzero" rx="2" transform="rotate(-29 539.607 507.17)"/>
        <path fill="#FBBEBE" fill-rule="nonzero" d="M548 482.105l-1.091 6.627s1.637 45.843-10.366 31.483c-12.003-14.36-3.82-33.692-3.82-33.692l3.274-5.523L548 482.105zM478.41 271s-2.24 23-3.36 24.095c-1.12 1.095 16.8 21.905 16.8 21.905l15.68-14.238s-1.12-20.81 2.241-25.19c3.36-4.381-31.36-6.572-31.36-6.572z"/>
        <path fill="#000" fill-rule="nonzero" d="M478.41 271s-2.24 23-3.36 24.095c-1.12 1.095 16.8 21.905 16.8 21.905l15.68-14.238s-1.12-20.81 2.241-25.19c3.36-4.381-31.36-6.572-31.36-6.572z" opacity=".1"/>
        <path fill="#F2F2F2" fill-rule="nonzero" d="M438 691.409L438 711.863 430.176 713 419 709.591 422.352 688z"/>
        <path fill="#123045" fill-rule="nonzero" d="M428.344 699.898s-3.332-8.916-8.884-7.802c-5.552 1.115-6.662 7.802-6.662 7.802s-4.442 16.718-11.105 22.29c-6.662 5.573-13.325 20.062 0 22.29 13.325 2.23 24.43-3.343 24.43-4.457 0-1.115 3.331-7.802 8.883-8.916 5.552-1.115 9.994-2.23 9.994-6.688s-3.331-8.916-3.331-8.916-1.11-21.14-3.332-18.372c-1.535 2.188-2.664 4.636-3.33 7.227l-6.663-4.458z"/>
        <path fill="#F2F2F2" fill-rule="nonzero" d="M486.5 682.055L482 697.888 493.25 700 498.875 694.722 500 681z"/>
        <path fill="#123045" fill-rule="nonzero" d="M484.861 694.754s4.383-3.226 6.575-3.226h3.287s0-7.528 5.478-7.528c5.479 0 4.383 5.377 4.383 5.377s12.053 18.283 15.34 21.51c3.287 3.226 20.818 12.905 6.574 17.206-14.244 4.302-24.105 4.302-30.68-3.226 0 0-6.574-3.226-10.957-3.226-4.382 0-9.861-2.151-9.861-5.378 0-3.226 3.287-9.679 3.287-9.679s2.192-19.358 3.287-17.207c1.096 2.151 3.287 5.377 3.287 5.377z"/>
        <path fill="#123045" fill-rule="nonzero" d="M438.331 428v36.206s-12.088 70.218-12.088 93.258c0 23.04-18.682 132.755-9.89 134.95 8.791 2.194 29.671 5.485 30.77 2.194 1.099-3.292 8.792-107.521 9.89-108.618 1.1-1.097 24.177-87.772 24.177-87.772l4.396 1.097 2.198 98.743s-10.99 88.87-5.495 88.87 28.573-1.098 28.573-7.68c0-6.583 12.089-128.367 12.089-128.367s14.286-96.55 8.791-106.424c-5.495-9.874-5.495-15.36-5.495-15.36L438.331 428z"/>
        <circle cx="497" cy="267" r="22" fill="#FBBEBE" fill-rule="nonzero"/>
        <path fill="#2BCDCC" fill-rule="nonzero" d="M491.339 304.863S477.674 293.376 476.58 289c0 0-7.105 7.111-7.105 8.205 0 1.094-30.61 4.376-38.263 13.129-7.653 8.752-14.212 27.35-14.212 27.35l18.585 35.01s1.093 19.692 1.093 21.88c0 2.188-5.466 37.197-3.28 38.291 2.187 1.094 24.051 12.035 42.636 9.846 18.585-2.188 37.17-5.47 42.635-5.47 5.467 0 9.84 2.188 9.84 0s-3.28-6.564-3.28-8.752c0-2.188-1.093-7.658-1.093-10.94 0-3.282-2.187-8.753-2.187-13.129 0-4.376 24.051-63.453 24.051-63.453s-1.093-18.599-18.585-27.351c-17.491-8.753-19.678-12.035-19.678-12.035s-.34-6.564-1.263-6.564c-.923 0-4.203 9.846-12.949 10.94l-2.186-1.094z"/>
        <path fill="#FBBEBE" fill-rule="nonzero" d="M433 448.842L440.84 461 461 456.579 446.44 440z"/>
        <path fill="#2BCDCC" fill-rule="nonzero" d="M541.173 331l6.592 8.796s13.185 63.768 10.988 86.856c-2.198 23.089-4.395 40.68-4.395 40.68s4.395 16.492 1.099 16.492c-3.297 0-23.074 1.1-23.074-2.199 0-3.298 2.197-24.188 2.197-24.188l-5.494-48.376L517 392.57 541.173 331z"/>
        <path fill="#123045" fill-rule="nonzero" d="M481.746 253.805c1.335-.569 2.877-.108 4.307-.35 1.678-.285 3.18-1.535 4.875-1.377.803.15 1.583.404 2.32.757.748.354 1.607.385 2.378.086.368-.172.64-.501.74-.896.1-.396.019-.816-.223-1.144 1.434-.127 2.79-.713 3.867-1.673.215-.224.464-.412.738-.556.646-.17 1.333-.062 1.897.297l2.49 1.154c.562.199 1.055.554 1.424 1.023.296.465.354 1.089.774 1.445.536.453 1.336.231 2.035.276 1.313.128 2.323 1.224 2.35 2.55-.01.735-.276 1.636.302 2.086.336.26.812.219 1.205.38 1.018.415 1.022 1.84.871 2.933-.15 1.094-.076 2.538.97 2.875.738.237 1.49-.269 2.256-.382 1.155-.17 2.224.556 3.252 1.112 1.028.555 2.394.93 3.285.172.83-.705.777-1.995.548-3.062-.327-1.53-.864-3.008-1.597-4.39-.27-.406-.43-.877-.463-1.365.126-.695.541-1.303 1.142-1.67 1.26-1.002 2.709-2.01 3.117-3.57.3-1.146-.038-2.355-.012-3.539.032-1.44.602-2.876.335-4.292-.485-2.567-3.327-3.802-5.162-5.653-2.521-2.543-3.34-6.611-6.315-8.598-2.38-1.589-5.495-1.399-8.205-2.308-2.978-.999-5.375-3.294-8.312-4.407-3.247-1.203-6.858-.885-9.847.868-.876.653-1.854 1.156-2.895 1.487-.876.102-1.76.091-2.634-.031-1.736-.09-3.466.269-5.025 1.042-.597.24-1.094.678-1.408 1.24-.526 1.175.238 3.01-.915 3.571-.537.262-1.172.011-1.769.024-1.16.026-2.054 1.041-2.607 2.068-.43 1.086-1.049 2.086-1.826 2.955-1.42 1.249-3.998 1.455-4.369 3.315-.006.787.038 1.573.133 2.355-.107 1.647-1.861 2.9-1.77 4.548.106 1.902 2.51 2.83 3.152 4.622.49 1.364-.154 2.84-.597 4.22-.443 1.38-.577 3.149.567 4.032.449.346 1.026.488 1.483.823 1.184.865 1.17 2.612 1.038 4.077-.154.618.007 1.272.43 1.746.395.24.875.299 1.316.159 1.436-.35 2.666-1.28 3.399-2.57.38-.634.457-1.193 1.15-1.529.47-.228 1.04-.024 1.52-.32 2.275-1.409 1.492-5.426 4.285-6.616z"/>
        <path fill="#2BCDCC" fill-rule="nonzero" d="M421.104 334l-3.348 3.3s-20.085 59.386-13.39 72.583c6.695 13.197 20.085 46.19 24.549 45.09 4.463-1.1 20.085-10.997 20.085-12.097 0-1.1-18.97-31.893-18.97-31.893s-2.231-6.599-1.115-7.698c1.116-1.1 1.116 0 0-2.2s-1.116 0 1.116-2.2c2.231-2.199 2.231-2.199 2.231-3.299s6.695-28.593 6.695-28.593L421.104 334z"/>
        <path fill="#2F2E41" fill-rule="nonzero" d="M438 462.583L462.641 455 466 462.583 439.121 468z"/>
        <path fill="#236089" fill-rule="nonzero" d="M438 462.583L462.641 455 466 462.583 439.121 468z"/>
        <path fill="#000" fill-rule="nonzero" d="M471 296L489.789 312 492 308.571zM508 301L495 308 496.083 311z" opacity=".1"/>
        <g fill-rule="nonzero">
            <path fill="url(#prefix__b)" d="M108.666 21.726c1.54-2.022 2.456-4.539 2.456-7.266v-2.403C111.122 5.409 105.684 0 99 0S86.878 5.409 86.878 12.057v2.404c0 2.726.916 5.243 2.456 7.265C80.174 22.642 73 30.354 73 39.701v30.123c0 4.443 3.634 8.057 8.1 8.057 1.134 0 2.213-.234 3.194-.654v39.228c0 4.712 3.854 8.545 8.591 8.545 2.402 0 4.576-.987 6.137-2.573 1.56 1.586 3.734 2.573 6.136 2.573 4.737 0 8.591-3.833 8.591-8.545V77.247c.97.408 2.034.634 3.15.634 4.467 0 8.101-3.614 8.101-8.057V39.701c0-9.347-7.174-17.059-16.334-17.975zm-16.879-9.67c0-3.955 3.236-7.173 7.213-7.173s7.213 3.218 7.213 7.174v2.404c0 3.956-3.236 7.174-7.213 7.174s-7.213-3.218-7.213-7.174v-2.404zm13.371 108.061c-2.03 0-3.682-1.643-3.682-3.662V77.783c0-1.348-1.099-2.441-2.454-2.441-1.356 0-2.455 1.093-2.455 2.441v38.672c0 2.02-1.652 3.662-3.682 3.662-2.03 0-3.682-1.643-3.682-3.662V64.941H108.8l.041 51.514c0 2.02-1.652 3.662-3.682 3.662zm14.933-50.293c0 1.75-1.432 3.174-3.191 3.174-1.595 0-2.916-1.17-3.15-2.692v-25.14c0-1.348-1.1-2.441-2.455-2.441-1.356 0-2.455 1.093-2.455 2.441l-.04 14.893H89.202V45.166c0-1.348-1.099-2.441-2.455-2.441-1.355 0-2.454 1.093-2.454 2.441l-.003 24.658c0 1.75-1.431 3.174-3.19 3.174-1.76 0-3.192-1.424-3.192-3.174V39.701c0-7.27 5.946-13.184 13.255-13.184h15.672c7.309 0 13.255 5.915 13.255 13.184v30.123z" transform="translate(960 285)"/>
            <path fill="url(#prefix__c)" d="M17.006 62.06C16.556 61.397 15.804 61 15 61c-.804 0-1.555.397-2.005 1.06L.414 80.595c-.5.738-.55 1.69-.131 2.475.42.786 1.242 1.277 2.136 1.277h3.387v38.247c0 1.329 1.083 2.406 2.42 2.406h13.548c1.336 0 2.42-1.077 2.42-2.406V84.347h3.387c.894 0 1.716-.49 2.136-1.277.42-.785.37-1.737-.131-2.475L17.006 62.06zm4.768 17.475c-1.336 0-2.419 1.078-2.419 2.406v38.247h-8.71V81.941c0-1.328-1.083-2.406-2.419-2.406H6.972L15 67.707l8.029 11.828h-1.255z" transform="translate(960 285)"/>
            <path fill="url(#prefix__d)" d="M54.006 30.073C53.556 29.402 52.804 29 52 29c-.804 0-1.555.402-2.005 1.073l-12.581 18.77c-.5.748-.55 1.712-.131 2.507.42.796 1.242 1.294 2.136 1.294h3.387v69.92c0 1.345 1.083 2.436 2.42 2.436h13.548c1.336 0 2.42-1.091 2.42-2.437V97.35c0-1.345-1.084-2.436-2.42-2.436-1.336 0-2.42 1.09-2.42 2.436v22.777h-8.709v-69.92c0-1.345-1.083-2.437-2.42-2.437h-1.254L52 35.792l8.029 11.978h-1.255c-1.336 0-2.42 1.092-2.42 2.437v25.214c0 1.346 1.084 2.437 2.42 2.437 1.336 0 2.42-1.091 2.42-2.437V52.644h3.387c.894 0 1.716-.498 2.136-1.293.42-.796.37-1.76-.131-2.507l-12.58-18.77z" transform="translate(960 285)"/>
            <path fill="url(#prefix__a)" d="M58.5 84c-.657 0-1.303.267-1.767.733-.465.465-.733 1.107-.733 1.767 0 .657.267 1.302.733 1.767.465.466 1.11.733 1.767.733.657 0 1.303-.267 1.767-.733.465-.465.733-1.11.733-1.767 0-.657-.267-1.302-.733-1.767-.465-.466-1.11-.733-1.767-.733z" transform="translate(960 285)"/>
        </g>
    </g>
</svg>
