<svg xmlns="http://www.w3.org/2000/svg" width="84" height="70" viewBox="0 0 84 70">
    <path fill="#F3F9FF" d="M60.052 70l-3.193-7.84s10.644-1.68 12.772-10.64c2.129-6.72-2.128-12.32-2.128-12.32H53.746c-3.865 0-6.998-3.142-6.998-7.008V7.008c0-3.87 3.144-7.008 7.007-7.008h23.238C80.863 0 84 3.136 84 6.994V39.76C84 66.64 60.052 70 60.052 70zm-46.748 0l-3.193-7.84s10.644-1.68 12.772-10.64c2.13-6.72-2.128-12.32-2.128-12.32H6.998C3.133 39.2 0 36.058 0 32.192V7.008C0 3.138 3.144 0 7.007 0h23.238c3.87 0 7.007 3.136 7.007 6.994V39.76C37.252 66.64 13.304 70 13.304 70z"/>
</svg>
