<svg xmlns="http://www.w3.org/2000/svg" width="84" height="70" viewBox="0 0 84 70">
    <defs>
        <linearGradient id="prefix__a" x1="0%" x2="100%" y1="84.722%" y2="15.278%">
            <stop offset="0%" stop-color="#2CCCCC"/>
            <stop offset="100%" stop-color="#0CEFA5"/>
        </linearGradient>
    </defs>
    <path fill="url(#prefix__a)" d="M23.948 0l3.193 7.84S16.497 9.52 14.369 18.48C12.24 25.2 16.497 30.8 16.497 30.8h13.757c3.865 0 6.998 3.142 6.998 7.008v25.184c0 3.87-3.144 7.008-7.007 7.008H7.007C3.137 70 0 66.864 0 63.006V30.24C0 3.36 23.948 0 23.948 0zm46.748 0l3.193 7.84S63.245 9.52 61.117 18.48c-2.13 6.72 2.128 12.32 2.128 12.32h13.757c3.865 0 6.998 3.142 6.998 7.008v25.184C84 66.862 80.856 70 76.993 70H53.755c-3.87 0-7.007-3.136-7.007-6.994V30.24C46.748 3.36 70.696 0 70.696 0z" transform="rotate(180 42 35)"/>
</svg>
