<svg xmlns="http://www.w3.org/2000/svg" xmlns:xlink="http://www.w3.org/1999/xlink" width="756" height="701" viewBox="0 0 756 701">
    <defs>
        <linearGradient id="prefix__b" x1="49.998%" x2="49.998%" y1="100%" y2="0%">
            <stop offset="0%" stop-color="gray" stop-opacity=".25"/>
            <stop offset="54%" stop-color="gray" stop-opacity=".12"/>
            <stop offset="100%" stop-color="gray" stop-opacity=".1"/>
        </linearGradient>
        <linearGradient id="prefix__c" x1="50%" x2="50%" y1="100%" y2="0%">
            <stop offset="0%" stop-color="gray" stop-opacity=".25"/>
            <stop offset="54%" stop-color="gray" stop-opacity=".12"/>
            <stop offset="100%" stop-color="gray" stop-opacity=".1"/>
        </linearGradient>
        <linearGradient id="prefix__d" x1="49.965%" x2="49.965%" y1="99.993%" y2="-.007%">
            <stop offset="0%" stop-color="gray" stop-opacity=".25"/>
            <stop offset="54%" stop-color="gray" stop-opacity=".12"/>
            <stop offset="100%" stop-color="gray" stop-opacity=".1"/>
        </linearGradient>
        <path id="prefix__a" d="M752.853 436.827c-8.932 50.218-34.621 95.94-72.89 129.729-13.212 11.631-27.508 21.975-42.694 30.888-53.522 32.308-119.853 51.891-188.907 67.953l-11.818 2.656c-10.264 2.328-20.793 3.284-31.31 2.842-109.829-4.571-184.637-167.103-207.902-338.16C177.037 180.456 211.007 7.978 363.097.194 420.21-2.647 486.85 25.77 548.725 71.485c4.455 3.274 8.91 6.671 13.303 10.13l2.723 2.163C680.273 175.7 774.634 324.765 752.853 436.827z"/>
    </defs>
    <g fill="none" fill-rule="evenodd">
        <path fill="#1B435E" fill-rule="nonzero" d="M375.008 700.465c-4.147-.24-8.276-.721-12.364-1.44-.212-.027-.401-.142-.52-.314-.118-.172-.154-.386-.099-.586.03-.192.14-.364.302-.477.164-.113.367-.158.564-.123 4.088.72 8.217 1.2 12.365 1.44.207 0 .406.083.547.232.141.148.212.347.194.548-.011.232-.129.446-.32.585-.191.14-.436.189-.669.135zm12.745.071c-.41 0-.742-.322-.742-.72-.037-.194.018-.395.15-.546.132-.151.327-.237.53-.234 4.153-.272 8.284-.793 12.37-1.56.425-.074.834.19.927.6.036.192-.01.389-.126.547-.117.158-.294.264-.492.293-4.086.78-8.217 1.32-12.37 1.62h-.247zm-36.758-3.754c-3.915-1.177-7.762-2.559-11.527-4.14-.372-.164-.556-.58-.427-.96.191-.375.634-.554 1.037-.42 3.704 1.561 7.49 2.923 11.344 4.08.42.117.666.546.549.96-.186.347-.591.521-.976.42v.06zm60.765-.963c-.34.01-.641-.214-.726-.54-.121-.397.091-.819.484-.96 1.754-.54 3.569-1.2 5.383-1.86l6.048-2.22c.184-.078.392-.077.576.002.183.08.325.23.392.418.1.18.11.395.027.583-.083.188-.25.328-.45.377l-6.049 2.28c-1.814.66-3.69 1.32-5.504 1.86l-.181.06zm23.002-7.859c-.306-.007-.576-.198-.678-.48-.101-.18-.112-.395-.027-.583.084-.188.254-.328.459-.377l11.457-4.44c.39-.127.816.054.985.42.131.38-.055.796-.431.96l-11.457 4.44-.308.06zm-106.513-.982h-.37c-3.582-1.795-7.164-3.821-10.684-5.79-.26-.282-.26-.701 0-.984.14-.13.328-.204.525-.204s.386.074.525.204c3.458 2.142 7.04 4.11 10.56 5.79.26.282.26.7 0 .984-.187.043-.384.023-.556-.058v.058zm130.507-8.98c-.298.02-.575-.146-.683-.41-.18-.371-.015-.81.372-.994 3.852-1.464 7.703-2.986 11.492-4.566.392-.099.805.071.994.41.084.17.092.365.022.541-.07.176-.213.319-.395.395-3.851 1.58-7.64 3.103-11.491 4.566l-.311.059zm-151.495-4.032c-.14.045-.29.045-.43 0-3.186-2.409-6.128-4.937-9.56-7.646-.322-.266-.363-.738-.092-1.054.27-.316.75-.356 1.072-.09 3.126 2.649 6.13 5.238 9.5 7.586.158.137.249.334.249.541 0 .208-.09.405-.249.542-.185.107-.41.13-.613.06l.123.06zM480.749 669c-.308-.008-.578-.21-.68-.505-.084-.184-.091-.395-.022-.584.07-.19.211-.344.393-.426 3.771-1.768 7.543-3.473 11.253-5.304.264-.217.633-.241.922-.06.29.18.437.526.369.865-.069.339-.338.598-.673.647l-11.253 5.304-.31.063zm23.036-11c-.296.002-.566-.16-.69-.416-.105-.18-.124-.393-.052-.587.072-.194.228-.348.429-.425l11.148-5.354c.247-.227.617-.283.926-.138.308.144.488.457.449.782-.04.324-.29.59-.624.665-3.758 1.844-7.453 3.629-11.273 5.354l-.313.119zm-214.569-1.046c-.155.061-.327.061-.482 0-2.81-2.781-5.641-5.684-8.492-8.707-.153-.127-.242-.315-.242-.514 0-.2.089-.388.242-.514.303-.292.781-.292 1.084 0 2.83 3.023 5.662 6.047 8.432 8.647.153.126.242.315.242.514 0 .2-.089.388-.242.514-.17.086-.372.086-.542 0v.06zM525.739 647c-.274-.024-.52-.189-.657-.44-.182-.384-.052-.851.299-1.07 3.524-2.013 7.048-4.09 10.393-6.291.291-.265.724-.265 1.015 0 .135.142.211.334.211.535 0 .2-.076.393-.21.535l-10.454 6.29-.597.441zm-254.485-7.125c-.19.077-.401.077-.591 0-2.543-3.052-5.026-6.228-7.509-9.654-.245-.327-.192-.8.118-1.059.31-.258.76-.202 1.005.125 2.484 3.3 5.026 6.228 7.509 9.592.285.313.285.808 0 1.121l-.532-.125zM546.84 634c-.262.004-.503-.134-.622-.357-.14-.134-.219-.316-.219-.505 0-.19.079-.372.22-.506 3.604-2.14 7.147-4.281 10.504-6.422.14-.134.33-.21.528-.21.199 0 .389.076.529.21s.219.316.219.505c0 .19-.079.372-.22.506-3.356 2.14-6.899 4.281-10.504 6.422l-.435.357zm20.963-13.07c-.188.093-.406.093-.594 0-.135-.144-.21-.34-.21-.544 0-.204.075-.4.21-.544 3.269-2.56 6.479-5.056 9.57-7.616.134-.145.315-.226.505-.226s.371.081.505.226c.135.144.21.34.21.544 0 .204-.075.4-.21.544-3.09 2.56-6.3 5.12-9.63 7.616-.061-.01-.122-.032-.177-.064l-.179.064zM256.322 620c-.267-.009-.51-.151-.644-.378-2.51-3.273-5.02-6.736-7.467-10.261-.281-.328-.281-.805 0-1.133.324-.304.835-.304 1.159 0 2.446 3.462 4.957 6.925 7.403 10.261.145.142.227.334.227.535s-.082.394-.227.535c-.048.147-.137.278-.258.378l-.193.063zm330.528-14c-.244-.013-.472-.129-.628-.32-.142-.143-.222-.339-.222-.542 0-.204.08-.4.222-.543 3.203-2.748 6.28-5.559 9.483-8.37.141-.144.334-.225.534-.225s.392.081.534.225c.303.322.303.83 0 1.15l-9.546 8.37c-.053.073-.116.138-.189.191l-.188.064zm-344.359-7c-.275-.01-.529-.145-.686-.366-2.182-3.359-4.426-6.9-6.608-10.38-.263-.299-.263-.74 0-1.038.14-.138.331-.216.53-.216s.39.078.53.216c2.12 3.48 4.364 6.96 6.546 10.38.263.298.263.74 0 1.038l-.312.366zm363.248-10.124c-.155.075-.337.075-.492 0-.156-.125-.247-.313-.247-.51 0-.198.09-.385.247-.51 2.89-2.882 5.78-6.003 8.485-8.644.139-.136.327-.212.523-.212s.384.076.522.212c.297.302.297.778 0 1.08-2.705 2.882-5.595 6.003-8.546 8.704-.174.018-.348-.025-.492-.12zM230.097 578c-.284 0-.548-.136-.701-.364-2.04-3.455-4.143-7.031-6.374-10.669-.085-.345.083-.701.41-.87.327-.17.733-.112.992.143 2.04 3.637 4.143 7.214 6.374 10.608.27.296.27.735 0 1.03l-.7.122zm391.619-7.025h-.493c-.297-.308-.297-.793 0-1.1 2.586-3.18 5.111-6.114 7.513-9.66.138-.137.327-.215.523-.215.197 0 .385.078.524.216.139.137.217.324.217.52 0 .194-.078.381-.217.519-2.402 3.24-4.927 6.54-7.575 9.72-.12.033-.249.033-.37 0h-.122zM218.236 557c-.29.002-.556-.17-.678-.442-1.912-3.785-3.762-7.633-5.49-11.356-.083-.184-.09-.394-.02-.584.069-.19.21-.343.39-.425.282-.257.707-.257.987 0l5.49 11.356c.188.385.054.853-.308 1.072l-.37.379zm418.354-7.08h-.371c-.14-.135-.219-.32-.219-.512s.079-.376.219-.511c2.229-3.37 4.334-6.802 6.192-10.293.077-.321.354-.561.692-.599.338-.038.664.135.814.432.15.296.093.652-.144.89-2.043 3.49-4.21 6.982-6.192 10.352-.206.254-.543.37-.867.301l-.124-.06zM207.198 534c-.31.002-.594-.169-.724-.437-1.844-3.806-3.623-7.611-5.4-11.48-.09-.181-.098-.39-.024-.577.075-.187.225-.339.418-.42.207-.103.452-.114.668-.03.216.085.381.255.452.466 1.712 3.806 3.557 7.612 5.335 11.355.19.397.016.865-.395 1.06l-.33.063zm441.272-5.073c-.41-.197-.583-.668-.393-1.067 1.9-3.7 3.668-7.526 5.372-11.414.085-.184.245-.327.442-.398.197-.07.415-.063.606.022.4.171.598.605.459 1.003-1.704 3.889-3.473 7.777-5.373 11.477-.205.392-.697.558-1.113.377zm-451.233-17.929c-.288.02-.556-.155-.66-.432-1.558-3.827-3.057-7.654-4.495-11.482-.099-.194-.109-.423-.028-.625.081-.203.245-.358.448-.424.396-.124.817.093.959.494 1.438 3.827 2.936 7.654 4.495 11.42.134.409-.045.856-.42 1.05h-.3zM657.996 506c-.39-.142-.6-.567-.48-.966 1.32-3.802 2.46-7.666 3.54-11.468.1-.4.502-.644.9-.544.397.1.64.506.54.906-1.08 3.863-2.28 7.786-3.54 11.59-.121.292-.405.482-.72.482h-.24zm-469.947-18c-.315 0-.6-.193-.72-.489-1.38-3.786-2.76-7.634-4.08-11.482-.15-.388.039-.825.42-.977.38-.152.81.04.96.428 1.38 3.847 2.7 7.695 4.14 11.543.12.404-.09.833-.48.977h-.24zm476.691-6.538c-.409-.09-.674-.486-.6-.897.84-3.945 1.62-7.89 2.22-11.955.09-.408.488-.672.9-.598.193.03.365.135.478.293.113.157.157.354.122.544-.6 3.886-1.38 7.83-2.22 11.955.118.227.125.495.02.728-.105.233-.311.405-.56.468l-.36-.538zM179.836 465c-.324-.026-.605-.24-.72-.549-1.26-3.842-2.52-7.684-3.72-11.588-.032-.366.188-.706.53-.822.343-.116.72.022.91.334 1.2 3.904 2.46 7.746 3.72 11.588.076.194.067.41-.025.597-.092.186-.257.324-.455.379l-.24.061zm488.57-7c-.198.003-.387-.086-.515-.242-.128-.157-.182-.365-.145-.567.42-4.043.78-8.212 1.02-12.442-.001-.21.083-.41.231-.551.148-.142.347-.213.549-.195.394.058.695.396.72.808 0 4.23-.6 8.399-1.02 12.442-.043.336-.282.61-.6.685l-.24.062zm-495.73-17c-.314 0-.598-.19-.72-.48-1.14-3.843-2.28-7.745-3.36-11.588-.054-.191-.026-.396.076-.567.102-.17.27-.291.465-.333.183-.056.38-.037.55.053.168.09.294.244.35.427 1.08 3.902 2.22 7.745 3.36 11.527.12.397-.09.82-.48.961h-.24zm497.6-8c-.398 0-.72-.333-.72-.743 0-4.088-.3-8.238-.6-12.387-.035-.207.017-.42.143-.585.125-.165.313-.268.516-.282.207-.018.412.051.57.19.158.14.255.339.27.553 0 4.088.54 8.3.6 12.387.001.421-.313.773-.72.805l-.06.062zm-504.788-16c-.337.01-.636-.213-.72-.539v-.597c-1.02-3.887-2.04-7.774-3-11.96-.045-.404.208-.783.6-.896.39-.053.763.17.9.538.96 3.886 1.92 7.773 2.94 11.6v.598c.116.413-.126.84-.54.957l-.18.299zm502.624-9c-.37.01-.695-.25-.78-.622-.6-3.978-1.32-8.081-2.16-12.433-.08-.408.155-.812.54-.932.412-.077.81.197.9.622.9 4.102 1.62 8.205 2.22 12.432.035.198-.01.403-.123.567-.113.164-.285.273-.477.304l-.12.062zm-507.883-15c-.356.005-.661-.259-.72-.622-.9-4.103-1.74-8.206-2.46-12.434-.054-.207-.019-.428.096-.606.115-.179.298-.298.504-.326.19-.036.388.01.546.127.159.117.264.295.294.495.78 3.978 1.62 8.082 2.46 12.433.054.199.027.411-.076.588-.102.176-.27.301-.464.345h-.18zm502.553-9c-.355.005-.661-.25-.72-.6-1.08-3.717-2.28-7.613-3.54-11.39-.076-.19-.067-.404.025-.587.092-.183.257-.319.455-.372.19-.076.404-.067.587.025.183.092.319.257.373.454 1.26 3.837 2.46 7.734 3.54 11.51.054.192.027.397-.076.567-.102.17-.27.29-.464.333l-.18.06zm-507.793-15.062c-.355.005-.66-.258-.72-.62-.72-4.087-1.38-8.236-1.98-12.386-.034-.214.016-.433.14-.608.125-.175.312-.29.52-.32.41-.038.778.26.84.68.6 4.088 1.26 8.176 1.92 12.387.074.426-.19.836-.6.929l-.12-.062zM654.29 361c-.312 0-.593-.195-.712-.495-1.425-3.773-2.91-7.608-4.512-11.443-.08-.18-.088-.386-.02-.572.066-.186.202-.337.376-.418.378-.179.823-.015 1.01.371 1.602 3.835 3.146 7.67 4.511 11.505.077.189.076.401-.003.589-.078.187-.228.332-.412.401l-.238.062zm-502.57-17c-.388.005-.72-.287-.78-.684-.48-4.106-.96-8.274-1.38-12.442-.034-.208.018-.421.143-.587.126-.166.314-.27.517-.284.41-.037.778.262.84.684.42 4.106.9 8.274 1.38 12.442.034.208-.018.421-.143.587-.126.166-.314.27-.517.284h-.06zm492.837-6c-.303-.015-.58-.182-.741-.447-1.73-3.708-3.644-7.543-5.62-11.378-.261-.312-.261-.775 0-1.087.376-.195.835-.056 1.05.32 1.976 3.835 3.89 7.67 5.682 11.441.178.407.015.887-.37 1.087V338zM148.36 319.938c-.376.001-.689-.297-.72-.685 0-4.23-.6-8.46-.78-12.442-.001-.423.313-.776.72-.808.2-.018.4.053.548.195.148.142.232.342.232.551 0 4.044.48 8.212.78 12.442.017.209-.052.415-.189.569-.137.154-.33.24-.531.24l-.06-.062zM633.319 316c-.271.005-.522-.136-.646-.363-2.132-3.452-4.394-6.904-6.461-10.355-.283-.316-.283-.775 0-1.09.315-.256.783-.256 1.098 0 2.326 3.512 4.588 6.963 6.462 10.415.146.136.228.322.228.515s-.082.378-.228.515l-.452.363zm-13.043-20.063c-.23.084-.484.084-.714 0-2.336-3.472-4.802-7.01-7.333-10.611-.147-.145-.229-.341-.229-.547 0-.205.082-.401.229-.546.326-.31.842-.31 1.168 0 2.596 3.537 5.062 7.138 7.398 10.611.273.314.273.78 0 1.093-.166.072-.354.072-.52 0zM147.969 295c-.398 0-.72-.334-.72-.747v-8.771-3.733c0-.412.322-.746.72-.746.2-.018.4.053.548.195.148.142.232.342.232.551V294.192c.017.208-.052.414-.189.568-.137.154-.33.24-.531.24h-.06zm458.325-20.067c-.193.09-.415.09-.607 0-2.491-3.297-4.982-6.533-7.473-9.647-.137-.137-.214-.324-.214-.519s.077-.381.214-.519c.139-.158.338-.248.547-.248.21 0 .409.09.547.248 2.43 3.114 4.981 6.106 7.472 9.647.293.307.293.792 0 1.1l-.486-.062zM147.611 270c-.202 0-.394-.086-.531-.24s-.206-.36-.189-.569c0-4.168.42-8.336.72-12.442 0-.21.084-.41.232-.551.148-.142.347-.213.548-.195.417.062.725.434.72.87 0 4.044-.54 8.275-.72 12.443-.06.397-.392.689-.78.684zm442.645-14.063c-.205.084-.436.084-.64 0l-8.39-9.606c-.145-.142-.226-.336-.226-.537 0-.202.081-.395.226-.537.146-.163.356-.257.576-.257.221 0 .43.094.577.257 2.754 3.033 5.571 6.32 8.39 9.542.308.318.308.82 0 1.138-.166.063-.348.063-.513 0zm-440.167-10.941c-.407-.065-.696-.447-.66-.874.48-4.183 1.02-8.366 1.68-12.486.03-.2.135-.379.293-.496.158-.118.356-.164.547-.128.2.011.385.116.502.287.117.17.153.386.098.587-.6 3.995-1.14 8.178-1.62 12.485-.089.4-.449.667-.84.625zm424.138-8.07c-.175.076-.376.076-.551 0-2.757-2.925-5.636-5.97-8.454-8.656-.296-.3-.296-.774 0-1.074.319-.261.784-.261 1.102 0 2.818 2.865 5.698 5.969 8.454 8.715.296.3.296.774 0 1.074-.186.032-.377.012-.551-.06zm-420.722-15.929c-.206-.028-.39-.147-.504-.326-.115-.179-.15-.4-.096-.608.78-4.048 1.74-8.158 2.7-12.455.04-.217.169-.404.354-.512.185-.108.407-.126.606-.048.385.12.619.524.54.934-1.02 3.985-1.92 8.096-2.76 12.144.018.236-.065.47-.226.637-.162.168-.386.253-.614.234zm403.68-1.169c-.184.088-.4.088-.583 0-3.167-2.894-6.465-5.788-9.374-8.558-.146-.14-.228-.327-.228-.524 0-.196.082-.385.228-.523.325-.297.839-.297 1.164 0 3.103 2.77 6.465 5.665 9.374 8.558.312.31.312.799 0 1.109-.284.167-.649.142-.905-.062h.323zm-18.017-16.98c-.163.053-.338.053-.501 0-3.07-2.885-6.266-5.706-9.462-8.462-.273-.334-.273-.82 0-1.154.315-.31.813-.31 1.128 0l9.462 8.461c.273.334.273.82 0 1.154-.282.204-.658.204-.94 0h.313zm-379.406-5.877c-.37-.165-.572-.573-.48-.972 1.26-3.95 2.58-7.838 4.02-11.545.183-.351.581-.528.96-.425.187.068.338.21.417.394.08.184.081.393.003.578-1.38 3.646-2.7 7.534-3.96 11.423-.116.419-.546.664-.96.547zm359.529-10.017c-.159.061-.334.061-.493 0-3.199-2.565-6.152-5.191-9.598-7.635-.257-.289-.268-.72-.025-1.021.243-.301.669-.386 1.01-.2 3.138 2.504 6.152 5.07 9.598 7.696.139.137.217.324.217.519s-.078.381-.217.519c-.148.089-.32.131-.492.122zM169.446 173.93c-.19-.08-.337-.244-.405-.448-.069-.204-.05-.43.05-.619 1.658-3.828 3.494-7.593 5.39-11.233.073-.335.338-.585.661-.625.323-.039.635.141.779.45.143.31.088.68-.138.928-1.895 3.577-3.672 7.343-5.39 11.17-.077.185-.22.328-.399.4-.178.07-.375.062-.548-.023zM500.31 171h-.418c-3.17-2.576-6.46-5.151-9.689-7.598-.24-.284-.27-.709-.072-1.03.198-.32.573-.453.91-.322 3.289 2.51 6.518 5.086 9.748 7.662.135.145.211.342.211.547 0 .206-.076.403-.211.548-.132.125-.302.194-.479.193zm-20.015-14.048c-.14.064-.303.064-.442 0l-10.484-6.604c-.366-.212-.479-.661-.252-1.003.227-.342.707-.448 1.073-.236 3.58 2.123 7.116 4.305 10.61 6.546.267.288.267.715 0 1.003-.105.17-.294.281-.505.294zm-299.635-5.01h-.439c-.141-.133-.221-.316-.221-.506s.08-.373.221-.507c2.382-3.398 4.89-6.618 7.459-9.719.141-.134.333-.21.533-.21s.391.076.532.21c.162.136.255.332.255.537 0 .205-.093.4-.255.537-2.507 3.04-5.014 5.962-7.333 9.54-.203.18-.499.227-.752.119zM459.412 144h-.432c-3.458-2.28-7.038-4.493-10.619-6.512-.231-.151-.369-.421-.36-.709.008-.287.16-.547.4-.683.24-.136.531-.127.763.024 3.58 2.15 7.16 4.429 10.618 6.512.14.147.218.346.218.554 0 .208-.078.407-.218.554-.107.14-.262.234-.432.26h.062zM195.74 132.92c-.166.057-.348.057-.514 0-.145-.14-.227-.33-.227-.528s.082-.389.227-.528c3.02-3.046 6.427-6.215 9.384-8.64.323-.299.833-.299 1.156 0 .31.314.31.807 0 1.12-3.149 2.672-6.427 5.53-9.255 8.514-.247.164-.565.188-.835.062h.064zm241.63-1.92h-.36c-3.509-1.87-7.038-3.683-10.587-5.437-.211-.106-.362-.3-.409-.528-.047-.228.016-.464.17-.641.089-.177.25-.31.443-.365.193-.056.401-.03.574.072 3.47 1.696 7.058 3.567 10.587 5.437.135.132.211.31.211.497s-.076.366-.211.497c-.036.203-.17.377-.359.468h-.06zm-22.13-11h-.377c-3.7-1.847-7.589-3.694-11.414-5.41-.392-.206-.558-.701-.377-1.12.082-.194.235-.345.423-.42.189-.074.398-.066.58.023 3.89 1.781 7.715 3.563 11.478 5.476.184.086.327.246.398.445.07.198.063.418-.022.61-.13.237-.367.387-.627.396h-.063zm-200.386-3.002c-.253.017-.495-.099-.632-.303-.143-.137-.223-.322-.223-.516s.08-.38.223-.516c3.474-2.367 7.012-4.613 10.676-6.616.371-.13.786.014.987.34.2.328.131.746-.166.996-3.6 2.003-7.202 4.188-10.55 6.494-.075.055-.16.096-.252.121h-.063zm177.884-7.224c-3.721-1.44-7.503-2.88-11.225-4.2-.39-.141-.6-.563-.48-.96.183-.347.581-.52.96-.42 3.782 1.32 7.564 2.76 11.286 4.2.397 0 .72.323.72.72 0 .398-.323.72-.72.72l-.54-.06zM236.754 104c-.285-.023-.54-.178-.682-.416-.179-.378-.015-.824.372-1.01 3.717-1.605 7.558-3.15 11.523-4.517.188-.077.401-.076.589.003.188.079.333.228.402.413.132.377-.056.788-.434.95-3.903 1.368-7.743 2.913-11.398 4.518l-.372.059zm132.922-2.579c-4.033-1.2-8.067-2.28-12.1-3.3-.388-.137-.623-.51-.568-.9.042-.224.185-.419.391-.534.206-.116.454-.14.68-.066 3.971 1.02 8.068 2.1 12.165 3.36.417 0 .756.322.756.72 0 .398-.339.72-.756.72h-.568zm-109.898-5.307c-.337-.026-.628-.236-.748-.54-.12-.414.131-.844.56-.96 3.926-1.02 8.038-1.92 12.462-2.7.199-.055.412-.027.589.075s.302.27.346.465c.077.412-.198.81-.623.9-4.112.78-8.162 1.68-12.088 2.7l-.498.06zm86.336-.255c-4.118-.84-8.235-1.62-12.477-2.22-.426-.09-.701-.488-.624-.9.03-.192.14-.365.305-.478.164-.113.37-.157.568-.122 3.993.66 8.173 1.38 12.477 2.28.426.09.701.487.624.9-.093.376-.479.615-.873.54zm-24.8-4.644c-4.058-.42-8.177-.72-12.295-.9-.326.091-.676-.029-.872-.3-.196-.27-.196-.63 0-.9.196-.271.546-.39.872-.3 4.057 0 8.237.48 12.294.9.208.014.4.113.53.273.128.16.182.366.146.567-.05.342-.326.61-.676.66zm-37.55-.076c-.193.017-.385-.045-.529-.171-.143-.126-.224-.303-.223-.49-.038-.194.018-.395.151-.546.134-.15.331-.237.538-.233 4.077-.42 8.279-.72 12.544-.84.402.028.722.334.752.72.018.2-.053.4-.197.548-.143.148-.344.232-.555.232-4.202 0-8.404.36-12.544.78h.063z"/>
        <use fill="#17E4B2" fill-rule="nonzero" opacity=".6" xlink:href="#prefix__a"/>
        <path fill="#F5F9FD" fill-rule="nonzero" d="M214.076 580.262c8.55 17.373 11.686 39.383-5.475 46.432-19.19 7.913-49.822-4.823-58.68-33.82-5.72-18.547-3.751-44.39 12.302-54.345 13.102-8.532 41.642 20.465 51.853 41.733z"/>
        <path fill="#1B435E" fill-rule="nonzero" d="M652.282 92.61c-11.671-9.933-21.008-24.696-11.11-34.63 9.896-9.933 36.599-10.753 52.284 7.382 9.99 11.574 16.9 30.529 9.337 42.102-6.723 9.842-35.946-2.734-50.511-14.854z" opacity=".3"/>
        <g fill-rule="nonzero" opacity=".7" transform="translate(60)">
            <path fill="#F6F7F9" d="M0.501 272.353H177.69V370.834H0.501z"/>
            <ellipse cx="19.012" cy="18.901" fill="#17E4B2" opacity=".2" rx="18.446" ry="18.347" transform="translate(14.846 297.17)"/>
            <path fill="#17E4B2" d="M0.566 0.849H80.93900000000001V5.8790000000000004H0.566z" opacity=".2" transform="translate(74.23 293.478)"/>
            <path fill="#17E4B2" d="M0.566 0.748H41.514V5.7780000000000005H0.566z" opacity=".2" transform="translate(74.23 306.398)"/>
            <path fill="#17E4B2" d="M0.566 0.646H66.789V5.676H0.566z" opacity=".2" transform="translate(74.23 319.318)"/>
            <path fill="#17E4B2" d="M0.566 0.545H80.93900000000001V5.575H0.566z" opacity=".2" transform="translate(74.23 332.239)"/>
            <path fill="#17E4B2" d="M0.251 0.591H22.492V10.309H0.251z" opacity=".2" transform="translate(132.688 350.697)"/>
            <path fill="#F6F7F9" d="M149.677 0.185H326.866V98.666H149.677z"/>
            <ellipse cx="18.808" cy="18.984" fill="#17E4B2" opacity=".2" rx="18.446" ry="18.347" transform="translate(164.236 24.918)"/>
            <path fill="#17E4B2" d="M0.362 0.009H80.735V5.039000000000001H0.362z" opacity=".2" transform="translate(223.62 22.15)"/>
            <path fill="#17E4B2" d="M0.362 0.831H41.31V5.861000000000001H0.362z" opacity=".2" transform="translate(223.62 34.147)"/>
            <path fill="#17E4B2" d="M0.362 0.729H66.585V5.759H0.362z" opacity=".2" transform="translate(223.62 47.067)"/>
            <path fill="#17E4B2" d="M0.362 0.637H80.735V5.667H0.362z" opacity=".2" transform="translate(223.62 59.988)"/>
            <path fill="#17E4B2" d="M0.037 0.674H22.278V10.392H0.037z" opacity=".2" transform="translate(282.077 78.445)"/>
            <path fill="#F6F7F9" d="M208.653 165.529H385.842V264.01H208.653z"/>
            <ellipse cx="19.319" cy="19.141" fill="#17E4B2" opacity=".2" rx="18.446" ry="18.347" transform="translate(222.692 190.114)"/>
            <path fill="#17E4B2" d="M0.881 0.166H81.254V5.196000000000001H0.881z" opacity=".2" transform="translate(282.077 187.346)"/>
            <path fill="#17E4B2" d="M0.881 0.065H41.829V5.095000000000001H0.881z" opacity=".2" transform="translate(282.077 200.266)"/>
            <path fill="#17E4B2" d="M0.881 0.886H67.104V5.916H0.881z" opacity=".2" transform="translate(282.077 212.264)"/>
            <path fill="#17E4B2" d="M0.881 0.784H81.254V5.814H0.881z" opacity=".2" transform="translate(282.077 225.184)"/>
            <path fill="#17E4B2" d="M0.557 0.831H22.798V10.549H0.557z" opacity=".2" transform="translate(340.534 243.642)"/>
        </g>
        <path fill="url(#prefix__b)" fill-rule="nonzero" d="M0 59H297V227H0z"/>
        <path fill="#F6F7F9" fill-rule="nonzero" d="M1 60H294V224H1z"/>
        <circle cx="30.728" cy="30.509" r="30.008" fill="#17E4B2" fill-rule="nonzero" opacity=".2" transform="translate(26 103)"/>
        <path fill="#17E4B2" fill-rule="nonzero" d="M0.85 0.396H133.575V8.523000000000001H0.85z" opacity=".2" transform="translate(123 97)"/>
        <path fill="#17E4B2" fill-rule="nonzero" d="M0.859 0.432H69.142V8.559000000000001H0.859z" opacity=".2" transform="translate(123 118)"/>
        <path fill="#17E4B2" fill-rule="nonzero" d="M0.851 0.459H110.306V8.586H0.851z" opacity=".2" transform="translate(123 140)"/>
        <path fill="#17E4B2" fill-rule="nonzero" d="M0.85 0.486H133.575V8.613000000000001H0.85z" opacity=".2" transform="translate(123 161)"/>
        <path fill="#2BCDCC" fill-rule="nonzero" d="M220 191H257V207H220z"/>
        <path fill="url(#prefix__c)" fill-rule="nonzero" d="M207 286H490V444H207z"/>
        <path fill="#F6F7F9" fill-rule="nonzero" d="M210 287H489V443H210z"/>
        <ellipse cx="29.944" cy="29.242" fill="#17E4B2" fill-rule="nonzero" opacity=".2" rx="29.4" ry="28.91" transform="translate(233 327)"/>
        <path fill="#17E4B2" fill-rule="nonzero" d="M0.497 0.495H126.236V8.225999999999999H0.497z" opacity=".2" transform="translate(327 321)"/>
        <path fill="#17E4B2" fill-rule="nonzero" d="M0.502 0.423H65.201V8.154H0.502z" opacity=".2" transform="translate(326 341)"/>
        <path fill="#17E4B2" fill-rule="nonzero" d="M0.502 0.38H105.172V8.97H0.502z" opacity=".2" transform="translate(326 361)"/>
        <path fill="#17E4B2" fill-rule="nonzero" d="M0.497 0.29H126.236V8.879999999999999H0.497z" opacity=".2" transform="translate(327 381)"/>
        <path fill="#2BCDCC" fill-rule="nonzero" d="M0.332 0.859H35.234V16.546H0.332z" opacity=".5" transform="translate(418 410)"/>
        <ellipse cx="718" cy="637" fill="#17E4B2" fill-rule="nonzero" opacity=".1" rx="38" ry="5"/>
        <ellipse cx="420" cy="686.5" fill="#17E4B2" fill-rule="nonzero" opacity=".1" rx="27" ry="3.5"/>
        <path fill="#2BCDCC" fill-rule="nonzero" d="M733.211 631.227c1.75-1.388 3.03-3.265 3.668-5.383.474-2.129-.455-4.648-2.54-5.476-2.331-.874-4.824.716-6.71 2.315-1.886 1.6-4.056 3.43-6.53 3.087 2.591-2.297 3.758-5.762 3.071-9.12-.102-.686-.398-1.33-.853-1.86-1.289-1.357-3.64-.771-5.184.298-4.928 3.393-6.302 9.966-6.33 15.87-.503-2.13-.076-4.352-.095-6.508-.02-2.157-.626-4.649-2.502-5.783-1.16-.63-2.466-.95-3.791-.93-2.218-.083-4.682.14-6.198 1.73-1.895 1.97-1.393 5.28.246 7.437 1.64 2.157 4.123 3.542 6.416 5.039 1.835 1.073 3.4 2.538 4.578 4.285.138.247.252.505.341.772h13.884c3.093-1.543 5.961-3.484 8.53-5.773zM428.243 674.178c1.74-1.388 3.009-3.26 3.64-5.367.464-2.133-.465-4.636-2.54-5.46-2.332-.872-4.825.704-6.71 2.308-1.887 1.603-4.057 3.411-6.531 3.077 2.588-2.292 3.754-5.745 3.07-9.094-.107-.682-.401-1.323-.852-1.854-1.299-1.353-3.64-.77-5.194.297-4.929 3.393-6.303 9.938-6.332 15.834-.492-2.123-.075-4.339-.085-6.49-.01-2.15-.625-4.635-2.502-5.766-1.16-.625-2.467-.944-3.791-.927-2.218-.074-4.682.14-6.199 1.724-1.895 1.975-1.393 5.275.247 7.417 1.64 2.141 4.123 3.522 6.407 5.024 1.859 1.083 3.44 2.567 4.625 4.339.136.243.25.497.341.76h13.876c3.099-1.555 5.968-3.514 8.53-5.822z"/>
        <path fill="url(#prefix__d)" fill-rule="nonzero" d="M699.936 252.714c-12.086-.24-22.754-8.845-28.797-19.28-1.583-2.493-2.578-5.315-2.91-8.253.042-.67.153-1.333.33-1.98.389-.978.697-1.987.922-3.016.05-.411.05-.828 0-1.24v-.055c.295-2.239-1.013-4.394-2.653-5.94-1.64-1.544-3.639-2.664-5.324-4.153-5.196-4.58-6.771-11.926-6.872-18.92v-.37c.055-2.988.294-5.995.267-8.992.041-1.703-.033-3.406-.221-5.098-.498-4.237-2.1-8.548-5.417-11.25-8.65-7.04-23.195.287-32.14-6.374-2.183-1.62-3.943-4.034-6.577-4.626-2-.481-4.072.166-6.016.814-6.596 2.183-13.947 5.06-16.526 11.5-1.474 3.7-1.06 7.854-2.413 11.574-.922 2.488-2.552 4.625-3.768 6.994-1.003 1.776-1.491 3.798-1.41 5.837-.102 1.056.047 2.122.433 3.109.456 1.18 1.19 2.23 2.138 3.062-.347.734-.78 1.424-1.29 2.054-1.686 2.072-4.274 3.553-6.025 5.551-3.242 3.775-3.122 8.91-1.52 13.35 1.603 4.44 4.477 8.484 6.449 12.804.856 1.85 1.547 3.978.654 5.847-.617 1.296-1.907 2.276-2.911 3.396-1.47 1.657-2.392 3.733-2.635 5.94-19.74 4.523-19.75 20.445-19.75 20.445l-10.649 26.96s-1.704 4.533-3.685 10.518L529 300.656l8.714 14.747c-1.667 6.004-2.837 11.573-2.45 14.367 0 0-3.915 18.504 3.05 21.732l15.383 6.948c.664.405 1.38.716 2.128.925l.626.278c.454.223.984.223 1.437 0h.249c.313.032.63-.012.921-.13.346-.181.617-.48.765-.841.003-.028.003-.056 0-.084l4.606-1.341 3.906 4.626c1.76 1.24 3.482 2.322 5.168 3.293l-6.007 60.32s-.976 80.175-3.915 98.428c-1.096 6.763-1.105 11.37-.69 14.506l-.111.204c.728 5.153 2.616 6.17 2.616 6.17v-.073l.11.074c.89-2.34 1.946-4.612 3.16-6.8v1.314c-.055 6.809-.267 16.329-.92 22.518-1.198 10.528 3.048 45.407 3.048 45.407l1.465 31.733c.238 5.383-1.005 10.729-3.593 15.45-3.473 6.337-7.996 15.246-8.29 19.197-.014.215-.014.432 0 .647l-7.701 9.002s-2.948 4.561 3.684 6.402c3.565 1 9.728 0 14.666-1.175 4.445-1.024 7.6-4.994 7.609-9.575 1.272-4.371 3.408-8.44 6.282-11.962l1.244 7.3 8.29 2.062 1.06-20.01c.43-1.127.625-2.33.57-3.535 1.631-14.229-3.84-12.952-3.84-12.952.138.134.232.309.267.5-.092-.158-.185-.324-.267-.49-3.363-6.662-1.714-17.579-1.714-17.579s4.357-31.714 5.886-40.087c1.078-5.912.636-25.285.277-36.137 0-.453 0-.925-.046-1.304 12.832-.167 28.557-.61 39.61-1.684v1.314l-2.044 74.938c-.138 4.774-1.1 9.489-2.847 13.932 0 .084-.073.167-.101.25-2.446 6.26-3.84 12.885-4.127 19.604l-.921 23.814v.657c-1.649.638-4.247 2.48-4.32 7.817-.111 7.818 13.605 5.209 13.605 5.209 13.717 0 13.818-14.34 13.818-14.34s.442-13.146 1.087-21.945c.645-8.798-2.063-6.855-2.063-6.855l-.203 24.98v.193-21.935l.212-3.183v-.092l.046-.676 1.704-25.811s12.63-43.02 14.592-51.273c1.39-5.856.81-23.526.35-33.305 0-.454 0-.88-.055-1.296 3.906-.351 7.37-.388 8.76-.388h.636s-.654-69.09-2.285-95.162c-1.63-26.07-4.246-49.866-10.787-57.036-3.943-4.33-9.442-17.707-13.182-27.616 7.8 3.393 15.894 6.056 24.181 7.957 20.69 4.348 17.862-13.693 17.862-13.693l-2.1-34.11h.138c-.076-8.937-.84-17.854-2.285-26.673-1.087-6.763-2.763-13.757-5.324-19.428 2.247-.86 4.458-1.85 6.632-2.776 5.62-2.488 11.976-6.022 12.768-12.11h-.276c.104-.425.174-.858.212-1.295zm-128.248 49.348c.055 3.525-.083 9.63-.286 16.394l-6.568-8.808 6.587-10.732.267 3.146zm90.792 31.187l-10.944-3.534c1.943-3.04 4.21-5.856 6.762-8.4l.921-.926-.34.074.533-.48.314-.075-.507.481.599-.12c.66 2.761 1.936 5.336 3.73 7.53 3.906 4.368-1.105 5.45-1.105 5.45h.037z"/>
        <path fill="#0F2636" fill-rule="nonzero" d="M596 650L594.73 674 586.696 671.986 585 662z"/>
        <path fill="#EFB7B9" fill-rule="nonzero" d="M626 676.411L638.505 679l9.25-8.192v-23.07l.203-3.153v-.092l.046-.666 1.684-25.612s12.505-42.69 14.447-50.854c1.378-5.816.805-23.356.352-33.046-.185-3.976-.352-6.63-.352-6.63l-27.6-6.685-.583 21.266-2.016 74.34c-.138 4.737-1.095 9.414-2.83 13.823l-.093.25c-2.403 6.228-3.757 12.811-4.005 19.482l-.925 23.624v.657L626 676.41z"/>
        <path fill="#000" fill-rule="nonzero" d="M647.475 644.15L647.475 644.86 647.475 644.86 647.525 644.14zM626 677.45l12.071 2.55 8.929-8.07V670c-.056.872-.54 1.657-1.286 2.086l-.125.072c-4.158 2.246-8.87 3.196-13.553 2.733l-4.715-.41c-.425.048-.842.152-1.24.31v.646L626 677.45z" opacity=".1"/>
        <path fill="#16374D" fill-rule="nonzero" d="M646.086 672.122l.132-.073c.85-.46 1.375-1.329 1.372-2.271l.208-24.602s2.762-1.896 2.1 6.75c-.663 8.647-1.107 21.57-1.107 21.57s-.104 14.096-14 14.096c0 0-13.894 2.556-13.79-5.129.104-7.684 5.741-8.005 5.741-8.005l4.985.421c4.961.458 9.953-.5 14.359-2.757z"/>
        <path fill="#EFB7B9" fill-rule="nonzero" d="M560.014 671.688c.33 5.63 17.095 2.378 17.095 2.378l11.283-21.653s9.403-7.152 4.702-13.431c-.256-.34-.489-.698-.696-1.069v-.055c-.104-.168-.188-.335-.282-.511-3.385-6.633-1.721-17.51-1.721-17.51s4.382-31.583 5.924-39.943c1.081-5.898.64-25.21.273-36.022-.142-4.487-.273-7.515-.273-7.515L568.467 529v8.202c-.056 6.781-.263 16.274-.94 22.442-1.204 10.506 3.075 45.266 3.075 45.266l1.476 31.638c.21 5.355-1.068 10.666-3.695 15.354-3.498 6.317-8.05 15.207-8.369 19.145-.019.213-.019.428 0 .641z"/>
        <path fill="#000" fill-rule="nonzero" d="M560 671.696c.325 5.616 16.898 2.372 16.898 2.372l11.153-21.602s9.295-7.136 4.648-13.4c-.253-.34-.483-.696-.688-1.066-.149 3.271-3.718 11.436-3.718 11.436s-9.211 18.377-12.083 22.584c-2.872 4.207-15.662-.778-16.136-.927-.04.199-.066.4-.074.603z" opacity=".1"/>
        <path fill="#16374D" fill-rule="nonzero" d="M591.88 638.029s5.434-1.26 3.82 12.883c.12 3.272-1.526 6.358-4.312 8.085-3.886 2.445-9.897 7.696-12.93 17.912.005 4.542-3.122 8.49-7.55 9.53-4.906 1.14-11.027 2.149-14.57 1.158-6.594-1.852-3.71-6.363-3.71-6.363l7.568-8.965s13.19 5.186 16.11.972c2.922-4.214 12.058-22.57 12.058-22.57s5.166-11.457 3.515-12.642z"/>
        <path fill="#000" fill-rule="nonzero" d="M636.592 524L636 545c7.52-.703 12.822-1.69 13.743-3.068 1.965-2.967 9.147-4.227 15.257-4.739-.188-3.926-.357-6.546-.357-6.546L636.593 524zM569 540.674c.692-1.348 1.703-2.52 2.95-3.424 2.843-1.521 2.537 9.725 2.537 9.725s9.43.087 21.513-.061c-.135-4.207-.262-7.031-.262-7.031L569.01 533s.036 3.207-.009 7.674z" opacity=".1"/>
        <path fill="#1B435E" fill-rule="nonzero" d="M565.902 543.995s3.249-8.762 6.163-10.372c2.914-1.61 2.608 10.354 2.608 10.354s71.41.647 74.982-4.858c3.574-5.505 24.345-5.172 24.345-5.172s-.65-68.605-2.274-94.492c-1.624-25.888-4.223-49.509-10.71-56.624-4.205-4.626-10.21-19.512-13.866-29.45-2.014-5.43-3.342-9.381-3.342-9.381l-68.16 3.886-.557 5.496-7.24 72.167s-.928 79.568-3.898 97.721c-2.97 18.153 1.95 20.725 1.95 20.725z"/>
        <g fill="#000" fill-rule="nonzero" opacity=".1">
            <path d="M81.15 195.368c3.552-5.502 24.263-5.178 24.263-5.178s-.647-68.682-2.266-94.6c-1.619-25.916-4.209-49.564-10.675-56.687-4.19-4.631-10.175-19.535-13.82-29.483-1.683-4.566-2.885-8.086-3.228-9.096l5.273-.296s1.323 3.955 3.33 9.392c3.7 9.948 9.63 24.87 13.82 29.483 6.475 7.123 9.055 30.77 10.674 56.688 1.619 25.917 2.23 94.553 2.23 94.553s-20.702-.333-24.254 5.224c-3.043 4.706-55.417 4.919-70.624 4.882 19.499-.093 62.502-.676 65.277-4.882zM3.792 189.81c1.314-.731 1.97 1.297 2.295 3.706-1.174 2.137-2.197 4.353-3.062 6.632 0 0-1.85-1.01-2.59-6.132 1.026-1.825 2.22-3.566 3.357-4.205z" transform="translate(563 344)"/>
        </g>
        <path fill="#185C8A" fill-rule="nonzero" d="M586.907 176.79c-4.825 6.445.057 15.593-5.12 21.853-1.709 2.07-4.34 3.548-6.125 5.572-3.306 3.771-3.173 8.88-1.549 13.31 1.625 4.43 4.56 8.451 6.573 12.76.874 1.858 1.577 3.966.674 5.824-.626 1.29-1.9 2.266-2.963 3.39-3.324 3.631-3.42 8.684-1.634 12.956s5.215 7.978 8.549 11.582c1.33 1.43 3.01 3 5.224 2.963 1.166-.093 2.292-.456 3.286-1.06 7.879-4.055 13.856-10.924 16.688-19.178 2.395-7.765 1.89-16.11-1.424-23.544-2.85-6.567-7.485-12.864-7.523-19.81 0-5.508 2.897-10.765 3.41-16.254.627-6.66-3.41-17.247-11.635-20.154.541 4.3-3.942 6.52-6.43 9.79z"/>
        <path fill="#000" fill-rule="nonzero" d="M638 411c-9.306.519-18.063 4.717-26.208 9.473-8.145 4.755-16.025 10.184-24.792 13.527M633 433c-9.273.902-17.914 5.161-24.343 11.997-2.274 2.446-4.235 5.19-6.61 7.534-3.642 3.588-8.136 6.16-13.047 7.469M634 450c-7.469 2.107-14.23 6.249-19.55 11.979-1.435 1.57-2.76 3.263-4.176 4.825-7.756 8.415-18.703 12.95-29.274 17.196" opacity=".1"/>
        <path fill="#CC9C9E" fill-rule="nonzero" d="M634.548 216.458c.212 7.604.864 15.19 1.953 22.719.873 5.366 2.12 10.144 3.904 12.266 5.197 6.217-25.36 14.557-25.36 14.557L597 251.976s14.307-13.248 7.642-26.178c-6.666-12.93 29.906-9.34 29.906-9.34z"/>
        <path fill="#000" fill-rule="nonzero" d="M576 353h71c-1.984-5.789-3.292-10-3.292-10l-67.16 4.142L576 353z" opacity=".1"/>
        <path fill="#1B435E" fill-rule="nonzero" d="M570.046 351h76.95c-2.16-7.702 0-14.84 3.087-20.317 2.157-3.848 4.872-7.358 8.056-10.418l.529-.47 26.886-5.939 1.446-.314s.213-48.66-17.077-55.337c-17.29-6.677-27.674-15.7-27.674-15.7l-23.771 7.315-17.513-8.82c-5.619 6.03-20.536 3.694-20.536 3.694C556 247.464 556 265.796 556 265.796s14.268 33.164 15.353 33.164c1.085 0-1.307 52.04-1.307 52.04z"/>
        <path fill="#000" fill-rule="nonzero" d="M597 321s-15.669-3.637-21-10M675.809 302L657 317.386c.137 1.215.345 2.422.624 3.614l.547-.488L686 314.364 675.809 302zM626 345.891s4.049 2.212 10.244 5.109h10.62c-2.193-7.622 0-14.686 3.136-20.105L631.235 325c6.403 5.757-5.235 20.891-5.235 20.891z" opacity=".1"/>
        <path fill="#1B435E" fill-rule="nonzero" d="M566.253 260l-10.747 5.847-10.535 26.873s-10.96 29.475-9.89 37.283c0 0-3.862 18.414 3.014 21.668l17.936 8.18c.648.296 1.411.143 1.897-.381s.587-1.302.25-1.934c-2.552-4.88-5.354-12.502-.92-16.732l-5.162-10.829 18.682-30.749L577 288.648 566.253 260z"/>
        <path fill="#000" fill-rule="nonzero" d="M591.111 314.47c.938 3.873 4.146 9.824 14.724 12.071l11.648 9.533 12.352 5.641 5.027 2.285L637 328.544l-4.849-2.66-5.627-3.094s-12.745-23.166-32.937-13.379c-1.91.891-2.942 2.998-2.476 5.059z" opacity=".1"/>
        <path fill="#EFB7B9" fill-rule="nonzero" d="M591.11 314.256c.937 3.769 4.145 9.56 14.724 11.746l11.649 9.286 12.352 5.489 5.027 2.223L637 327.96l-4.849-2.58-5.627-3.019s-12.746-22.532-32.939-13.018c-1.906.866-2.937 2.911-2.476 4.913z"/>
        <circle cx="614" cy="208" r="28" fill="#000" fill-rule="nonzero" opacity=".1"/>
        <circle cx="614" cy="208" r="28" fill="#EFB7B9" fill-rule="nonzero"/>
        <path fill="#215578" fill-rule="nonzero" d="M631.38 267L623 250.407s12.329-5.04 13.223-10.893c.894-5.852 11.808 6.853 9.442 11.063C643.3 254.787 631.381 267 631.381 267z" opacity=".1"/>
        <path fill="#215578" fill-rule="nonzero" d="M631.38 266L623 249.406s12.329-5.04 13.223-10.892c.894-5.853 11.808 6.862 9.442 11.062-2.365 4.2-14.284 16.424-14.284 16.424z"/>
        <path fill="#F6F8FB" fill-rule="nonzero" d="M562.537 307.027L609 369.418s-17.117 9.286-40.739-7.363l-10.222-12.119L529 301l33.537 6.027z"/>
        <path fill="#EFB7B9" fill-rule="nonzero" d="M554.144 341.89l4.265-.111s26.06-24.772 32.453-12.24c6.393 12.534-16.227 24.222-16.227 24.222l-6.88 3.67-9.018 2.569-5.737-7.542 1.144-10.569z"/>
        <path fill="#000" fill-rule="nonzero" d="M559.523 354.782c.4 1.406.78 2.956.115 4.263-.154.352-.434.641-.79.816-.3.119-.627.163-.95.127-2.29-.187-4.421-1.195-5.963-2.82-1.521-1.615-2.822-3.407-3.87-5.334-1.18-1.95-2.406-4.127-1.978-6.349.466-2.43 2.739-4.118 4.907-5.442 4.383-2.766 4.488.454 5.487 4.01l3.042 10.729z" opacity=".1"/>
        <path fill="#215578" fill-rule="nonzero" d="M559.523 354.782c.4 1.406.78 2.956.115 4.263-.154.352-.434.641-.79.816-.3.119-.627.163-.95.127-2.29-.187-4.421-1.195-5.963-2.82-1.521-1.615-2.822-3.407-3.87-5.334-1.18-1.95-2.406-4.127-1.978-6.349.466-2.43 2.739-4.118 4.907-5.442 4.383-2.766 4.488.454 5.487 4.01l3.042 10.729z"/>
        <path fill="#000" fill-rule="nonzero" d="M571 299.768L574 296 571.373 303zM630 340.855l4.911 2.145L637 328.49l-4.737-2.49c3.234 3.584.403 10.239-2.263 14.855zM650 322.92s-16.151.836-23-2.92" opacity=".1"/>
        <g fill="#000" fill-rule="nonzero" opacity=".1">
            <path d="M69.024 89.827c2.173-3.853 4.904-7.368 8.105-10.434.768-.48 1.564-.912 2.385-1.295l25.154-5.125 1.453-.314s.224-48.739-17.16-55.426c-9.742-3.69-18.876-8.799-27.101-15.161l1.91-.583s10.425 9.056 27.8 15.725c17.374 6.67 17.179 55.445 17.179 55.445h-2.61l-25.75 4.893-1.453 1.378c-3.228 3.206-5.996 6.839-8.226 10.795-3.399 6.274-4.172 13.625-2.152 20.461h-2.664c-2.143-7.715.065-14.865 3.13-20.36zM.373 3.811c.419-.055.82-.12 1.248-.167 1.763.248 3.54.393 5.32.435-2.193.06-4.388-.03-6.568-.268zM37.246 8.815L21.334.851c.33-.258.642-.54.932-.842l16.601 8.325-1.62.481z" transform="translate(578 243)"/>
        </g>
        <path fill="#1B435E" fill-rule="nonzero" d="M675.359 301l10.397 13.083 2.12 35.512s2.729 18.083-17.393 13.728C650.36 358.968 627 345.455 627 345.455s11.244-15.476 5.094-21.354l28.846 9.588s4.876-1.093 1.055-5.448c-3.82-4.355-4.493-12.205-4.493-12.205L675.359 301z"/>
        <path fill="#000" fill-rule="nonzero" d="M681 338l6 7c-3.146-.98-5.473-3.694-6-7zM671 337L680 348.895 675.505 350zM580.466 194.427c-1.005-2.434-.242-5.248.931-7.59 1.173-2.342 2.857-4.47 3.723-6.952 1.35-3.702.93-7.849 2.401-11.496 2.578-6.386 9.903-9.256 16.473-11.412 1.936-.64 4.002-1.287 5.994-.815 2.625.63 4.384 3.027 6.515 4.628 8.916 6.609 23.407-.666 32.025 6.331 3.304 2.675 4.905 6.97 5.398 11.172.494 4.203 0 8.47-.046 12.71-.14 7.404 1.247 15.531 6.84 20.446 1.685 1.481 3.667 2.601 5.305 4.128 1.638 1.527 2.932 3.703 2.644 5.896-.232 1.02-.543 2.02-.931 2.99-1.117 3.87.54 7.97 2.56 11.46 6.03 10.366 16.65 18.91 28.702 19.15-.81 6.045-7.12 9.553-12.723 12.033-7.138 3.157-14.64 6.257-22.439 5.86-7.799-.399-15.933-5.36-17.32-12.96-.475-2.619-.41-5.83-2.7-7.21-1.377-.833-3.163-.62-4.653-1.25-2.15-.925-3.22-3.276-3.927-5.498-1.453-4.566-2.234-9.317-2.318-14.106-.093-5.674.67-11.866-2.568-16.54-2.997-4.323-8.32-6.48-11.774-10.497-3.183-3.703-6.654-8.127-11.875-8.83-7.018-1.01-21.965 8.756-26.237-1.648z" opacity=".1"/>
        <path fill="#185C8A" fill-rule="nonzero" d="M580.466 192.427c-1.005-2.434-.242-5.248.931-7.59 1.173-2.342 2.857-4.47 3.723-6.952 1.35-3.702.93-7.849 2.401-11.496 2.578-6.386 9.903-9.256 16.473-11.412 1.936-.64 4.002-1.287 5.994-.815 2.625.63 4.384 3.027 6.515 4.628 8.916 6.618 23.407-.666 32.025 6.331 3.304 2.685 4.905 6.97 5.398 11.172.494 4.203 0 8.47-.046 12.71-.14 7.404 1.247 15.53 6.84 20.446 1.685 1.48 3.667 2.6 5.305 4.128 1.638 1.527 2.932 3.703 2.644 5.896-.233 1.022-.544 2.025-.931 3-1.117 3.86.54 7.969 2.56 11.45 6.03 10.366 16.65 18.91 28.702 19.15-.81 6.044-7.12 9.553-12.723 12.033-7.138 3.166-14.64 6.257-22.439 5.86-7.799-.399-15.933-5.36-17.32-13.006-.475-2.62-.41-5.831-2.7-7.21-1.377-.833-3.163-.62-4.653-1.25-2.15-.925-3.22-3.276-3.927-5.498-1.453-4.566-2.234-9.318-2.318-14.106-.093-5.674.67-11.867-2.568-16.541-2.997-4.323-8.32-6.48-11.774-10.496-3.183-3.703-6.654-8.127-11.875-8.83-7.018-.917-21.965 8.802-26.237-1.602z"/>
        <path fill="#000" fill-rule="nonzero" d="M601.374 264L617 250.853s-10.696-6.01-11.974-11.137c-1.278-5.127-9.834 2.432-8.964 7.034.87 4.6 5.312 17.25 5.312 17.25z" opacity=".1"/>
        <path fill="#215578" fill-rule="nonzero" d="M601.374 263L617 249.853s-10.696-6.01-11.974-11.137c-1.278-5.127-9.834 2.432-8.964 7.034.87 4.6 5.312 17.25 5.312 17.25z"/>
        <circle cx="617.5" cy="259.5" r="1.5" fill="#000" fill-rule="nonzero" opacity=".1"/>
        <circle cx="617.5" cy="266.5" r="1.5" fill="#000" fill-rule="nonzero" opacity=".1"/>
        <circle cx="617.5" cy="274.5" r="1.5" fill="#000" fill-rule="nonzero" opacity=".1"/>
        <g fill="#000" fill-rule="nonzero" opacity=".1">
            <path d="M7.19 10.838C8.457 7.38 8.187 3.505 9.368.028c-.541.77-.994 1.6-1.348 2.472-1.47 3.634-1.06 7.785-2.4 11.465 0 .065-.066.139-.093.213.656-1.06 1.213-2.179 1.665-3.34zM108.39 97.757c-7.134 3.155-14.632 6.236-22.437 5.84-7.804-.397-15.916-5.341-17.302-12.96-.474-2.611-.41-5.812-2.698-7.186-1.376-.83-3.162-.618-4.65-1.245-2.159-.923-3.22-3.266-3.926-5.48-1.454-4.556-2.235-9.297-2.317-14.076-.093-5.654.66-11.825-2.567-16.483-2.995-4.308-8.316-6.457-11.767-10.46-3.191-3.69-6.652-8.1-11.88-8.8-7.162-.923-22.111 8.763-26.372-1.605-.683-1.96-.586-4.104.27-5.996-.307.517-.604 1.033-.874 1.559-1.21 2.334-1.972 5.138-.93 7.564 4.27 10.368 19.209.636 26.38 1.605 5.22.7 8.69 5.138 11.88 8.8 3.451 3.966 8.763 6.152 11.758 10.469 3.237 4.612 2.484 10.83 2.577 16.474.076 4.775.854 9.514 2.307 14.067.707 2.205 1.777 4.612 3.925 5.48 1.489.617 3.275.414 4.652 1.245 2.279 1.365 2.223 4.612 2.688 7.176 1.386 7.62 9.516 12.572 17.312 12.97 7.795.396 15.302-2.694 22.428-5.85 5.134-2.259 10.855-5.404 12.39-10.551-2.493 3.385-6.846 5.682-10.846 7.443z" transform="translate(580 164)"/>
        </g>
    </g>
</svg>
